<svg xmlns="http://www.w3.org/2000/svg" width="256" height="256" viewBox="0 0 256 256">
  <g fill="none" fill-rule="evenodd" transform="translate(3 30)">
    <path fill="#E1F2FF" d="M20,195.558 C20,138.365 66.364,92 123.558,92 C180.75,92 227.116,138.365 227.116,195.558 L20,195.558 Z"/>
    <g transform="translate(16 185)">
      <path fill="#FFF" d="M0.9776,0.9247 L36.9776,0.9247"/>
      <path stroke="#5E63B6" stroke-linecap="round" stroke-linejoin="round" stroke-width="2" d="M0.9776,0.9247 L36.9776,0.9247"/>
    </g>
    <g transform="translate(192 185)">
      <path fill="#FFF" d="M0.3198,0.9247 L44.3198,0.9247"/>
      <path stroke="#5E63B6" stroke-linecap="round" stroke-linejoin="round" stroke-width="2" d="M0.3198,0.9247 L44.3198,0.9247"/>
    </g>
    <path fill="#9452BA" d="M161.543754,185.511 L166.522754,185.511 C168.234754,185.511 169.787754,184.464 170.407754,182.867 C172.175754,178.317 171.734754,174.136 171.945754,170.56 C172.337754,163.935 171.302754,160.54 170.314754,155 L162.840754,155.173 C162.840754,155.173 163.476754,157.926 163.899754,166.184 C164.030754,168.739 159.808754,179.003 160.006754,184.037 C160.038754,184.863 160.716754,185.511 161.543754,185.511"/>
    <path stroke="#52267D" d="M161.543754,185.511 L166.522754,185.511 C168.234754,185.511 169.787754,184.464 170.407754,182.867 C172.175754,178.317 171.734754,174.136 171.945754,170.56 C172.337754,163.935 171.302754,160.54 170.314754,155 L162.840754,155.173 C162.840754,155.173 163.476754,157.926 163.899754,166.184 C164.030754,168.739 159.808754,179.003 160.006754,184.037 C160.038754,184.863 160.716754,185.511 161.543754,185.511 Z"/>
    <path fill="#9452BA" d="M147.242496,161.817 L141.230496,155 L137.518496,155.147 C137.518496,155.147 136.998496,160.818 136.784496,163.193 C136.408496,167.379 134.674496,175.581 133.608496,179.18 C133.262496,180.351 133.060496,181.445 133.004496,182.437 C132.910496,184.107 134.303496,185.486 135.974496,185.486 L140.386496,185.486 C142.955496,185.486 145.239496,183.772 145.871496,181.281 C147.837496,173.527 147.242496,161.817 147.242496,161.817"/>
    <path stroke="#52267D" d="M147.242496,161.817 L141.230496,155 L137.518496,155.147 C137.518496,155.147 136.998496,160.818 136.784496,163.193 C136.408496,167.379 134.674496,175.581 133.608496,179.18 C133.262496,180.351 133.060496,181.445 133.004496,182.437 C132.910496,184.107 134.303496,185.486 135.974496,185.486 L140.386496,185.486 C142.955496,185.486 145.239496,183.772 145.871496,181.281 C147.837496,173.527 147.242496,161.817 147.242496,161.817 Z"/>
    <polyline stroke="#52267D" stroke-width=".25" points="138.992 167 138 167.871 138.949 168.727 140.495 168.133 140.185 167.455 138.902 167.759 138.913 167.988 139.246 167.973"/>
    <path fill="#9452BA" d="M138.988745,136.407 C143.367745,136.317 147.471745,133.302 156.408745,132.889 C156.537745,132.305 156.694745,131.778 156.894745,131.345 C158.511745,127.843 160.794745,117.752 159.328745,111.123 L158.168745,105.877 C157.787745,104.157 157.595745,102.399 157.595745,100.636 C157.595745,99.902 157.670745,99.185 157.811745,98.493 C157.846745,98.32 157.886745,98.148 157.930745,97.978 C158.061745,97.469 158.229745,96.973 158.431745,96.496 C158.499745,96.337 158.569745,96.18 158.644745,96.025 C158.794745,95.715 158.958745,95.413 159.135745,95.121 C159.313745,94.828 159.505745,94.546 159.709745,94.272 C160.321745,93.453 161.049745,92.725 161.868745,92.113 C162.141745,91.909 162.425745,91.718 162.717745,91.54 C164.325745,90.563 166.213745,90 168.232745,90 L169.976745,90 C172.914745,90 175.573745,91.19 177.498745,93.115 C177.738745,93.356 177.967745,93.608 178.184745,93.871 C178.578745,94.348 178.928745,94.862 179.235745,95.404 C179.350745,95.607 179.462745,95.814 179.564745,96.025 C179.638745,96.18 179.710745,96.337 179.777745,96.496 C179.978745,96.973 180.147745,97.469 180.278745,97.978 C180.409745,98.488 180.504745,99.012 180.558745,99.549 C180.594745,99.907 180.613745,100.269 180.613745,100.636 C180.613745,101.369 180.316745,102.032 179.836745,102.511 C179.356745,102.991 178.693745,103.288 177.961745,103.288 L167.071745,103.288 L168.719745,112.74 C170.654745,122.45 170.072745,128.944 168.574745,133.273 C168.240745,134.238 166.338745,137.658 166.338745,137.658 C171.783745,146.251 180.134745,150.007 189.062745,151.097 C196.654745,152.024 213.041745,145.101 204.592745,137.094 C196.143745,129.085 206.352745,134.065 207.856745,135.078 C209.359745,136.092 218.049745,143.601 208.617745,154.617 C204.630745,159.276 200.112745,163.511 189.243745,166.757 C187.500745,167.278 177.987745,167.97 172.867745,169.44 C157.622745,173.816 145.227745,169.057 138.282745,158.993 C131.365745,148.97 137.259745,136.442 138.988745,136.407"/>
    <path stroke="#52267D" stroke-width="2" d="M138.988745,136.407 C143.367745,136.317 147.471745,133.302 156.408745,132.889 C156.537745,132.305 156.694745,131.778 156.894745,131.345 C158.511745,127.843 160.794745,117.752 159.328745,111.123 L158.168745,105.877 C157.787745,104.157 157.595745,102.399 157.595745,100.636 C157.595745,99.902 157.670745,99.185 157.811745,98.493 C157.846745,98.32 157.886745,98.148 157.930745,97.978 C158.061745,97.469 158.229745,96.973 158.431745,96.496 C158.499745,96.337 158.569745,96.18 158.644745,96.025 C158.794745,95.715 158.958745,95.413 159.135745,95.121 C159.313745,94.828 159.505745,94.546 159.709745,94.272 C160.321745,93.453 161.049745,92.725 161.868745,92.113 C162.141745,91.909 162.425745,91.718 162.717745,91.54 C164.325745,90.563 166.213745,90 168.232745,90 L169.976745,90 C172.914745,90 175.573745,91.19 177.498745,93.115 C177.738745,93.356 177.967745,93.608 178.184745,93.871 C178.578745,94.348 178.928745,94.862 179.235745,95.404 C179.350745,95.607 179.462745,95.814 179.564745,96.025 C179.638745,96.18 179.710745,96.337 179.777745,96.496 C179.978745,96.973 180.147745,97.469 180.278745,97.978 C180.409745,98.488 180.504745,99.012 180.558745,99.549 C180.594745,99.907 180.613745,100.269 180.613745,100.636 C180.613745,101.369 180.316745,102.032 179.836745,102.511 C179.356745,102.991 178.693745,103.288 177.961745,103.288 L167.071745,103.288 L168.719745,112.74 C170.654745,122.45 170.072745,128.944 168.574745,133.273 C168.240745,134.238 166.338745,137.658 166.338745,137.658 C171.783745,146.251 180.134745,150.007 189.062745,151.097 C196.654745,152.024 213.041745,145.101 204.592745,137.094 C196.143745,129.085 206.352745,134.065 207.856745,135.078 C209.359745,136.092 218.049745,143.601 208.617745,154.617 C204.630745,159.276 200.112745,163.511 189.243745,166.757 C187.500745,167.278 177.987745,167.97 172.867745,169.44 C157.622745,173.816 145.227745,169.057 138.282745,158.993 C131.365745,148.97 137.259745,136.442 138.988745,136.407 Z"/>
    <path fill="#9452BA" d="M148.388,122.029 C148.738,110.769 139.801,101.92 129.644,100.05 C127.535,99.661 126.85,99 124.543,99 L122.776,99 C116.825,99 112,103.824 112,109.776 C112,111.259 113.203,112.462 114.686,112.462 C114.686,112.462 132.806,112.457 132.891,112.449 C132.892,112.45 134.367,112.45 134.367,112.451 C134.366,112.453 132.889,112.454 132.887,112.455 C136.894,114.156 139.387,119.277 139.827,122.029 C140.453,125.947 139.994,129.179 138.658,131.793 C137.767,133.535 137.666,135.633 137.804,137.331 C137.804,137.331 137.847,137.346 137.907,137.367 C137.97,138.275 138.117,139.308 138.387,140.487 C140.094,139.298 142.747,137.508 143.232,137.253 C144.279,136.7 146.643,135.442 147.701,134.836 C154.459,130.961 148.19,128.433 148.388,122.029"/>
    <path stroke="#52267D" d="M148.388,122.029 C148.738,110.769 139.801,101.92 129.644,100.05 C127.535,99.661 126.85,99 124.543,99 L122.776,99 C116.825,99 112,103.824 112,109.776 C112,111.259 113.203,112.462 114.686,112.462 C114.686,112.462 132.806,112.457 132.891,112.449 C132.892,112.45 134.367,112.45 134.367,112.451 C134.366,112.453 132.889,112.454 132.887,112.455 C136.894,114.156 139.387,119.277 139.827,122.029 C140.453,125.947 139.994,129.179 138.658,131.793 C137.767,133.535 137.666,135.633 137.804,137.331 C137.804,137.331 137.847,137.346 137.907,137.367 C137.97,138.275 138.117,139.308 138.387,140.487 C140.094,139.298 142.747,137.508 143.232,137.253 C144.279,136.7 146.643,135.442 147.701,134.836 C154.459,130.961 148.19,128.433 148.388,122.029 Z"/>
    <g transform="translate(133 111)">
      <path fill="#F3E3FF" d="M10.0005,24.0346 C9.9115,22.2956 9.6465,21.4026 9.8405,20.6956 C10.9635,16.6216 11.3285,15.3366 11.3285,11.0246 C11.3285,6.7386 8.8465,2.5036 5.1805,0.2506 C4.9795,0.1276 2.3415,-0.0584 0.2705,1.4506 C4.2765,3.1516 6.7705,8.2726 7.2105,11.0246 C7.8365,14.9426 7.3775,18.1756 6.0415,20.7886 C5.1505,22.5306 5.0495,24.6276 5.1875,26.3266 C5.1875,26.3266 10.1035,28.1726 10.0005,24.0346"/>
      <path stroke="#52267D" stroke-width=".5" d="M10.0005,24.0346 C9.9115,22.2956 9.6465,21.4026 9.8405,20.6956 C10.9635,16.6216 11.3285,15.3366 11.3285,11.0246 C11.3285,6.7386 8.8465,2.5036 5.1805,0.2506 C4.9795,0.1276 2.3415,-0.0584 0.2705,1.4506 C4.2765,3.1516 6.7705,8.2726 7.2105,11.0246 C7.8365,14.9426 7.3775,18.1756 6.0415,20.7886 C5.1505,22.5306 5.0495,24.6276 5.1875,26.3266 C5.1875,26.3266 10.1035,28.1726 10.0005,24.0346"/>
    </g>
    <path fill="#FFF" d="M117,101.282 C117,101.282 116.996,99.4 118.866,98.652 C119.437,98.424 120.479,98 120.479,98 C120.479,98 121.592,100.355 120.331,100.949 C118.514,101.804 117,101.282 117,101.282"/>
    <path stroke="#52267D" stroke-width=".5" d="M117,101.282 C117,101.282 116.996,99.4 118.866,98.652 C119.437,98.424 120.479,98 120.479,98 C120.479,98 121.592,100.355 120.331,100.949 C118.514,101.804 117,101.282 117,101.282 Z"/>
    <path fill="#FFF" d="M122,99.9822554 C122,99.9822554 122.053,97.4182554 124.938,97.0442554 C125.476,96.9742554 126.88,97.0082554 126.88,97.0082554 C126.88,97.0082554 127.527,99.7212554 126.007,99.9822554 C124.137,100.302255 122,99.9822554 122,99.9822554"/>
    <path stroke="#52267D" stroke-width=".5" d="M122,99.9822554 C122,99.9822554 122.053,97.4182554 124.938,97.0442554 C125.476,96.9742554 126.88,97.0082554 126.88,97.0082554 C126.88,97.0082554 127.527,99.7212554 126.007,99.9822554 C124.137,100.302255 122,99.9822554 122,99.9822554 Z"/>
    <path fill="#FFF" d="M128,100.197783 C128,100.197783 128.38,97.3547832 130.935,98.1357832 C132.026,98.4697832 132.632,99.2987832 132.632,99.2987832 C132.632,99.2987832 132.123,101.464783 131.107,101.220783 C129.333,100.796783 128,100.197783 128,100.197783"/>
    <path stroke="#52267D" stroke-width=".5" d="M128,100.197783 C128,100.197783 128.38,97.3547832 130.935,98.1357832 C132.026,98.4697832 132.632,99.2987832 132.632,99.2987832 C132.632,99.2987832 132.123,101.464783 131.107,101.220783 C129.333,100.796783 128,100.197783 128,100.197783 Z"/>
    <path fill="#FFF" d="M135,113.686 C135,113.686 140.955,110.448 139.822,105 C140.613,105.651 142.728,107.638 143.494,108.655 C143.494,109.721 143.689,113.957 137.841,116.793 C136.812,115.727 135.946,114.396 135,113.686"/>
    <path stroke="#52267D" stroke-width=".5" d="M135,113.686 C135,113.686 140.955,110.448 139.822,105 C140.613,105.651 142.728,107.638 143.494,108.655 C143.494,109.721 143.689,113.957 137.841,116.793 C136.812,115.727 135.946,114.396 135,113.686 Z"/>
    <path fill="#F3E3FF" d="M118 100.916C118 100.916 117.998 99.818 119.089 99.381 119.422 99.248 120.03 99 120.03 99 120.03 99 120.68 100.375 119.944 100.722 118.884 101.221 118 100.916 118 100.916M123 99.7465095C123 99.7465095 123.031 98.2455095 124.721 98.0255095 125.036 97.9855095 125.857 98.0045095 125.857 98.0045095 125.857 98.0045095 126.237 99.5935095 125.346 99.7465095 124.251 99.9335095 123 99.7465095 123 99.7465095M128 100.300313C128 100.300313 128.225 98.6183134 129.736 99.0803134 130.382 99.2783134 130.74 99.7683134 130.74 99.7683134 130.74 99.7683134 130.439 101.050313 129.838 100.905313 128.789 100.654313 128 100.300313 128 100.300313M128.646 110.966L122 110.966 122 108.101C122 106.941 122.94 106 124.101 106L128.646 106C129.354 106 129.928 106.574 129.928 107.282L129.928 109.684C129.928 110.392 129.354 110.966 128.646 110.966"/>
    <path fill="#FFF" d="M127.837,110.902 L122,110.902 L122,109.015 C122,107.902 122.902,107 124.015,107 L127.837,107 C128.393,107 128.844,107.451 128.844,108.008 L128.844,109.895 C128.844,110.451 128.393,110.902 127.837,110.902"/>
    <path stroke="#52267D" stroke-width=".5" d="M127.837,110.902 L122,110.902 L122,109.015 C122,107.902 122.902,107 124.015,107 L127.837,107 C128.393,107 128.844,107.451 128.844,108.008 L128.844,109.895 C128.844,110.451 128.393,110.902 127.837,110.902 Z"/>
    <path fill="#52267D" d="M123 109.089C123 109.691 123.488 110.179 124.09 110.179 124.691 110.179 125.179 109.691 125.179 109.089 125.179 108.487 124.691 108 124.09 108 123.488 108 123 108.487 123 109.089M114.413496 111.945C114.723496 111.879 114.999496 111.707 115.197496 111.459L115.562496 111 114.748496 111.174 114.269496 111.277C114.085496 111.316 113.968496 111.498 114.007496 111.683 114.047496 111.867 114.228496 111.985 114.413496 111.945"/>
    <path fill="#E1F2FF" d="M136,114.446 C136,114.446 140.588,111.976 140.518,107 C142.489,108.436 143.022,109.364 143.022,109.364 C143.022,109.364 142.68,111.733 141.576,112.929 C139.882,114.764 138.117,115.328 136,114.446"/>
    <g transform="translate(137 112)">
      <path fill="#FFF" d="M3.69,0.7875 C3.69,0.7875 1.881,2.6275 0.117,3.5105"/>
      <path stroke="#52267D" stroke-width=".5" d="M3.69,0.7875 C3.69,0.7875 1.881,2.6275 0.117,3.5105"/>
    </g>
    <g transform="translate(134 85)">
      <path fill="#9452BA" d="M24.6812,47.1352 L23.6602,45.1182 C19.8422,35.7372 19.2532,30.2282 21.2342,21.2742 L22.3932,16.0292 C22.7742,14.3082 22.9662,12.5512 22.9662,10.7882 C22.9662,4.9132 18.2032,0.1512 12.3292,0.1512 L10.6122,0.1512 C4.8182,0.1512 0.1202,4.8482 0.1202,10.6422 L0.1202,10.9442 C0.1202,12.3222 1.2382,13.4402 2.6172,13.4402 L13.4902,13.4402 L11.8422,22.8922 C6.7952,48.2222 7.3012,58.4922 17.2322,56.3822"/>
      <path stroke="#52267D" d="M24.6812,47.1352 L23.6602,45.1182 C19.8422,35.7372 19.2532,30.2282 21.2342,21.2742 L22.3932,16.0292 C22.7742,14.3082 22.9662,12.5512 22.9662,10.7882 C22.9662,4.9132 18.2032,0.1512 12.3292,0.1512 L10.6122,0.1512 C4.8182,0.1512 0.1202,4.8482 0.1202,10.6422 L0.1202,10.9442 C0.1202,12.3222 1.2382,13.4402 2.6172,13.4402 L13.4902,13.4402 L11.8422,22.8922 C6.7952,48.2222 7.3012,58.4922 17.2322,56.3822"/>
    </g>
    <path fill="#FFF" d="M139,86.6723663 C139,86.6723663 139.175,84.8283663 141.007,84.0953663 C141.565,83.8723663 142.441,84.1103663 142.441,84.1103663 C142.441,84.1103663 143.499,85.7643663 142.263,86.3463663 C140.483,87.1833663 139,86.6723663 139,86.6723663"/>
    <path stroke="#52267D" stroke-width=".5" d="M139,86.6723663 C139,86.6723663 139.175,84.8283663 141.007,84.0953663 C141.565,83.8723663 142.441,84.1103663 142.441,84.1103663 C142.441,84.1103663 143.499,85.7643663 142.263,86.3463663 C140.483,87.1833663 139,86.6723663 139,86.6723663 Z"/>
    <path fill="#FFF" d="M144,86.3684728 C144,86.3684728 144.061,83.4644728 147.328,83.0404728 C147.938,82.9614728 148.72,83.0224728 148.72,83.0224728 C148.72,83.0224728 150.261,86.0734728 148.538,86.3684728 C146.421,86.7314728 144,86.3684728 144,86.3684728"/>
    <path stroke="#52267D" stroke-width=".5" d="M144,86.3684728 C144,86.3684728 144.061,83.4644728 147.328,83.0404728 C147.938,82.9614728 148.72,83.0224728 148.72,83.0224728 C148.72,83.0224728 150.261,86.0734728 148.538,86.3684728 C146.421,86.7314728 144,86.3684728 144,86.3684728 Z"/>
    <path fill="#FFF" d="M149,87.1006019 C149,87.1006019 149.443,84.3256019 151.926,85.1546019 C152.986,85.5086019 153.559,86.3356019 153.559,86.3356019 C153.559,86.3356019 153.007,88.4446019 152.018,88.1806019 C150.29,87.7196019 149,87.1006019 149,87.1006019"/>
    <path stroke="#52267D" stroke-width=".5" d="M149,87.1006019 C149,87.1006019 149.443,84.3256019 151.926,85.1546019 C152.986,85.5086019 153.559,86.3356019 153.559,86.3356019 C153.559,86.3356019 153.007,88.4446019 152.018,88.1806019 C150.29,87.7196019 149,87.1006019 149,87.1006019 Z"/>
    <g transform="translate(139 135)">
      <path fill="#F3E3FF" d="M0.5405,1.1591 C1.1595,0.6951 1.7875,0.4271 2.3275,0.2981"/>
      <path stroke="#52267D" stroke-width=".5" d="M0.5405,1.1591 C1.1595,0.6951 1.7875,0.4271 2.3275,0.2981"/>
    </g>
    <g transform="translate(136 98)">
      <path fill="#F3E3FF" d="M7.1411,38.102 C5.3641,30.88 8.5701,17.072 9.1591,13.674 L11.4931,0.059 L12.5171,0.059 C13.8131,0.059 14.7941,1.467 14.6101,2.753 L12.9181,14.562 C12.3461,18.561 11.7501,37.077 18.6991,41.054 C20.1811,41.902 22.5901,41.346 23.4981,40.913 C26.8011,39.335 27.7501,35.217 28.4741,31.898 C29.9721,25.028 28.8051,19.635 28.4731,14.25 L28.1251,7.514 C28.0631,6.296 29.0311,5.003 30.2481,5.003 L31.4901,5.003 L33.7261,18.619 C34.3981,22.496 36.1291,35.941 28.2061,42.244 C28.0631,42.358 30.1331,42.821 29.5331,43.882 C27.1501,48.094 20.2451,48.76 18.9461,50.563 C13.9381,57.508 18.6281,72.304 18.6281,72.304 C18.6281,72.304 13.0711,70.086 9.6281,67.001 C1.5821,59.789 0.5611,49.343 0.5241,46.268 C0.4791,42.589 1.4451,40.307 2.6351,38.945"/>
      <path stroke="#52267D" stroke-width=".5" d="M7.1411,38.102 C5.3641,30.88 8.5701,17.072 9.1591,13.674 L11.4931,0.059 L12.5171,0.059 C13.8131,0.059 14.7941,1.467 14.6101,2.753 L12.9181,14.562 C12.3461,18.561 11.7501,37.077 18.6991,41.054 C20.1811,41.902 22.5901,41.346 23.4981,40.913 C26.8011,39.335 27.7501,35.217 28.4741,31.898 C29.9721,25.028 28.8051,19.635 28.4731,14.25 L28.1251,7.514 C28.0631,6.296 29.0311,5.003 30.2481,5.003 L31.4901,5.003 L33.7261,18.619 C34.3981,22.496 36.1291,35.941 28.2061,42.244 C28.0631,42.358 30.1331,42.821 29.5331,43.882 C27.1501,48.094 20.2451,48.76 18.9461,50.563 C13.9381,57.508 18.6281,72.304 18.6281,72.304 C18.6281,72.304 13.0711,70.086 9.6281,67.001 C1.5821,59.789 0.5611,49.343 0.5241,46.268 C0.4791,42.589 1.4451,40.307 2.6351,38.945"/>
    </g>
    <path fill="#FFF" d="M207.861567,142.931 C207.861567,142.931 209.005567,141.665 208.362567,139.965 C208.166567,139.446 207.460567,139 207.460567,139 C207.460567,139 205.677567,139.311 206.051567,140.513 C206.590567,142.243 207.861567,142.931 207.861567,142.931"/>
    <path stroke="#52267D" d="M207.861567,142.931 C207.861567,142.931 209.005567,141.665 208.362567,139.965 C208.166567,139.446 207.460567,139 207.460567,139 C207.460567,139 205.677567,139.311 206.051567,140.513 C206.590567,142.243 207.861567,142.931 207.861567,142.931 Z"/>
    <path fill="#F3E3FF" d="M207.65305,140.379 C207.65305,140.379 208.05405,139.935 207.82905,139.339 C207.76005,139.157 207.51205,139 207.51205,139 C207.51205,139 206.88705,139.109 207.01805,139.531 C207.20805,140.137 207.65305,140.379 207.65305,140.379"/>
    <path fill="#FFF" d="M199.225116,151.674 C199.225116,151.674 198.140116,149.197 200.734116,147.561 C201.217116,147.256 201.902116,147 201.902116,147 C201.902116,147 204.398116,148.974 203.058116,149.898 C201.412116,151.033 199.225116,151.674 199.225116,151.674"/>
    <path stroke="#52267D" d="M199.225116,151.674 C199.225116,151.674 198.140116,149.197 200.734116,147.561 C201.217116,147.256 201.902116,147 201.902116,147 C201.902116,147 204.398116,148.974 203.058116,149.898 C201.412116,151.033 199.225116,151.674 199.225116,151.674 Z"/>
    <path fill="#F3E3FF" d="M200.12536,150.592 C200.12536,150.592 199.52236,149.218 200.96136,148.311 C201.22936,148.142 201.60936,148 201.60936,148 C201.60936,148 202.99336,149.095 202.25036,149.607 C201.33736,150.237 200.12536,150.592 200.12536,150.592"/>
    <path fill="#FFF" d="M206.435086,143 C206.435086,143 208.315086,144.652 206.511086,146.128 C205.741086,146.758 204.846086,146.797 204.846086,146.797 C204.846086,146.797 203.520086,145.38 204.188086,144.76 C205.356086,143.678 206.435086,143 206.435086,143"/>
    <path stroke="#52267D" d="M206.435086,143 C206.435086,143 208.315086,144.652 206.511086,146.128 C205.741086,146.758 204.846086,146.797 204.846086,146.797 C204.846086,146.797 203.520086,145.38 204.188086,144.76 C205.356086,143.678 206.435086,143 206.435086,143 Z"/>
    <path fill="#F3E3FF" d="M206.077789,145 C206.077789,145 206.910789,145.731 206.111789,146.385 C205.770789,146.665 205.374789,146.682 205.374789,146.682 C205.374789,146.682 204.786789,146.054 205.083789,145.78 C205.599789,145.3 206.077789,145 206.077789,145"/>
    <path fill="#FFF" d="M190.070895,152.511034 C190.070895,152.511034 189.450895,150.306034 191.877895,149.431034 C194.303895,148.556034 194.955895,149.284034 194.955895,149.284034 C194.955895,149.284034 196.298895,151.543034 195.098895,152.270034 C193.898895,152.997034 190.070895,152.511034 190.070895,152.511034"/>
    <path stroke="#52267D" d="M190.070895,152.511034 C190.070895,152.511034 189.450895,150.306034 191.877895,149.431034 C194.303895,148.556034 194.955895,149.284034 194.955895,149.284034 C194.955895,149.284034 196.298895,151.543034 195.098895,152.270034 C193.898895,152.997034 190.070895,152.511034 190.070895,152.511034 Z"/>
    <path fill="#F3E3FF" d="M191.036799,152.825998 C191.036799,152.825998 190.714799,151.679998 191.975799,151.223998 C193.237799,150.768998 193.577799,151.147998 193.577799,151.147998 C193.577799,151.147998 194.274799,152.322998 193.651799,152.700998 C193.027799,153.078998 191.036799,152.825998 191.036799,152.825998"/>
    <path fill="#FFF" d="M146.752,102 C146.752,102 150.626,104.19 156.071,102.213 C155.697,103.902 154.936,107.297 154.936,107.297 C154.936,107.297 149.891,108.843 146,106.395 C146.398,104.154 146.752,102 146.752,102"/>
    <path stroke="#52267D" stroke-width=".5" d="M146.752,102 C146.752,102 150.626,104.19 156.071,102.213 C155.697,103.902 154.936,107.297 154.936,107.297 C154.936,107.297 149.891,108.843 146,106.395 C146.398,104.154 146.752,102 146.752,102 Z"/>
    <path fill="#FFF" d="M176.175684,91.882 C176.175684,91.882 175.999684,90.025 174.154684,89.286 C173.590684,89.061 172.070684,89 172.070684,89 C172.070684,89 171.643684,90.967 172.888684,91.554 C174.681684,92.397 176.175684,91.882 176.175684,91.882"/>
    <path stroke="#52267D" stroke-width=".5" d="M176.175684,91.882 C176.175684,91.882 175.999684,90.025 174.154684,89.286 C173.590684,89.061 172.070684,89 172.070684,89 C172.070684,89 171.643684,90.967 172.888684,91.554 C174.681684,92.397 176.175684,91.882 176.175684,91.882 Z"/>
    <path fill="#FFF" d="M170.665691,90.9357922 C170.665691,90.9357922 170.612691,88.4047922 167.765691,88.0357922 C167.234691,87.9667922 166.552691,88.0187922 166.552691,88.0187922 C166.552691,88.0187922 165.209691,90.6787922 166.710691,90.9357922 C168.556691,91.2517922 170.665691,90.9357922 170.665691,90.9357922"/>
    <path stroke="#52267D" stroke-width=".5" d="M170.665691,90.9357922 C170.665691,90.9357922 170.612691,88.4047922 167.765691,88.0357922 C167.234691,87.9667922 166.552691,88.0187922 166.552691,88.0187922 C166.552691,88.0187922 165.209691,90.6787922 166.710691,90.9357922 C168.556691,91.2517922 170.665691,90.9357922 170.665691,90.9357922 Z"/>
    <path fill="#FFF" d="M165.594,91.1169736 C165.594,91.1169736 165.148,88.3199736 162.647,89.1559736 C161.577,89.5129736 161,90.3459736 161,90.3459736 C161,90.3459736 161.557,92.4709736 162.554,92.2049736 C164.294,91.7409736 165.594,91.1169736 165.594,91.1169736"/>
    <path stroke="#52267D" stroke-width=".5" d="M165.594,91.1169736 C165.594,91.1169736 165.148,88.3199736 162.647,89.1559736 C161.577,89.5129736 161,90.3459736 161,90.3459736 C161,90.3459736 161.557,92.4709736 162.554,92.2049736 C164.294,91.7409736 165.594,91.1169736 165.594,91.1169736 Z"/>
    <path fill="#F3E3FF" d="M140 86.5099986C140 86.5099986 140.099 85.4679986 141.134 85.0539986 141.45 84.9279986 141.944 85.0619986 141.944 85.0619986 141.944 85.0619986 142.543 85.9969986 141.844 86.3259986 140.838 86.7989986 140 86.5099986 140 86.5099986M144 86.2132585C144 86.2132585 144.04 84.3052585 146.187 84.0262585 146.587 83.9752585 147.101 84.0142585 147.101 84.0142585 147.101 84.0142585 148.112 86.0192585 146.981 86.2132585 145.59 86.4512585 144 86.2132585 144 86.2132585M150 86.336534C150 86.336534 150.282 84.570534 151.861 85.098534 152.536 85.323534 152.901 85.850534 152.901 85.850534 152.901 85.850534 152.55 87.191534 151.92 87.023534 150.821 86.730534 150 86.336534 150 86.336534M175.327393 91.605C175.327393 91.605 175.228393 90.57 174.200393 90.159 173.887393 90.033 173.039393 90 173.039393 90 173.039393 90 172.801393 91.096 173.495393 91.422 174.494393 91.893 175.327393 91.605 175.327393 91.605M169.70305 90.7004537C169.70305 90.7004537 169.67305 89.2344537 168.02305 89.0204537 167.71605 88.9804537 167.32005 89.0114537 167.32005 89.0114537 167.32005 89.0114537 166.54205 90.5514537 167.41205 90.7004537 168.48105 90.8844537 169.70305 90.7004537 169.70305 90.7004537M164.717 91.2521094C164.717 91.2521094 164.453 89.5981094 162.974 90.0921094 162.342 90.3031094 162 90.7961094 162 90.7961094 162 90.7961094 162.329 92.0521094 162.919 91.8951094 163.948 91.6211094 164.717 91.2521094 164.717 91.2521094"/>
    <path fill="#FFF" d="M158,106.372 C158,106.372 162.797,107.12 167.358,106 C167.803,108.479 168.088,110.351 168.088,110.351 C168.088,110.351 164.925,112.499 159.08,111.253 C158.391,108.069 158,106.372 158,106.372"/>
    <path stroke="#52267D" stroke-width=".5" d="M158,106.372 C158,106.372 162.797,107.12 167.358,106 C167.803,108.479 168.088,110.351 168.088,110.351 C168.088,110.351 164.925,112.499 159.08,111.253 C158.391,108.069 158,106.372 158,106.372 Z"/>
    <path fill="#F3E3FF" d="M165.282,101.966 L171.928,101.966 L171.928,99.101 C171.928,97.941 170.988,97 169.827,97 L165.282,97 C164.574,97 164,97.574 164,98.282 L164,100.684 C164,101.392 164.574,101.966 165.282,101.966"/>
    <path fill="#FFF" d="M166.007,101.902 L171.844,101.902 L171.844,100.015 C171.844,98.902 170.942,98 169.829,98 L166.007,98 C165.451,98 165,98.451 165,99.007 L165,100.895 C165,101.451 165.451,101.902 166.007,101.902"/>
    <path stroke="#52267D" stroke-width=".5" d="M166.007,101.902 L171.844,101.902 L171.844,100.015 C171.844,98.902 170.942,98 169.829,98 L166.007,98 C165.451,98 165,98.451 165,99.007 L165,100.895 C165,101.451 165.451,101.902 166.007,101.902 Z"/>
    <path fill="#52267D" d="M171.18,100.09 C171.18,100.692 170.692,101.18 170.09,101.18 C169.489,101.18 169,100.692 169,100.09 C169,99.488 169.489,99 170.09,99 C170.692,99 171.18,99.488 171.18,100.09"/>
    <path fill="#F3E3FF" d="M148.646,96.966 L142,96.966 L142,94.101 C142,92.941 142.941,92 144.101,92 L148.646,92 C149.355,92 149.928,92.574 149.928,93.282 L149.928,95.684 C149.928,96.392 149.355,96.966 148.646,96.966"/>
    <path fill="#FFF" d="M147.836,96.901 L142,96.901 L142,95.014 C142,93.901 142.901,93 144.015,93 L147.836,93 C148.393,93 148.844,93.45 148.844,94.007 L148.844,95.894 C148.844,96.45 148.393,96.901 147.836,96.901"/>
    <path stroke="#52267D" stroke-width=".5" d="M147.836,96.901 L142,96.901 L142,95.014 C142,93.901 142.901,93 144.015,93 L147.836,93 C148.393,93 148.844,93.45 148.844,94.007 L148.844,95.894 C148.844,96.45 148.393,96.901 147.836,96.901 Z"/>
    <path fill="#52267D" d="M143 96.089C143 96.691 143.488 97.179 144.09 97.179 144.691 97.179 145.18 96.691 145.18 96.089 145.18 95.487 144.691 95 144.09 95 143.488 95 143 95.487 143 96.089M178.149 102.945C177.839 102.879 177.562 102.707 177.365 102.459L177 102 177.813 102.174 178.293 102.277C178.477 102.317 178.594 102.498 178.554 102.683 178.515 102.867 178.334 102.985 178.149 102.945M136.413496 97.946C136.723496 97.88 137.000496 97.708 137.197496 97.46L137.561496 97 136.749496 97.175 136.269496 97.278C136.085496 97.317 135.968496 97.499 136.007496 97.683 136.047496 97.868 136.228496 97.986 136.413496 97.946"/>
    <path fill="#E1F2FF" d="M147,102 C147,102 151.059,103.729 155.152,102.149 C154.724,104.55 154.341,105.776 154.341,105.776 C154.341,105.776 151.878,105.921 150.247,105.6 C147.918,105.141 147,104.082 147,102"/>
    <g transform="translate(146 103)">
      <path fill="#FFF" d="M7.0747,2.1645 C7.0747,2.1645 3.3827,2.4725 0.5227,0.9905"/>
      <path stroke="#52267D" stroke-width=".5" d="M7.0747,2.1645 C7.0747,2.1645 3.3827,2.4725 0.5227,0.9905"/>
    </g>
    <path fill="#E1F2FF" d="M165.775,107 C165.775,107 162.175,108.023 159,107.388 C159.599,109.752 159.918,110.494 159.918,110.494 C159.918,110.494 164.681,109.858 165.775,107"/>
    <g transform="translate(163 140)">
      <path fill="#F3E3FF" d="M1.2066,0.2948 C1.2066,0.2948 0.9886,0.4518 0.6806,0.6378"/>
      <path stroke="#52267D" stroke-width=".5" d="M1.2066,0.2948 C1.2066,0.2948 0.9886,0.4518 0.6806,0.6378"/>
    </g>
    <g transform="translate(159 108)">
      <path fill="#FFF" d="M7.4859,0.0771 C7.4859,0.0771 3.8619,0.7641 0.0149,0.3051"/>
      <path stroke="#52267D" stroke-width=".5" d="M7.4859,0.0771 C7.4859,0.0771 3.8619,0.7641 0.0149,0.3051"/>
    </g>
    <path fill="#FFF" d="M159.915608,183.280803 C159.915608,183.280803 158.954608,182.497803 157.676608,183.546803 C156.509608,184.505803 155.631608,185.987803 156.154608,186.135803 C156.678608,186.284803 157.599608,186.429803 158.565608,186.252803 C159.407608,186.097803 160.150608,186.260803 160.488608,184.499803 C160.645608,183.678803 159.915608,183.280803 159.915608,183.280803"/>
    <path stroke="#52267D" stroke-width=".5" d="M159.915608,183.280803 C159.915608,183.280803 158.954608,182.497803 157.676608,183.546803 C156.509608,184.505803 155.631608,185.987803 156.154608,186.135803 C156.678608,186.284803 157.599608,186.429803 158.565608,186.252803 C159.407608,186.097803 160.150608,186.260803 160.488608,184.499803 C160.645608,183.678803 159.915608,183.280803 159.915608,183.280803 Z"/>
    <path fill="#E1F2FF" d="M160.436928,183.174962 C160.436928,183.174962 159.837928,182.686962 159.042928,183.340962 C158.317928,183.936962 157.770928,184.858962 158.095928,184.951962 C158.421928,185.043962 158.995928,185.133962 159.596928,185.023962 C160.120928,184.927962 160.582928,185.028962 160.792928,183.932962 C160.890928,183.422962 160.436928,183.174962 160.436928,183.174962"/>
    <path fill="#FFF" d="M162.152089,183.003011 C162.660089,182.935011 163.391089,184.038011 163.307089,184.375011 C163.224089,184.711011 163.166089,185.821011 162.344089,185.941011 C161.739089,186.031011 159.580089,186.255011 159.108089,185.786011 C158.673089,185.354011 159.524089,183.355011 162.152089,183.003011"/>
    <path stroke="#52267D" stroke-width=".5" d="M162.152089,183.003011 C162.660089,182.935011 163.391089,184.038011 163.307089,184.375011 C163.224089,184.711011 163.166089,185.821011 162.344089,185.941011 C161.739089,186.031011 159.580089,186.255011 159.108089,185.786011 C158.673089,185.354011 159.524089,183.355011 162.152089,183.003011 Z"/>
    <path fill="#E1F2FF" d="M161.860507,183.001765 C162.160507,182.961765 162.590507,183.612765 162.542507,183.810765 C162.492507,184.009765 162.458507,184.664765 161.973507,184.735765 C161.616507,184.788765 160.341507,184.920765 160.063507,184.644765 C159.807507,184.388765 160.309507,183.209765 161.860507,183.001765"/>
    <path fill="#FFF" d="M163.967549,183.05267 C163.967549,183.05267 163.529549,182.82367 162.659549,183.32067 C161.893549,183.75967 160.747549,184.46067 161.049549,185.33367 C161.350549,186.20567 163.775549,185.88067 164.314549,185.69667 C164.853549,185.51167 165.191549,184.92567 165.095549,184.41167 C164.888549,183.29167 163.967549,183.05267 163.967549,183.05267"/>
    <path stroke="#52267D" stroke-width=".5" d="M163.967549,183.05267 C163.967549,183.05267 163.529549,182.82367 162.659549,183.32067 C161.893549,183.75967 160.747549,184.46067 161.049549,185.33367 C161.350549,186.20567 163.775549,185.88067 164.314549,185.69667 C164.853549,185.51167 165.191549,184.92567 165.095549,184.41167 C164.888549,183.29167 163.967549,183.05267 163.967549,183.05267 Z"/>
    <path fill="#E1F2FF" d="M163.758111,183.030939 C163.758111,183.030939 163.498111,182.895939 162.984111,183.189939 C162.529111,183.449939 161.851111,183.864939 162.029111,184.381939 C162.208111,184.897939 163.644111,184.705939 163.963111,184.596939 C164.282111,184.487939 164.483111,184.139939 164.426111,183.835939 C164.303111,183.172939 163.758111,183.030939 163.758111,183.030939"/>
    <g transform="translate(149 155)">
      <path fill="#9452BA" d="M4.9224,0.0111 C4.9224,0.0111 5.4164,5.6291 3.9874,14.4591 C2.6584,22.6781 0.3014,25.2571 0.4744,27.3881 C0.6094,29.0381 1.3054,30.5501 2.9614,30.5501 L7.9014,30.5501 C10.2084,30.5501 12.2424,29.0771 12.9844,26.8931 C13.5814,25.1341 14.2024,22.7411 14.5734,19.7151 C14.9534,15.5981 14.8714,11.4701 14.8034,9.0461"/>
      <path stroke="#52267D" d="M4.9224,0.0111 C4.9224,0.0111 5.4164,5.6291 3.9874,14.4591 C2.6584,22.6781 0.3014,25.2571 0.4744,27.3881 C0.6094,29.0381 1.3054,30.5501 2.9614,30.5501 L7.9014,30.5501 C10.2084,30.5501 12.2424,29.0771 12.9844,26.8931 C13.5814,25.1341 14.2024,22.7411 14.5734,19.7151 C14.9534,15.5981 14.8714,11.4701 14.8034,9.0461"/>
    </g>
    <g transform="translate(175 158)">
      <path fill="#9452BA" d="M4.2544,0.7274 C2.6174,2.1364 1.7694,4.4424 1.7814,6.5624 C1.7994,9.3924 3.4414,12.9944 2.4004,17.6974 C1.4734,21.8864 -0.3726,22.6254 0.1834,26.3834 C0.2834,27.0624 0.8934,27.5504 1.5784,27.5504 L7.0844,27.5504 C9.6174,27.5504 11.7874,25.7124 12.2014,23.2134 C13.3084,16.5384 12.4634,10.2374 11.5734,5.4024"/>
      <path stroke="#52267D" d="M4.2544,0.7274 C2.6174,2.1364 1.7694,4.4424 1.7814,6.5624 C1.7994,9.3924 3.4414,12.9944 2.4004,17.6974 C1.4734,21.8864 -0.3726,22.6254 0.1834,26.3834 C0.2834,27.0624 0.8934,27.5504 1.5784,27.5504 L7.0844,27.5504 C9.6174,27.5504 11.7874,25.7124 12.2014,23.2134 C13.3084,16.5384 12.4634,10.2374 11.5734,5.4024"/>
    </g>
    <polyline stroke="#52267D" stroke-width=".25" points="180.191 165.106 180.514 164.874 181.561 165.108 180.399 165.851 179 165.161 180.453 164 181.114 164.221"/>
    <path fill="#FFF" d="M149.9156,183.280803 C149.9156,183.280803 148.9546,182.497803 147.6776,183.546803 C146.5096,184.505803 145.6316,185.987803 146.1546,186.135803 C146.6786,186.284803 147.5996,186.429803 148.5656,186.252803 C149.4076,186.097803 150.1506,186.260803 150.4886,184.499803 C150.6456,183.678803 149.9156,183.280803 149.9156,183.280803"/>
    <path stroke="#52267D" stroke-width=".5" d="M149.9156,183.280803 C149.9156,183.280803 148.9546,182.497803 147.6776,183.546803 C146.5096,184.505803 145.6316,185.987803 146.1546,186.135803 C146.6786,186.284803 147.5996,186.429803 148.5656,186.252803 C149.4076,186.097803 150.1506,186.260803 150.4886,184.499803 C150.6456,183.678803 149.9156,183.280803 149.9156,183.280803 Z"/>
    <path fill="#E1F2FF" d="M150.436422,183.174962 C150.436422,183.174962 149.837422,182.686962 149.042422,183.340962 C148.317422,183.936962 147.770422,184.858962 148.096422,184.951962 C148.421422,185.043962 148.995422,185.133962 149.596422,185.023962 C150.120422,184.927962 150.582422,185.028962 150.792422,183.932962 C150.890422,183.422962 150.436422,183.174962 150.436422,183.174962"/>
    <polyline stroke="#52267D" stroke-width=".25" points="157.968 168 156 168.614 156.261 170.437 158.277 170.584 159.215 169.499 158.008 168.83 157.01 169.12 157.645 169.825"/>
    <g stroke="#F3E3FF" stroke-width=".25" transform="translate(114 92)">
      <path d="M1.9404,16.037 C1.9404,16.333 2.1804,16.573 2.4764,16.573 C2.7724,16.573 3.0114,16.333 3.0114,16.037"/>
      <path d="M0.8687,16.037 C0.8687,16.333 1.1087,16.573 1.4047,16.573 C1.7007,16.573 1.9407,16.333 1.9407,16.037"/>
      <path d="M1.4043 16.5727C1.4043 16.8687 1.6443 17.1087 1.9403 17.1087 2.2363 17.1087 2.4763 16.8687 2.4763 16.5727M22.4702 15.5351C22.8412 15.7651 23.3272 15.6521 23.5582 15.2811 23.7882 14.9101 23.6742 14.4241 23.3042 14.1941M22.7241 16.6225C23.0951 16.8525 23.5811 16.7395 23.8121 16.3685 24.0421 15.9975 23.9281 15.5115 23.5581 15.2815M47.898 33.5351C47.898 33.9321 48.22 34.2541 48.617 34.2541 49.013 34.2541 49.335 33.9321 49.335 33.5351M46.4605 33.5351C46.4605 33.9321 46.7825 34.2541 47.1795 34.2541 47.5765 34.2541 47.8975 33.9321 47.8975 33.5351"/>
      <path d="M47.1792 34.2538C47.1792 34.6508 47.5012 34.9728 47.8982 34.9728 48.2942 34.9728 48.6162 34.6508 48.6162 34.2538M26.4341 79.0663C26.4341 79.4633 26.7551 79.7853 27.1521 79.7853 27.5491 79.7853 27.8711 79.4633 27.8711 79.0663M24.9966 79.0663C24.9966 79.4633 25.3176 79.7853 25.7156 79.7853 26.1116 79.7853 26.4336 79.4633 26.4336 79.0663"/>
      <path d="M25.7153 79.7851C25.7153 80.1821 26.0363 80.5041 26.4343 80.5041 26.8303 80.5041 27.1523 80.1821 27.1523 79.7851M46.7847 10.6303C46.7847 11.0673 47.1387 11.4203 47.5737 11.4203 48.0107 11.4203 48.3637 11.0673 48.3637 10.6303M45.9946 11.4203C45.9946 11.8563 46.3486 12.2103 46.7846 12.2103 47.2206 12.2103 47.5736 11.8563 47.5736 11.4203M36.6909 24.5771C36.6909 25.1071 37.1209 25.5361 37.6499 25.5361 38.1799 25.5361 38.6099 25.1071 38.6099 24.5771M35.731 25.5365C35.731 26.0665 36.161 26.4955 36.691 26.4955 37.22 26.4955 37.65 26.0665 37.65 25.5365M22.7534.7201C22.7534 1.0741 23.0404 1.3621 23.3954 1.3621 23.7494 1.3621 24.0364 1.0741 24.0364.7201M22.1109 1.3622C22.1109 1.7162 22.3989 2.0042 22.7539 2.0042 23.1079 2.0042 23.3949 1.7162 23.3949 1.3622M83.1568 65.4252C83.4218 65.7362 83.8868 65.7752 84.1988 65.5112 84.5108 65.2472 84.5488 64.7812 84.2848 64.4692"/>
      <path d="M83.0708 66.4662C83.3348 66.7782 83.8008 66.8162 84.1128 66.5522 84.4238 66.2892 84.4628 65.8222 84.1988 65.5112M53.7886 55.2235C53.9866 55.6595 54.5016 55.8515 54.9366 55.6525 55.3726 55.4535 55.5636 54.9395 55.3656 54.5045M52.2114 55.9433C52.4094 56.3793 52.9244 56.5703 53.3594 56.3723 53.7954 56.1733 53.9864 55.6593 53.7884 55.2233"/>
      <path d="M53.3599,56.372 C53.5579,56.808 54.0719,56.999 54.5069,56.801 C54.9429,56.602 55.1349,56.088 54.9369,55.653"/>
      <path d="M51.7818 57.0912C51.9808 57.5272 52.4948 57.7192 52.9298 57.5202 53.3658 57.3212 53.5578 56.8072 53.3598 56.3722M54.5073 56.8012C54.7063 57.2372 55.2203 57.4282 55.6553 57.2302 56.0913 57.0312 56.2833 56.5172 56.0853 56.0812M38.6948 7.2079C38.6948 7.6909 39.0868 8.0829 39.5688 8.0829 40.0518 8.0829 40.4438 7.6909 40.4438 7.2079M38.3911 40.2602C38.3911 40.7432 38.7831 41.1352 39.2661 41.1352 39.7491 41.1352 40.1411 40.7432 40.1411 40.2602M48.3042 22.0404C48.3042 22.4064 48.6012 22.7034 48.9662 22.7034 49.3322 22.7034 49.6292 22.4064 49.6292 22.0404M64.0825 6.9833C64.0825 7.2573 64.3055 7.4803 64.5795 7.4803 64.8545 7.4803 65.0775 7.2573 65.0775 6.9833M68.2193 80.0844C68.3023 80.5604 68.7553 80.8794 69.2313 80.7964 69.7063 80.7134 70.0263 80.2614 69.9433 79.7854M44.0581 86.5268C44.0581 87.0568 44.4881 87.4858 45.0181 87.4858 45.5471 87.4858 45.9771 87.0568 45.9771 86.5268M43.0991 87.4862C43.0991 88.0162 43.5291 88.4452 44.0581 88.4452 44.5881 88.4452 45.0181 88.0162 45.0181 87.4862"/>
    </g>
    <path fill="#FFF" d="M152.152089,183.003011 C152.660089,182.935011 153.391089,184.038011 153.307089,184.375011 C153.224089,184.711011 153.166089,185.821011 152.344089,185.941011 C151.739089,186.031011 149.580089,186.255011 149.108089,185.786011 C148.673089,185.354011 149.524089,183.355011 152.152089,183.003011"/>
    <path stroke="#52267D" stroke-width=".5" d="M152.152089,183.003011 C152.660089,182.935011 153.391089,184.038011 153.307089,184.375011 C153.224089,184.711011 153.166089,185.821011 152.344089,185.941011 C151.739089,186.031011 149.580089,186.255011 149.108089,185.786011 C148.673089,185.354011 149.524089,183.355011 152.152089,183.003011 Z"/>
    <path fill="#E1F2FF" d="M151.859923,183.001765 C152.159923,182.961765 152.589923,183.612765 152.541923,183.810765 C152.492923,184.009765 152.457923,184.664765 151.972923,184.735765 C151.615923,184.788765 150.340923,184.920765 150.063923,184.644765 C149.806923,184.388765 150.308923,183.209765 151.859923,183.001765"/>
    <path fill="#FFF" d="M153.623811,183.046753 C153.623811,183.046753 153.235811,182.843753 152.468811,183.283753 C151.789811,183.671753 150.776811,184.292753 151.043811,185.063753 C151.310811,185.834753 153.453811,185.547753 153.930811,185.384753 C154.406811,185.221753 154.706811,184.702753 154.621811,184.248753 C154.437811,183.257753 153.623811,183.046753 153.623811,183.046753"/>
    <path stroke="#52267D" stroke-width=".5" d="M153.623811,183.046753 C153.623811,183.046753 153.235811,182.843753 152.468811,183.283753 C151.789811,183.671753 150.776811,184.292753 151.043811,185.063753 C151.310811,185.834753 153.453811,185.547753 153.930811,185.384753 C154.406811,185.221753 154.706811,184.702753 154.621811,184.248753 C154.437811,183.257753 153.623811,183.046753 153.623811,183.046753 Z"/>
    <path fill="#E1F2FF" d="M153.554207,184.027538 C153.554207,184.027538 153.325207,183.907538 152.869207,184.168538 C152.467207,184.398538 151.867207,184.765538 152.026207,185.221538 C152.183207,185.678538 153.452207,185.508538 153.735207,185.412538 C154.017207,185.315538 154.195207,185.008538 154.145207,184.739538 C154.035207,184.152538 153.554207,184.027538 153.554207,184.027538"/>
    <path fill="#FFF" d="M133.624777,184.046753 C133.624777,184.046753 133.236777,183.843753 132.468777,184.283753 C131.790777,184.671753 130.776777,185.292753 131.043777,186.063753 C131.310777,186.834753 133.454777,186.547753 133.931777,186.384753 C134.407777,186.221753 134.706777,185.702753 134.622777,185.248753 C134.438777,184.257753 133.624777,184.046753 133.624777,184.046753"/>
    <path stroke="#52267D" stroke-width=".5" d="M133.624777,184.046753 C133.624777,184.046753 133.236777,183.843753 132.468777,184.283753 C131.790777,184.671753 130.776777,185.292753 131.043777,186.063753 C131.310777,186.834753 133.454777,186.547753 133.931777,186.384753 C134.407777,186.221753 134.706777,185.702753 134.622777,185.248753 C134.438777,184.257753 133.624777,184.046753 133.624777,184.046753 Z"/>
    <path fill="#E1F2FF" d="M133.553207,184.027538 C133.553207,184.027538 133.324207,183.907538 132.869207,184.168538 C132.467207,184.398538 131.867207,184.765538 132.026207,185.221538 C132.183207,185.678538 133.452207,185.508538 133.735207,185.412538 C134.017207,185.315538 134.195207,185.008538 134.145207,184.739538 C134.035207,184.152538 133.553207,184.027538 133.553207,184.027538"/>
    <path fill="#FFF" d="M135.152089,183.003011 C135.660089,182.935011 136.391089,184.038011 136.307089,184.375011 C136.224089,184.711011 136.166089,185.821011 135.344089,185.941011 C134.739089,186.031011 132.580089,186.255011 132.108089,185.786011 C131.673089,185.354011 132.524089,183.355011 135.152089,183.003011"/>
    <path stroke="#52267D" stroke-width=".5" d="M135.152089,183.003011 C135.660089,182.935011 136.391089,184.038011 136.307089,184.375011 C136.224089,184.711011 136.166089,185.821011 135.344089,185.941011 C134.739089,186.031011 132.580089,186.255011 132.108089,185.786011 C131.673089,185.354011 132.524089,183.355011 135.152089,183.003011 Z"/>
    <path fill="#E1F2FF" d="M135.859923,184.001765 C136.159923,183.961765 136.589923,184.612765 136.541923,184.810765 C136.491923,185.009765 136.457923,185.664765 135.972923,185.735765 C135.615923,185.788765 134.340923,185.920765 134.063923,185.644765 C133.806923,185.388765 134.308923,184.209765 135.859923,184.001765"/>
    <path fill="#FFF" d="M176.915114,183.280803 C176.915114,183.280803 175.954114,182.497803 174.677114,183.546803 C173.510114,184.505803 172.632114,185.987803 173.154114,186.135803 C173.678114,186.284803 174.599114,186.429803 175.565114,186.252803 C176.407114,186.097803 177.150114,186.260803 177.488114,184.499803 C177.645114,183.678803 176.915114,183.280803 176.915114,183.280803"/>
    <path stroke="#52267D" stroke-width=".5" d="M176.915114,183.280803 C176.915114,183.280803 175.954114,182.497803 174.677114,183.546803 C173.510114,184.505803 172.632114,185.987803 173.154114,186.135803 C173.678114,186.284803 174.599114,186.429803 175.565114,186.252803 C176.407114,186.097803 177.150114,186.260803 177.488114,184.499803 C177.645114,183.678803 176.915114,183.280803 176.915114,183.280803 Z"/>
    <path fill="#E1F2FF" d="M176.436413,183.174962 C176.436413,183.174962 175.838413,182.686962 175.043413,183.340962 C174.317413,183.936962 173.770413,184.858962 174.096413,184.951962 C174.421413,185.043962 174.995413,185.133962 175.596413,185.023962 C176.120413,184.927962 176.582413,185.028962 176.792413,183.932962 C176.890413,183.422962 176.436413,183.174962 176.436413,183.174962"/>
    <path fill="#FFF" d="M178.152022,183.003011 C178.660022,182.935011 179.391022,184.038011 179.307022,184.375011 C179.224022,184.711011 179.167022,185.821011 178.344022,185.941011 C177.739022,186.031011 175.580022,186.255011 175.108022,185.786011 C174.673022,185.354011 175.525022,183.355011 178.152022,183.003011"/>
    <path stroke="#52267D" stroke-width=".5" d="M178.152022,183.003011 C178.660022,182.935011 179.391022,184.038011 179.307022,184.375011 C179.224022,184.711011 179.167022,185.821011 178.344022,185.941011 C177.739022,186.031011 175.580022,186.255011 175.108022,185.786011 C174.673022,185.354011 175.525022,183.355011 178.152022,183.003011 Z"/>
    <path fill="#E1F2FF" d="M178.859923,183.001765 C179.159923,182.961765 179.590923,183.612765 179.541923,183.810765 C179.492923,184.009765 179.458923,184.664765 178.972923,184.735765 C178.615923,184.788765 177.341923,184.920765 177.063923,184.644765 C176.806923,184.388765 177.308923,183.209765 178.859923,183.001765"/>
    <path fill="#FFF" d="M180.624811,183.046753 C180.624811,183.046753 180.235811,182.843753 179.468811,183.283753 C178.789811,183.671753 177.776811,184.292753 178.043811,185.063753 C178.310811,185.834753 180.453811,185.547753 180.930811,185.384753 C181.406811,185.221753 181.706811,184.702753 181.622811,184.248753 C181.438811,183.257753 180.624811,183.046753 180.624811,183.046753"/>
    <path stroke="#52267D" stroke-width=".5" d="M180.624811,183.046753 C180.624811,183.046753 180.235811,182.843753 179.468811,183.283753 C178.789811,183.671753 177.776811,184.292753 178.043811,185.063753 C178.310811,185.834753 180.453811,185.547753 180.930811,185.384753 C181.406811,185.221753 181.706811,184.702753 181.622811,184.248753 C181.438811,183.257753 180.624811,183.046753 180.624811,183.046753 Z"/>
    <path fill="#E1F2FF" d="M180.554173,184.027538 C180.554173,184.027538 180.325173,183.907538 179.869173,184.168538 C179.468173,184.398538 178.867173,184.765538 179.026173,185.221538 C179.184173,185.678538 180.453173,185.508538 180.736173,185.412538 C181.018173,185.315538 181.195173,185.008538 181.145173,184.739538 C181.036173,184.152538 180.554173,184.027538 180.554173,184.027538"/>
    <path fill="#FFF" d="M142.748494,184.134824 C142.907494,184.000824 143.097494,183.963824 143.254494,184.036824 C143.837494,184.312824 145.311494,185.094824 145.006494,186.153824 C144.769494,186.977824 144.266494,186.729824 143.303494,186.747824 L142.576494,186.760824 C142.426494,186.763824 142.293494,186.686824 142.210494,186.548824 C141.792494,185.849824 142.018494,184.751824 142.698494,184.176824 L142.748494,184.134824 Z"/>
    <path stroke="#52267D" stroke-width=".5" d="M142.748494,184.134824 C142.907494,184.000824 143.097494,183.963824 143.254494,184.036824 C143.837494,184.312824 145.311494,185.094824 145.006494,186.153824 C144.769494,186.977824 144.266494,186.729824 143.303494,186.747824 L142.576494,186.760824 C142.426494,186.763824 142.293494,186.686824 142.210494,186.548824 C141.792494,185.849824 142.018494,184.751824 142.698494,184.176824 L142.748494,184.134824 Z"/>
    <path fill="#E1F2FF" d="M142.543936,184.098382 C142.658936,184.000382 142.797936,183.973382 142.910936,184.027382 C143.334936,184.227382 144.405936,184.795382 144.184936,185.565382 C144.012936,186.164382 143.646936,185.984382 142.946936,185.996382 L142.418936,186.006382 C142.309936,186.008382 142.212936,185.952382 142.152936,185.851382 C141.848936,185.344382 142.013936,184.546382 142.507936,184.129382 L142.543936,184.098382 Z"/>
    <path fill="#FFF" d="M139.124583,183.36182 C139.124583,183.36182 138.232583,182.49982 136.871583,183.43682 C135.626583,184.29382 134.626583,185.69482 135.135583,185.88782 C135.643583,186.08082 136.548583,186.30282 137.527583,186.20882 C138.378583,186.12582 139.105583,186.35082 139.592583,184.62482 C139.817583,183.82082 139.124583,183.36182 139.124583,183.36182"/>
    <path stroke="#52267D" stroke-width=".5" d="M139.124583,183.36182 C139.124583,183.36182 138.232583,182.49982 136.871583,183.43682 C135.626583,184.29382 134.626583,185.69482 135.135583,185.88782 C135.643583,186.08082 136.548583,186.30282 137.527583,186.20882 C138.378583,186.12582 139.105583,186.35082 139.592583,184.62482 C139.817583,183.82082 139.124583,183.36182 139.124583,183.36182 Z"/>
    <path fill="#E1F2FF" d="M138.566878,183.225327 C138.566878,183.225327 138.011878,182.688327 137.164878,183.272327 C136.389878,183.805327 135.766878,184.677327 136.084878,184.797327 C136.400878,184.916327 136.962878,185.055327 137.572878,184.996327 C138.102878,184.945327 138.554878,185.085327 138.857878,184.011327 C138.998878,183.511327 138.566878,183.225327 138.566878,183.225327"/>
    <path fill="#FFF" d="M185.389,186.533 L61.255,186.533 C60.01,186.533 59,185.523 59,184.278 L59,2.255 C59,1.01 60.01,0 61.255,0 L185.389,0 C186.634,0 187.644,1.01 187.644,2.255 L187.644,184.278 C187.644,185.523 186.634,186.533 185.389,186.533"/>
    <path stroke="#5E63B6" stroke-width="2" d="M185.389,186.533 L61.255,186.533 C60.01,186.533 59,185.523 59,184.278 L59,2.255 C59,1.01 60.01,0 61.255,0 L185.389,0 C186.634,0 187.644,1.01 187.644,2.255 L187.644,184.278 C187.644,185.523 186.634,186.533 185.389,186.533 Z"/>
    <path fill="#E1F2FF" d="M144.465,58.732 C144.465,72.391 133.392,83.464 119.733,83.464 C106.073,83.464 95,72.391 95,58.732 C95,45.073 106.073,34 119.733,34 C133.392,34 144.465,45.073 144.465,58.732"/>
    <path fill="#FFF" d="M147.465,53.732 C147.465,67.391 136.392,78.464 122.733,78.464 C109.073,78.464 98,67.391 98,53.732 C98,40.073 109.073,29 122.733,29 C136.392,29 147.465,40.073 147.465,53.732"/>
    <path stroke="#5E63B6" stroke-width="2" d="M147.465,53.732 C147.465,67.391 136.392,78.464 122.733,78.464 C109.073,78.464 98,67.391 98,53.732 C98,40.073 109.073,29 122.733,29 C136.392,29 147.465,40.073 147.465,53.732 Z"/>
    <path fill="#4CA8E0" d="M129.169,66.1782222 C129.273,66.4872222 129.364,66.6972222 129.392,66.7662222 C129.4,66.7732222 129.383,66.7622222 129.392,66.7662222 C129.392,66.7662222 129.392,66.7682222 129.392,66.7662222 C129.393,66.7672222 129.391,66.7662222 129.391,66.7662222 C128.692,60.0262222 132.515,57.2172222 133.743,52.7402222 C133.749,52.6742222 133.762,52.6012222 133.782,52.5192222 C133.808,52.4192222 133.828,52.3162222 133.844,52.2132222 C134.026,50.9742222 133.519,49.5322222 132.558,48.0312222 C132.554,48.0222222 132.547,48.0142222 132.542,48.0072222 C132.464,47.8822222 132.379,47.7572222 132.294,47.6322222 C132.294,47.6322222 132.291,47.6302222 132.29,47.6272222 C132.133,47.3992222 131.964,47.1692222 131.787,46.9382222 C131.769,46.9142222 131.752,46.8892222 131.733,46.8662222 C131.684,46.8032222 131.632,46.7412222 131.584,46.6782222 C131.532,46.6122222 131.482,46.5472222 131.431,46.4842222 C131.377,46.4202222 131.325,46.3582222 131.273,46.2962222 C131.218,46.2302222 131.164,46.1662222 131.108,46.1002222 C131.071,46.0562222 131.03,46.0102222 130.99,45.9642222 C129.48,44.2242222 127.514,42.5062222 125.462,41.0102222 C125.462,41.0102222 125.447,40.9872222 125.462,41.0102222 C125.734,43.5462222 125.768,46.0832222 125.528,48.1122222 C125.238,50.5572222 124.363,53.4042222 123.149,55.9842222 C120.307,55.7512222 117.402,55.0932222 115.137,54.1262222 C113.244,53.3172222 111.074,52.0412222 109,50.5272222 C109.023,50.7382222 109.048,50.9462222 109.072,51.1572222 C109.08,51.2192222 109.089,51.2812222 109.097,51.3442222 C109.117,51.4942222 109.135,51.6432222 109.158,51.7932222 C109.167,51.8622222 109.177,51.9312222 109.188,52.0002222 C109.21,52.1512222 109.232,52.3002222 109.257,52.4492222 C109.266,52.5092222 109.276,52.5712222 109.286,52.6322222 C109.317,52.8212222 109.349,53.0092222 109.384,53.1962222 C109.386,53.2162222 109.388,53.2342222 109.393,53.2522222 C109.431,53.4702222 109.473,53.6862222 109.516,53.9022222 C109.518,53.9192222 109.523,53.9342222 109.526,53.9512222 C109.566,54.1462222 109.605,54.3362222 109.647,54.5282222 C109.656,54.5682222 109.665,54.6062222 109.672,54.6452222 C109.711,54.8202222 109.752,54.9942222 109.793,55.1682222 C109.802,55.2012222 109.811,55.2352222 109.818,55.2702222 C109.868,55.4702222 109.917,55.6702222 109.968,55.8662222 C109.97,55.8672222 109.97,55.8692222 109.97,55.8692222 C110.138,56.5022222 110.322,57.1132222 110.521,57.6992222 C110.523,57.7072222 110.526,57.7132222 110.528,57.7202222 C110.865,58.6992222 111.249,59.6012222 111.678,60.3902222 C111.741,60.5052222 111.805,60.6172222 111.87,60.7272222 C111.873,60.7312222 111.873,60.7362222 111.876,60.7402222 L111.877,60.7412222 C111.936,60.8412222 111.996,60.9392222 112.055,61.0332222 L112.057,61.0352222 C112.057,61.0352222 112.062,61.0422222 112.064,61.0462222 C112.128,61.1492222 112.194,61.2502222 112.261,61.3452222 L112.261,61.3462222 C112.271,61.3602222 112.279,61.3712222 112.29,61.3852222 C112.291,61.3852222 112.289,61.3872222 112.29,61.3882222 C112.377,61.5132222 112.466,61.6342222 112.554,61.7492222 C112.571,61.7682222 112.586,61.7872222 112.599,61.8052222 C112.604,61.8122222 112.61,61.8182222 112.615,61.8272222 C112.717,61.9562222 112.822,62.0812222 112.931,62.1982222 C113.005,62.2812222 113.082,62.3592222 113.159,62.4352222 C113.191,62.4682222 113.226,62.4972222 113.258,62.5282222 C113.306,62.5742222 113.355,62.6162222 113.403,62.6602222 C113.44,62.6922222 113.477,62.7202222 113.515,62.7512222 C113.561,62.7902222 113.609,62.8262222 113.656,62.8642222 C113.693,62.8922222 113.731,62.9182222 113.77,62.9452222 C113.819,62.9802222 113.867,63.0122222 113.916,63.0462222 C113.953,63.0692222 113.992,63.0932222 114.03,63.1162222 C114.083,63.1472222 114.136,63.1752222 114.187,63.2052222 C114.224,63.2252222 114.26,63.2432222 114.296,63.2612222 C114.356,63.2902222 114.416,63.3162222 114.478,63.3422222 C114.506,63.3522222 114.538,63.3692222 114.568,63.3802222 C114.661,63.4172222 114.754,63.4482222 114.847,63.4742222 C114.911,63.4932222 114.964,63.5122222 115.015,63.5322222 C119.515,64.7212222 123.897,62.8372222 129.392,66.7662222"/>
    <polygon fill="#ACD3EF" points="104.126 100.97 101.157 98 93.024 106.134 87.969 101.079 85 104.049 92.998 112.047 93.024 112.021 93.049 112.047"/>
    <g transform="translate(110 106)">
      <path fill="#FFF" d="M0.376,0.5653 L52.283,0.5653"/>
      <path stroke="#5E63B6" stroke-linecap="round" stroke-linejoin="round" stroke-width="2" d="M0.376,0.5653 L52.283,0.5653"/>
    </g>
    <polygon fill="#ACD3EF" points="104.126 120.97 101.157 118 93.024 126.134 87.969 121.079 85 124.049 92.998 132.047 93.024 132.021 93.049 132.047"/>
    <g transform="translate(110 127)">
      <path fill="#FFF" d="M0.376,0.1239 L52.283,0.1239"/>
      <path stroke="#5E63B6" stroke-linecap="round" stroke-linejoin="round" stroke-width="2" d="M0.376,0.1239 L52.283,0.1239"/>
    </g>
    <g transform="translate(110 148)">
      <path fill="#FFF" d="M0.376,0.3754 L52.283,0.3754"/>
      <path stroke="#5E63B6" stroke-linecap="round" stroke-linejoin="round" stroke-width="2" d="M0.376,0.3754 L52.283,0.3754"/>
    </g>
    <path stroke="#5E63B6" stroke-linecap="round" stroke-linejoin="round" stroke-width="2" d="M204 33L204 40M207 37L200 37"/>
    <path stroke="#5E63B6" stroke-linecap="round" d="M40 154L40 157.938M41.938 156L38 156"/>
    <path stroke="#5E63B6" stroke-linecap="round" stroke-linejoin="round" d="M215 94L215 97.938M216.938 96L213 96"/>
    <path stroke="#5E63B6" stroke-linecap="round" d="M46 54L46 57.938M47.938 56L44 56"/>
    <g transform="translate(23 91)">
      <path fill="#FFF" d="M0.4151,0.8085 L0.4151,8.9335"/>
      <path stroke="#5E63B6" stroke-linecap="round" stroke-width="2" d="M0.4151,0.8085 L0.4151,8.9335"/>
    </g>
    <g transform="translate(19 95)">
      <path fill="#FFF" d="M8.4776,0.871 L0.3526,0.871"/>
      <path stroke="#5E63B6" stroke-linecap="round" stroke-width="2" d="M8.4776,0.871 L0.3526,0.871"/>
    </g>
    <g transform="translate(243 185)">
      <path fill="#FFF" d="M0.1665,0.683 L7.1405,0.683"/>
      <path stroke="#5E63B6" stroke-linecap="round" stroke-linejoin="round" stroke-width="2" d="M0.1665,0.683 L7.1405,0.683"/>
    </g>
    <g transform="translate(0 185)">
      <path fill="#FFF" d="M0,0.683 L8.973,0.683"/>
      <path stroke="#5E63B6" stroke-linecap="round" stroke-linejoin="round" stroke-width="2" d="M0,0.683 L8.973,0.683"/>
    </g>
    <g transform="translate(92 195)">
      <path fill="#FFF" d="M0.3823,-0.0001 L67.5683,-0.0001"/>
      <path stroke="#5E63B6" stroke-linecap="round" stroke-linejoin="round" stroke-width="2" d="M0.3823,-0.0001 L67.5683,-0.0001"/>
    </g>
    <g transform="translate(168 195)">
      <path fill="#FFF" d="M0.187,-0.0001 L9.328,-0.0001"/>
      <path stroke="#5E63B6" stroke-linecap="round" stroke-linejoin="round" stroke-width="2" d="M0.187,-0.0001 L9.328,-0.0001"/>
    </g>
    <g transform="translate(79 194)">
      <path fill="#FFF" d="M5.5,0.9247 L0.5,0.9997"/>
      <path stroke="#5E63B6" stroke-linecap="round" stroke-linejoin="round" stroke-width="2" d="M5.5,0.9247 L0.5,0.9997"/>
    </g>
    <path fill="#FFF" d="M97.744,153.744 L90,153.744 C88.896,153.744 88,152.848 88,151.744 L88,144 C88,142.896 88.896,142 90,142 L97.744,142 C98.848,142 99.744,142.896 99.744,144 L99.744,151.744 C99.744,152.848 98.848,153.744 97.744,153.744"/>
    <path stroke="#5E63B6" stroke-width="2" d="M97.744,153.744 L90,153.744 C88.896,153.744 88,152.848 88,151.744 L88,144 C88,142.896 88.896,142 90,142 L97.744,142 C98.848,142 99.744,142.896 99.744,144 L99.744,151.744 C99.744,152.848 98.848,153.744 97.744,153.744 Z"/>
  </g>
</svg>
