<svg xmlns="http://www.w3.org/2000/svg" width="256" height="256" viewBox="0 0 256 256">
  <g fill="none" fill-rule="evenodd" transform="translate(3 30)">
    <path fill="#E1F2FF" d="M20,195.558 C20,138.365 66.364,92 123.558,92 C180.75,92 227.116,138.365 227.116,195.558 L20,195.558 Z"/>
    <g transform="translate(16 186)">
      <path fill="#FFF" d="M0.9776,0.9245 L36.9776,0.9245"/>
      <path stroke="#5E63B6" stroke-linecap="round" stroke-linejoin="round" stroke-width="2" d="M0.9776,0.9245 L36.9776,0.9245"/>
    </g>
    <g transform="translate(192 186)">
      <path fill="#FFF" d="M0.3198,0.9245 L44.3198,0.9245"/>
      <path stroke="#5E63B6" stroke-linecap="round" stroke-linejoin="round" stroke-width="2" d="M0.3198,0.9245 L44.3198,0.9245"/>
    </g>
    <path fill="#9452BA" d="M162.543754,186.512 L167.522754,186.512 C169.234754,186.512 170.787754,185.464 171.407754,183.868 C173.175754,179.318 172.734754,175.137 172.945754,171.561 C173.337754,164.936 172.302754,161.541 171.314754,156 L163.840754,156.173 C163.840754,156.173 164.476754,158.926 164.899754,167.185 C165.030754,169.74 160.808754,180.003 161.006754,185.038 C161.038754,185.864 161.716754,186.512 162.543754,186.512"/>
    <path stroke="#52267D" d="M162.543754,186.512 L167.522754,186.512 C169.234754,186.512 170.787754,185.464 171.407754,183.868 C173.175754,179.318 172.734754,175.137 172.945754,171.561 C173.337754,164.936 172.302754,161.541 171.314754,156 L163.840754,156.173 C163.840754,156.173 164.476754,158.926 164.899754,167.185 C165.030754,169.74 160.808754,180.003 161.006754,185.038 C161.038754,185.864 161.716754,186.512 162.543754,186.512 Z"/>
    <path fill="#9452BA" d="M147.242496,162.817 L141.230496,156 L137.518496,156.147 C137.518496,156.147 136.998496,161.818 136.784496,164.193 C136.408496,168.379 134.674496,176.581 133.608496,180.18 C133.262496,181.351 133.060496,182.445 133.004496,183.437 C132.910496,185.107 134.303496,186.486 135.974496,186.486 L140.386496,186.486 C142.955496,186.486 145.239496,184.771 145.871496,182.281 C147.837496,174.527 147.242496,162.817 147.242496,162.817"/>
    <path stroke="#52267D" d="M147.242496,162.817 L141.230496,156 L137.518496,156.147 C137.518496,156.147 136.998496,161.818 136.784496,164.193 C136.408496,168.379 134.674496,176.581 133.608496,180.18 C133.262496,181.351 133.060496,182.445 133.004496,183.437 C132.910496,185.107 134.303496,186.486 135.974496,186.486 L140.386496,186.486 C142.955496,186.486 145.239496,184.771 145.871496,182.281 C147.837496,174.527 147.242496,162.817 147.242496,162.817 Z"/>
    <polyline stroke="#52267D" stroke-width=".25" points="138.992 167 138 167.871 138.949 168.727 140.495 168.133 140.185 167.455 138.902 167.759 138.913 167.988 139.246 167.973"/>
    <path fill="#9452BA" d="M138.988745,137.407 C143.367745,137.317 147.471745,134.302 156.408745,133.889 C156.537745,133.305 156.694745,132.778 156.894745,132.345 C158.511745,128.844 160.794745,118.753 159.328745,112.123 L158.168745,106.878 C157.787745,105.157 157.595745,103.399 157.595745,101.636 C157.595745,100.902 157.670745,100.185 157.811745,99.493 C157.846745,99.32 157.886745,99.148 157.930745,98.978 C158.061745,98.469 158.229745,97.973 158.431745,97.497 C158.499745,97.338 158.569745,97.18 158.644745,97.025 C158.794745,96.716 158.958745,96.414 159.135745,96.121 C159.313745,95.829 159.505745,95.546 159.709745,95.273 C160.321745,94.453 161.049745,93.726 161.868745,93.113 C162.141745,92.909 162.425745,92.718 162.717745,92.54 C164.325745,91.563 166.213745,91 168.232745,91 L169.976745,91 C172.914745,91 175.573745,92.191 177.498745,94.115 C177.738745,94.356 177.967745,94.608 178.184745,94.871 C178.578745,95.348 178.928745,95.862 179.235745,96.404 C179.350745,96.607 179.462745,96.814 179.564745,97.025 C179.638745,97.18 179.710745,97.338 179.777745,97.497 C179.978745,97.973 180.147745,98.469 180.278745,98.978 C180.409745,99.488 180.504745,100.012 180.558745,100.55 C180.594745,100.907 180.613745,101.269 180.613745,101.636 C180.613745,102.369 180.316745,103.032 179.836745,103.511 C179.356745,103.992 178.693745,104.289 177.961745,104.289 L167.071745,104.289 L168.719745,113.741 C170.654745,123.451 170.072745,129.944 168.574745,134.273 C168.240745,135.238 166.338745,138.658 166.338745,138.658 C171.783745,147.251 180.134745,151.007 189.062745,152.096 C196.654745,153.024 213.041745,146.101 204.592745,138.094 C196.143745,130.086 206.352745,135.065 207.856745,136.079 C209.359745,137.092 218.049745,144.6 208.617745,155.617 C204.630745,160.276 200.112745,164.511 189.243745,167.758 C187.500745,168.278 177.987745,168.97 172.867745,170.439 C157.622745,174.816 145.227745,170.057 138.282745,159.994 C131.365745,149.97 137.259745,137.442 138.988745,137.407"/>
    <path stroke="#52267D" stroke-width="2" d="M138.988745,137.407 C143.367745,137.317 147.471745,134.302 156.408745,133.889 C156.537745,133.305 156.694745,132.778 156.894745,132.345 C158.511745,128.844 160.794745,118.753 159.328745,112.123 L158.168745,106.878 C157.787745,105.157 157.595745,103.399 157.595745,101.636 C157.595745,100.902 157.670745,100.185 157.811745,99.493 C157.846745,99.32 157.886745,99.148 157.930745,98.978 C158.061745,98.469 158.229745,97.973 158.431745,97.497 C158.499745,97.338 158.569745,97.18 158.644745,97.025 C158.794745,96.716 158.958745,96.414 159.135745,96.121 C159.313745,95.829 159.505745,95.546 159.709745,95.273 C160.321745,94.453 161.049745,93.726 161.868745,93.113 C162.141745,92.909 162.425745,92.718 162.717745,92.54 C164.325745,91.563 166.213745,91 168.232745,91 L169.976745,91 C172.914745,91 175.573745,92.191 177.498745,94.115 C177.738745,94.356 177.967745,94.608 178.184745,94.871 C178.578745,95.348 178.928745,95.862 179.235745,96.404 C179.350745,96.607 179.462745,96.814 179.564745,97.025 C179.638745,97.18 179.710745,97.338 179.777745,97.497 C179.978745,97.973 180.147745,98.469 180.278745,98.978 C180.409745,99.488 180.504745,100.012 180.558745,100.55 C180.594745,100.907 180.613745,101.269 180.613745,101.636 C180.613745,102.369 180.316745,103.032 179.836745,103.511 C179.356745,103.992 178.693745,104.289 177.961745,104.289 L167.071745,104.289 L168.719745,113.741 C170.654745,123.451 170.072745,129.944 168.574745,134.273 C168.240745,135.238 166.338745,138.658 166.338745,138.658 C171.783745,147.251 180.134745,151.007 189.062745,152.096 C196.654745,153.024 213.041745,146.101 204.592745,138.094 C196.143745,130.086 206.352745,135.065 207.856745,136.079 C209.359745,137.092 218.049745,144.6 208.617745,155.617 C204.630745,160.276 200.112745,164.511 189.243745,167.758 C187.500745,168.278 177.987745,168.97 172.867745,170.439 C157.622745,174.816 145.227745,170.057 138.282745,159.994 C131.365745,149.97 137.259745,137.442 138.988745,137.407 Z"/>
    <path fill="#9452BA" d="M148.388,123.029 C148.738,111.769 139.801,102.92 129.644,101.05 C127.535,100.662 126.85,100 124.543,100 L122.776,100 C116.825,100 112,104.825 112,110.776 C112,112.259 113.203,113.463 114.686,113.463 C114.686,113.463 132.806,113.458 132.891,113.45 C132.892,113.45 134.367,113.451 134.367,113.451 C134.366,113.453 132.889,113.454 132.887,113.456 C136.894,115.157 139.387,120.277 139.827,123.029 C140.453,126.947 139.994,130.179 138.658,132.794 C137.767,134.535 137.666,136.633 137.804,138.332 C137.804,138.332 137.847,138.346 137.907,138.367 C137.97,139.275 138.117,140.308 138.387,141.487 C140.094,140.298 142.747,138.509 143.232,138.253 C144.279,137.7 146.643,136.442 147.701,135.837 C154.459,131.962 148.19,129.433 148.388,123.029"/>
    <path stroke="#52267D" d="M148.388,123.029 C148.738,111.769 139.801,102.92 129.644,101.05 C127.535,100.662 126.85,100 124.543,100 L122.776,100 C116.825,100 112,104.825 112,110.776 C112,112.259 113.203,113.463 114.686,113.463 C114.686,113.463 132.806,113.458 132.891,113.45 C132.892,113.45 134.367,113.451 134.367,113.451 C134.366,113.453 132.889,113.454 132.887,113.456 C136.894,115.157 139.387,120.277 139.827,123.029 C140.453,126.947 139.994,130.179 138.658,132.794 C137.767,134.535 137.666,136.633 137.804,138.332 C137.804,138.332 137.847,138.346 137.907,138.367 C137.97,139.275 138.117,140.308 138.387,141.487 C140.094,140.298 142.747,138.509 143.232,138.253 C144.279,137.7 146.643,136.442 147.701,135.837 C154.459,131.962 148.19,129.433 148.388,123.029 Z"/>
    <g transform="translate(133 112)">
      <path fill="#F3E3FF" d="M10.0005,24.0349 C9.9115,22.2959 9.6465,21.4029 9.8405,20.6949 C10.9635,16.6219 11.3285,15.3369 11.3285,11.0239 C11.3285,6.7389 8.8465,2.5039 5.1805,0.2509 C4.9795,0.1279 2.3415,-0.0591 0.2705,1.4509 C4.2765,3.1519 6.7705,8.2719 7.2105,11.0239 C7.8365,14.9419 7.3775,18.1749 6.0415,20.7889 C5.1505,22.5299 5.0495,24.6279 5.1875,26.3269 C5.1875,26.3269 10.1035,28.1729 10.0005,24.0349"/>
      <path stroke="#52267D" stroke-width=".5" d="M10.0005,24.0349 C9.9115,22.2959 9.6465,21.4029 9.8405,20.6949 C10.9635,16.6219 11.3285,15.3369 11.3285,11.0239 C11.3285,6.7389 8.8465,2.5039 5.1805,0.2509 C4.9795,0.1279 2.3415,-0.0591 0.2705,1.4509 C4.2765,3.1519 6.7705,8.2719 7.2105,11.0239 C7.8365,14.9419 7.3775,18.1749 6.0415,20.7889 C5.1505,22.5299 5.0495,24.6279 5.1875,26.3269 C5.1875,26.3269 10.1035,28.1729 10.0005,24.0349"/>
    </g>
    <path fill="#FFF" d="M117,101.282 C117,101.282 116.996,99.4 118.866,98.652 C119.437,98.425 120.479,98 120.479,98 C120.479,98 121.592,100.355 120.331,100.95 C118.514,101.804 117,101.282 117,101.282"/>
    <path stroke="#52267D" stroke-width=".5" d="M117,101.282 C117,101.282 116.996,99.4 118.866,98.652 C119.437,98.425 120.479,98 120.479,98 C120.479,98 121.592,100.355 120.331,100.95 C118.514,101.804 117,101.282 117,101.282 Z"/>
    <path fill="#FFF" d="M122,99.9822554 C122,99.9822554 122.053,97.4182554 124.938,97.0442554 C125.476,96.9742554 126.88,97.0082554 126.88,97.0082554 C126.88,97.0082554 127.527,99.7212554 126.007,99.9822554 C124.137,100.302255 122,99.9822554 122,99.9822554"/>
    <path stroke="#52267D" stroke-width=".5" d="M122,99.9822554 C122,99.9822554 122.053,97.4182554 124.938,97.0442554 C125.476,96.9742554 126.88,97.0082554 126.88,97.0082554 C126.88,97.0082554 127.527,99.7212554 126.007,99.9822554 C124.137,100.302255 122,99.9822554 122,99.9822554 Z"/>
    <path fill="#FFF" d="M128,100.198063 C128,100.198063 128.38,97.3540634 130.935,98.1360634 C132.026,98.4700634 132.632,99.3000634 132.632,99.3000634 C132.632,99.3000634 132.123,101.466063 131.107,101.221063 C129.333,100.797063 128,100.198063 128,100.198063"/>
    <path stroke="#52267D" stroke-width=".5" d="M128,100.198063 C128,100.198063 128.38,97.3540634 130.935,98.1360634 C132.026,98.4700634 132.632,99.3000634 132.632,99.3000634 C132.632,99.3000634 132.123,101.466063 131.107,101.221063 C129.333,100.797063 128,100.198063 128,100.198063 Z"/>
    <path fill="#FFF" d="M135,114.686 C135,114.686 140.955,111.449 139.822,106 C140.613,106.652 142.728,108.638 143.494,109.655 C143.494,110.721 143.689,114.957 137.841,117.793 C136.812,116.727 135.946,115.396 135,114.686"/>
    <path stroke="#52267D" stroke-width=".5" d="M135,114.686 C135,114.686 140.955,111.449 139.822,106 C140.613,106.652 142.728,108.638 143.494,109.655 C143.494,110.721 143.689,114.957 137.841,117.793 C136.812,116.727 135.946,115.396 135,114.686 Z"/>
    <path fill="#F3E3FF" d="M118 100.916C118 100.916 117.998 99.817 119.089 99.381 119.422 99.248 120.03 99 120.03 99 120.03 99 120.68 100.375 119.944 100.722 118.884 101.221 118 100.916 118 100.916M123 99.746C123 99.746 123.031 98.245 124.721 98.025 125.036 97.985 125.857 98.005 125.857 98.005 125.857 98.005 126.237 99.594 125.346 99.746 124.251 99.933 123 99.746 123 99.746M128 100.300594C128 100.300594 128.225 98.6175936 129.736 99.0805936 130.382 99.2785936 130.74 99.7685936 130.74 99.7685936 130.74 99.7685936 130.439 101.049594 129.838 100.905594 128.789 100.654594 128 100.300594 128 100.300594M128.646 110.967L122 110.967 122 108.102C122 106.942 122.94 106 124.101 106L128.646 106C129.354 106 129.928 106.574 129.928 107.282L129.928 109.685C129.928 110.393 129.354 110.967 128.646 110.967"/>
    <path fill="#FFF" d="M127.837,110.901 L122,110.901 L122,109.014 C122,107.902 122.902,107 124.015,107 L127.837,107 C128.393,107 128.844,107.451 128.844,108.007 L128.844,109.894 C128.844,110.45 128.393,110.901 127.837,110.901"/>
    <path stroke="#52267D" stroke-width=".5" d="M127.837,110.901 L122,110.901 L122,109.014 C122,107.902 122.902,107 124.015,107 L127.837,107 C128.393,107 128.844,107.451 128.844,108.007 L128.844,109.894 C128.844,110.45 128.393,110.901 127.837,110.901 Z"/>
    <path fill="#52267D" d="M123 109.09C123 109.692 123.488 110.18 124.09 110.18 124.691 110.18 125.179 109.692 125.179 109.09 125.179 108.488 124.691 108 124.09 108 123.488 108 123 108.488 123 109.09M114.413496 111.945C114.723496 111.879 114.999496 111.707 115.197496 111.459L115.562496 111 114.748496 111.174 114.269496 111.276C114.085496 111.316 113.968496 111.498 114.007496 111.682 114.047496 111.867 114.228496 111.984 114.413496 111.945"/>
    <path fill="#E1F2FF" d="M136,114.446 C136,114.446 140.588,111.976 140.518,107 C142.489,108.436 143.022,109.365 143.022,109.365 C143.022,109.365 142.68,111.733 141.576,112.929 C139.882,114.764 138.117,115.329 136,114.446"/>
    <g transform="translate(137 113)">
      <path fill="#FFF" d="M3.69,0.7878 C3.69,0.7878 1.881,2.6278 0.117,3.5108"/>
      <path stroke="#52267D" stroke-width=".5" d="M3.69,0.7878 C3.69,0.7878 1.881,2.6278 0.117,3.5108"/>
    </g>
    <g transform="translate(134 86)">
      <path fill="#9452BA" d="M24.6812,47.1354 L23.6602,45.1184 C19.8422,35.7374 19.2532,30.2284 21.2342,21.2744 L22.3932,16.0294 C22.7742,14.3084 22.9662,12.5504 22.9662,10.7874 C22.9662,4.9134 18.2032,0.1514 12.3292,0.1514 L10.6122,0.1514 C4.8182,0.1514 0.1202,4.8484 0.1202,10.6424 L0.1202,10.9444 C0.1202,12.3224 1.2382,13.4404 2.6172,13.4404 L13.4902,13.4404 L11.8422,22.8924 C6.7952,48.2224 7.3012,58.4924 17.2322,56.3814"/>
      <path stroke="#52267D" d="M24.6812,47.1354 L23.6602,45.1184 C19.8422,35.7374 19.2532,30.2284 21.2342,21.2744 L22.3932,16.0294 C22.7742,14.3084 22.9662,12.5504 22.9662,10.7874 C22.9662,4.9134 18.2032,0.1514 12.3292,0.1514 L10.6122,0.1514 C4.8182,0.1514 0.1202,4.8484 0.1202,10.6424 L0.1202,10.9444 C0.1202,12.3224 1.2382,13.4404 2.6172,13.4404 L13.4902,13.4404 L11.8422,22.8924 C6.7952,48.2224 7.3012,58.4924 17.2322,56.3814"/>
    </g>
    <path fill="#FFF" d="M139,86.6720512 C139,86.6720512 139.175,84.8280512 141.007,84.0960512 C141.565,83.8720512 142.441,84.1100512 142.441,84.1100512 C142.441,84.1100512 143.499,85.7640512 142.263,86.3460512 C140.483,87.1840512 139,86.6720512 139,86.6720512"/>
    <path stroke="#52267D" stroke-width=".5" d="M139,86.6720512 C139,86.6720512 139.175,84.8280512 141.007,84.0960512 C141.565,83.8720512 142.441,84.1100512 142.441,84.1100512 C142.441,84.1100512 143.499,85.7640512 142.263,86.3460512 C140.483,87.1840512 139,86.6720512 139,86.6720512 Z"/>
    <path fill="#FFF" d="M144,86.3688176 C144,86.3688176 144.061,83.4648176 147.328,83.0408176 C147.938,82.9618176 148.72,83.0218176 148.72,83.0218176 C148.72,83.0218176 150.261,86.0738176 148.538,86.3688176 C146.421,86.7318176 144,86.3688176 144,86.3688176"/>
    <path stroke="#52267D" stroke-width=".5" d="M144,86.3688176 C144,86.3688176 144.061,83.4648176 147.328,83.0408176 C147.938,82.9618176 148.72,83.0218176 148.72,83.0218176 C148.72,83.0218176 150.261,86.0738176 148.538,86.3688176 C146.421,86.7318176 144,86.3688176 144,86.3688176 Z"/>
    <path fill="#FFF" d="M149,87.1015556 C149,87.1015556 149.443,84.3255556 151.926,85.1545556 C152.986,85.5095556 153.559,86.3365556 153.559,86.3365556 C153.559,86.3365556 153.007,88.4445556 152.018,88.1815556 C150.29,87.7205556 149,87.1015556 149,87.1015556"/>
    <path stroke="#52267D" stroke-width=".5" d="M149,87.1015556 C149,87.1015556 149.443,84.3255556 151.926,85.1545556 C152.986,85.5095556 153.559,86.3365556 153.559,86.3365556 C153.559,86.3365556 153.007,88.4445556 152.018,88.1815556 C150.29,87.7205556 149,87.1015556 149,87.1015556 Z"/>
    <g transform="translate(139 136)">
      <path fill="#F3E3FF" d="M0.5405,1.1589 C1.1595,0.6949 1.7875,0.4269 2.3275,0.2979"/>
      <path stroke="#52267D" stroke-width=".5" d="M0.5405,1.1589 C1.1595,0.6949 1.7875,0.4269 2.3275,0.2979"/>
    </g>
    <g transform="translate(136 99)">
      <path fill="#F3E3FF" d="M7.1411,38.1022 C5.3641,30.8792 8.5701,17.0722 9.1591,13.6732 L11.4931,0.0582 L12.5171,0.0582 C13.8131,0.0582 14.7941,1.4672 14.6101,2.7522 L12.9181,14.5622 C12.3461,18.5612 11.7501,37.0772 18.6991,41.0532 C20.1811,41.9022 22.5901,41.3452 23.4981,40.9122 C26.8011,39.3342 27.7501,35.2172 28.4741,31.8982 C29.9721,25.0282 28.8051,19.6352 28.4731,14.2502 L28.1251,7.5132 C28.0631,6.2952 29.0311,5.0032 30.2481,5.0032 L31.4901,5.0032 L33.7261,18.6192 C34.3981,22.4962 36.1291,35.9412 28.2061,42.2442 C28.0631,42.3582 30.1331,42.8212 29.5331,43.8812 C27.1501,48.0932 20.2451,48.7592 18.9461,50.5632 C13.9381,57.5072 18.6281,72.3042 18.6281,72.3042 C18.6281,72.3042 13.0711,70.0862 9.6281,67.0012 C1.5821,59.7892 0.5611,49.3432 0.5241,46.2682 C0.4791,42.5892 1.4451,40.3072 2.6351,38.9452"/>
      <path stroke="#52267D" stroke-width=".5" d="M7.1411,38.1022 C5.3641,30.8792 8.5701,17.0722 9.1591,13.6732 L11.4931,0.0582 L12.5171,0.0582 C13.8131,0.0582 14.7941,1.4672 14.6101,2.7522 L12.9181,14.5622 C12.3461,18.5612 11.7501,37.0772 18.6991,41.0532 C20.1811,41.9022 22.5901,41.3452 23.4981,40.9122 C26.8011,39.3342 27.7501,35.2172 28.4741,31.8982 C29.9721,25.0282 28.8051,19.6352 28.4731,14.2502 L28.1251,7.5132 C28.0631,6.2952 29.0311,5.0032 30.2481,5.0032 L31.4901,5.0032 L33.7261,18.6192 C34.3981,22.4962 36.1291,35.9412 28.2061,42.2442 C28.0631,42.3582 30.1331,42.8212 29.5331,43.8812 C27.1501,48.0932 20.2451,48.7592 18.9461,50.5632 C13.9381,57.5072 18.6281,72.3042 18.6281,72.3042 C18.6281,72.3042 13.0711,70.0862 9.6281,67.0012 C1.5821,59.7892 0.5611,49.3432 0.5241,46.2682 C0.4791,42.5892 1.4451,40.3072 2.6351,38.9452"/>
    </g>
    <path fill="#FFF" d="M208.861567,142.931 C208.861567,142.931 210.005567,141.665 209.362567,139.965 C209.166567,139.447 208.460567,139 208.460567,139 C208.460567,139 206.677567,139.311 207.051567,140.513 C207.590567,142.243 208.861567,142.931 208.861567,142.931"/>
    <path stroke="#52267D" d="M208.861567,142.931 C208.861567,142.931 210.005567,141.665 209.362567,139.965 C209.166567,139.447 208.460567,139 208.460567,139 C208.460567,139 206.677567,139.311 207.051567,140.513 C207.590567,142.243 208.861567,142.931 208.861567,142.931 Z"/>
    <path fill="#F3E3FF" d="M207.65305,141.379 C207.65305,141.379 208.05405,140.935 207.82905,140.339 C207.76005,140.156 207.51205,140 207.51205,140 C207.51205,140 206.88705,140.109 207.01805,140.53 C207.20805,141.137 207.65305,141.379 207.65305,141.379"/>
    <path fill="#FFF" d="M199.225116,151.674 C199.225116,151.674 198.140116,149.197 200.734116,147.561 C201.217116,147.255 201.902116,147 201.902116,147 C201.902116,147 204.398116,148.974 203.058116,149.898 C201.412116,151.033 199.225116,151.674 199.225116,151.674"/>
    <path stroke="#52267D" d="M199.225116,151.674 C199.225116,151.674 198.140116,149.197 200.734116,147.561 C201.217116,147.255 201.902116,147 201.902116,147 C201.902116,147 204.398116,148.974 203.058116,149.898 C201.412116,151.033 199.225116,151.674 199.225116,151.674 Z"/>
    <path fill="#F3E3FF" d="M200.12536,150.592 C200.12536,150.592 199.52236,149.218 200.96136,148.311 C201.22936,148.142 201.60936,148 201.60936,148 C201.60936,148 202.99336,149.095 202.25036,149.607 C201.33736,150.237 200.12536,150.592 200.12536,150.592"/>
    <path fill="#FFF" d="M206.435086,144 C206.435086,144 208.315086,145.651 206.511086,147.128 C205.741086,147.759 204.846086,147.797 204.846086,147.797 C204.846086,147.797 203.520086,146.38 204.188086,145.761 C205.356086,144.678 206.435086,144 206.435086,144"/>
    <path stroke="#52267D" d="M206.435086,144 C206.435086,144 208.315086,145.651 206.511086,147.128 C205.741086,147.759 204.846086,147.797 204.846086,147.797 C204.846086,147.797 203.520086,146.38 204.188086,145.761 C205.356086,144.678 206.435086,144 206.435086,144 Z"/>
    <path fill="#F3E3FF" d="M207.077789,145 C207.077789,145 207.910789,145.731 207.111789,146.385 C206.770789,146.664 206.374789,146.682 206.374789,146.682 C206.374789,146.682 205.786789,146.054 206.083789,145.779 C206.599789,145.3 207.077789,145 207.077789,145"/>
    <path fill="#FFF" d="M190.070895,153.511351 C190.070895,153.511351 189.450895,151.306351 191.877895,150.431351 C194.303895,149.556351 194.955895,150.283351 194.955895,150.283351 C194.955895,150.283351 196.298895,152.543351 195.098895,153.270351 C193.898895,153.997351 190.070895,153.511351 190.070895,153.511351"/>
    <path stroke="#52267D" d="M190.070895,153.511351 C190.070895,153.511351 189.450895,151.306351 191.877895,150.431351 C194.303895,149.556351 194.955895,150.283351 194.955895,150.283351 C194.955895,150.283351 196.298895,152.543351 195.098895,153.270351 C193.898895,153.997351 190.070895,153.511351 190.070895,153.511351 Z"/>
    <path fill="#F3E3FF" d="M191.036799,152.825998 C191.036799,152.825998 190.714799,151.679998 191.975799,151.223998 C193.237799,150.768998 193.577799,151.147998 193.577799,151.147998 C193.577799,151.147998 194.274799,152.322998 193.651799,152.700998 C193.027799,153.078998 191.036799,152.825998 191.036799,152.825998"/>
    <path fill="#FFF" d="M146.752,102 C146.752,102 150.626,104.19 156.071,102.213 C155.697,103.902 154.936,107.297 154.936,107.297 C154.936,107.297 149.891,108.844 146,106.396 C146.398,104.154 146.752,102 146.752,102"/>
    <path stroke="#52267D" stroke-width=".5" d="M146.752,102 C146.752,102 150.626,104.19 156.071,102.213 C155.697,103.902 154.936,107.297 154.936,107.297 C154.936,107.297 149.891,108.844 146,106.396 C146.398,104.154 146.752,102 146.752,102 Z"/>
    <path fill="#FFF" d="M176.175684,91.882 C176.175684,91.882 175.999684,90.025 174.154684,89.286 C173.590684,89.061 172.070684,89 172.070684,89 C172.070684,89 171.643684,90.967 172.888684,91.554 C174.681684,92.398 176.175684,91.882 176.175684,91.882"/>
    <path stroke="#52267D" stroke-width=".5" d="M176.175684,91.882 C176.175684,91.882 175.999684,90.025 174.154684,89.286 C173.590684,89.061 172.070684,89 172.070684,89 C172.070684,89 171.643684,90.967 172.888684,91.554 C174.681684,92.398 176.175684,91.882 176.175684,91.882 Z"/>
    <path fill="#FFF" d="M171.665691,90.9357922 C171.665691,90.9357922 171.612691,88.4047922 168.765691,88.0357922 C168.234691,87.9667922 167.552691,88.0187922 167.552691,88.0187922 C167.552691,88.0187922 166.209691,90.6777922 167.710691,90.9357922 C169.556691,91.2517922 171.665691,90.9357922 171.665691,90.9357922"/>
    <path stroke="#52267D" stroke-width=".5" d="M171.665691,90.9357922 C171.665691,90.9357922 171.612691,88.4047922 168.765691,88.0357922 C168.234691,87.9667922 167.552691,88.0187922 167.552691,88.0187922 C167.552691,88.0187922 166.209691,90.6777922 167.710691,90.9357922 C169.556691,91.2517922 171.665691,90.9357922 171.665691,90.9357922 Z"/>
    <path fill="#FFF" d="M165.594,91.1166785 C165.594,91.1166785 165.148,88.3206785 162.647,89.1556785 C161.577,89.5126785 161,90.3456785 161,90.3456785 C161,90.3456785 161.557,92.4706785 162.554,92.2046785 C164.294,91.7406785 165.594,91.1166785 165.594,91.1166785"/>
    <path stroke="#52267D" stroke-width=".5" d="M165.594,91.1166785 C165.594,91.1166785 165.148,88.3206785 162.647,89.1556785 C161.577,89.5126785 161,90.3456785 161,90.3456785 C161,90.3456785 161.557,92.4706785 162.554,92.2046785 C164.294,91.7406785 165.594,91.1166785 165.594,91.1166785 Z"/>
    <path fill="#F3E3FF" d="M140 86.5104425C140 86.5104425 140.099 85.4684425 141.134 85.0544425 141.45 84.9274425 141.944 85.0624425 141.944 85.0624425 141.944 85.0624425 142.543 85.9974425 141.844 86.3264425 140.838 86.7994425 140 86.5104425 140 86.5104425M145 86.2126924C145 86.2126924 145.04 84.3046924 147.187 84.0266924 147.587 83.9746924 148.101 84.0146924 148.101 84.0146924 148.101 84.0146924 149.112 86.0186924 147.981 86.2126924 146.59 86.4516924 145 86.2126924 145 86.2126924M150 87.3371927C150 87.3371927 150.282 85.5711927 151.861 86.0981927 152.536 86.3241927 152.901 86.8501927 152.901 86.8501927 152.901 86.8501927 152.55 88.1921927 151.92 88.0241927 150.821 87.7311927 150 87.3371927 150 87.3371927M175.327393 91.606C175.327393 91.606 175.228393 90.571 174.200393 90.16 173.887393 90.034 173.039393 90 173.039393 90 173.039393 90 172.801393 91.096 173.495393 91.423 174.494393 91.893 175.327393 91.606 175.327393 91.606M169.70305 90.7010193C169.70305 90.7010193 169.67305 89.2340193 168.02305 89.0200193 167.71605 88.9810193 167.32005 89.0110193 167.32005 89.0110193 167.32005 89.0110193 166.54205 90.5520193 167.41205 90.7010193 168.48105 90.8840193 169.70305 90.7010193 169.70305 90.7010193M164.717 91.2521094C164.717 91.2521094 164.453 89.5981094 162.974 90.0921094 162.342 90.3031094 162 90.7961094 162 90.7961094 162 90.7961094 162.329 92.0531094 162.919 91.8961094 163.948 91.6211094 164.717 91.2521094 164.717 91.2521094"/>
    <path fill="#FFF" d="M158,107.371 C158,107.371 162.797,108.119 167.358,107 C167.803,109.478 168.088,111.35 168.088,111.35 C168.088,111.35 164.925,113.498 159.08,112.252 C158.391,109.068 158,107.371 158,107.371"/>
    <path stroke="#52267D" stroke-width=".5" d="M158,107.371 C158,107.371 162.797,108.119 167.358,107 C167.803,109.478 168.088,111.35 168.088,111.35 C168.088,111.35 164.925,113.498 159.08,112.252 C158.391,109.068 158,107.371 158,107.371 Z"/>
    <path fill="#F3E3FF" d="M165.282,101.966 L171.928,101.966 L171.928,99.101 C171.928,97.941 170.988,97 169.827,97 L165.282,97 C164.574,97 164,97.574 164,98.282 L164,100.684 C164,101.392 164.574,101.966 165.282,101.966"/>
    <path fill="#FFF" d="M166.007,101.902 L171.844,101.902 L171.844,100.015 C171.844,98.902 170.942,98 169.829,98 L166.007,98 C165.451,98 165,98.451 165,99.007 L165,100.894 C165,101.451 165.451,101.902 166.007,101.902"/>
    <path stroke="#52267D" stroke-width=".5" d="M166.007,101.902 L171.844,101.902 L171.844,100.015 C171.844,98.902 170.942,98 169.829,98 L166.007,98 C165.451,98 165,98.451 165,99.007 L165,100.894 C165,101.451 165.451,101.902 166.007,101.902 Z"/>
    <path fill="#52267D" d="M171.18,101.09 C171.18,101.692 170.692,102.18 170.09,102.18 C169.489,102.18 169,101.692 169,101.09 C169,100.487 169.489,100 170.09,100 C170.692,100 171.18,100.487 171.18,101.09"/>
    <path fill="#F3E3FF" d="M148.646,96.966 L142,96.966 L142,94.101 C142,92.941 142.941,92 144.101,92 L148.646,92 C149.355,92 149.928,92.574 149.928,93.282 L149.928,95.684 C149.928,96.392 149.355,96.966 148.646,96.966"/>
    <path fill="#FFF" d="M147.836,96.901 L142,96.901 L142,95.014 C142,93.901 142.901,93 144.015,93 L147.836,93 C148.393,93 148.844,93.451 148.844,94.007 L148.844,95.894 C148.844,96.45 148.393,96.901 147.836,96.901"/>
    <path stroke="#52267D" stroke-width=".5" d="M147.836,96.901 L142,96.901 L142,95.014 C142,93.901 142.901,93 144.015,93 L147.836,93 C148.393,93 148.844,93.451 148.844,94.007 L148.844,95.894 C148.844,96.45 148.393,96.901 147.836,96.901 Z"/>
    <path fill="#52267D" d="M143 96.089C143 96.692 143.488 97.179 144.09 97.179 144.691 97.179 145.18 96.692 145.18 96.089 145.18 95.487 144.691 95 144.09 95 143.488 95 143 95.487 143 96.089M178.149 102.945C177.839 102.879 177.562 102.707 177.365 102.46L177 102 177.813 102.174 178.293 102.277C178.477 102.316 178.594 102.499 178.554 102.683 178.515 102.868 178.334 102.985 178.149 102.945M136.413496 97.945C136.723496 97.879 137.000496 97.707 137.197496 97.459L137.561496 97 136.749496 97.174 136.269496 97.277C136.085496 97.316 135.968496 97.498 136.007496 97.682 136.047496 97.867 136.228496 97.985 136.413496 97.945"/>
    <path fill="#E1F2FF" d="M147,103 C147,103 151.059,104.729 155.152,103.149 C154.724,105.551 154.341,106.776 154.341,106.776 C154.341,106.776 151.878,106.921 150.247,106.6 C147.918,106.141 147,105.082 147,103"/>
    <g transform="translate(146 104)">
      <path fill="#FFF" d="M7.0747,2.1647 C7.0747,2.1647 3.3827,2.4727 0.5227,0.9897"/>
      <path stroke="#52267D" stroke-width=".5" d="M7.0747,2.1647 C7.0747,2.1647 3.3827,2.4727 0.5227,0.9897"/>
    </g>
    <path fill="#E1F2FF" d="M165.775,107 C165.775,107 162.175,108.023 159,107.389 C159.599,109.753 159.918,110.494 159.918,110.494 C159.918,110.494 164.681,109.859 165.775,107"/>
    <g transform="translate(163 141)">
      <path fill="#F3E3FF" d="M1.2066,0.2946 C1.2066,0.2946 0.9886,0.4516 0.6806,0.6386"/>
      <path stroke="#52267D" stroke-width=".5" d="M1.2066,0.2946 C1.2066,0.2946 0.9886,0.4516 0.6806,0.6386"/>
    </g>
    <g transform="translate(159 109)">
      <path fill="#FFF" d="M7.4859,0.0768 C7.4859,0.0768 3.8619,0.7638 0.0149,0.3058"/>
      <path stroke="#52267D" stroke-width=".5" d="M7.4859,0.0768 C7.4859,0.0768 3.8619,0.7638 0.0149,0.3058"/>
    </g>
    <path fill="#FFF" d="M160.915608,183.280803 C160.915608,183.280803 159.954608,182.497803 158.676608,183.546803 C157.509608,184.505803 156.631608,185.986803 157.154608,186.135803 C157.678608,186.284803 158.599608,186.428803 159.565608,186.252803 C160.407608,186.097803 161.150608,186.259803 161.488608,184.499803 C161.645608,183.678803 160.915608,183.280803 160.915608,183.280803"/>
    <path stroke="#52267D" stroke-width=".5" d="M160.915608,183.280803 C160.915608,183.280803 159.954608,182.497803 158.676608,183.546803 C157.509608,184.505803 156.631608,185.986803 157.154608,186.135803 C157.678608,186.284803 158.599608,186.428803 159.565608,186.252803 C160.407608,186.097803 161.150608,186.259803 161.488608,184.499803 C161.645608,183.678803 160.915608,183.280803 160.915608,183.280803 Z"/>
    <path fill="#E1F2FF" d="M160.436928,183.174531 C160.436928,183.174531 159.837928,182.687531 159.042928,183.340531 C158.317928,183.937531 157.770928,184.859531 158.095928,184.951531 C158.421928,185.043531 158.995928,185.134531 159.596928,185.024531 C160.120928,184.927531 160.582928,185.028531 160.792928,183.933531 C160.890928,183.422531 160.436928,183.174531 160.436928,183.174531"/>
    <path fill="#FFF" d="M162.152089,183.003011 C162.660089,182.935011 163.391089,184.038011 163.307089,184.374011 C163.224089,184.710011 163.166089,185.820011 162.344089,185.941011 C161.739089,186.030011 159.580089,186.255011 159.108089,185.786011 C158.673089,185.354011 159.524089,183.355011 162.152089,183.003011"/>
    <path stroke="#52267D" stroke-width=".5" d="M162.152089,183.003011 C162.660089,182.935011 163.391089,184.038011 163.307089,184.374011 C163.224089,184.710011 163.166089,185.820011 162.344089,185.941011 C161.739089,186.030011 159.580089,186.255011 159.108089,185.786011 C158.673089,185.354011 159.524089,183.355011 162.152089,183.003011 Z"/>
    <path fill="#E1F2FF" d="M161.860507,184.001768 C162.160507,183.961768 162.590507,184.611768 162.542507,184.810768 C162.492507,185.009768 162.458507,185.664768 161.973507,185.735768 C161.616507,185.787768 160.341507,185.920768 160.063507,185.644768 C159.807507,185.388768 160.309507,184.209768 161.860507,184.001768"/>
    <path fill="#FFF" d="M163.967549,184.05267 C163.967549,184.05267 163.529549,183.82367 162.659549,184.32067 C161.893549,184.75867 160.747549,185.46067 161.049549,186.33267 C161.350549,187.20467 163.775549,186.88067 164.314549,186.69667 C164.853549,186.51167 165.191549,185.92467 165.095549,185.41067 C164.888549,184.29067 163.967549,184.05267 163.967549,184.05267"/>
    <path stroke="#52267D" stroke-width=".5" d="M163.967549,184.05267 C163.967549,184.05267 163.529549,183.82367 162.659549,184.32067 C161.893549,184.75867 160.747549,185.46067 161.049549,186.33267 C161.350549,187.20467 163.775549,186.88067 164.314549,186.69667 C164.853549,186.51167 165.191549,185.92467 165.095549,185.41067 C164.888549,184.29067 163.967549,184.05267 163.967549,184.05267 Z"/>
    <path fill="#E1F2FF" d="M163.758111,184.031408 C163.758111,184.031408 163.498111,183.895408 162.984111,184.189408 C162.529111,184.450408 161.851111,184.865408 162.029111,185.382408 C162.208111,185.898408 163.644111,185.706408 163.963111,185.596408 C164.282111,185.487408 164.483111,185.139408 164.426111,184.836408 C164.303111,184.173408 163.758111,184.031408 163.758111,184.031408"/>
    <g transform="translate(149 156)">
      <path fill="#9452BA" d="M4.9224,0.0114 C4.9224,0.0114 5.4164,5.6284 3.9874,14.4584 C2.6584,22.6784 0.3014,25.2564 0.4744,27.3884 C0.6094,29.0384 1.3054,30.5504 2.9614,30.5504 L7.9014,30.5504 C10.2084,30.5504 12.2424,29.0774 12.9844,26.8934 C13.5814,25.1344 14.2024,22.7404 14.5734,19.7144 C14.9534,15.5984 14.8714,11.4704 14.8034,9.0454"/>
      <path stroke="#52267D" d="M4.9224,0.0114 C4.9224,0.0114 5.4164,5.6284 3.9874,14.4584 C2.6584,22.6784 0.3014,25.2564 0.4744,27.3884 C0.6094,29.0384 1.3054,30.5504 2.9614,30.5504 L7.9014,30.5504 C10.2084,30.5504 12.2424,29.0774 12.9844,26.8934 C13.5814,25.1344 14.2024,22.7404 14.5734,19.7144 C14.9534,15.5984 14.8714,11.4704 14.8034,9.0454"/>
    </g>
    <g transform="translate(175 159)">
      <path fill="#9452BA" d="M4.2544,0.7272 C2.6174,2.1362 1.7694,4.4432 1.7814,6.5622 C1.7994,9.3922 3.4414,12.9952 2.4004,17.6972 C1.4734,21.8862 -0.3726,22.6252 0.1834,26.3832 C0.2834,27.0622 0.8934,27.5502 1.5784,27.5502 L7.0844,27.5502 C9.6174,27.5502 11.7874,25.7122 12.2014,23.2132 C13.3084,16.5382 12.4634,10.2372 11.5734,5.4022"/>
      <path stroke="#52267D" d="M4.2544,0.7272 C2.6174,2.1362 1.7694,4.4432 1.7814,6.5622 C1.7994,9.3922 3.4414,12.9952 2.4004,17.6972 C1.4734,21.8862 -0.3726,22.6252 0.1834,26.3832 C0.2834,27.0622 0.8934,27.5502 1.5784,27.5502 L7.0844,27.5502 C9.6174,27.5502 11.7874,25.7122 12.2014,23.2132 C13.3084,16.5382 12.4634,10.2372 11.5734,5.4022"/>
    </g>
    <polyline stroke="#52267D" stroke-width=".25" points="180.191 166.106 180.514 165.874 181.561 166.109 180.399 166.851 179 166.162 180.453 165 181.114 165.221"/>
    <path fill="#FFF" d="M150.9156,183.280803 C150.9156,183.280803 149.9546,182.497803 148.6776,183.546803 C147.5096,184.505803 146.6316,185.986803 147.1546,186.135803 C147.6786,186.284803 148.5996,186.428803 149.5656,186.252803 C150.4076,186.097803 151.1506,186.259803 151.4886,184.499803 C151.6456,183.678803 150.9156,183.280803 150.9156,183.280803"/>
    <path stroke="#52267D" stroke-width=".5" d="M150.9156,183.280803 C150.9156,183.280803 149.9546,182.497803 148.6776,183.546803 C147.5096,184.505803 146.6316,185.986803 147.1546,186.135803 C147.6786,186.284803 148.5996,186.428803 149.5656,186.252803 C150.4076,186.097803 151.1506,186.259803 151.4886,184.499803 C151.6456,183.678803 150.9156,183.280803 150.9156,183.280803 Z"/>
    <path fill="#E1F2FF" d="M150.436422,183.174531 C150.436422,183.174531 149.837422,182.687531 149.042422,183.340531 C148.317422,183.937531 147.770422,184.859531 148.096422,184.951531 C148.421422,185.043531 148.995422,185.134531 149.596422,185.024531 C150.120422,184.927531 150.582422,185.028531 150.792422,183.933531 C150.890422,183.422531 150.436422,183.174531 150.436422,183.174531"/>
    <polyline stroke="#52267D" stroke-width=".25" points="157.968 169 156 169.613 156.261 171.437 158.277 171.583 159.215 170.499 158.008 169.829 157.01 170.119 157.645 170.825"/>
    <g stroke="#F3E3FF" stroke-width=".25" transform="translate(114 93)">
      <path d="M1.9404,16.0368 C1.9404,16.3328 2.1804,16.5728 2.4764,16.5728 C2.7724,16.5728 3.0114,16.3328 3.0114,16.0368"/>
      <path d="M.8687 16.0368C.8687 16.3328 1.1087 16.5728 1.4047 16.5728 1.7007 16.5728 1.9407 16.3328 1.9407 16.0368M1.4043 16.5729C1.4043 16.8689 1.6443 17.1089 1.9403 17.1089 2.2363 17.1089 2.4763 16.8689 2.4763 16.5729M22.4702 15.5348C22.8412 15.7648 23.3272 15.6508 23.5582 15.2808 23.7882 14.9108 23.6742 14.4238 23.3042 14.1938"/>
      <path d="M22.7241 16.6227C23.0951 16.8517 23.5811 16.7387 23.8121 16.3687 24.0421 15.9977 23.9281 15.5117 23.5581 15.2807M47.898 33.5348C47.898 33.9318 48.22 34.2538 48.617 34.2538 49.013 34.2538 49.335 33.9318 49.335 33.5348M46.4605 33.5348C46.4605 33.9318 46.7825 34.2538 47.1795 34.2538 47.5765 34.2538 47.8975 33.9318 47.8975 33.5348"/>
      <path d="M47.1792 34.2536C47.1792 34.6506 47.5012 34.9726 47.8982 34.9726 48.2942 34.9726 48.6162 34.6506 48.6162 34.2536M26.4341 79.0661C26.4341 79.4631 26.7551 79.7851 27.1521 79.7851 27.5491 79.7851 27.8711 79.4631 27.8711 79.0661M24.9966 79.0661C24.9966 79.4631 25.3176 79.7851 25.7156 79.7851 26.1116 79.7851 26.4336 79.4631 26.4336 79.0661"/>
      <path d="M25.7153 79.7849C25.7153 80.1819 26.0363 80.5039 26.4343 80.5039 26.8303 80.5039 27.1523 80.1819 27.1523 79.7849M46.7847 10.6305C46.7847 11.0675 47.1387 11.4205 47.5737 11.4205 48.0107 11.4205 48.3637 11.0675 48.3637 10.6305M45.9946 11.4206C45.9946 11.8566 46.3486 12.2096 46.7846 12.2096 47.2206 12.2096 47.5736 11.8566 47.5736 11.4206M36.6909 24.5768C36.6909 25.1068 37.1209 25.5368 37.6499 25.5368 38.1799 25.5368 38.6099 25.1068 38.6099 24.5768M35.731 25.5368C35.731 26.0668 36.161 26.4958 36.691 26.4958 37.22 26.4958 37.65 26.0668 37.65 25.5368M22.7534.7204C22.7534 1.0744 23.0404 1.3624 23.3954 1.3624 23.7494 1.3624 24.0364 1.0744 24.0364.7204"/>
      <path d="M22.1109 1.362C22.1109 1.716 22.3989 2.004 22.7539 2.004 23.1079 2.004 23.3949 1.716 23.3949 1.362M83.1568 65.4255C83.4218 65.7365 83.8868 65.7755 84.1988 65.5115 84.5108 65.2475 84.5488 64.7805 84.2848 64.4695"/>
      <path d="M83.0708 66.4665C83.3348 66.7785 83.8008 66.8165 84.1128 66.5525 84.4238 66.2885 84.4628 65.8225 84.1988 65.5115M53.7886 55.2233C53.9866 55.6593 54.5016 55.8513 54.9366 55.6533 55.3726 55.4533 55.5636 54.9403 55.3656 54.5043M52.2114 55.9431C52.4094 56.3791 52.9244 56.5711 53.3594 56.3721 53.7954 56.1731 53.9864 55.6591 53.7884 55.2231"/>
      <path d="M53.3599,56.3718 C53.5579,56.8078 54.0719,56.9998 54.5069,56.8018 C54.9429,56.6018 55.1349,56.0888 54.9369,55.6528"/>
      <path d="M51.7818 57.0915C51.9808 57.5275 52.4948 57.7195 52.9298 57.5205 53.3658 57.3215 53.5578 56.8075 53.3598 56.3715M54.5073 56.8015C54.7063 57.2375 55.2203 57.4285 55.6553 57.2305 56.0913 57.0305 56.2833 56.5175 56.0853 56.0815M38.6948 7.2077C38.6948 7.6907 39.0868 8.0827 39.5688 8.0827 40.0518 8.0827 40.4438 7.6907 40.4438 7.2077M38.3911 40.2604C38.3911 40.7424 38.7831 41.1344 39.2661 41.1344 39.7491 41.1344 40.1411 40.7424 40.1411 40.2604M48.3042 22.0407C48.3042 22.4057 48.6012 22.7027 48.9662 22.7027 49.3322 22.7027 49.6292 22.4057 49.6292 22.0407M64.0825 6.9831C64.0825 7.2571 64.3055 7.4801 64.5795 7.4801 64.8545 7.4801 65.0775 7.2571 65.0775 6.9831M68.2193 80.0847C68.3023 80.5607 68.7553 80.8797 69.2313 80.7967 69.7063 80.7137 70.0263 80.2617 69.9433 79.7847M44.0581 86.527C44.0581 87.056 44.4881 87.486 45.0181 87.486 45.5471 87.486 45.9771 87.056 45.9771 86.527M43.0991 87.486C43.0991 88.016 43.5291 88.446 44.0581 88.446 44.5881 88.446 45.0181 88.016 45.0181 87.486"/>
    </g>
    <path fill="#FFF" d="M152.152089,183.003011 C152.660089,182.935011 153.391089,184.038011 153.307089,184.374011 C153.224089,184.710011 153.166089,185.820011 152.344089,185.941011 C151.739089,186.030011 149.580089,186.255011 149.108089,185.786011 C148.673089,185.354011 149.524089,183.355011 152.152089,183.003011"/>
    <path stroke="#52267D" stroke-width=".5" d="M152.152089,183.003011 C152.660089,182.935011 153.391089,184.038011 153.307089,184.374011 C153.224089,184.710011 153.166089,185.820011 152.344089,185.941011 C151.739089,186.030011 149.580089,186.255011 149.108089,185.786011 C148.673089,185.354011 149.524089,183.355011 152.152089,183.003011 Z"/>
    <path fill="#E1F2FF" d="M151.859923,184.001768 C152.159923,183.961768 152.589923,184.611768 152.541923,184.810768 C152.492923,185.009768 152.457923,185.664768 151.972923,185.735768 C151.615923,185.787768 150.340923,185.920768 150.063923,185.644768 C149.806923,185.388768 150.308923,184.209768 151.859923,184.001768"/>
    <path fill="#FFF" d="M153.623811,184.046863 C153.623811,184.046863 153.235811,183.843863 152.468811,184.282863 C151.789811,184.671863 150.776811,185.291863 151.043811,186.063863 C151.310811,186.834863 153.453811,186.547863 153.930811,186.384863 C154.406811,186.221863 154.706811,185.702863 154.621811,185.247863 C154.437811,184.257863 153.623811,184.046863 153.623811,184.046863"/>
    <path stroke="#52267D" stroke-width=".5" d="M153.623811,184.046863 C153.623811,184.046863 153.235811,183.843863 152.468811,184.282863 C151.789811,184.671863 150.776811,185.291863 151.043811,186.063863 C151.310811,186.834863 153.453811,186.547863 153.930811,186.384863 C154.406811,186.221863 154.706811,185.702863 154.621811,185.247863 C154.437811,184.257863 153.623811,184.046863 153.623811,184.046863 Z"/>
    <path fill="#E1F2FF" d="M153.554207,184.02718 C153.554207,184.02718 153.325207,183.90818 152.869207,184.16818 C152.467207,184.39718 151.867207,184.76518 152.026207,185.22118 C152.183207,185.67818 153.452207,185.50818 153.735207,185.41218 C154.017207,185.31518 154.195207,185.00818 154.145207,184.73918 C154.035207,184.15218 153.554207,184.02718 153.554207,184.02718"/>
    <path fill="#FFF" d="M133.624777,184.046863 C133.624777,184.046863 133.236777,183.843863 132.468777,184.282863 C131.790777,184.671863 130.776777,185.291863 131.043777,186.063863 C131.310777,186.834863 133.454777,186.547863 133.931777,186.384863 C134.407777,186.221863 134.706777,185.702863 134.622777,185.247863 C134.438777,184.257863 133.624777,184.046863 133.624777,184.046863"/>
    <path stroke="#52267D" stroke-width=".5" d="M133.624777,184.046863 C133.624777,184.046863 133.236777,183.843863 132.468777,184.282863 C131.790777,184.671863 130.776777,185.291863 131.043777,186.063863 C131.310777,186.834863 133.454777,186.547863 133.931777,186.384863 C134.407777,186.221863 134.706777,185.702863 134.622777,185.247863 C134.438777,184.257863 133.624777,184.046863 133.624777,184.046863 Z"/>
    <path fill="#E1F2FF" d="M133.553207,184.02718 C133.553207,184.02718 133.324207,183.90818 132.869207,184.16818 C132.467207,184.39818 131.867207,184.76518 132.026207,185.22118 C132.183207,185.67818 133.452207,185.50818 133.735207,185.41218 C134.017207,185.31518 134.195207,185.00818 134.145207,184.73918 C134.035207,184.15218 133.553207,184.02718 133.553207,184.02718"/>
    <path fill="#FFF" d="M136.152089,184.003011 C136.660089,183.935011 137.391089,185.038011 137.307089,185.374011 C137.224089,185.710011 137.166089,186.820011 136.344089,186.941011 C135.739089,187.030011 133.580089,187.255011 133.108089,186.786011 C132.673089,186.354011 133.524089,184.355011 136.152089,184.003011"/>
    <path stroke="#52267D" stroke-width=".5" d="M136.152089,184.003011 C136.660089,183.935011 137.391089,185.038011 137.307089,185.374011 C137.224089,185.710011 137.166089,186.820011 136.344089,186.941011 C135.739089,187.030011 133.580089,187.255011 133.108089,186.786011 C132.673089,186.354011 133.524089,184.355011 136.152089,184.003011 Z"/>
    <path fill="#E1F2FF" d="M135.859923,184.001768 C136.159923,183.961768 136.589923,184.611768 136.541923,184.810768 C136.491923,185.009768 136.457923,185.664768 135.972923,185.735768 C135.615923,185.787768 134.340923,185.920768 134.063923,185.644768 C133.806923,185.388768 134.308923,184.209768 135.859923,184.001768"/>
    <path fill="#FFF" d="M176.915114,183.280803 C176.915114,183.280803 175.954114,182.497803 174.677114,183.546803 C173.510114,184.505803 172.632114,185.986803 173.154114,186.135803 C173.678114,186.284803 174.599114,186.428803 175.565114,186.252803 C176.407114,186.097803 177.150114,186.259803 177.488114,184.499803 C177.645114,183.678803 176.915114,183.280803 176.915114,183.280803"/>
    <path stroke="#52267D" stroke-width=".5" d="M176.915114,183.280803 C176.915114,183.280803 175.954114,182.497803 174.677114,183.546803 C173.510114,184.505803 172.632114,185.986803 173.154114,186.135803 C173.678114,186.284803 174.599114,186.428803 175.565114,186.252803 C176.407114,186.097803 177.150114,186.259803 177.488114,184.499803 C177.645114,183.678803 176.915114,183.280803 176.915114,183.280803 Z"/>
    <path fill="#E1F2FF" d="M177.436413,183.174531 C177.436413,183.174531 176.838413,182.687531 176.043413,183.340531 C175.317413,183.937531 174.770413,184.859531 175.096413,184.951531 C175.421413,185.043531 175.995413,185.134531 176.596413,185.024531 C177.120413,184.927531 177.582413,185.028531 177.792413,183.933531 C177.890413,183.422531 177.436413,183.174531 177.436413,183.174531"/>
    <path fill="#FFF" d="M178.152022,183.003011 C178.660022,182.935011 179.391022,184.038011 179.307022,184.374011 C179.224022,184.710011 179.167022,185.820011 178.344022,185.941011 C177.739022,186.030011 175.580022,186.255011 175.108022,185.786011 C174.673022,185.354011 175.525022,183.355011 178.152022,183.003011"/>
    <path stroke="#52267D" stroke-width=".5" d="M178.152022,183.003011 C178.660022,182.935011 179.391022,184.038011 179.307022,184.374011 C179.224022,184.710011 179.167022,185.820011 178.344022,185.941011 C177.739022,186.030011 175.580022,186.255011 175.108022,185.786011 C174.673022,185.354011 175.525022,183.355011 178.152022,183.003011 Z"/>
    <path fill="#E1F2FF" d="M178.859923,184.001768 C179.159923,183.961768 179.590923,184.611768 179.541923,184.810768 C179.492923,185.009768 179.458923,185.664768 178.972923,185.735768 C178.615923,185.787768 177.341923,185.920768 177.063923,185.644768 C176.806923,185.388768 177.308923,184.209768 178.859923,184.001768"/>
    <path fill="#FFF" d="M180.624811,184.046863 C180.624811,184.046863 180.235811,183.843863 179.468811,184.282863 C178.789811,184.671863 177.776811,185.291863 178.043811,186.063863 C178.310811,186.834863 180.453811,186.547863 180.930811,186.384863 C181.406811,186.221863 181.706811,185.702863 181.622811,185.247863 C181.438811,184.257863 180.624811,184.046863 180.624811,184.046863"/>
    <path stroke="#52267D" stroke-width=".5" d="M180.624811,184.046863 C180.624811,184.046863 180.235811,183.843863 179.468811,184.282863 C178.789811,184.671863 177.776811,185.291863 178.043811,186.063863 C178.310811,186.834863 180.453811,186.547863 180.930811,186.384863 C181.406811,186.221863 181.706811,185.702863 181.622811,185.247863 C181.438811,184.257863 180.624811,184.046863 180.624811,184.046863 Z"/>
    <path fill="#E1F2FF" d="M180.554173,184.02718 C180.554173,184.02718 180.325173,183.90818 179.869173,184.16818 C179.468173,184.39718 178.867173,184.76518 179.026173,185.22118 C179.184173,185.67818 180.453173,185.50818 180.736173,185.41218 C181.018173,185.31518 181.195173,185.00818 181.145173,184.73918 C181.036173,184.15218 180.554173,184.02718 180.554173,184.02718"/>
    <path fill="#FFF" d="M142.748494,184.134824 C142.907494,184.000824 143.097494,183.963824 143.254494,184.036824 C143.837494,184.312824 145.311494,185.094824 145.006494,186.153824 C144.769494,186.978824 144.266494,186.730824 143.303494,186.747824 L142.576494,186.761824 C142.426494,186.764824 142.293494,186.686824 142.210494,186.548824 C141.792494,185.850824 142.018494,184.751824 142.698494,184.177824 L142.748494,184.134824 Z"/>
    <path stroke="#52267D" stroke-width=".5" d="M142.748494,184.134824 C142.907494,184.000824 143.097494,183.963824 143.254494,184.036824 C143.837494,184.312824 145.311494,185.094824 145.006494,186.153824 C144.769494,186.978824 144.266494,186.730824 143.303494,186.747824 L142.576494,186.761824 C142.426494,186.764824 142.293494,186.686824 142.210494,186.548824 C141.792494,185.850824 142.018494,184.751824 142.698494,184.177824 L142.748494,184.134824 Z"/>
    <path fill="#E1F2FF" d="M142.543936,184.098382 C142.658936,184.000382 142.797936,183.973382 142.910936,184.027382 C143.334936,184.227382 144.405936,184.795382 144.184936,185.565382 C144.012936,186.164382 143.646936,185.984382 142.946936,185.996382 L142.418936,186.006382 C142.309936,186.008382 142.212936,185.952382 142.152936,185.852382 C141.848936,185.344382 142.013936,184.546382 142.507936,184.129382 L142.543936,184.098382 Z"/>
    <path fill="#FFF" d="M139.124583,183.361376 C139.124583,183.361376 138.232583,182.500376 136.871583,183.436376 C135.626583,184.293376 134.626583,185.694376 135.135583,185.887376 C135.643583,186.080376 136.548583,186.302376 137.527583,186.208376 C138.378583,186.126376 139.105583,186.350376 139.592583,184.625376 C139.817583,183.821376 139.124583,183.361376 139.124583,183.361376"/>
    <path stroke="#52267D" stroke-width=".5" d="M139.124583,183.361376 C139.124583,183.361376 138.232583,182.500376 136.871583,183.436376 C135.626583,184.293376 134.626583,185.694376 135.135583,185.887376 C135.643583,186.080376 136.548583,186.302376 137.527583,186.208376 C138.378583,186.126376 139.105583,186.350376 139.592583,184.625376 C139.817583,183.821376 139.124583,183.361376 139.124583,183.361376 Z"/>
    <path fill="#E1F2FF" d="M138.566878,184.225327 C138.566878,184.225327 138.011878,183.688327 137.164878,184.272327 C136.389878,184.804327 135.766878,185.676327 136.084878,185.796327 C136.400878,185.916327 136.962878,186.055327 137.572878,185.996327 C138.102878,185.945327 138.554878,186.084327 138.857878,185.011327 C138.998878,184.510327 138.566878,184.225327 138.566878,184.225327"/>
    <path fill="#FFF" d="M185.389,186.533 L61.255,186.533 C60.01,186.533 59,185.523 59,184.278 L59,2.255 C59,1.01 60.01,0 61.255,0 L185.389,0 C186.634,0 187.644,1.01 187.644,2.255 L187.644,184.278 C187.644,185.523 186.634,186.533 185.389,186.533"/>
    <path stroke="#5E63B6" stroke-width="2" d="M185.389,186.533 L61.255,186.533 C60.01,186.533 59,185.523 59,184.278 L59,2.255 C59,1.01 60.01,0 61.255,0 L185.389,0 C186.634,0 187.644,1.01 187.644,2.255 L187.644,184.278 C187.644,185.523 186.634,186.533 185.389,186.533 Z"/>
    <path fill="#E1F2FF" d="M144.465,58.732 C144.465,72.392 133.392,83.464 119.733,83.464 C106.073,83.464 95,72.392 95,58.732 C95,45.073 106.073,34 119.733,34 C133.392,34 144.465,45.073 144.465,58.732"/>
    <path fill="#FFF" d="M147.465,53.732 C147.465,67.392 136.392,78.464 122.733,78.464 C109.073,78.464 98,67.392 98,53.732 C98,40.073 109.073,29 122.733,29 C136.392,29 147.465,40.073 147.465,53.732"/>
    <path stroke="#5E63B6" stroke-width="2" d="M147.465,53.732 C147.465,67.392 136.392,78.464 122.733,78.464 C109.073,78.464 98,67.392 98,53.732 C98,40.073 109.073,29 122.733,29 C136.392,29 147.465,40.073 147.465,53.732 Z"/>
    <path fill="#4CA8E0" d="M129.169,66.1782222 C129.273,66.4862222 129.364,66.6962222 129.392,66.7662222 C129.4,66.7732222 129.383,66.7622222 129.392,66.7662222 C129.392,66.7662222 129.392,66.7682222 129.392,66.7662222 C129.393,66.7672222 129.391,66.7662222 129.391,66.7662222 C128.692,60.0252222 132.515,57.2172222 133.743,52.7402222 C133.749,52.6732222 133.762,52.6012222 133.782,52.5192222 C133.808,52.4192222 133.828,52.3162222 133.844,52.2122222 C134.026,50.9742222 133.519,49.5322222 132.558,48.0312222 C132.554,48.0222222 132.547,48.0142222 132.542,48.0072222 C132.464,47.8812222 132.379,47.7572222 132.294,47.6322222 C132.294,47.6322222 132.291,47.6302222 132.29,47.6272222 C132.133,47.3992222 131.964,47.1692222 131.787,46.9382222 C131.769,46.9142222 131.752,46.8892222 131.733,46.8662222 C131.684,46.8032222 131.632,46.7412222 131.584,46.6782222 C131.532,46.6122222 131.482,46.5472222 131.431,46.4842222 C131.377,46.4202222 131.325,46.3572222 131.273,46.2952222 C131.218,46.2292222 131.164,46.1652222 131.108,46.1002222 C131.071,46.0562222 131.03,46.0102222 130.99,45.9642222 C129.48,44.2242222 127.514,42.5052222 125.462,41.0102222 C125.462,41.0102222 125.447,40.9872222 125.462,41.0102222 C125.734,43.5462222 125.768,46.0832222 125.528,48.1112222 C125.238,50.5562222 124.363,53.4032222 123.149,55.9832222 C120.307,55.7512222 117.402,55.0922222 115.137,54.1252222 C113.244,53.3172222 111.074,52.0402222 109,50.5272222 C109.023,50.7382222 109.048,50.9462222 109.072,51.1562222 C109.08,51.2192222 109.089,51.2812222 109.097,51.3442222 C109.117,51.4942222 109.135,51.6422222 109.158,51.7932222 C109.167,51.8622222 109.177,51.9312222 109.188,52.0002222 C109.21,52.1512222 109.232,52.3002222 109.257,52.4492222 C109.266,52.5092222 109.276,52.5702222 109.286,52.6312222 C109.317,52.8212222 109.349,53.0082222 109.384,53.1962222 C109.386,53.2152222 109.388,53.2342222 109.393,53.2512222 C109.431,53.4702222 109.473,53.6862222 109.516,53.9022222 C109.518,53.9182222 109.523,53.9332222 109.526,53.9512222 C109.566,54.1452222 109.605,54.3362222 109.647,54.5282222 C109.656,54.5682222 109.665,54.6062222 109.672,54.6452222 C109.711,54.8202222 109.752,54.9942222 109.793,55.1682222 C109.802,55.2012222 109.811,55.2342222 109.818,55.2702222 C109.868,55.4702222 109.917,55.6702222 109.968,55.8662222 C109.97,55.8672222 109.97,55.8692222 109.97,55.8692222 C110.138,56.5022222 110.322,57.1132222 110.521,57.6992222 C110.523,57.7072222 110.526,57.7132222 110.528,57.7202222 C110.865,58.6992222 111.249,59.6012222 111.678,60.3902222 C111.741,60.5042222 111.805,60.6172222 111.87,60.7272222 C111.873,60.7312222 111.873,60.7362222 111.876,60.7402222 L111.877,60.7402222 C111.936,60.8402222 111.996,60.9392222 112.055,61.0332222 L112.057,61.0352222 C112.057,61.0352222 112.062,61.0422222 112.064,61.0462222 C112.128,61.1492222 112.194,61.2502222 112.261,61.3452222 L112.261,61.3462222 C112.271,61.3602222 112.279,61.3712222 112.29,61.3852222 C112.291,61.3852222 112.289,61.3872222 112.29,61.3882222 C112.377,61.5132222 112.466,61.6342222 112.554,61.7492222 C112.571,61.7682222 112.586,61.7872222 112.599,61.8052222 C112.604,61.8122222 112.61,61.8182222 112.615,61.8272222 C112.717,61.9562222 112.822,62.0812222 112.931,62.1982222 C113.005,62.2812222 113.082,62.3582222 113.159,62.4352222 C113.191,62.4682222 113.226,62.4972222 113.258,62.5282222 C113.306,62.5742222 113.355,62.6162222 113.403,62.6602222 C113.44,62.6922222 113.477,62.7202222 113.515,62.7512222 C113.561,62.7902222 113.609,62.8262222 113.656,62.8642222 C113.693,62.8912222 113.731,62.9182222 113.77,62.9452222 C113.819,62.9792222 113.867,63.0122222 113.916,63.0462222 C113.953,63.0692222 113.992,63.0932222 114.03,63.1152222 C114.083,63.1462222 114.136,63.1752222 114.187,63.2052222 C114.224,63.2242222 114.26,63.2432222 114.296,63.2612222 C114.356,63.2892222 114.416,63.3152222 114.478,63.3422222 C114.506,63.3522222 114.538,63.3682222 114.568,63.3792222 C114.661,63.4172222 114.754,63.4482222 114.847,63.4742222 C114.911,63.4932222 114.964,63.5122222 115.015,63.5322222 C119.515,64.7202222 123.897,62.8372222 129.392,66.7662222"/>
    <g transform="translate(92 107)">
      <path fill="#FFF" d="M0.376,0.0671 L64.144,0.0671"/>
      <path stroke="#5E63B6" stroke-linecap="round" stroke-linejoin="round" stroke-width="2" d="M0.376,0.0671 L64.144,0.0671"/>
    </g>
    <g transform="translate(92 127)">
      <path fill="#FFF" d="M0.376,0.6266 L64.144,0.6266"/>
      <path stroke="#5E63B6" stroke-linecap="round" stroke-linejoin="round" stroke-width="2" d="M0.376,0.6266 L64.144,0.6266"/>
    </g>
    <g transform="translate(92 148)">
      <path fill="#FFF" d="M0.376,0.8776 L64.144,0.8776"/>
      <path stroke="#5E63B6" stroke-linecap="round" stroke-linejoin="round" stroke-width="2" d="M0.376,0.8776 L64.144,0.8776"/>
    </g>
    <path stroke="#5E63B6" stroke-linecap="round" stroke-linejoin="round" stroke-width="2" d="M204 34L204 41M207 37L200 37"/>
    <path stroke="#5E63B6" stroke-linecap="round" d="M40 154L40 157.938M41.938 156L38 156"/>
    <path stroke="#5E63B6" stroke-linecap="round" stroke-linejoin="round" d="M215 94L215 97.938M216.938 96L213 96"/>
    <path stroke="#5E63B6" stroke-linecap="round" d="M46 54L46 57.938M47.938 56L44 56"/>
    <g transform="translate(23 92)">
      <path fill="#FFF" d="M0.4151,0.8083 L0.4151,8.9333"/>
      <path stroke="#5E63B6" stroke-linecap="round" stroke-width="2" d="M0.4151,0.8083 L0.4151,8.9333"/>
    </g>
    <g transform="translate(19 96)">
      <path fill="#FFF" d="M8.4776,0.8708 L0.3526,0.8708"/>
      <path stroke="#5E63B6" stroke-linecap="round" stroke-width="2" d="M8.4776,0.8708 L0.3526,0.8708"/>
    </g>
    <g transform="translate(243 186)">
      <path fill="#FFF" d="M0.1665,0.6833 L7.1405,0.6833"/>
      <path stroke="#5E63B6" stroke-linecap="round" stroke-linejoin="round" stroke-width="2" d="M0.1665,0.6833 L7.1405,0.6833"/>
    </g>
    <g transform="translate(0 186)">
      <path fill="#FFF" d="M0,0.6833 L8.973,0.6833"/>
      <path stroke="#5E63B6" stroke-linecap="round" stroke-linejoin="round" stroke-width="2" d="M0,0.6833 L8.973,0.6833"/>
    </g>
    <g transform="translate(92 196)">
      <path fill="#FFF" d="M0.3823,-0.0003 L67.5683,-0.0003"/>
      <path stroke="#5E63B6" stroke-linecap="round" stroke-linejoin="round" stroke-width="2" d="M0.3823,-0.0003 L67.5683,-0.0003"/>
    </g>
    <g transform="translate(168 196)">
      <path fill="#FFF" d="M0.187,-0.0003 L9.328,-0.0003"/>
      <path stroke="#5E63B6" stroke-linecap="round" stroke-linejoin="round" stroke-width="2" d="M0.187,-0.0003 L9.328,-0.0003"/>
    </g>
    <g transform="translate(79 195)">
      <path fill="#FFF" d="M5.5,0.9245 L0.5,0.9995"/>
      <path stroke="#5E63B6" stroke-linecap="round" stroke-linejoin="round" stroke-width="2" d="M5.5,0.9245 L0.5,0.9995"/>
    </g>
  </g>
</svg>
