<svg xmlns="http://www.w3.org/2000/svg" xmlns:xlink="http://www.w3.org/1999/xlink" width="256" height="256" viewBox="0 0 256 256">
  <defs>
    <path id="notifications-a" d="M43.88,35.1 C38.48,40.1 31.23,43.17 23.24,43.17 C14.1,43.17 5.9,39.15 0.38,32.8 L0.38,0.38 L43.88,0.38 L43.88,35.1 Z"/>
    <path id="notifications-c" d="M44.9,35.12 C39.47,40.42 32,43.68 23.76,43.68 C14.33,43.68 5.9,39.4 0.38,32.7 L0.38,0.38 L44.9,0.38 L44.9,35.12 Z"/>
    <polygon id="notifications-e" points="1.06 .48 .42 .68 .42 .48"/>
    <path id="notifications-g" d="M45.55,38.3 C39.78,45.1 31.23,49.4 21.68,49.4 C13.35,49.4 5.78,46.1 0.14,40.76 L0.14,0.32 L45.54,0.32 L45.54,38.3 L45.55,38.3 Z"/>
    <path id="notifications-i" d="M46.58,38.2 C40.8,45.35 32.03,49.9 22.2,49.9 C13.6,49.9 5.82,46.43 0.14,40.78 L0.14,0.32 L46.58,0.32 L46.58,38.2 Z"/>
    <path id="notifications-k" d="M51.96,78.64 C49.31,79.06 46.6,79.28 43.83,79.28 C25.5,79.28 9.43,69.7 0.37,55.3 L0.37,1.28 L0.87,0.5 L51.97,0.5 L51.97,78.64 L51.96,78.64 Z"/>
    <path id="notifications-m" d="M53,79.07 C50.18,79.54 47.3,79.79 44.35,79.79 C25.67,79.8 9.33,69.84 0.37,55 L0.37,2.6 C0.8,1.9 1.27,1.2 1.73,0.5 L53,0.5 L53,79.07 Z"/>
  </defs>
  <g fill="none" fill-rule="evenodd">
    <g transform="translate(2 36)">
      <path fill="#E1F2FF" fill-rule="nonzero" d="M22,183.56 C22,126.36 68.36,80 125.56,80 C182.76,80 229.12,126.36 229.12,183.56 L22,183.56 Z"/>
      <g transform="translate(61.517 70.6)">
        <mask id="notifications-b" fill="#fff">
          <use xlink:href="#notifications-a"/>
        </mask>
        <path fill="#9ACDED" fill-rule="nonzero" d="M43.87,72.4 C40.84,66.33 36.34,48.74 38.65,37.05 L40.47,27.79 C41.07,24.75 41.34,21.66 41.27,18.57 C41.22,17.27 41.07,16.02 40.77,14.82 C40.71,14.52 40.63,14.22 40.54,13.92 C40.29,13.02 39.97,12.17 39.59,11.34 L39.19,10.52 C38.89,9.99 38.59,9.47 38.27,8.96 C37.94,8.46 37.59,7.96 37.21,7.5 C36.09,6.1 34.76,4.85 33.28,3.82 C32.78,3.47 32.26,3.15 31.74,2.85 C28.86,1.2 25.48,0.3 21.9,0.4 L18.8,0.47 C13.58,0.6 8.92,2.8 5.58,6.27 C5.18,6.69 4.78,7.15 4.4,7.62 C3.72,8.47 3.12,9.39 2.6,10.35 C2.4,10.72 2.22,11.08 2.05,11.45 L1.69,12.29 C1.34,13.13 1.07,13.99 0.85,14.89 C0.65,15.79 0.5,16.73 0.43,17.67 C0.38,18.3 0.36,18.94 0.38,19.57 C0.4,20.87 0.96,22.01 1.83,22.84 C2.7,23.66 3.89,24.14 5.2,24.12 L24.53,23.64 L22.03,40.29 C19.03,57.39 20.35,68.77 23.2,76.29 C23.84,77.97 44.23,73.15 43.85,72.39" mask="url(#notifications-b)"/>
      </g>
      <g transform="translate(61 70.088)">
        <mask id="notifications-d" fill="#fff">
          <use xlink:href="#notifications-c"/>
        </mask>
        <path fill="#5E63B6" fill-rule="nonzero" d="M24.2,76.56 C24.67,76.76 27.28,76.76 34.17,75.31 C39.05,74.29 42.72,73.24 43.75,72.79 C40.68,66.29 36.37,49.06 38.65,37.47 L40.48,28.22 C41.08,25.24 41.33,22.17 41.26,19.12 C41.23,17.89 41.06,16.66 40.79,15.47 L40.55,14.6 C40.31,13.75 40,12.9 39.62,12.1 L39.24,11.3 C38.97,10.78 38.67,10.27 38.34,9.78 C38.04,9.28 37.68,8.81 37.32,8.36 C36.22,6.98 34.94,5.76 33.5,4.76 C33.03,4.43 32.53,4.11 32.02,3.82 C29.12,2.17 25.79,1.35 22.42,1.42 L19.32,1.52 C14.42,1.62 9.86,3.62 6.48,7.15 C6.08,7.55 5.68,8.01 5.32,8.45 C4.67,9.28 4.09,10.18 3.57,11.12 C3.35,11.52 3.17,11.87 3.03,12.2 L2.69,13 C2.35,13.83 2.09,14.7 1.89,15.56 C1.67,16.44 1.53,17.36 1.46,18.26 C1.41,18.86 1.4,19.49 1.41,20.11 C1.44,21.21 1.91,22.23 2.71,23.01 C3.53,23.76 4.59,24.18 5.71,24.14 L25.66,23.64 L23.06,40.89 C20.46,55.69 20.84,67.69 24.18,76.57 M24.96,77.67 C24.71,77.67 24.51,77.67 24.34,77.64 C24.11,77.61 23.44,77.52 23.24,77 C19.8,67.95 19.4,55.74 22.04,40.72 L24.44,24.68 L5.74,25.15 C4.34,25.18 3,24.68 1.99,23.73 C0.99,22.78 0.41,21.49 0.39,20.13 C0.36,19.46 0.39,18.8 0.43,18.15 C0.5,17.2 0.65,16.25 0.87,15.31 C1.07,14.41 1.37,13.51 1.71,12.63 L2.08,11.77 C2.23,11.42 2.41,11.07 2.64,10.63 C3.18,9.63 3.8,8.69 4.49,7.83 C4.89,7.33 5.29,6.87 5.72,6.43 C9.3,2.72 14.13,0.6 19.3,0.47 L22.4,0.4 C25.97,0.3 29.46,1.18 32.53,2.92 C33.07,3.22 33.6,3.56 34.11,3.92 C35.64,4.98 37.01,6.25 38.15,7.7 C38.55,8.18 38.9,8.7 39.25,9.2 C39.58,9.72 39.89,10.27 40.18,10.8 C40.32,11.1 40.46,11.37 40.58,11.65 C40.98,12.51 41.31,13.4 41.58,14.3 L41.81,15.22 C42.11,16.48 42.27,17.77 42.31,19.07 C42.38,22.2 42.11,25.34 41.51,28.4 L39.68,37.65 C37.4,49.25 41.84,66.63 44.86,72.69 C44.96,72.87 44.94,73.09 44.81,73.27 C43.94,74.47 29.21,77.65 24.99,77.65" mask="url(#notifications-d)"/>
      </g>
      <path fill="#FFF" fill-rule="nonzero" d="M70.36,73.86 C70.36,73.86 70.59,70.59 73.84,69.21 C74.84,68.81 77.52,68.63 77.52,68.63 C77.52,68.63 78.37,72.06 76.18,73.15 C73.04,74.7 70.36,73.87 70.36,73.87"/>
      <path fill="#5E63B6" fill-rule="nonzero" d="M70.95,73.46 C71.79,73.61 73.75,73.76 75.95,72.68 C77.35,71.98 77.23,70.03 77.1,69.18 C76.2,69.24 74.66,69.42 74.04,69.68 C71.79,70.64 71.14,72.6 70.94,73.46 M72.21,74.59 C71.04,74.59 70.28,74.35 70.21,74.33 L69.83,74.21 L69.86,73.81 C69.86,73.66 70.16,70.21 73.64,68.74 C74.68,68.29 77.21,68.12 77.5,68.1 L77.92,68.08 L78.02,68.5 C78.06,68.66 78.94,72.34 76.42,73.6 C74.82,74.4 73.32,74.6 72.22,74.6"/>
      <path fill="#FFF" fill-rule="nonzero" d="M78.63,72 C78.63,72 78.61,67.54 83.65,66.77 C84.59,66.63 85.81,66.69 85.81,66.69 C85.81,66.69 88.31,71.29 85.67,71.79 C82.4,72.44 78.64,71.99 78.64,71.99"/>
      <path fill="#5E63B6" fill-rule="nonzero" d="M79.2,71.53 C80.3,71.63 83.1,71.79 85.56,71.31 C86,71.23 86.16,71.01 86.23,70.85 C86.63,70.05 86.03,68.29 85.49,67.2 C85.07,67.18 84.33,67.18 83.72,67.28 C80.07,67.84 79.32,70.45 79.18,71.53 M81.68,72.66 C79.95,72.66 78.64,72.5 78.55,72.49 L78.1,72.43 L78.1,72 C78.1,71.94 78.14,67.1 83.55,66.27 C84.55,66.12 85.75,66.17 85.81,66.17 L86.11,66.19 L86.24,66.44 C86.42,66.76 87.94,69.64 87.14,71.27 C86.89,71.82 86.4,72.17 85.74,72.3 C84.36,72.58 82.91,72.66 81.68,72.66"/>
      <path fill="#FFF" fill-rule="nonzero" d="M88.22,72.07 C88.22,72.07 88.89,67.15 93.36,68.5 C95.28,69.08 96.34,70.52 96.34,70.52 C96.34,70.52 95.44,74.27 93.67,73.84 C90.57,73.11 88.22,72.07 88.22,72.07"/>
      <path fill="#5E63B6" fill-rule="nonzero" d="M88.8,71.76 C89.58,72.08 91.48,72.8 93.8,73.36 C93.97,73.39 94.14,73.36 94.3,73.26 C95.03,72.82 95.56,71.39 95.77,70.64 C95.44,70.26 94.55,69.39 93.21,68.99 C92.11,68.64 91.17,68.71 90.44,69.17 C89.4,69.83 88.97,71.11 88.82,71.75 M93.96,74.38 C93.83,74.38 93.7,74.35 93.56,74.32 C90.44,73.58 88.12,72.56 88.03,72.52 L87.68,72.36 L87.74,71.98 C87.76,71.88 88.11,69.44 89.91,68.3 C90.91,67.67 92.14,67.56 93.56,68 C95.61,68.6 96.76,70.13 96.8,70.2 L96.94,70.38 L96.88,70.61 C96.82,70.89 96.21,73.31 94.9,74.11 C94.6,74.28 94.3,74.37 93.98,74.37"/>
      <path fill="#E1F2FF" fill-rule="nonzero" d="M71.97,72.98 C71.97,72.98 72.09,71.26 73.8,70.53 C74.33,70.31 75.75,70.23 75.75,70.23 C75.75,70.23 76.2,72.03 75.05,72.6 C73.38,73.43 71.97,72.98 71.97,72.98 M80.58,71.15 C80.58,71.15 80.58,68.7 83.35,68.27 C83.87,68.19 84.55,68.23 84.55,68.23 C84.55,68.23 85.93,70.77 84.45,71.06 C82.65,71.41 80.58,71.16 80.58,71.16 M89.98,71.7 C89.98,71.7 90.34,69 92.78,69.74 C93.84,70.06 94.42,70.84 94.42,70.84 C94.42,70.84 93.92,72.9 92.96,72.66 C91.26,72.26 89.98,71.69 89.98,71.69"/>
      <path fill="#FFF" fill-rule="nonzero" d="M101.92,98.76 C101.92,98.76 93.5,100.28 85.42,98.52 C84.74,102.89 84.32,106.18 84.32,106.18 C84.32,106.18 89.99,109.81 100.22,107.38 L101.92,98.76"/>
      <path fill="#5E63B6" fill-rule="nonzero" d="M84.88,105.9 C86.1,106.55 91.33,108.87 99.78,106.95 C100.52,103.13 101.03,100.55 101.28,99.38 C99.08,99.68 92.38,100.44 85.84,99.13 C85.34,102.4 84.99,105.01 84.88,105.91 M93.35,108.74 C87.45,108.74 84.22,106.74 84.05,106.62 L83.77,106.46 L83.81,106.14 C83.81,106.1 84.24,102.79 84.91,98.46 L84.99,97.92 L85.53,98.04 C93.43,99.76 101.75,98.29 101.83,98.28 L102.59,98.14 L102.44,98.88 C102.44,98.91 101.81,101.94 100.74,107.48 L100.69,107.81 L100.37,107.88 C97.73,108.51 95.39,108.74 93.37,108.74"/>
      <path fill="#E1F2FF" fill-rule="nonzero" d="M87.62,90.66 L77.95,90.9 C77.83,86.1 81.68,82.1 86.55,81.97 L87.4,81.95 C89.83,81.89 91.85,83.79 91.92,86.2 C91.98,88.6 90.05,90.6 87.62,90.66"/>
      <path fill="#FFF" fill-rule="nonzero" d="M86.76,90.52 L78.11,90.72 C78.03,86.95 81.05,83.82 84.88,83.72 L86.68,83.67 C88.58,83.63 90.14,85.1 90.18,86.97 C90.23,88.87 88.7,90.47 86.78,90.52"/>
      <path fill="#5E63B6" fill-rule="nonzero" d="M86.75,84.18 L86.68,84.18 L84.88,84.23 C83.18,84.27 81.58,84.97 80.38,86.2 C79.33,87.3 78.72,88.7 78.64,90.2 L86.74,90 C87.54,90 88.29,89.66 88.84,89.1 C89.39,88.52 89.68,87.77 89.66,86.98 C89.64,86.22 89.32,85.5 88.76,84.98 C88.21,84.46 87.5,84.18 86.76,84.18 L86.75,84.18 Z M77.61,91.26 L77.61,90.76 C77.56,88.78 78.28,86.92 79.65,85.49 C81.02,84.06 82.87,83.25 84.85,83.19 L86.65,83.15 C87.72,83.15 88.72,83.51 89.48,84.22 C90.24,84.94 90.68,85.92 90.7,86.95 C90.72,88.01 90.33,89.02 89.6,89.79 C88.85,90.56 87.85,90.99 86.77,91.02 L77.61,91.25 L77.61,91.26 Z"/>
      <path fill="#5E63B6" fill-rule="nonzero" d="M80.25,86.74 C80.28,87.79 81.17,88.64 82.23,88.6 C83.3,88.58 84.15,87.7 84.13,86.64 C84.09,85.59 83.21,84.74 82.13,84.78 C81.07,84.81 80.23,85.68 80.25,86.74 M66.35,93.18 C66.9,93.05 67.38,92.73 67.72,92.28 L68.35,91.48 L66.91,91.81 L66.08,92.01 C65.75,92.11 65.55,92.41 65.63,92.75 C65.71,93.07 66.03,93.27 66.36,93.19"/>
      <path fill="#E1F2FF" fill-rule="nonzero" d="M88.45,100.05 C88.45,100.05 94.88,101.68 100.5,100.43 C99.54,104.6 99,105.93 99,105.93 C99,105.93 90.52,105.01 88.45,100.05"/>
      <path fill="#9ACDED" fill-rule="nonzero" d="M94.4,102.92 C90.5,102.92 87.92,102.32 87.77,102.28 C87.49,102.21 87.32,101.94 87.39,101.66 C87.45,101.39 87.72,101.22 87.99,101.29 C88.05,101.29 93.07,102.46 99.69,101.51 C99.97,101.47 100.23,101.66 100.29,101.94 C100.32,102.22 100.12,102.48 99.84,102.52 C97.84,102.82 96.01,102.92 94.4,102.92"/>
      <path fill="#E1F2FF" fill-rule="nonzero" d="M95.54,134.4 C94.71,134.4 94.04,133.76 94.01,132.94 C94.01,132.8 94.11,132.68 94.27,132.67 C94.41,132.67 94.53,132.77 94.53,132.92 C94.55,133.47 95,133.9 95.55,133.9 L95.58,133.9 C95.85,133.9 96.1,133.8 96.28,133.6 C96.48,133.4 96.58,133.14 96.58,132.87 C96.56,132.73 96.68,132.61 96.82,132.61 L96.84,132.61 C96.98,132.61 97.09,132.73 97.1,132.87 C97.12,133.71 96.44,134.4 95.6,134.42 L95.56,134.42"/>
      <path fill="#E1F2FF" fill-rule="nonzero" d="M98.1,134.35 C97.26,134.35 96.58,133.7 96.56,132.87 C96.56,132.73 96.66,132.61 96.81,132.61 L96.83,132.61 C96.97,132.61 97.08,132.73 97.08,132.87 C97.1,133.42 97.58,133.89 98.13,133.85 C98.4,133.85 98.65,133.73 98.83,133.55 C99.03,133.35 99.13,133.09 99.13,132.82 C99.13,132.69 99.23,132.57 99.37,132.57 C99.52,132.57 99.63,132.67 99.64,132.82 C99.64,133.22 99.5,133.62 99.21,133.9 C98.93,134.2 98.55,134.36 98.14,134.37 L98.1,134.37"/>
      <path fill="#E1F2FF" fill-rule="nonzero" d="M96.85,135.64 C96.02,135.64 95.33,134.99 95.31,134.17 C95.31,134.02 95.43,133.91 95.58,133.9 C95.72,133.9 95.84,134 95.84,134.15 C95.84,134.7 96.31,135.13 96.86,135.13 L96.88,135.13 C97.16,135.13 97.41,135.01 97.6,134.83 C97.77,134.63 97.87,134.37 97.87,134.1 C97.87,133.96 97.97,133.84 98.12,133.84 C98.26,133.84 98.38,133.94 98.38,134.09 C98.4,134.91 97.73,135.61 96.88,135.63 L96.85,135.63 M96.37,94.32 C95.47,94.32 94.73,93.62 94.71,92.72 C94.71,92.58 94.83,92.46 94.97,92.46 C95.12,92.46 95.23,92.56 95.24,92.71 C95.24,93.34 95.79,93.85 96.41,93.81 C97.04,93.81 97.54,93.28 97.51,92.66 C97.51,92.52 97.63,92.4 97.77,92.4 C97.92,92.4 98.04,92.5 98.04,92.64 C98.06,93.54 97.34,94.3 96.42,94.32 L96.39,94.32"/>
      <path fill="#E1F2FF" fill-rule="nonzero" d="M97.8,95.67 C97.38,95.67 96.97,95.51 96.66,95.22 C96.34,94.92 96.16,94.52 96.16,94.07 C96.14,93.93 96.26,93.81 96.4,93.81 C96.54,93.81 96.66,93.93 96.66,94.07 C96.66,94.37 96.8,94.65 97.02,94.87 C97.24,95.07 97.52,95.17 97.84,95.17 C98.14,95.17 98.44,95.04 98.64,94.82 C98.84,94.62 98.96,94.32 98.94,94.02 C98.94,93.88 99.06,93.76 99.2,93.76 C99.35,93.76 99.46,93.86 99.47,94.01 C99.47,94.44 99.32,94.85 99.01,95.17 C98.71,95.49 98.31,95.67 97.86,95.67 L97.82,95.67"/>
      <g transform="translate(92.552 111.985)">
        <mask id="notifications-f" fill="#fff">
          <use xlink:href="#notifications-e"/>
        </mask>
        <path fill="#E1F2FF" fill-rule="nonzero" d="M1.85,2.2 C1.48,2.2 1.13,2.05 0.85,1.8 C0.6,1.53 0.44,1.18 0.43,0.8 C0.43,0.66 0.53,0.54 0.68,0.54 C0.84,0.54 0.94,0.64 0.95,0.79 C0.95,1.02 1.05,1.25 1.23,1.41 C1.41,1.58 1.65,1.68 1.89,1.66 C2.39,1.66 2.79,1.23 2.79,0.73 C2.79,0.59 2.89,0.48 3.03,0.47 C3.18,0.47 3.3,0.57 3.3,0.72 C3.3,1.5 2.68,2.16 1.9,2.17 L1.85,2.17" mask="url(#notifications-f)"/>
      </g>
      <path fill="#E1F2FF" fill-rule="nonzero" d="M66,88.16 C65.72,88.16 65.44,88.06 65.23,87.86 C65.01,87.64 64.88,87.36 64.87,87.06 C64.87,86.92 64.97,86.8 65.12,86.8 C65.27,86.8 65.38,86.9 65.39,87.05 C65.39,87.21 65.45,87.35 65.57,87.48 C65.69,87.58 65.85,87.64 66.02,87.65 C66.18,87.65 66.34,87.58 66.45,87.45 C66.57,87.35 66.63,87.18 66.63,87.02 C66.63,86.87 66.73,86.76 66.88,86.75 C67.01,86.75 67.13,86.85 67.13,87 C67.13,87.3 67.03,87.6 66.83,87.8 C66.61,88.03 66.33,88.15 66.03,88.16 L66,88.16"/>
      <g transform="translate(128 57)">
        <g transform="translate(.51 5.172)">
          <mask id="notifications-h" fill="#fff">
            <use xlink:href="#notifications-g"/>
          </mask>
          <path fill="#9ACDED" fill-rule="nonzero" d="M0.14,77.4 C3.3,70.9 8,52.07 5.6,39.56 L3.7,29.66 C3.07,26.41 2.8,23.1 2.87,19.79 C2.91,18.39 3.07,17.06 3.37,15.77 L3.62,14.81 C3.89,13.86 4.22,12.93 4.62,12.05 L5.02,11.17 C5.32,10.6 5.64,10.04 5.99,9.5 C6.32,8.97 6.69,8.45 7.09,7.94 C8.25,6.44 9.64,5.1 11.2,4 C11.7,3.62 12.24,3.28 12.8,2.96 C15.8,1.2 19.34,0.23 23.1,0.33 L26.3,0.4 C31.75,0.55 36.62,2.9 40.1,6.6 C40.54,7.07 40.95,7.56 41.34,8.06 C42.04,8.98 42.67,9.96 43.22,10.99 C43.42,11.37 43.62,11.76 43.8,12.16 L44.17,13.06 C44.51,13.96 44.8,14.9 45.02,15.86 C45.24,16.82 45.39,17.81 45.47,18.82 C45.52,19.49 45.54,20.18 45.52,20.87 C45.48,22.24 44.9,23.47 43.99,24.35 C43.09,25.23 41.84,25.75 40.49,25.72 L20.29,25.2 L22.89,43.03 C26.04,61.35 24.66,73.51 21.69,81.57 C21.03,83.37 -0.26,78.2 0.13,77.4" mask="url(#notifications-h)"/>
        </g>
        <g transform="translate(0 4.655)">
          <mask id="notifications-j" fill="#fff">
            <use xlink:href="#notifications-i"/>
          </mask>
          <path fill="#5E63B6" fill-rule="nonzero" d="M1.28,77.8 C3.76,79.05 20.16,82.73 21.78,81.83 C25.26,72.33 25.65,59.49 22.94,43.63 L20.24,25.2 L41.04,25.73 C42.21,25.76 43.34,25.33 44.18,24.5 C45.03,23.68 45.52,22.57 45.55,21.38 C45.55,20.71 45.55,20.04 45.5,19.38 C45.43,18.42 45.28,17.45 45.06,16.5 C44.86,15.58 44.56,14.66 44.23,13.77 L43.86,12.9 C43.71,12.55 43.53,12.2 43.3,11.75 C42.76,10.73 42.15,9.77 41.47,8.9 C41.09,8.4 40.69,7.93 40.27,7.48 C36.73,3.72 31.95,1.58 26.82,1.44 L23.59,1.36 C20.05,1.26 16.59,2.16 13.55,3.92 C13.02,4.22 12.49,4.57 11.99,4.92 C10.49,6.02 9.14,7.32 7.99,8.78 C7.61,9.28 7.25,9.78 6.92,10.31 C6.58,10.84 6.27,11.39 5.99,11.95 C5.85,12.23 5.71,12.51 5.59,12.8 C5.19,13.65 4.87,14.56 4.61,15.47 C4.51,15.77 4.45,16.1 4.37,16.41 C4.07,17.69 3.92,19.01 3.89,20.33 C3.81,23.59 4.09,26.88 4.69,30.08 L6.59,39.98 C9,52.4 4.5,70.87 1.3,77.8 M20.94,82.97 C16.54,82.97 1.18,79.57 0.27,78.29 C0.14,78.09 0.12,77.87 0.22,77.69 C3.36,71.2 8,52.6 5.6,40.16 L3.7,30.26 C3.07,26.98 2.8,23.62 2.87,20.28 C2.91,18.88 3.07,17.5 3.39,16.16 C3.45,15.82 3.54,15.5 3.63,15.16 C3.9,14.2 4.23,13.26 4.65,12.34 L5.08,11.44 C5.38,10.86 5.68,10.28 6.05,9.74 C6.4,9.18 6.78,8.64 7.18,8.12 C8.38,6.57 9.8,5.22 11.38,4.07 C11.92,3.67 12.48,3.32 13.03,2.99 C16.25,1.16 19.9,0.24 23.6,0.32 L26.85,0.42 C32.25,0.54 37.28,2.8 41,6.76 C41.45,7.24 41.88,7.74 42.27,8.26 C42.99,9.16 43.64,10.18 44.2,11.26 C44.44,11.71 44.63,12.1 44.8,12.46 C44.93,12.76 45.06,13.06 45.18,13.38 C45.54,14.31 45.84,15.28 46.06,16.25 C46.29,17.25 46.44,18.27 46.52,19.29 C46.57,19.99 46.59,20.69 46.57,21.39 C46.53,22.86 45.93,24.23 44.87,25.24 C43.83,26.24 42.45,26.78 41.01,26.74 L21.43,26.24 L23.96,43.47 C26.71,59.52 26.29,72.57 22.71,82.27 C22.51,82.8 21.81,82.89 21.58,82.92 C21.4,82.95 21.18,82.96 20.93,82.96" mask="url(#notifications-j)"/>
        </g>
        <path fill="#FFF" fill-rule="nonzero" d="M37.23,8.57 C37.23,8.57 36.99,5.07 33.6,3.6 C32.57,3.15 29.75,2.96 29.75,2.96 C29.75,2.96 28.87,6.64 31.15,7.8 C34.43,9.46 37.23,8.57 37.23,8.57"/>
        <path fill="#5E63B6" fill-rule="nonzero" d="M30.17,3.52 C30.04,4.44 29.91,6.58 31.37,7.32 C33.71,8.52 35.79,8.32 36.67,8.17 C36.47,7.25 35.8,5.12 33.4,4.07 C32.74,3.79 31.12,3.6 30.17,3.52 M35.3,9.32 C34.14,9.32 32.6,9.12 30.92,8.26 C28.32,6.93 29.22,3.01 29.26,2.84 L29.36,2.42 L29.79,2.45 C30.07,2.47 32.71,2.65 33.79,3.12 C37.43,4.7 37.72,8.38 37.73,8.52 L37.76,8.94 L37.36,9.06 C37.31,9.08 36.51,9.33 35.29,9.33"/>
        <path fill="#FFF" fill-rule="nonzero" d="M28.6,6.57 C28.6,6.57 28.6,1.81 23.35,0.97 C22.37,0.83 21.1,0.9 21.1,0.9 C21.1,0.9 18.5,5.83 21.26,6.38 C24.66,7.06 28.59,6.58 28.59,6.58"/>
        <path fill="#5E63B6" fill-rule="nonzero" d="M21.42,1.4 C20.85,2.57 20.22,4.47 20.62,5.35 C20.72,5.53 20.88,5.78 21.36,5.87 C23.96,6.39 26.9,6.2 28.04,6.1 C27.9,4.96 27.14,2.1 23.27,1.5 C22.63,1.4 21.84,1.4 21.42,1.4 M25.39,7.26 C24.09,7.26 22.59,7.16 21.15,6.89 C20.47,6.74 19.97,6.36 19.7,5.79 C18.9,4.05 20.47,0.99 20.65,0.64 L20.79,0.39 L21.07,0.37 C21.12,0.37 22.4,0.3 23.42,0.47 C29.05,1.35 29.09,6.51 29.09,6.57 L29.09,7.01 L28.64,7.07 C28.54,7.07 27.19,7.25 25.38,7.25"/>
        <path fill="#FFF" fill-rule="nonzero" d="M18.58,6.66 C18.58,6.66 17.88,1.39 13.21,2.84 C11.21,3.46 10.11,4.99 10.11,4.99 C10.11,4.99 11.05,8.99 12.91,8.54 C16.15,7.76 18.59,6.64 18.59,6.64"/>
        <path fill="#5E63B6" fill-rule="nonzero" d="M10.66,5.12 C10.88,5.92 11.44,7.47 12.2,7.95 C12.4,8.07 12.58,8.1 12.78,8.05 C15.22,7.45 17.21,6.68 18,6.35 C17.84,5.65 17.4,4.25 16.3,3.55 C15.5,3.05 14.53,2.97 13.36,3.33 C11.96,3.77 11.01,4.73 10.66,5.13 M12.61,9.11 C12.29,9.11 11.98,9.01 11.68,8.84 C10.32,7.99 9.68,5.41 9.62,5.12 L9.57,4.9 L9.71,4.7 C9.75,4.64 10.93,3.02 13.07,2.36 C14.54,1.9 15.81,2.01 16.85,2.69 C18.72,3.89 19.09,6.49 19.1,6.61 L19.14,6.98 L18.79,7.14 C18.69,7.18 16.26,8.28 12.99,9.07 C12.87,9.1 12.73,9.12 12.59,9.12"/>
        <path fill="#E1F2FF" fill-rule="nonzero" d="M35.55,7.63 C35.55,7.63 35.42,5.79 33.63,5.01 C33.09,4.78 31.6,4.68 31.6,4.68 C31.6,4.68 31.13,6.62 32.34,7.24 C34.07,8.12 35.54,7.64 35.54,7.64 M26.56,5.68 C26.56,5.68 26.56,3.05 23.66,2.58 C23.12,2.51 22.42,2.54 22.42,2.54 C22.42,2.54 20.98,5.27 22.52,5.57 C24.39,5.95 26.56,5.67 26.56,5.67 M16.75,6.25 C16.75,6.25 16.37,3.37 13.81,4.15 C12.71,4.5 12.11,5.35 12.11,5.35 C12.11,5.35 12.63,7.55 13.64,7.29 C15.42,6.85 16.76,6.24 16.76,6.24"/>
        <path fill="#FFF" fill-rule="nonzero" d="M4.28,35.22 C4.28,35.22 13.08,36.85 21.51,34.96 C22.23,39.64 22.67,43.16 22.67,43.16 C22.67,43.16 16.74,47.06 6.05,44.43 C4.93,38.43 4.29,35.23 4.29,35.23"/>
        <path fill="#5E63B6" fill-rule="nonzero" d="M6.48,44 C15.38,46.1 20.86,43.56 22.11,42.9 C21.99,41.94 21.63,39.12 21.11,35.58 C14.23,37 7.18,36.18 4.93,35.85 C5.17,37.08 5.71,39.85 6.49,44.01 M13.24,45.87 C11.12,45.87 8.68,45.62 5.94,44.95 L5.61,44.87 L5.55,44.54 C4.45,38.6 3.79,35.37 3.79,35.34 L3.64,34.59 L4.38,34.72 C4.48,34.75 13.18,36.32 21.41,34.48 L21.95,34.36 L22.03,34.9 C22.73,39.53 23.17,43.08 23.17,43.12 L23.21,43.44 L22.94,43.62 C22.76,43.74 19.39,45.88 13.24,45.88"/>
        <path fill="#E1F2FF" fill-rule="nonzero" d="M19.2,26.55 L29.3,26.81 C29.43,21.67 25.42,17.39 20.33,17.26 L19.43,17.24 C16.9,17.18 14.79,19.21 14.73,21.79 C14.66,24.36 16.67,26.49 19.21,26.56"/>
        <path fill="#FFF" fill-rule="nonzero" d="M20.1,26.4 L29.14,26.63 C29.24,22.59 26.08,19.23 22.09,19.13 L20.19,19.07 C18.22,19.02 16.59,20.6 16.53,22.6 C16.48,24.65 18.08,26.35 20.1,26.4"/>
        <path fill="#5E63B6" fill-rule="nonzero" d="M20.12,25.88 L28.62,26.1 C28.54,24.47 27.9,22.95 26.78,21.75 C25.54,20.45 23.88,19.69 22.08,19.65 L20.18,19.59 C18.51,19.54 17.08,20.89 17.05,22.61 C17.03,23.46 17.35,24.27 17.92,24.88 C18.5,25.48 19.28,25.84 20.12,25.86 L20.12,25.88 Z M29.62,27.16 L20.09,26.92 C17.79,26.86 15.96,24.92 16.02,22.59 C16.08,20.33 17.9,18.55 20.1,18.55 L20.22,18.55 L22.1,18.6 C24.17,18.66 26.1,19.52 27.52,21.04 C28.94,22.56 29.7,24.54 29.65,26.64 L29.63,27.16 L29.62,27.16 Z"/>
        <path fill="#5E63B6" fill-rule="nonzero" d="M26.9,22.36 C26.87,23.49 25.95,24.38 24.83,24.36 C23.73,24.32 22.83,23.38 22.86,22.26 C22.89,21.12 23.82,20.23 24.93,20.26 C26.05,20.29 26.93,21.23 26.9,22.36 M41.42,29.25 C40.85,29.11 40.34,28.77 39.99,28.3 L39.32,27.42 L40.82,27.78 L41.7,28 C42.05,28.08 42.26,28.43 42.18,28.77 C42.1,29.12 41.76,29.33 41.42,29.25"/>
        <path fill="#E1F2FF" fill-rule="nonzero" d="M18.34,36.6 C18.34,36.6 11.62,38.35 5.76,37 C6.76,41.47 7.32,42.88 7.32,42.88 C7.32,42.88 16.18,41.91 18.34,36.6"/>
        <path fill="#9ACDED" fill-rule="nonzero" d="M12.12,39.64 C10.44,39.64 8.52,39.54 6.44,39.24 C6.17,39.19 5.97,38.94 6.01,38.64 C6.06,38.36 6.31,38.16 6.61,38.21 C13.51,39.23 18.76,37.98 18.81,37.96 C19.09,37.9 19.37,38.06 19.43,38.36 C19.5,38.62 19.33,38.9 19.06,38.96 C18.9,39.01 16.21,39.66 12.13,39.66"/>
        <path fill="#E1F2FF" fill-rule="nonzero" d="M10.94,73.36 L10.9,73.36 C10.02,73.34 9.33,72.6 9.35,71.71 C9.35,71.58 9.47,71.47 9.61,71.47 C9.76,71.47 9.87,71.6 9.87,71.74 C9.87,72.04 9.97,72.31 10.17,72.52 C10.37,72.74 10.63,72.86 10.92,72.87 C11.22,72.87 11.49,72.77 11.7,72.57 C11.9,72.37 12.03,72.09 12.04,71.8 C12.04,71.66 12.14,71.55 12.29,71.55 C12.44,71.55 12.55,71.67 12.55,71.82 C12.55,72.25 12.35,72.64 12.05,72.94 C11.75,73.24 11.37,73.38 10.95,73.38"/>
        <path fill="#E1F2FF" fill-rule="nonzero" d="M8.27,73.3 L8.23,73.3 C7.81,73.28 7.41,73.1 7.13,72.8 C6.83,72.48 6.68,72.08 6.69,71.65 C6.69,71.51 6.79,71.39 6.93,71.39 C7.08,71.39 7.19,71.51 7.19,71.65 C7.19,71.95 7.29,72.22 7.49,72.43 C7.69,72.63 7.95,72.76 8.24,72.77 C8.52,72.77 8.8,72.67 9.01,72.47 C9.21,72.27 9.33,72 9.34,71.71 C9.34,71.56 9.46,71.45 9.6,71.45 C9.75,71.45 9.86,71.58 9.86,71.72 C9.86,72.15 9.68,72.55 9.36,72.84 C9.06,73.14 8.68,73.29 8.26,73.29"/>
        <path fill="#E1F2FF" fill-rule="nonzero" d="M9.57,74.68 L9.53,74.68 C9.11,74.68 8.71,74.48 8.43,74.18 C8.13,73.88 7.97,73.46 7.99,73.03 C7.99,72.89 8.09,72.78 8.23,72.78 C8.38,72.78 8.49,72.9 8.49,73.04 C8.49,73.34 8.59,73.61 8.79,73.82 C8.99,74.02 9.25,74.15 9.54,74.16 C9.84,74.18 10.1,74.06 10.3,73.86 C10.52,73.66 10.64,73.39 10.65,73.1 C10.65,72.96 10.77,72.85 10.9,72.85 C11.05,72.85 11.16,72.97 11.16,73.11 C11.16,73.55 10.96,73.95 10.66,74.25 C10.36,74.53 9.98,74.69 9.56,74.69 M10.07,30.45 L10.03,30.45 C9.08,30.43 8.33,29.63 8.35,28.67 C8.35,28.53 8.45,28.41 8.62,28.42 C8.76,28.42 8.87,28.54 8.86,28.68 C8.86,29.36 9.38,29.92 10.04,29.94 C10.36,29.96 10.67,29.82 10.91,29.6 C11.15,29.37 11.28,29.07 11.29,28.74 C11.29,28.6 11.39,28.48 11.55,28.49 C11.69,28.49 11.81,28.59 11.8,28.75 C11.78,29.21 11.6,29.65 11.26,29.95 C10.94,30.27 10.52,30.45 10.06,30.45"/>
        <path fill="#E1F2FF" fill-rule="nonzero" d="M8.57,31.9 L8.53,31.9 C8.07,31.9 7.63,31.7 7.33,31.36 C7.01,31.02 6.83,30.58 6.85,30.11 C6.85,29.98 6.98,29.88 7.11,29.87 C7.27,29.87 7.38,29.99 7.37,30.14 C7.37,30.46 7.47,30.77 7.71,31.01 C7.93,31.25 8.23,31.38 8.55,31.39 L8.58,31.39 C9.23,31.39 9.78,30.86 9.78,30.19 C9.78,30.06 9.93,29.95 10.05,29.95 C10.19,29.95 10.3,30.07 10.3,30.21 C10.27,31.16 9.5,31.91 8.57,31.91 M12.12,51.7 L12.09,51.7 C11.26,51.68 10.61,51 10.63,50.16 C10.63,50.02 10.75,49.91 10.88,49.91 C11.02,49.91 11.13,50.04 11.13,50.18 C11.13,50.72 11.53,51.18 12.08,51.18 C12.6,51.23 13.06,50.78 13.08,50.23 C13.08,50.09 13.18,49.98 13.33,49.98 C13.48,49.98 13.59,50.1 13.59,50.24 C13.59,51.06 12.91,51.71 12.11,51.71 M41.77,23.86 L41.74,23.86 C41.09,23.84 40.58,23.29 40.59,22.64 C40.59,22.5 40.72,22.38 40.85,22.39 C40.99,22.39 41.1,22.49 41.09,22.64 C41.09,23.01 41.39,23.32 41.74,23.34 C41.91,23.34 42.09,23.27 42.22,23.14 C42.35,23.02 42.42,22.86 42.42,22.68 C42.42,22.52 42.54,22.43 42.69,22.41 C42.83,22.41 42.94,22.54 42.94,22.68 C42.94,23 42.8,23.28 42.57,23.51 C42.35,23.71 42.07,23.84 41.77,23.84"/>
      </g>
      <g transform="translate(82 30)">
        <g transform="translate(.515 5.633)">
          <mask id="notifications-l" fill="#fff">
            <use xlink:href="#notifications-k"/>
          </mask>
          <path fill="#9ACDED" fill-rule="nonzero" d="M51.96,86.55 C48.36,79.3 43.03,58.27 45.76,44.3 L47.93,33.25 C48.63,29.62 48.95,25.93 48.86,22.23 C48.82,20.69 48.62,19.19 48.29,17.75 L47.99,16.68 C47.69,15.62 47.32,14.58 46.87,13.6 C46.72,13.27 46.57,12.94 46.39,12.62 C46.06,11.98 45.69,11.36 45.31,10.75 C44.91,10.15 44.51,9.57 44.06,9.01 C42.72,7.33 41.16,5.84 39.4,4.61 C38.82,4.19 38.2,3.81 37.6,3.45 C34.14,1.47 30.13,0.4 25.9,0.5 L22.2,0.6 C16.02,0.74 10.5,3.37 6.54,7.5 C6.04,8 5.58,8.55 5.14,9.12 C4.34,10.14 3.62,11.22 3,12.38 L2.34,13.7 C2.19,14.03 2.04,14.37 1.92,14.7 C1.52,15.7 1.19,16.76 0.94,17.84 C0.69,18.91 0.52,20.02 0.44,21.14 C0.38,21.89 0.36,22.64 0.38,23.42 C0.42,24.96 1.08,26.32 2.11,27.32 C3.16,28.29 4.57,28.88 6.11,28.84 L29.05,28.27 L26.08,48.15 C22.52,68.61 24.08,82.18 27.48,91.18 C28.23,93.18 52.41,87.43 51.98,86.53" mask="url(#notifications-l)"/>
        </g>
        <g transform="translate(0 5.12)">
          <mask id="notifications-n" fill="#fff">
            <use xlink:href="#notifications-m"/>
          </mask>
          <path fill="#5E63B6" fill-rule="nonzero" d="M28.44,91.5 C30.08,92.53 49.2,88.33 51.84,86.95 C48.21,79.3 43.04,58.6 45.77,44.71 L47.94,33.67 C48.64,30.09 48.94,26.42 48.86,22.77 C48.82,21.29 48.63,19.82 48.3,18.39 L48.03,17.34 C47.73,16.32 47.36,15.3 46.93,14.34 C46.78,14.01 46.63,13.69 46.46,13.38 C46.14,12.75 45.78,12.14 45.4,11.55 C45.02,10.97 44.6,10.39 44.18,9.85 C42.88,8.2 41.34,6.75 39.62,5.53 C39.05,5.13 38.45,4.75 37.85,4.4 C34.38,2.4 30.42,1.4 26.42,1.5 L22.75,1.6 C16.9,1.74 11.45,4.14 7.43,8.36 C6.95,8.86 6.49,9.4 6.06,9.94 C5.28,10.94 4.58,12 3.96,13.14 C3.71,13.62 3.51,14.04 3.33,14.44 C3.18,14.74 3.03,15.07 2.91,15.4 C2.53,16.4 2.21,17.42 1.97,18.46 C1.72,19.52 1.57,20.61 1.47,21.69 C1.42,22.44 1.4,23.19 1.42,23.93 C1.46,25.28 2.02,26.53 3,27.46 C4,28.39 5.26,28.88 6.63,28.86 L30.18,28.26 L27.12,48.76 C24,66.5 24.45,80.87 28.43,91.5 M29.65,92.65 C29.3,92.65 28.98,92.65 28.72,92.6 C28.28,92.54 27.67,92.4 27.48,91.9 C23.41,81.1 22.93,66.54 26.06,48.6 L28.93,29.33 L6.61,29.89 C4.97,29.89 3.44,29.32 2.25,28.21 C1.1,27.1 0.42,25.6 0.37,23.97 C0.37,23.19 0.37,22.41 0.44,21.64 C0.54,20.5 0.7,19.36 0.96,18.24 C1.21,17.16 1.56,16.09 1.96,15.04 C2.09,14.7 2.24,14.36 2.39,14.04 C2.57,13.61 2.79,13.18 3.05,12.68 C3.69,11.48 4.43,10.36 5.25,9.33 C5.69,8.76 6.17,8.21 6.67,7.68 C10.9,3.26 16.6,0.75 22.72,0.58 L26.4,0.5 C30.6,0.4 34.73,1.43 38.36,3.5 C39,3.87 39.62,4.27 40.22,4.7 C42.02,5.96 43.62,7.48 44.99,9.2 C45.43,9.77 45.86,10.38 46.26,11 C46.66,11.6 47.03,12.25 47.36,12.9 L47.86,13.9 C48.31,14.92 48.7,15.98 49.01,17.05 C49.11,17.41 49.21,17.78 49.29,18.15 C49.64,19.65 49.84,21.19 49.87,22.73 C49.97,26.46 49.65,30.2 48.94,33.86 L46.78,44.9 C44.06,58.8 49.34,79.58 52.93,86.84 C53.03,87.04 53.01,87.26 52.87,87.44 C52.17,88.41 43.73,90.34 42.04,90.71 C39.86,91.21 33.02,92.66 29.66,92.66" mask="url(#notifications-n)"/>
        </g>
        <path fill="#FFF" fill-rule="nonzero" d="M10.92,9.56 C10.92,9.56 11.2,5.66 15.05,4.01 C16.22,3.51 19.42,3.31 19.42,3.31 C19.42,3.31 20.42,7.41 17.82,8.71 C14.1,10.57 10.92,9.57 10.92,9.57"/>
        <path fill="#5E63B6" fill-rule="nonzero" d="M11.5,9.17 C12.45,9.35 14.88,9.6 17.6,8.24 C19.35,7.37 19.15,4.86 19,3.84 C17.92,3.94 16.02,4.14 15.25,4.48 C12.45,5.68 11.7,8.18 11.5,9.18 M13.12,10.34 C11.74,10.34 10.84,10.07 10.77,10.04 L10.37,9.94 L10.41,9.52 C10.43,9.35 10.76,5.29 14.85,3.54 C16.09,3.01 19.25,2.8 19.39,2.79 L19.83,2.75 L19.93,3.17 C19.97,3.37 21,7.69 18.07,9.15 C16.19,10.09 14.44,10.33 13.13,10.33"/>
        <path fill="#FFF" fill-rule="nonzero" d="M20.74,7.32 C20.74,7.32 20.71,2.02 26.69,1.09 C27.79,0.91 29.23,0.99 29.23,0.99 C29.23,0.99 32.2,6.49 29.06,7.11 C25.18,7.87 20.73,7.31 20.73,7.31"/>
        <path fill="#5E63B6" fill-rule="nonzero" d="M21.28,6.87 C22.53,6.97 25.95,7.21 28.98,6.61 C29.4,6.54 29.68,6.34 29.84,6.01 C30.38,4.88 29.46,2.58 28.94,1.51 C28.46,1.51 27.54,1.49 26.77,1.61 C22.27,2.31 21.43,5.64 21.27,6.88 M24.37,8.04 C22.33,8.04 20.77,7.86 20.67,7.84 L20.22,7.79 L20.22,7.34 C20.22,7.28 20.27,1.58 26.62,0.6 C27.77,0.4 29.22,0.48 29.27,0.48 L29.57,0.5 L29.7,0.75 C29.9,1.13 31.68,4.53 30.77,6.45 C30.47,7.05 29.92,7.47 29.17,7.62 C27.54,7.94 25.83,8.02 24.37,8.02"/>
        <path fill="#FFF" fill-rule="nonzero" d="M32.1,7.43 C32.1,7.43 32.9,1.53 38.2,3.16 C40.48,3.86 41.74,5.56 41.74,5.56 C41.74,5.56 40.68,10.06 38.57,9.56 C34.87,8.66 32.11,7.43 32.11,7.43"/>
        <path fill="#5E63B6" fill-rule="nonzero" d="M32.7,7.12 C33.56,7.48 35.86,8.37 38.7,9.05 C38.93,9.11 39.15,9.07 39.4,8.92 C40.28,8.37 40.93,6.59 41.18,5.69 C40.8,5.25 39.71,4.14 38.06,3.64 C36.71,3.24 35.56,3.31 34.66,3.88 C33.36,4.7 32.86,6.35 32.69,7.1 M38.89,10.08 C38.74,10.08 38.59,10.06 38.44,10.02 C34.74,9.14 32,7.92 31.88,7.87 L31.52,7.71 L31.58,7.33 C31.58,7.21 32,4.33 34.1,3 C35.26,2.26 36.7,2.14 38.34,2.64 C40.74,3.37 42.08,5.16 42.14,5.24 L42.27,5.44 L42.21,5.66 C42.13,5.96 41.41,8.82 39.91,9.76 C39.57,9.96 39.21,10.06 38.87,10.06"/>
        <path fill="#E1F2FF" fill-rule="nonzero" d="M12.83,8.52 C12.83,8.52 12.97,6.45 15.01,5.58 C15.64,5.32 17.33,5.21 17.33,5.21 C17.33,5.21 17.86,7.39 16.49,8.07 C14.52,9.07 12.84,8.53 12.84,8.53 M23.04,6.33 C23.04,6.33 23.04,3.4 26.34,2.89 C26.94,2.79 27.74,2.82 27.74,2.82 C27.74,2.82 29.39,5.86 27.64,6.22 C25.51,6.62 23.04,6.32 23.04,6.32 M34.2,6.97 C34.2,6.97 34.63,3.77 37.53,4.64 C38.77,5.02 39.46,5.96 39.46,5.96 C39.46,5.96 38.88,8.41 37.73,8.13 C35.71,7.65 34.19,6.97 34.19,6.97"/>
        <path fill="#FFF" fill-rule="nonzero" d="M48.36,39.32 C48.36,39.32 38.36,41.14 28.78,39.02 C27.98,44.25 27.48,48.18 27.48,48.18 C27.48,48.18 34.21,52.52 46.36,49.61 C47.63,42.91 48.36,39.33 48.36,39.33"/>
        <path fill="#5E63B6" fill-rule="nonzero" d="M28.03,47.9 C29.39,48.64 35.68,51.55 45.91,49.18 L47.71,39.94 C45.27,40.3 37.13,41.26 29.21,39.64 C28.61,43.68 28.18,46.89 28.04,47.91 M38.2,51.14 C31.2,51.14 27.4,48.76 27.2,48.62 L26.93,48.46 L26.97,48.14 C26.97,48.1 27.47,44.14 28.27,38.97 L28.35,38.43 L28.89,38.56 C38.25,40.62 48.15,38.86 48.25,38.84 L49,38.72 L48.86,39.46 C48.86,39.5 48.12,43.11 46.86,49.74 L46.8,50.07 L46.48,50.14 C43.35,50.89 40.58,51.17 38.18,51.17"/>
        <path fill="#E1F2FF" fill-rule="nonzero" d="M32,29.63 L19.92,29.93 L19.89,28.75 C19.76,23.65 23.79,19.42 28.93,19.29 L31.71,19.21 C34.27,19.14 36.41,21.16 36.47,23.71 L36.5,24.89 C36.57,27.43 34.55,29.55 32,29.62"/>
        <path fill="#FFF" fill-rule="nonzero" d="M30.38,29.47 L20.12,29.73 C20,25.21 23.59,21.46 28.12,21.35 L30.26,21.29 C32.5,21.23 34.36,22.99 34.43,25.23 C34.48,27.51 32.67,29.4 30.38,29.46"/>
        <path fill="#5E63B6" fill-rule="nonzero" d="M30.36,21.8 L30.26,21.8 L28.14,21.86 C26.08,21.91 24.17,22.76 22.74,24.24 C21.44,25.6 20.71,27.34 20.64,29.2 L30.37,28.96 C32.37,28.91 33.97,27.24 33.91,25.26 C33.87,23.33 32.29,21.8 30.37,21.8 L30.36,21.8 Z M19.62,30.25 L19.6,29.75 C19.54,27.42 20.4,25.21 22,23.53 C23.6,21.85 25.78,20.89 28.1,20.83 L30.25,20.78 C32.77,20.71 34.88,22.71 34.95,25.22 C35.01,27.78 32.95,29.92 30.39,29.98 L19.61,30.25 L19.62,30.25 Z"/>
        <path fill="#5E63B6" fill-rule="nonzero" d="M22.65,24.95 C22.69,26.22 23.75,27.21 25.01,27.18 C26.28,27.15 27.29,26.1 27.25,24.84 C27.22,23.58 26.17,22.58 24.9,22.61 C23.62,22.65 22.62,23.71 22.65,24.96 M6.17,32.65 C6.82,32.49 7.39,32.12 7.79,31.59 L8.53,30.59 L6.83,30.99 L5.83,31.24 C5.43,31.34 5.2,31.72 5.29,32.11 C5.39,32.49 5.77,32.73 6.16,32.64"/>
        <path fill="#E1F2FF" fill-rule="nonzero" d="M32.38,40.85 C32.38,40.85 40.01,42.81 46.68,41.31 C45.53,46.31 44.9,47.88 44.9,47.88 C44.9,47.88 34.83,46.8 32.38,40.86"/>
        <path fill="#9ACDED" fill-rule="nonzero" d="M39.45,44.2 C34.82,44.2 31.77,43.47 31.6,43.43 C31.32,43.36 31.15,43.09 31.22,42.81 C31.28,42.55 31.56,42.38 31.84,42.44 C31.9,42.46 37.86,43.86 45.74,42.74 C46.02,42.68 46.28,42.88 46.32,43.16 C46.36,43.44 46.17,43.7 45.89,43.74 C43.52,44.08 41.35,44.2 39.44,44.2"/>
        <path fill="#E1F2FF" fill-rule="nonzero" d="M40.8,81.87 C39.83,81.87 39.04,81.11 39.02,80.15 C39.02,80.01 39.12,79.89 39.27,79.89 C39.42,79.89 39.53,79.99 39.53,80.13 C39.55,80.83 40.13,81.38 40.83,81.35 C41.51,81.33 42.06,80.75 42.05,80.07 C42.05,79.93 42.15,79.81 42.3,79.81 C42.44,79.81 42.56,79.91 42.56,80.06 C42.58,81.03 41.81,81.84 40.83,81.86 L40.79,81.86"/>
        <path fill="#E1F2FF" fill-rule="nonzero" d="M43.82,81.8 C43.36,81.8 42.92,81.62 42.6,81.3 C42.25,81 42.06,80.55 42.05,80.08 C42.05,79.94 42.15,79.82 42.3,79.82 C42.44,79.82 42.56,79.92 42.56,80.06 C42.56,80.4 42.71,80.71 42.96,80.94 C43.19,81.17 43.52,81.3 43.86,81.28 C44.54,81.28 45.09,80.68 45.06,80 C45.06,79.86 45.18,79.74 45.32,79.74 C45.47,79.74 45.58,79.84 45.59,79.99 C45.59,80.95 44.83,81.76 43.85,81.79 L43.81,81.79"/>
        <path fill="#E1F2FF" fill-rule="nonzero" d="M42.34,83.34 C41.38,83.34 40.59,82.58 40.57,81.62 C40.57,81.48 40.67,81.36 40.82,81.36 C40.97,81.36 41.08,81.46 41.09,81.61 C41.09,81.95 41.22,82.26 41.47,82.49 C41.71,82.72 42.03,82.85 42.37,82.84 C43.07,82.82 43.61,82.24 43.59,81.56 C43.59,81.41 43.69,81.3 43.84,81.29 C43.98,81.29 44.1,81.39 44.1,81.54 C44.12,82.01 43.95,82.46 43.63,82.8 C43.3,83.13 42.86,83.33 42.39,83.34 L42.33,83.34 M41.77,33.96 C40.74,33.96 39.87,33.14 39.85,32.1 C39.85,31.96 39.95,31.84 40.1,31.84 C40.25,31.84 40.36,31.94 40.37,32.09 C40.37,32.45 40.53,32.79 40.8,33.06 C41.08,33.31 41.44,33.46 41.8,33.44 C42.18,33.44 42.53,33.28 42.8,33.01 C43.05,32.73 43.2,32.38 43.18,32.01 C43.18,31.87 43.28,31.75 43.43,31.74 C43.56,31.74 43.69,31.84 43.69,31.99 C43.69,32.49 43.51,32.99 43.16,33.36 C42.8,33.73 42.33,33.94 41.81,33.96 L41.76,33.96"/>
        <path fill="#E1F2FF" fill-rule="nonzero" d="M43.48,35.58 C42.44,35.58 41.58,34.75 41.56,33.71 C41.56,33.58 41.66,33.46 41.81,33.46 L41.83,33.46 C41.96,33.46 42.08,33.56 42.08,33.71 C42.1,34.48 42.76,35.11 43.52,35.07 C43.92,35.07 44.26,34.91 44.52,34.64 C44.78,34.37 44.92,34.01 44.9,33.64 C44.9,33.5 45,33.38 45.15,33.38 C45.3,33.38 45.42,33.48 45.42,33.63 C45.45,34.68 44.62,35.56 43.55,35.59 L43.5,35.59 M39.44,57.68 C38.54,57.68 37.81,56.98 37.79,56.08 C37.79,55.94 37.89,55.82 38.03,55.82 C38.19,55.82 38.29,55.92 38.3,56.07 C38.32,56.69 38.84,57.21 39.47,57.17 C40.1,57.15 40.6,56.63 40.57,56.01 C40.57,55.88 40.69,55.76 40.83,55.76 C40.99,55.76 41.09,55.86 41.1,56.01 C41.1,56.45 40.95,56.86 40.64,57.18 C40.34,57.5 39.94,57.68 39.49,57.68 L39.43,57.68 M5.76,26.6 C5.06,26.6 4.48,26.04 4.46,25.34 C4.46,25.19 4.56,25.08 4.71,25.07 C4.88,25.07 4.98,25.17 4.99,25.32 C4.99,25.76 5.37,26.1 5.79,26.09 C6.23,26.07 6.59,25.71 6.56,25.27 C6.56,25.13 6.66,25.01 6.82,25.01 C6.98,25.03 7.09,25.11 7.09,25.26 C7.11,25.98 6.54,26.56 5.82,26.59 L5.78,26.59"/>
      </g>
      <g fill-rule="nonzero" transform="translate(70 108)">
        <path fill="#FFF" stroke="#5E63B6" d="M5.95,66.25 C2.67,66.25 0,63.82 0,60.82 L0,5.42 C0,2.42 2.67,0 5.95,0 L94.05,0 C97.35,0 100,2.43 100,5.43 L100,60.83 C100,63.83 97.34,66.25 94.05,66.25 L5.95,66.25 Z"/>
        <path fill="#EFEFF6" d="M6.55,2.58 C4.41,2.58 2.67,4.33 2.67,6.48 L2.67,60.43 C2.67,62.59 4.41,64.33 6.55,64.33 L19.98,64.33 C22.72,31.93 44.94,11.43 74.68,2.58 L6.54,2.58 L6.55,2.58 Z"/>
        <path fill="#9452BA" d="M58.9,34.54 L58.95,34.38 C58.95,34.31 58.99,34.24 58.99,34.18 C59.16,33.3 58.86,32.24 58.22,31.14 L58.04,30.84 L57.69,30.34 C57.69,30.31 57.67,30.3 57.65,30.27 L57.55,30.14 L57.45,29.99 C57.42,29.93 57.38,29.89 57.35,29.85 L57.25,29.7 C57.21,29.68 57.18,29.63 57.15,29.6 C56.15,28.3 54.81,27.02 53.4,25.88 C53.5,27.68 53.45,29.51 53.2,30.93 C52.9,32.66 52.17,34.66 51.22,36.45 C49.2,36.18 47.17,35.61 45.58,34.85 C44.26,34.19 42.76,33.2 41.34,32.05 L41.37,32.5 L41.39,32.64 L41.39,32.96 L41.41,33.1 L41.45,33.42 L41.45,33.56 C41.48,33.69 41.49,33.83 41.51,33.96 L41.58,34.48 C41.58,34.65 41.61,34.78 41.63,34.91 L41.65,35.01 L41.71,35.39 L41.73,35.46 L41.81,35.89 C41.91,36.34 42.01,36.79 42.13,37.19 C42.33,37.92 42.58,38.59 42.86,39.15 L42.98,39.4 C43.03,39.48 43.05,39.56 43.1,39.63 C43.14,39.73 43.18,39.79 43.22,39.86 L43.42,40.16 L43.45,40.22 C43.52,40.32 43.59,40.42 43.67,40.5 L43.81,40.68 L43.88,40.75 C43.92,40.78 43.98,40.81 43.98,40.85 L44.08,40.93 C44.1,40.96 44.12,40.99 44.18,41.03 C44.2,41.03 44.22,41.06 44.24,41.08 L44.34,41.15 C44.37,41.17 44.4,41.18 44.41,41.21 C44.44,41.25 44.48,41.27 44.53,41.31 C44.56,41.31 44.58,41.33 44.6,41.34 L44.73,41.4 C44.73,41.4 44.77,41.4 44.79,41.42 L44.99,41.5 C45.03,41.5 45.07,41.53 45.09,41.54 C48.26,42.54 51.52,41.38 55.29,44.37 C55.04,39.55 57.86,37.69 58.89,34.54 L58.9,34.54 Z"/>
      </g>
      <path fill="#5E63B6" fill-rule="nonzero" d="M9.97,2 L1,2 C0.45,2 0,1.55 0,1 C0,0.45 0.45,0 1,0 L9.97,0 C10.53,0 10.97,0.45 10.97,1 C10.97,1.55 10.53,2 9.97,2 Z M250.97,2 L242,2 C241.45,2 241,1.55 241,1 C241,0.45 241.45,0 242,0 L250.97,0 C251.53,0 251.97,0.45 251.97,1 C251.97,1.55 251.53,2 250.97,2 Z M159.42,10.72 L92.22,10.72 C91.68,10.72 91.22,10.27 91.22,9.72 C91.22,9.17 91.68,8.72 92.22,8.72 L159.42,8.72 C159.97,8.72 160.42,9.17 160.42,9.72 C160.42,10.27 159.97,10.72 159.42,10.72 Z M177.18,10.72 L168.04,10.72 C167.48,10.72 167.04,10.27 167.04,9.72 C167.04,9.17 167.48,8.72 168.04,8.72 L177.18,8.72 C177.73,8.72 178.18,9.17 178.18,9.72 C178.18,10.27 177.73,10.72 177.18,10.72 Z M79.35,10.72 C78.8,10.72 78.35,10.28 78.35,9.72 C78.35,9.18 78.78,8.72 79.33,8.72 L84.33,8.64 C84.9,8.64 85.33,9.08 85.35,9.64 C85.35,10.18 84.92,10.64 84.35,10.64 L79.35,10.72 Z M235.9,2 L18,2 C17.45,2 17,1.55 17,1 C17,0.45 17.45,0 18,0 L235.9,0 C236.45,0 236.9,0.45 236.9,1 C236.9,1.55 236.45,2 235.9,2 Z" transform="translate(0 174)"/>
      <path fill="#E1F2FF" fill-rule="nonzero" d="M0,0 L1,0 C2.66,0 4,1.34 4,3 L4,8 C4,9.66 2.66,11 1,11 L0,11 L0,0 Z" transform="translate(195 156)"/>
      <g fill="#5E63B6" fill-rule="nonzero" transform="translate(16)">
        <path d="M216.7,130.97 L216.7,134.9 C216.7,135.18 216.92,135.4 217.2,135.4 C217.48,135.4 217.7,135.18 217.7,134.9 L217.7,130.97 C217.7,130.69 217.48,130.47 217.2,130.47 C216.92,130.47 216.7,130.69 216.7,130.97 Z"/>
        <path d="M219.17,132.43 L215.23,132.43 C214.95,132.43 214.73,132.66 214.73,132.93 C214.73,133.21 214.95,133.43 215.23,133.43 L219.17,133.43 C219.44,133.43 219.67,133.21 219.67,132.93 C219.67,132.66 219.44,132.43 219.17,132.43 Z M206.37,67.14 L206.37,71.08 C206.37,71.36 206.59,71.58 206.87,71.58 C207.14,71.58 207.37,71.36 207.37,71.08 L207.37,67.14 C207.37,66.87 207.14,66.64 206.87,66.64 C206.59,66.64 206.37,66.87 206.37,67.14 Z"/>
        <path d="M208.84 68.6L204.9 68.6C204.62 68.6 204.4 68.84 204.4 69.1 204.4 69.4 204.62 69.6 204.9 69.6L208.84 69.6C209.11 69.6 209.34 69.4 209.34 69.1 209.34 68.84 209.11 68.6 208.84 68.6zM171.85 9C171.29 9 170.85 8.55 170.85 8L170.85 1C170.85.45 171.29 0 171.85 0 172.4 0 172.85.45 172.85 1L172.85 8C172.85 8.55 172.4 9 171.85 9"/>
        <path d="M175.35,5.5 L168.35,5.5 C167.79,5.5 167.35,5.05 167.35,4.5 C167.35,3.95 167.79,3.5 168.35,3.5 L175.35,3.5 C175.9,3.5 176.35,3.95 176.35,4.5 C176.35,5.05 175.9,5.5 175.35,5.5 M25.83,39.13 C25.27,39.13 24.83,38.69 24.83,38.13 L24.83,31.13 C24.83,30.58 25.27,30.13 25.83,30.13 C26.38,30.13 26.83,30.58 26.83,31.13 L26.83,38.13 C26.83,38.69 26.38,39.13 25.83,39.13"/>
        <path d="M29.33,35.63 L22.33,35.63 C21.77,35.63 21.33,35.19 21.33,34.63 C21.33,34.08 21.77,33.63 22.33,33.63 L29.33,33.63 C29.88,33.63 30.33,34.08 30.33,34.63 C30.33,35.19 29.88,35.63 29.33,35.63 M66.53,43.6 C66.25,43.6 66.03,43.38 66.03,43.1 L66.03,39.16 C66.03,38.89 66.25,38.66 66.53,38.66 C66.8,38.66 67.03,38.89 67.03,39.16 L67.03,43.1 C67.03,43.38 66.8,43.6 66.53,43.6"/>
        <path d="M68.5,41.63 L64.56,41.63 C64.28,41.63 64.06,41.41 64.06,41.13 C64.06,40.86 64.28,40.63 64.56,40.63 L68.5,40.63 C68.77,40.63 69,40.86 69,41.13 C69,41.41 68.77,41.63 68.5,41.63 M3.4,156.38 C3.13,156.38 2.9,156.16 2.9,155.88 L2.9,151.94 C2.9,151.67 3.13,151.44 3.4,151.44 C3.7,151.44 3.9,151.67 3.9,151.94 L3.9,155.88 C3.9,156.16 3.7,156.38 3.4,156.38"/>
        <path d="M5.38,154.4 L1.44,154.4 C1.16,154.4 0.94,154.2 0.94,153.9 C0.94,153.64 1.16,153.4 1.44,153.4 L5.38,153.4 C5.65,153.4 5.88,153.64 5.88,153.9 C5.88,154.2 5.65,154.4 5.38,154.4"/>
      </g>
    </g>
    <g transform="translate(187 115)">
      <path fill="#E1F2FF" fill-rule="nonzero" d="M21.5,41 C31.7172679,41 40,32.4934102 40,22 C40,11.5065898 31.7172679,3 21.5,3 C11.2827321,3 3,11.5065898 3,22 C3,32.4934102 11.2827321,41 21.5,41 Z"/>
      <path fill="#FFF" fill-rule="nonzero" stroke="#5E63B6" d="M18.5,38 C28.7172679,38 37,29.4934102 37,19 C37,8.50658975 28.7172679,0 18.5,0 C8.28273213,0 0,8.50658975 0,19 C0,29.4934102 8.28273213,38 18.5,38 Z"/>
      <g fill-rule="nonzero" transform="rotate(11 -35.194 58.69)">
        <path fill="#E1F2FF" d="M7.22247728,17.3919209 L13.6936223,17.3919209 L17.5763093,17.3919209 C18.296947,17.3919209 18.8848707,16.8042263 18.8848707,16.0910583 C18.8848707,15.8757068 18.8174737,15.7351181 18.620479,15.5204016 C18.6176484,15.5173163 18.1133178,15.0130846 17.9410247,14.8077809 C17.5911072,14.3908206 17.3249628,13.9228627 17.1287614,13.3207108 C17.1209383,13.2967012 17.1150347,13.2721005 17.1111069,13.2471438 C17.0985425,13.1663363 17.0920555,13.1241484 17.0847557,13.0762589 C17.0639354,12.9396701 17.040751,12.7846258 17.0157923,12.614017 C16.9445039,12.1267136 16.8732207,11.6119738 16.8066576,11.0928386 C16.758518,10.7173906 16.7146296,10.3532001 16.6759543,10.0049179 C16.5898542,9.22956293 16.5324692,8.56014113 16.5103269,8.02474753 C16.3791552,4.6794185 13.7582433,2.06424725 10.4580498,2.06424725 C7.16014509,2.06424725 4.53693539,4.68355141 4.40414696,8.0265785 C4.38303584,8.55920504 4.32656397,9.22472413 4.241275,9.99462287 C4.20205462,10.348663 4.15734346,10.7190886 4.10816957,11.1009955 C4.04186823,11.6159222 3.97086552,12.1258804 3.89985708,12.6082232 C3.8749959,12.777099 3.85190161,12.9305132 3.83116177,13.065624 C3.82388967,13.1129985 3.81742701,13.1547278 3.81184726,13.1904564 C3.80105534,13.2589474 3.79533436,13.282889 3.7877945,13.3062756 C3.59231532,13.9126011 3.32840736,14.3822455 2.97911232,14.8057686 C2.81742457,15.0018163 2.33359318,15.5020849 2.33707837,15.498214 C2.11032614,15.7500601 2.03122892,15.91857 2.03122892,16.1887623 C2.03122892,16.8696009 2.59471376,17.3919209 3.33979026,17.3919209 L7.22247728,17.3919209 Z M14.1349444,18.3401083 C13.903342,20.1760792 12.3446659,21.5969089 10.4580498,21.5969089 C8.57143367,21.5969089 7.01275763,20.1760792 6.78115522,18.3401083 L3.33979026,18.3401083 C2.09099978,18.3401083 1.08922182,17.4115144 1.08922182,16.1887623 C1.08922182,15.6544268 1.26794078,15.2736811 1.63906949,14.8614809 C1.65799743,14.8404583 2.12121002,14.3615091 2.25430812,14.2001265 C2.52300078,13.8743344 2.72458443,13.519218 2.88049325,13.0481694 C2.88672096,13.0082939 2.89305692,12.9673827 2.90020164,12.920838 C2.92065275,12.7876082 2.94345696,12.6361209 2.96802491,12.4692369 C3.03824258,11.9922656 3.10846598,11.4879046 3.17397567,10.9791263 C3.22246298,10.6025516 3.26650611,10.2376606 3.30507014,9.88954525 C3.38809364,9.14009679 3.44281679,8.49518636 3.46289027,7.98873922 C3.6156192,4.14369815 6.64777196,1.11605979 10.4580498,1.11605979 C14.2705432,1.11605979 17.3007295,4.13960906 17.4515599,7.98633103 C17.4725978,8.49499304 17.5282552,9.14426163 17.6121314,9.89959059 C17.650179,10.2422191 17.69343,10.6011209 17.7409161,10.9714718 C17.8067066,11.4845816 17.8772308,11.9938408 17.9477498,12.4758845 C17.9724238,12.6445473 17.9953267,12.7977093 18.0158669,12.9324609 C18.0230433,12.9795405 18.0294076,13.02093 18.0348858,13.056266 C18.1913565,13.5258599 18.3935368,13.8776227 18.6606498,14.1959135 C18.8008702,14.3629996 19.2841991,14.8462337 19.3125291,14.8771122 C19.6569887,15.2525599 19.8268778,15.6069449 19.8268778,16.0910583 C19.8268778,17.3293721 18.8157476,18.3401083 17.5763093,18.3401083 L14.1349444,18.3401083 Z M7.73351038,18.3401083 C7.95731571,19.6504963 9.09269239,20.6487215 10.4580498,20.6487215 C11.8234072,20.6487215 12.9587839,19.6504963 13.1825892,18.3401083 L7.73351038,18.3401083 Z"/>
        <path fill="#5E63B6" d="M6.48267805,16.7823182 L12.9538231,16.7823182 L16.8365101,16.7823182 C17.5571478,16.7823182 18.1450715,16.1946236 18.1450715,15.4814556 C18.1450715,15.2661041 18.0776745,15.1255155 17.8806798,14.9107989 C17.8778492,14.9077136 17.3735185,14.4034819 17.2012255,14.1981782 C16.851308,13.7812179 16.5851636,13.31326 16.3889622,12.7111082 C16.3811391,12.6870986 16.3752354,12.6624979 16.3713077,12.6375412 C16.3587433,12.5567336 16.3522563,12.5145457 16.3449565,12.4666562 C16.3241362,12.3300674 16.3009517,12.1750231 16.2759931,12.0044143 C16.2047047,11.517111 16.1334215,11.0023711 16.0668584,10.4832359 C16.0187188,10.1077879 15.9748304,9.74359742 15.9361551,9.3953152 C15.850055,8.61996025 15.79267,7.95053845 15.7705276,7.41514485 C15.639356,4.06981582 13.018444,1.45464457 9.71825057,1.45464457 C6.42034587,1.45464457 3.79713617,4.07394873 3.66434774,7.41697582 C3.64323662,7.94960235 3.58676474,8.61512145 3.50147577,9.38502019 C3.4622554,9.73906032 3.41754423,10.1094859 3.36837035,10.4913928 C3.302069,11.0063195 3.23106629,11.5162777 3.16005785,11.9986205 C3.13519667,12.1674963 3.11210239,12.3209105 3.09136255,12.4560213 C3.08409045,12.5033958 3.07762779,12.5451251 3.07204804,12.5808538 C3.06125612,12.6493447 3.05553513,12.6732863 3.04799528,12.696673 C2.8525161,13.3029984 2.58860814,13.7726428 2.2393131,14.1961659 C2.07762535,14.3922137 1.59379395,14.8924822 1.59727915,14.8886113 C1.37052692,15.1404574 1.29142969,15.3089673 1.29142969,15.5791596 C1.29142969,16.2599982 1.85491453,16.7823182 2.59999103,16.7823182 L6.48267805,16.7823182 Z M13.3951452,17.7305056 C13.1635427,19.5664765 11.6048667,20.9873062 9.71825057,20.9873062 C7.83163444,20.9873062 6.2729584,19.5664765 6.041356,17.7305056 L2.59999103,17.7305056 C1.35120055,17.7305056 0.349422597,16.8019117 0.349422597,15.5791596 C0.349422597,15.0448241 0.528141553,14.6640784 0.899270263,14.2518782 C0.918198202,14.2308556 1.3814108,13.7519064 1.51450889,13.5905238 C1.78320156,13.2647317 1.9847852,12.9096153 2.14069403,12.4385667 C2.14692173,12.3986912 2.15325769,12.35778 2.16040242,12.3112353 C2.18085353,12.1780055 2.20365773,12.0265183 2.22822569,11.8596342 C2.29844336,11.3826629 2.36866676,10.8783019 2.43417645,10.3695236 C2.48266375,9.99294893 2.52670688,9.62805795 2.56527092,9.27994257 C2.64829442,8.5304941 2.70301757,7.88558368 2.72309105,7.37913654 C2.87581998,3.53409547 5.90797274,0.506457106 9.71825057,0.506457106 C13.5307439,0.506457106 16.5609303,3.53000638 16.7117607,7.37672835 C16.7327985,7.88539036 16.788456,8.53465895 16.8723322,9.2899879 C16.9103797,9.63261644 16.9536308,9.99151826 17.0011169,10.3618691 C17.0669074,10.8749789 17.1374316,11.3842381 17.2079506,11.8662819 C17.2326245,12.0349446 17.2555275,12.1881066 17.2760677,12.3228582 C17.2832441,12.3699379 17.2896083,12.4113274 17.2950866,12.4466633 C17.4515573,12.9162572 17.6537376,13.26802 17.9208506,13.5863108 C18.061071,13.753397 18.5443999,14.236631 18.5727298,14.2675095 C18.9171895,14.6429573 19.0870786,14.9973422 19.0870786,15.4814556 C19.0870786,16.7197694 18.0759484,17.7305056 16.8365101,17.7305056 L13.3951452,17.7305056 Z M6.99371116,17.7305056 C7.21751649,19.0408936 8.35289317,20.0391188 9.71825057,20.0391188 C11.083608,20.0391188 12.2189847,19.0408936 12.44279,17.7305056 L6.99371116,17.7305056 Z"/>
      </g>
      <circle cx="24" cy="13" r="4" fill="#D4604F" fill-rule="nonzero" stroke="#FFF"/>
    </g>
  </g>
</svg>
