<?xml version="1.0" encoding="utf-8"?>
<!-- Generator: Adobe Illustrator 22.1.0, SVG Export Plug-In . SVG Version: 6.00 Build 0)  -->
<svg version="1.1" id="Logo_AKENEO_-_Couleur_-_Fond_Noir"
	 xmlns="http://www.w3.org/2000/svg" xmlns:xlink="http://www.w3.org/1999/xlink" x="0px" y="0px" width="1906px" height="178px"
	 viewBox="0 0 1906 178" style="enable-background:new 0 0 1906 178;" xml:space="preserve">
<style type="text/css">
	.st0{fill:#4CA8E0;}
</style>
<g>
	<g>
		<g>
			<path class="st0" d="M123.1,161.6c-0.4-3.4-0.2-9.9,0.7-19.3c0.6-5.7,2.3-11.3,4.4-16.7c3.6-9.4,8.8-18.1,14-26.7
				c5-8.4,10.7-17.6,12.3-27.4c2.2-12.9-6.3-26.1-13.7-35.9C130.7,22.1,118.2,10.4,105,0c0.8,12.4,0.9,25.5-0.5,38.1
				c-1.3,11.9-4.4,23.5-8.7,34.7c-2.3,6.2-5,12.2-8,18.1c-0.9,1.9-1,1.9-3.1,1.6c-1.6-0.2-3.2-0.4-4.8-0.7c-3.4-0.5-6.7-1.2-10-1.9
				c-11.8-2.5-23.4-6.2-34.2-11.5C23,72.2,11.1,64.1,0,55.3C0.8,68,2.6,80.8,5.7,93.1c2.8,11.4,6.6,23,13.4,32.6
				c3.4,4.8,7.7,9.2,13.3,11.4c5,2,10.4,2.9,15.7,3.6c11.2,1.5,22.6,1.4,33.8,3.1C97,146.2,111,152.2,123.1,161.6"/>
		</g>
		<g>
			<path d="M229.3,146.9c-7,0-13.1-1.2-18.4-3.6c-5.2-2.4-9.6-5.7-13.1-9.9c-3.5-4.2-6.1-9.1-7.8-14.9c-1.7-5.7-2.5-11.9-2.5-18.5
				c0-6.6,0.8-12.8,2.5-18.5c1.7-5.7,4.3-10.7,7.8-14.9c3.5-4.2,7.9-7.5,13.1-10c5.2-2.4,11.4-3.7,18.4-3.7c7,0,13.1,1.2,18.4,3.7
				c5.2,2.4,9.6,5.8,13.1,10c3.5,4.2,6.1,9.2,7.8,14.9c1.7,5.7,2.5,11.9,2.5,18.5c0,6.6-0.8,12.8-2.5,18.5
				c-1.7,5.7-4.3,10.7-7.8,14.9c-3.5,4.2-7.9,7.5-13.1,9.9S236.3,146.9,229.3,146.9z M229.3,133.1c8,0,14-2.9,17.8-8.7
				c3.8-5.8,5.8-13.9,5.8-24.3c0-10.4-1.9-18.4-5.8-24.2c-3.8-5.8-9.8-8.7-17.8-8.7c-8,0-14,2.9-17.7,8.7
				c-3.8,5.8-5.7,13.8-5.7,24.2c0,10.4,1.9,18.5,5.7,24.3C215.4,130.2,221.3,133.1,229.3,133.1z"/>
			<path d="M293.8,55.1c1.3-0.2,2.5-0.4,3.8-0.5c1.2-0.1,2.5-0.2,3.8-0.2c1.3,0,2.5,0.1,3.6,0.2c1.1,0.1,2.3,0.3,3.6,0.5
				c0.3,1.7,0.7,4.1,1,7.1c0.3,3,0.5,5.4,0.5,7.4c1.2-2,2.6-4,4.5-5.9c1.8-2,3.9-3.8,6.2-5.3c2.3-1.6,5-2.9,8-3.8
				c3-1,6.4-1.5,10-1.5c10.3,0,17.8,2.9,22.7,8.8c4.9,5.9,7.3,14.6,7.3,26.1v56.8c-1.3,0.2-2.7,0.4-4.4,0.5
				c-1.6,0.1-3.1,0.2-4.4,0.2c-1.3,0-2.7-0.1-4.3-0.2c-1.6-0.1-3-0.3-4.3-0.5V92.7c0-8.3-1.3-14.4-3.8-18.3
				c-2.6-3.9-6.6-5.9-12.2-5.9c-3.3,0-6.4,0.6-9.3,1.7c-2.9,1.2-5.5,3-7.7,5.4c-2.2,2.4-4,5.6-5.3,9.5c-1.3,3.9-2,8.6-2,14.1v45.5
				c-1.3,0.2-2.7,0.4-4.3,0.5c-1.6,0.1-3,0.2-4.3,0.2c-1.3,0-2.7-0.1-4.4-0.2c-1.6-0.1-3.1-0.3-4.4-0.5V55.1z"/>
			<path d="M394.7,16.7c1.3-0.2,2.7-0.4,4.3-0.5c1.6-0.1,3-0.2,4.3-0.2c1.3,0,2.7,0.1,4.4,0.2c1.6,0.1,3.1,0.3,4.4,0.5V66
				c2.1-3.5,5.4-6.5,9.8-9.1c4.4-2.6,9.8-3.8,16.1-3.8c5.4,0,10.3,0.9,14.9,2.6s8.4,4.5,11.7,8.1c3.3,3.7,5.8,8.3,7.6,14
				c1.8,5.7,2.7,12.3,2.7,20c0,15.4-4.3,27.4-13,36.1c-8.7,8.7-21.2,13-37.5,13c-5.1,0-10.4-0.5-15.8-1.5c-5.4-1-10-2.1-13.7-3.4
				V16.7z M412,130.3c2.1,0.7,4.3,1.2,6.7,1.5c2.4,0.3,4.9,0.4,7.4,0.4c4.3,0,8.3-0.7,12-2c3.7-1.3,6.8-3.4,9.5-6.1
				c2.7-2.7,4.8-6.2,6.4-10.5c1.6-4.3,2.4-9.3,2.4-15.1c0-9.7-1.7-17.2-5.1-22.6c-3.4-5.4-9-8-16.8-8c-2.7,0-5.3,0.4-8,1.3
				c-2.6,0.9-5,2.3-7.3,4.2c-2.2,1.9-4,4.5-5.3,7.7c-1.3,3.2-2,7.1-2,11.6V130.3z"/>
			<path d="M534.4,146.9c-7,0-13.1-1.2-18.4-3.6c-5.2-2.4-9.6-5.7-13.1-9.9c-3.5-4.2-6.1-9.1-7.8-14.9c-1.7-5.7-2.5-11.9-2.5-18.5
				c0-6.6,0.8-12.8,2.5-18.5c1.7-5.7,4.3-10.7,7.8-14.9c3.5-4.2,7.9-7.5,13.1-10c5.2-2.4,11.4-3.7,18.4-3.7c7,0,13.1,1.2,18.4,3.7
				c5.2,2.4,9.6,5.8,13.1,10c3.5,4.2,6.1,9.2,7.8,14.9c1.7,5.7,2.5,11.9,2.5,18.5c0,6.6-0.8,12.8-2.5,18.5
				c-1.7,5.7-4.3,10.7-7.8,14.9c-3.5,4.2-7.9,7.5-13.1,9.9S541.4,146.9,534.4,146.9z M534.4,133.1c8,0,14-2.9,17.8-8.7
				c3.8-5.8,5.8-13.9,5.8-24.3c0-10.4-1.9-18.4-5.8-24.2c-3.8-5.8-9.8-8.7-17.8-8.7s-14,2.9-17.7,8.7c-3.8,5.8-5.7,13.8-5.7,24.2
				c0,10.4,1.9,18.5,5.7,24.3C520.5,130.2,526.4,133.1,534.4,133.1z"/>
			<path d="M646.3,85.7c0-6.9-1.7-11.7-5.2-14.3c-3.5-2.7-8.6-4-15.2-4c-4.1,0-7.9,0.3-11.5,1c-3.6,0.6-7,1.5-10.4,2.5
				c-2.2-3.8-3.3-8.4-3.3-13.8c4-1.3,8.3-2.3,13.1-3c4.8-0.7,9.4-1,13.8-1c11.7,0,20.5,2.7,26.6,8c6.1,5.3,9.1,13.8,9.1,25.4v56.1
				c-4.1,0.9-9,1.9-14.9,2.9c-5.8,1-11.8,1.5-17.8,1.5c-5.7,0-10.9-0.5-15.5-1.6c-4.6-1-8.5-2.7-11.7-5.1c-3.2-2.3-5.7-5.3-7.4-8.9
				c-1.7-3.6-2.6-8-2.6-13.1c0-5,1-9.4,3.1-13.2c2-3.8,4.8-6.9,8.3-9.4c3.5-2.5,7.5-4.4,12.1-5.6c4.5-1.2,9.3-1.8,14.3-1.8
				c3.7,0,6.8,0.1,9.2,0.3c2.4,0.2,4.4,0.4,6,0.6V85.7z M646.3,102.7c-1.7-0.2-4-0.5-6.6-0.7c-2.7-0.2-5-0.3-6.8-0.3
				c-7.2,0-12.7,1.3-16.5,4c-3.8,2.7-5.7,6.8-5.7,12.2c0,3.5,0.6,6.2,1.9,8.2c1.3,2,2.9,3.5,4.8,4.5c1.9,1,4,1.7,6.4,1.9
				c2.3,0.2,4.5,0.3,6.6,0.3c2.7,0,5.4-0.1,8.3-0.4c2.9-0.3,5.4-0.7,7.6-1.3V102.7z"/>
			<path d="M689.3,55.1c1.3-0.2,2.5-0.4,3.7-0.5c1.2-0.1,2.4-0.2,3.7-0.2c1.3,0,2.6,0.1,3.8,0.2c1.3,0.1,2.4,0.3,3.5,0.5
				c0.3,1.7,0.7,4.1,1,6.9c0.3,2.9,0.5,5.3,0.5,7.3c2.4-4,5.7-7.4,9.7-10.3c4-2.9,9.2-4.4,15.5-4.4c0.9,0,1.9,0,2.9,0.1
				c1,0.1,1.8,0.1,2.5,0.3c0.2,1,0.4,2.2,0.5,3.3c0.1,1.2,0.2,2.4,0.2,3.7c0,1.4-0.1,2.9-0.3,4.4c-0.2,1.5-0.4,3-0.6,4.4
				c-0.9-0.2-1.9-0.3-2.9-0.3c-1,0-1.8,0-2.4,0c-3.1,0-6.1,0.4-9,1.3c-2.9,0.9-5.4,2.4-7.7,4.6c-2.3,2.2-4.1,5.2-5.4,9.1
				c-1.3,3.8-2,8.8-2,14.9v44.6c-1.3,0.2-2.7,0.4-4.3,0.5c-1.6,0.1-3,0.2-4.3,0.2c-1.3,0-2.7-0.1-4.3-0.2c-1.6-0.1-3.1-0.3-4.5-0.5
				V55.1z"/>
			<path d="M809.3,16.7c1.3-0.2,2.7-0.4,4.4-0.5c1.6-0.1,3-0.2,4.2-0.2c1.3,0,2.7,0.1,4.3,0.2c1.6,0.1,3,0.3,4.3,0.5v125.7
				c-4.4,1.3-9.4,2.4-14.9,3.2c-5.5,0.9-11.6,1.3-18.4,1.3c-6.3,0-12.3-0.8-17.9-2.4c-5.7-1.6-10.6-4.2-14.8-7.8
				c-4.2-3.6-7.5-8.3-10-14c-2.4-5.7-3.7-12.8-3.7-21.2c0-7.2,1.1-13.8,3.2-19.8c2.2-5.9,5.2-11,9.2-15.3c4-4.3,8.7-7.5,14.2-9.9
				c5.5-2.3,11.7-3.5,18.4-3.5c3,0,6.1,0.2,9.2,0.7c3.1,0.5,5.8,1,8.1,1.7V16.7z M809.3,70.3c-2.3-0.9-4.8-1.6-7.5-2.1
				c-2.7-0.5-5.6-0.7-8.7-0.7c-4.8,0-8.9,0.9-12.4,2.6c-3.5,1.7-6.4,4.1-8.7,7.2c-2.3,3-4,6.6-5.1,10.8c-1.1,4.1-1.7,8.7-1.7,13.6
				c0.1,11.1,2.7,19,7.9,23.8c5.1,4.8,12.1,7.2,21,7.2c3,0,5.8-0.1,8.4-0.4c2.6-0.3,4.8-0.7,6.8-1.3V70.3z"/>
			<path d="M867.1,104.2c0.2,9.8,2.8,17,7.6,21.5c4.8,4.5,12,6.8,21.4,6.8c8.3,0,16.1-1.5,23.6-4.4c0.9,1.7,1.7,3.9,2.3,6.4
				c0.6,2.5,0.9,5,1,7.4c-3.8,1.6-8.1,2.9-12.7,3.7c-4.6,0.8-9.7,1.2-15.3,1.2c-8.2,0-15.2-1.1-21-3.4c-5.8-2.3-10.6-5.5-14.4-9.6
				c-3.8-4.1-6.6-9-8.3-14.7c-1.7-5.7-2.6-11.9-2.6-18.6c0-6.6,0.8-12.9,2.5-18.6c1.7-5.8,4.3-10.8,7.8-15
				c3.5-4.3,7.9-7.6,13.2-10.1c5.3-2.5,11.6-3.8,18.8-3.8c6.2,0,11.6,1,16.3,3.1c4.7,2.1,8.6,5,11.7,8.7c3.1,3.7,5.5,8,7.2,13.1
				c1.6,5.1,2.4,10.6,2.4,16.5c0,1.6-0.1,3.4-0.2,5.2c-0.1,1.8-0.2,3.4-0.3,4.6H867.1z M911.5,91.3c0-3.3-0.4-6.4-1.3-9.4
				c-0.9-3-2.2-5.6-3.8-7.8c-1.7-2.2-3.8-4-6.5-5.3c-2.6-1.3-5.7-2-9.4-2c-7.1,0-12.6,2.2-16.3,6.5c-3.8,4.3-6.1,10.3-6.9,18H911.5z
				"/>
			<path d="M951.4,55.1c1.3-0.2,2.5-0.4,3.7-0.5c1.2-0.1,2.4-0.2,3.7-0.2c1.3,0,2.6,0.1,3.8,0.2c1.3,0.1,2.4,0.3,3.5,0.5
				c0.3,1.7,0.7,4.1,1,6.9c0.3,2.9,0.5,5.3,0.5,7.3c2.4-4,5.7-7.4,9.7-10.3c4-2.9,9.2-4.4,15.5-4.4c0.9,0,1.9,0,2.9,0.1
				c1,0.1,1.8,0.1,2.5,0.3c0.2,1,0.4,2.2,0.5,3.3c0.1,1.2,0.2,2.4,0.2,3.7c0,1.4-0.1,2.9-0.3,4.4c-0.2,1.5-0.4,3-0.6,4.4
				c-0.9-0.2-1.9-0.3-2.9-0.3c-1,0-1.8,0-2.4,0c-3.1,0-6.1,0.4-9,1.3c-2.9,0.9-5.4,2.4-7.7,4.6c-2.3,2.2-4.1,5.2-5.4,9.1
				c-1.3,3.8-2,8.8-2,14.9v44.6c-1.3,0.2-2.7,0.4-4.3,0.5c-1.6,0.1-3,0.2-4.3,0.2c-1.3,0-2.7-0.1-4.3-0.2c-1.6-0.1-3.1-0.3-4.5-0.5
				V55.1z"/>
		</g>
	</g>
	<g>
		<path d="M1062.6,68.6c4.2-5.2,9.1-9.3,14.5-12.3c5.4-3.1,11.5-4.6,18.3-4.6c5,0,9.5,0.8,13.3,2.4c3.8,1.6,7,3.9,9.5,6.9
			c2.5,3,4.4,6.6,5.7,10.9c1.3,4.2,1.9,9,1.9,14.4v58.5h-8.8V86.2c0-8.6-2-15.3-5.9-20.2c-3.9-4.9-9.9-7.3-17.9-7.3
			c-5.9,0-11.5,1.5-16.7,4.6c-5.2,3-9.8,7.3-13.8,12.6v68.8h-8.8V10.8h8.8V68.6z"/>
		<path d="M1158.1,95.3V97c0,6.9,0.8,12.9,2.4,18.1c1.6,5.2,3.9,9.6,6.8,13.1c2.9,3.5,6.5,6.2,10.7,8c4.2,1.8,8.8,2.7,14,2.7
			c4.6,0,8.6-0.5,12-1.5c3.4-1,6.2-2.1,8.5-3.4c2.3-1.3,4.1-2.4,5.5-3.4c1.3-1,2.3-1.5,2.9-1.5c0.8,0,1.4,0.3,1.8,0.9l2.4,2.9
			c-1.5,1.8-3.4,3.6-5.8,5.2c-2.4,1.6-5.1,3-8.1,4.1c-3,1.1-6.2,2-9.6,2.7c-3.4,0.7-6.8,1-10.3,1c-6.3,0-12-1.1-17.1-3.3
			c-5.2-2.2-9.6-5.4-13.2-9.5c-3.7-4.2-6.5-9.3-8.5-15.3c-2-6-3-13-3-20.7c0-6.6,0.9-12.6,2.8-18.2c1.9-5.5,4.6-10.3,8.1-14.4
			c3.5-4,7.9-7.2,13-9.4c5.1-2.3,10.9-3.4,17.4-3.4c5.2,0,9.9,0.9,14.4,2.7c4.4,1.8,8.2,4.4,11.5,7.8c3.3,3.4,5.8,7.6,7.7,12.6
			c1.9,5,2.8,10.7,2.8,17.1c0,1.3-0.2,2.3-0.6,2.8c-0.4,0.5-1,0.7-1.8,0.7H1158.1z M1219.2,89.7c0-4.9-0.7-9.3-2.1-13.2
			c-1.4-3.9-3.3-7.2-5.8-9.9c-2.5-2.7-5.5-4.8-9-6.2c-3.5-1.4-7.3-2.2-11.5-2.2c-4.7,0-9,0.7-12.7,2.2c-3.7,1.5-7,3.6-9.7,6.3
			c-2.7,2.8-4.9,6.1-6.6,9.9c-1.7,3.9-2.8,8.2-3.3,13H1219.2z"/>
		<path d="M1260.6,10.8v133.9h-8.8V10.8H1260.6z"/>
		<path d="M1300,69.6c4-5.5,8.8-9.9,14.2-13.2c5.4-3.2,11.5-4.9,18.3-4.9c11.2,0,20,3.9,26.3,11.7c6.3,7.8,9.4,19.5,9.4,35.1
			c0,6.7-0.9,12.9-2.6,18.7s-4.3,10.8-7.7,15.1c-3.4,4.3-7.6,7.6-12.5,10.1c-4.9,2.5-10.6,3.7-17.1,3.7c-6.2,0-11.6-1.1-16.1-3.4
			c-4.5-2.3-8.5-5.6-11.8-10v44.6h-8.8V53.1h4.9c1.5,0,2.4,0.8,2.7,2.3L1300,69.6z M1300.4,124.7c1.8,2.6,3.6,4.9,5.6,6.7
			c1.9,1.8,4,3.3,6.1,4.4c2.1,1.1,4.4,1.9,6.9,2.4c2.4,0.5,5,0.7,7.7,0.7c5.4,0,10.1-1,14.2-2.9c4-2,7.4-4.7,10.2-8.3
			c2.7-3.6,4.8-7.9,6.2-12.9c1.4-5,2.1-10.5,2.1-16.5c0-13.6-2.5-23.6-7.5-30c-5-6.4-12.2-9.6-21.6-9.6c-6.1,0-11.6,1.6-16.5,4.7
			c-4.9,3.1-9.3,7.5-13.2,13.1V124.7z"/>
		<path d="M1480.6,65.4c-0.3,0.3-0.6,0.6-0.9,0.8c-0.3,0.2-0.7,0.3-1.1,0.3c-0.6,0-1.4-0.4-2.5-1.2c-1-0.8-2.5-1.7-4.2-2.7
			c-1.8-1-4-1.9-6.7-2.7s-5.9-1.2-9.7-1.2c-5.3,0-10,0.9-14,2.8c-4.1,1.9-7.5,4.6-10.4,8.1c-2.8,3.5-5,7.7-6.4,12.7
			c-1.4,5-2.2,10.5-2.2,16.7c0,6.4,0.8,12.1,2.3,17.1c1.5,5,3.6,9.2,6.4,12.6c2.8,3.4,6.1,6,10,7.8c3.9,1.8,8.3,2.7,13.1,2.7
			c4.4,0,8.1-0.5,11.1-1.6c3-1,5.4-2.2,7.4-3.4c1.9-1.2,3.5-2.4,4.6-3.4c1.1-1,2-1.6,2.8-1.6s1.3,0.3,1.8,0.9l2.3,2.9
			c-1.4,1.8-3.2,3.6-5.3,5.2c-2.1,1.6-4.6,3-7.3,4.1c-2.7,1.2-5.6,2.1-8.8,2.7c-3.2,0.6-6.5,1-9.9,1c-5.8,0-11.1-1.1-16-3.2
			c-4.8-2.1-9-5.2-12.4-9.2c-3.5-4-6.2-8.9-8.1-14.8c-1.9-5.8-2.9-12.5-2.9-19.9c0-7,0.9-13.4,2.8-19.1c1.8-5.8,4.5-10.7,8.1-14.9
			c3.6-4.2,7.9-7.4,13-9.7c5.1-2.3,11-3.5,17.6-3.5c5.9,0,11.2,1,15.8,2.9c4.6,1.9,8.6,4.5,12.1,7.7L1480.6,65.4z"/>
		<path d="M1507.2,95.3V97c0,6.9,0.8,12.9,2.4,18.1c1.6,5.2,3.9,9.6,6.8,13.1c2.9,3.5,6.5,6.2,10.7,8c4.2,1.8,8.8,2.7,14,2.7
			c4.6,0,8.6-0.5,12-1.5c3.4-1,6.2-2.1,8.5-3.4c2.3-1.3,4.1-2.4,5.5-3.4c1.3-1,2.3-1.5,2.9-1.5c0.8,0,1.4,0.3,1.8,0.9l2.4,2.9
			c-1.5,1.8-3.4,3.6-5.8,5.2c-2.4,1.6-5.1,3-8.1,4.1c-3,1.1-6.2,2-9.6,2.7c-3.4,0.7-6.8,1-10.3,1c-6.3,0-12-1.1-17.1-3.3
			c-5.2-2.2-9.6-5.4-13.2-9.5c-3.7-4.2-6.5-9.3-8.5-15.3c-2-6-3-13-3-20.7c0-6.6,0.9-12.6,2.8-18.2c1.9-5.5,4.6-10.3,8.1-14.4
			c3.5-4,7.9-7.2,13-9.4c5.1-2.3,10.9-3.4,17.4-3.4c5.2,0,9.9,0.9,14.4,2.7c4.4,1.8,8.2,4.4,11.5,7.8c3.3,3.4,5.8,7.6,7.7,12.6
			c1.9,5,2.8,10.7,2.8,17.1c0,1.3-0.2,2.3-0.6,2.8c-0.4,0.5-1,0.7-1.8,0.7H1507.2z M1568.3,89.7c0-4.9-0.7-9.3-2.1-13.2
			c-1.4-3.9-3.3-7.2-5.8-9.9c-2.5-2.7-5.5-4.8-9-6.2c-3.5-1.4-7.3-2.2-11.5-2.2c-4.7,0-9,0.7-12.7,2.2c-3.7,1.5-7,3.6-9.7,6.3
			c-2.7,2.8-4.9,6.1-6.6,9.9c-1.7,3.9-2.8,8.2-3.3,13H1568.3z"/>
		<path d="M1608.4,69.1c4.2-5.3,9.1-9.5,14.7-12.7c5.6-3.2,11.7-4.8,18.5-4.8c5,0,9.5,0.8,13.3,2.4c3.8,1.6,7,3.9,9.5,6.9
			c2.5,3,4.4,6.6,5.7,10.9c1.3,4.2,1.9,9,1.9,14.4v58.5h-8.8V86.2c0-8.6-2-15.3-5.9-20.2c-3.9-4.9-9.9-7.3-17.9-7.3
			c-5.9,0-11.5,1.5-16.7,4.6c-5.2,3-9.8,7.3-13.8,12.6v68.8h-8.8V53.1h4.9c1.5,0,2.4,0.8,2.7,2.3L1608.4,69.1z"/>
		<path d="M1725.1,146.2c-6.2,0-11-1.7-14.5-5.2c-3.5-3.4-5.2-8.7-5.2-15.9V62.5h-13.2c-0.7,0-1.2-0.2-1.7-0.6
			c-0.4-0.4-0.6-0.9-0.6-1.6V57l15.6-1.1l2.2-32.8c0.1-0.6,0.4-1,0.7-1.5c0.4-0.4,0.9-0.6,1.6-0.6h4.1v35h28.9v6.5h-28.9v62.1
			c0,2.5,0.3,4.7,1,6.5c0.6,1.8,1.5,3.3,2.7,4.5c1.1,1.2,2.5,2,4,2.6c1.5,0.6,3.2,0.8,5,0.8c2.2,0,4.1-0.3,5.7-1
			c1.6-0.6,3-1.3,4.1-2.1c1.2-0.8,2.1-1.5,2.9-2.1c0.7-0.6,1.3-1,1.7-1c0.5,0,1,0.3,1.5,0.9l2.4,3.9c-2.3,2.6-5.3,4.6-8.9,6.2
			S1728.9,146.2,1725.1,146.2z"/>
		<path d="M1765.9,95.3V97c0,6.9,0.8,12.9,2.4,18.1c1.6,5.2,3.9,9.6,6.8,13.1c2.9,3.5,6.5,6.2,10.7,8c4.2,1.8,8.8,2.7,14,2.7
			c4.6,0,8.6-0.5,12-1.5c3.4-1,6.2-2.1,8.5-3.4c2.3-1.3,4.1-2.4,5.5-3.4c1.3-1,2.3-1.5,2.9-1.5c0.8,0,1.4,0.3,1.8,0.9l2.4,2.9
			c-1.5,1.8-3.4,3.6-5.8,5.2c-2.4,1.6-5.1,3-8.1,4.1c-3,1.1-6.2,2-9.6,2.7c-3.4,0.7-6.8,1-10.3,1c-6.3,0-12-1.1-17.1-3.3
			c-5.2-2.2-9.6-5.4-13.2-9.5c-3.7-4.2-6.5-9.3-8.5-15.3c-2-6-3-13-3-20.7c0-6.6,0.9-12.6,2.8-18.2c1.9-5.5,4.6-10.3,8.1-14.4
			c3.5-4,7.9-7.2,13-9.4c5.1-2.3,10.9-3.4,17.4-3.4c5.2,0,9.9,0.9,14.4,2.7c4.4,1.8,8.2,4.4,11.5,7.8c3.3,3.4,5.8,7.6,7.7,12.6
			c1.9,5,2.8,10.7,2.8,17.1c0,1.3-0.2,2.3-0.6,2.8c-0.4,0.5-1,0.7-1.8,0.7H1765.9z M1827,89.7c0-4.9-0.7-9.3-2.1-13.2
			c-1.4-3.9-3.3-7.2-5.8-9.9c-2.5-2.7-5.5-4.8-9-6.2c-3.5-1.4-7.3-2.2-11.5-2.2c-4.7,0-9,0.7-12.7,2.2c-3.7,1.5-7,3.6-9.7,6.3
			c-2.7,2.8-4.9,6.1-6.6,9.9c-1.7,3.9-2.8,8.2-3.3,13H1827z"/>
		<path d="M1867.1,75.2c1.4-3.7,3-7.1,4.8-10c1.8-2.9,3.9-5.4,6.3-7.4c2.4-2,5-3.6,7.9-4.6c2.9-1.1,6.1-1.6,9.7-1.6
			c1.9,0,3.8,0.2,5.6,0.5c1.8,0.3,3.5,0.9,4.9,1.8l-0.7,6.1c-0.3,1-0.9,1.5-1.7,1.5c-0.7,0-1.9-0.2-3.4-0.6
			c-1.5-0.4-3.5-0.6-5.9-0.6c-3.6,0-6.7,0.5-9.4,1.6c-2.7,1.1-5.2,2.7-7.4,4.8c-2.2,2.1-4.1,4.8-5.7,8c-1.6,3.2-3.1,6.8-4.5,10.9
			v59.2h-8.8V53.1h4.7c1,0,1.8,0.2,2.2,0.6c0.4,0.4,0.7,1.2,0.8,2.2L1867.1,75.2z"/>
	</g>
</g>
</svg>
