<?xml version="1.0" encoding="UTF-8" standalone="no"?>
<svg width="1537px" height="151px" viewBox="0 0 1537 151" version="1.1" xmlns="http://www.w3.org/2000/svg" xmlns:xlink="http://www.w3.org/1999/xlink">
    <!-- Generator: Sketch 49.3 (51167) - http://www.bohemiancoding.com/sketch -->
    <title>Group</title>
    <desc>Created with Sketch.</desc>
    <defs></defs>
    <g id="Page-1" stroke="none" stroke-width="1" fill="none" fill-rule="evenodd">
        <g id="Desktop" transform="translate(-117.000000, -124.000000)">
            <g id="Group" transform="translate(117.000000, 124.000000)">
                <g id="Group-6" transform="translate(840.000000, 15.000000)" fill="#000000">
                    <path d="M0.588,0.846 C1.60000506,0.66199908 2.72699379,0.52400046 3.969,0.432 C5.21100621,0.33999954 6.33799494,0.294 7.35,0.294 C8.36200506,0.294 9.51199356,0.33999954 10.8,0.432 C12.0880064,0.52400046 13.2379949,0.66199908 14.25,0.846 L14.25,41.97 C15.0780041,40.6819936 16.1129938,39.3020074 17.355,37.83 C18.5970062,36.3579926 20.114991,35.0010062 21.909,33.759 C23.703009,32.5169938 25.7729883,31.5050039 28.119,30.723 C30.4650117,29.9409961 33.0639857,29.55 35.916,29.55 C44.0120405,29.55 50.0149805,31.8729768 53.925,36.519 C57.8350196,41.1650232 59.79,48.0419545 59.79,57.15 L59.79,102 C58.7779949,102.184001 57.6510062,102.322 56.409,102.414 C55.1669938,102.506 54.0400051,102.552 53.028,102.552 C52.0159949,102.552 50.8890062,102.506 49.647,102.414 C48.4049938,102.322 47.2780051,102.184001 46.266,102 L46.266,60.876 C46.266,54.3439673 45.1850108,49.5370154 43.023,46.455 C40.8609892,43.3729846 37.5720221,41.832 33.156,41.832 C30.6719876,41.832 28.2800115,42.2689956 25.98,43.143 C23.6799885,44.0170044 21.6560087,45.3969906 19.908,47.283 C18.1599913,49.1690094 16.7800051,51.6299848 15.768,54.666 C14.7559949,57.7020152 14.25,61.3819784 14.25,65.706 L14.25,102 C13.2379949,102.184001 12.0880064,102.322 10.8,102.414 C9.51199356,102.506 8.36200506,102.552 7.35,102.552 C6.4299954,102.552 5.32600644,102.506 4.038,102.414 C2.74999356,102.322 1.60000506,102.184001 0.588,102 L0.588,0.846 Z M90.702,69.984 C90.8860009,77.7120386 92.8869809,83.3699821 96.705,86.958 C100.523019,90.5460179 106.157963,92.34 113.61,92.34 C120.142033,92.34 126.351971,91.1900115 132.24,88.89 C132.976004,90.2700069 133.573998,91.9489901 134.034,93.927 C134.494002,95.9050099 134.77,97.8599903 134.862,99.792 C131.825985,101.080006 128.491018,102.045997 124.857,102.69 C121.222982,103.334003 117.198022,103.656 112.782,103.656 C106.341968,103.656 100.822023,102.759009 96.222,100.965 C91.621977,99.170991 87.827015,96.6410163 84.837,93.375 C81.8469851,90.1089837 79.6620069,86.2450223 78.282,81.783 C76.9019931,77.3209777 76.212,72.4220267 76.212,67.086 C76.212,61.8419738 76.8789933,56.9430228 78.213,52.389 C79.5470067,47.8349772 81.5939862,43.8790168 84.354,40.521 C87.1140138,37.1629832 90.5869791,34.4950099 94.773,32.517 C98.9590209,30.5389901 103.903971,29.55 109.608,29.55 C114.484024,29.55 118.761982,30.3779917 122.442,32.034 C126.122018,33.6900083 129.203988,35.9669855 131.688,38.865 C134.172012,41.7630145 136.057994,45.21298 137.346,49.215 C138.634006,53.21702 139.278,57.5639765 139.278,62.256 C139.278,63.5440064 139.232,64.9009929 139.14,66.327 C139.048,67.7530071 138.956,68.9719949 138.864,69.984 L90.702,69.984 Z M125.754,59.772 C125.754,57.1959871 125.409003,54.7350117 124.719,52.389 C124.028997,50.0429883 123.017007,47.9960087 121.683,46.248 C120.348993,44.4999913 118.64701,43.0970053 116.577,42.039 C114.50699,40.9809947 112.046014,40.452 109.194,40.452 C103.581972,40.452 99.281015,42.153983 96.291,45.558 C93.3009851,48.962017 91.4840032,53.6999696 90.84,59.772 L125.754,59.772 Z M156.942,0.846 C157.954005,0.66199908 159.080994,0.52400046 160.323,0.432 C161.565006,0.33999954 162.691995,0.294 163.704,0.294 C164.716005,0.294 165.842994,0.33999954 167.085,0.432 C168.327006,0.52400046 169.453995,0.66199908 170.466,0.846 L170.466,80.61 C170.466,83.1860129 170.695998,85.2099926 171.156,86.682 C171.616002,88.1540074 172.236996,89.2809961 173.019,90.063 C173.801004,90.8450039 174.720995,91.3509988 175.779,91.581 C176.837005,91.8110012 177.963994,91.926 179.16,91.926 C179.988004,91.926 180.930995,91.8800005 181.989,91.788 C183.047005,91.6959995 183.943996,91.5580009 184.68,91.374 C185.508004,94.5940161 185.922,98.0899811 185.922,101.862 C184.633994,102.322002 183.070009,102.620999 181.23,102.759 C179.389991,102.897001 177.688008,102.966 176.124,102.966 C173.455987,102.966 170.972011,102.644003 168.672,102 C166.371988,101.355997 164.348009,100.298007 162.6,98.826 C160.851991,97.3539926 159.472005,95.3760124 158.46,92.892 C157.447995,90.4079876 156.942,87.3260184 156.942,83.646 L156.942,0.846 Z M198.204,31.206 C199.124005,31.0219991 200.066995,30.8840005 201.033,30.792 C201.999005,30.6999995 202.987995,30.654 204,30.654 C204.920005,30.654 205.885995,30.6999995 206.898,30.792 C207.910005,30.8840005 208.875995,31.0219991 209.796,31.206 C209.888,31.3900009 210.002999,31.9649952 210.141,32.931 C210.279001,33.8970048 210.416999,34.9319945 210.555,36.036 C210.693001,37.1400055 210.830999,38.1979949 210.969,39.21 C211.107001,40.2220051 211.176,40.8659986 211.176,41.142 C212.096005,39.6699926 213.199994,38.2440069 214.488,36.864 C215.776006,35.4839931 217.316991,34.2420055 219.111,33.138 C220.905009,32.0339945 222.928989,31.1600032 225.183,30.516 C227.437011,29.8719968 229.943986,29.55 232.704,29.55 C236.844021,29.55 240.684982,30.2399931 244.227,31.62 C247.769018,33.0000069 250.804987,35.1389855 253.335,38.037 C255.865013,40.9350145 257.842993,44.6149777 259.269,49.077 C260.695007,53.5390223 261.408,58.8059696 261.408,64.878 C261.408,77.0220607 258.119033,86.5209657 251.541,93.375 C244.962967,100.229034 235.64806,103.656 223.596,103.656 C221.57199,103.656 219.502011,103.518001 217.386,103.242 C215.269989,102.965999 213.430008,102.598002 211.866,102.138 L211.866,134.568 C210.761994,134.752001 209.589006,134.89 208.347,134.982 C207.104994,135.074 205.978005,135.12 204.966,135.12 C203.953995,135.12 202.827006,135.074 201.585,134.982 C200.342994,134.89 199.216005,134.752001 198.204,134.568 L198.204,31.206 Z M211.866,90.408 C213.614009,91.0520032 215.407991,91.5119986 217.248,91.788 C219.088009,92.0640014 221.479985,92.202 224.424,92.202 C227.736017,92.202 230.771986,91.6730053 233.532,90.615 C236.292014,89.5569947 238.66099,87.924011 240.639,85.716 C242.61701,83.507989 244.180994,80.7250168 245.331,77.367 C246.481006,74.0089832 247.056,70.030023 247.056,65.43 C247.056,58.0699632 245.699014,52.2280216 242.985,47.904 C240.270986,43.5799784 235.832031,41.418 229.668,41.418 C227.367988,41.418 225.160011,41.8319959 223.044,42.66 C220.927989,43.4880041 219.042008,44.7299917 217.386,46.386 C215.729992,48.0420083 214.396005,50.1349874 213.384,52.665 C212.371995,55.1950127 211.866,58.2079825 211.866,61.704 L211.866,90.408 Z M359.664,89.718 C360.400004,91.0060064 361.043997,92.6159903 361.596,94.548 C362.148003,96.4800097 362.47,98.4579899 362.562,100.482 C357.133973,102.598011 350.924035,103.656 343.932,103.656 C332.155941,103.656 323.27803,100.321033 317.298,93.651 C311.31797,86.9809667 308.328,77.9880566 308.328,66.672 C308.328,61.4279738 309.063993,56.5520225 310.536,52.044 C312.008007,47.5359775 314.192986,43.6260166 317.091,40.314 C319.989014,37.0019834 323.599978,34.3800097 327.924,32.448 C332.248022,30.5159903 337.261971,29.55 342.966,29.55 C346.830019,29.55 350.233985,29.7799977 353.178,30.24 C356.122015,30.7000023 358.927987,31.4359949 361.596,32.448 C361.596,34.0120078 361.389002,35.8289897 360.975,37.899 C360.560998,39.9690104 359.986004,41.7859922 359.25,43.35 C354.741977,41.7859922 349.590029,41.004 343.794,41.004 C336.709965,41.004 331.420017,43.3499765 327.924,48.042 C324.427983,52.7340235 322.68,58.9439614 322.68,66.672 C322.68,75.5040442 324.65798,81.9669795 328.614,86.061 C332.57002,90.1550205 337.997965,92.202 344.898,92.202 C347.658014,92.202 350.210988,92.0180018 352.557,91.65 C354.903012,91.2819982 357.271988,90.6380046 359.664,89.718 Z M386.574,69.984 C386.758001,77.7120386 388.758981,83.3699821 392.577,86.958 C396.395019,90.5460179 402.029963,92.34 409.482,92.34 C416.014033,92.34 422.223971,91.1900115 428.112,88.89 C428.848004,90.2700069 429.445998,91.9489901 429.906,93.927 C430.366002,95.9050099 430.642,97.8599903 430.734,99.792 C427.697985,101.080006 424.363018,102.045997 420.729,102.69 C417.094982,103.334003 413.070022,103.656 408.654,103.656 C402.213968,103.656 396.694023,102.759009 392.094,100.965 C387.493977,99.170991 383.699015,96.6410163 380.709,93.375 C377.718985,90.1089837 375.534007,86.2450223 374.154,81.783 C372.773993,77.3209777 372.084,72.4220267 372.084,67.086 C372.084,61.8419738 372.750993,56.9430228 374.085,52.389 C375.419007,47.8349772 377.465986,43.8790168 380.226,40.521 C382.986014,37.1629832 386.458979,34.4950099 390.645,32.517 C394.831021,30.5389901 399.775971,29.55 405.48,29.55 C410.356024,29.55 414.633982,30.3779917 418.314,32.034 C421.994018,33.6900083 425.075988,35.9669855 427.56,38.865 C430.044012,41.7630145 431.929994,45.21298 433.218,49.215 C434.506006,53.21702 435.15,57.5639765 435.15,62.256 C435.15,63.5440064 435.104,64.9009929 435.012,66.327 C434.92,67.7530071 434.828,68.9719949 434.736,69.984 L386.574,69.984 Z M421.626,59.772 C421.626,57.1959871 421.281003,54.7350117 420.591,52.389 C419.900997,50.0429883 418.889007,47.9960087 417.555,46.248 C416.220993,44.4999913 414.51901,43.0970053 412.449,42.039 C410.37899,40.9809947 407.918014,40.452 405.066,40.452 C399.453972,40.452 395.153015,42.153983 392.163,45.558 C389.172985,48.962017 387.356003,53.6999696 386.712,59.772 L421.626,59.772 Z M453.09,31.206 C454.102005,31.0219991 455.090995,30.8840005 456.057,30.792 C457.023005,30.6999995 458.011995,30.654 459.024,30.654 C460.036005,30.654 460.978996,30.6999995 461.853,30.792 C462.727004,30.8840005 463.669995,31.0219991 464.682,31.206 C464.958001,32.5860069 465.233999,34.4489883 465.51,36.795 C465.786001,39.1410117 465.924,41.0959922 465.924,42.66 C466.844005,41.0959922 468.016993,39.5320078 469.443,37.968 C470.869007,36.4039922 472.501991,35.0010062 474.342,33.759 C476.182009,32.5169938 478.297988,31.5050039 480.69,30.723 C483.082012,29.9409961 485.703986,29.55 488.556,29.55 C496.65204,29.55 502.631981,31.8729768 506.496,36.519 C510.360019,41.1650232 512.292,48.0419545 512.292,57.15 L512.292,102 C511.279995,102.184001 510.130006,102.322 508.842,102.414 C507.553994,102.506 506.404005,102.552 505.392,102.552 C504.379995,102.552 503.253006,102.506 502.011,102.414 C500.768994,102.322 499.642005,102.184001 498.63,102 L498.63,60.876 C498.63,54.3439673 497.61801,49.5370154 495.594,46.455 C493.56999,43.3729846 490.350022,41.832 485.934,41.832 C483.357987,41.832 480.920012,42.2919954 478.62,43.212 C476.319989,44.1320046 474.296009,45.5579903 472.548,47.49 C470.799991,49.4220097 469.397005,51.9289846 468.339,55.011 C467.280995,58.0930154 466.752,61.7959784 466.752,66.12 L466.752,102 C465.739995,102.184001 464.613006,102.322 463.371,102.414 C462.128994,102.506 461.002005,102.552 459.99,102.552 C458.977995,102.552 457.828006,102.506 456.54,102.414 C455.251994,102.322 454.102005,102.184001 453.09,102 L453.09,31.206 Z M535.476,42.108 L524.712,42.108 L524.16,40.176 L547.896,13.68 L549,13.68 L549,31.206 L566.94,31.206 C567.308002,32.7700078 567.492,34.5179903 567.492,36.45 C567.492,37.4620051 567.446,38.4279954 567.354,39.348 C567.262,40.2680046 567.124001,41.1879954 566.94,42.108 L549,42.108 L549,74.4 C549,78.2640193 549.160998,81.3459885 549.483,83.646 C549.805002,85.9460115 550.356996,87.7169938 551.139,88.959 C551.921004,90.2010062 552.978993,91.0289979 554.313,91.443 C555.647007,91.8570021 557.32599,92.064 559.35,92.064 C560.914008,92.064 562.385993,91.9490012 563.766,91.719 C565.146007,91.4889989 566.387994,91.2360014 567.492,90.96 C568.136003,92.8000092 568.526999,94.6859903 568.665,96.618 C568.803001,98.5500097 568.872,100.251993 568.872,101.724 C567.031991,102.184002 565.10001,102.528999 563.076,102.759 C561.05199,102.989001 558.890012,103.104 556.59,103.104 C549.965967,103.104 544.791019,101.494016 541.065,98.274 C537.338981,95.0539839 535.476,89.7180373 535.476,82.266 L535.476,42.108 Z M592.47,69.984 C592.654001,77.7120386 594.654981,83.3699821 598.473,86.958 C602.291019,90.5460179 607.925963,92.34 615.378,92.34 C621.910033,92.34 628.119971,91.1900115 634.008,88.89 C634.744004,90.2700069 635.341998,91.9489901 635.802,93.927 C636.262002,95.9050099 636.538,97.8599903 636.63,99.792 C633.593985,101.080006 630.259018,102.045997 626.625,102.69 C622.990982,103.334003 618.966022,103.656 614.55,103.656 C608.109968,103.656 602.590023,102.759009 597.99,100.965 C593.389977,99.170991 589.595015,96.6410163 586.605,93.375 C583.614985,90.1089837 581.430007,86.2450223 580.05,81.783 C578.669993,77.3209777 577.98,72.4220267 577.98,67.086 C577.98,61.8419738 578.646993,56.9430228 579.981,52.389 C581.315007,47.8349772 583.361986,43.8790168 586.122,40.521 C588.882014,37.1629832 592.354979,34.4950099 596.541,32.517 C600.727021,30.5389901 605.671971,29.55 611.376,29.55 C616.252024,29.55 620.529982,30.3779917 624.21,32.034 C627.890018,33.6900083 630.971988,35.9669855 633.456,38.865 C635.940012,41.7630145 637.825994,45.21298 639.114,49.215 C640.402006,53.21702 641.046,57.5639765 641.046,62.256 C641.046,63.5440064 641,64.9009929 640.908,66.327 C640.816,67.7530071 640.724,68.9719949 640.632,69.984 L592.47,69.984 Z M627.522,59.772 C627.522,57.1959871 627.177003,54.7350117 626.487,52.389 C625.796997,50.0429883 624.785007,47.9960087 623.451,46.248 C622.116993,44.4999913 620.41501,43.0970053 618.345,42.039 C616.27499,40.9809947 613.814014,40.452 610.962,40.452 C605.349972,40.452 601.049015,42.153983 598.059,45.558 C595.068985,48.962017 593.252003,53.6999696 592.608,59.772 L627.522,59.772 Z M658.986,31.206 C659.998005,31.0219991 660.963995,30.8840005 661.884,30.792 C662.804005,30.6999995 663.769995,30.654 664.782,30.654 C665.794005,30.654 666.805995,30.6999995 667.818,30.792 C668.830005,30.8840005 669.749996,31.0219991 670.578,31.206 C670.854001,32.5860069 671.129999,34.4029887 671.406,36.657 C671.682001,38.9110113 671.82,40.8199922 671.82,42.384 C673.75201,39.2559844 676.304984,36.5420115 679.479,34.242 C682.653016,31.9419885 686.723975,30.792 691.692,30.792 C692.428004,30.792 693.186996,30.8149998 693.969,30.861 C694.751004,30.9070002 695.417997,30.9759995 695.97,31.068 C696.154001,31.8960041 696.292,32.7699954 696.384,33.69 C696.476,34.6100046 696.522,35.5759949 696.522,36.588 C696.522,37.6920055 696.453001,38.841994 696.315,40.038 C696.176999,41.234006 696.016001,42.3839945 695.832,43.488 C695.095996,43.3039991 694.337004,43.212 693.555,43.212 L691.692,43.212 C689.207988,43.212 686.839011,43.5569966 684.585,44.247 C682.330989,44.9370035 680.307009,46.1559913 678.513,47.904 C676.718991,49.6520087 675.293005,52.0439848 674.235,55.08 C673.176995,58.1160152 672.648,62.0259761 672.648,66.81 L672.648,102 C671.635995,102.184001 670.509006,102.322 669.267,102.414 C668.024994,102.506 666.898005,102.552 665.886,102.552 C664.873995,102.552 663.747006,102.506 662.505,102.414 C661.262994,102.322 660.090006,102.184001 658.986,102 L658.986,31.206 Z" id="onboarder-help-cente"></path>
                </g>
                <g id="Akeneo_Onboarder_Logo" fill-rule="nonzero">
                    <path d="M98.5745788,129 C98.2581872,126.308633 98.3791605,121.055827 99.1701394,113.594245 C99.7638744,109.02572 100.946143,104.552683 102.687669,100.285899 C105.544499,92.7407914 109.750645,85.8638849 113.854429,78.9405755 C117.855852,72.2121583 122.387696,64.8897842 123.718401,57.0569784 C125.477166,46.7648201 118.656137,36.2220863 112.747059,28.38 C104.660463,17.6330935 94.6103788,8.35251799 84.0484844,0 C84.7858637,10.1273648 84.6488767,20.2992044 83.6390366,30.4031655 C82.5045339,39.8941923 80.1752851,49.2048069 76.7063394,58.114964 C74.8372286,63.0472586 72.706329,67.8768895 70.3226746,72.5833813 C69.5689183,74.077554 69.5037788,74.1053957 67.847376,73.8919424 C66.5725042,73.7156115 65.2976323,73.53 64.0320661,73.3258273 C61.3396361,72.8989209 58.6689192,72.3977698 56.0199154,71.8223741 C46.5446229,69.8856868 37.3416153,66.8034235 28.6148239,62.6438849 C18.4477538,57.5046485 8.8558411,51.304582 0,44.1476978 C0.62622094,54.339783 2.16467012,64.4556455 4.59698309,74.3745324 C6.85825211,83.4323741 9.90119436,92.7036691 15.3077676,100.425108 C18.015707,104.285827 21.4774028,107.766043 25.9348014,109.529353 C29.9870335,110.991595 34.2023218,111.95766 38.4881014,112.406331 C47.4773436,113.603525 56.5875591,113.557122 65.5581901,114.921367 C77.5961072,116.69887 88.9692076,121.548514 98.5745788,129" id="Shape" fill="#4EA7DD"></path>
                    <path d="M183.004589,117.991768 C178.024355,118.100765 173.079133,117.126235 168.504041,115.134217 C164.506627,113.332687 160.966661,110.636035 158.151751,107.248119 C155.318109,103.761311 153.224997,99.7220278 152.002785,95.3818608 C150.631366,90.5571218 149.957487,85.5572173 150.002076,80.5374408 C149.962536,75.5362774 150.636369,70.5554687 152.002785,65.7486873 C153.227194,61.4094078 155.320082,57.3705585 158.151751,53.882429 C160.973731,50.4857944 164.510613,47.7693037 168.504041,45.9313865 C177.781312,42.0228712 188.218688,42.0228712 197.495959,45.9313865 C201.492275,47.7644132 205.030156,50.4816711 207.848249,53.882429 C210.679918,57.3705585 212.772806,61.4094078 213.997215,65.7486873 C215.363631,70.5554687 216.037464,75.5362774 215.997924,80.5374408 C216.042513,85.5572173 215.368634,90.5571218 213.997215,95.3818608 C212.775003,99.7220278 210.681891,103.761311 207.848249,107.248119 C205.037135,110.640078 201.496171,113.33749 197.495959,115.134217 C192.923779,117.125207 187.981767,118.099721 183.004589,117.991768 Z M183.004589,106.969786 C189.355462,106.969786 194.048255,104.641068 197.082969,99.9836311 C200.117683,95.3261943 201.647276,88.8595938 201.67175,80.5838296 C201.67175,72.3080654 200.142156,65.8662056 197.082969,61.2582502 C194.023781,56.6502948 189.330988,54.3463171 183.004589,54.3463171 C176.653716,54.3463171 171.982337,56.6502948 168.990452,61.2582502 C165.998567,65.8662056 164.502624,72.3080654 164.502624,80.5838296 C164.502624,88.8719641 165.998567,95.3385646 168.990452,99.9836311 C171.982337,104.628698 176.653716,106.957416 183.004589,106.969786 Z" id="Shape" fill="#000000"></path>
                    <path d="M234.027881,44.6524515 C235.050186,44.4689916 236.053903,44.3313967 237.02974,44.2396668 C238.005576,44.1479368 239.009294,44.1020718 240.031599,44.1020718 C240.990617,44.0987643 241.949161,44.1446913 242.903346,44.2396668 C243.786245,44.3313967 244.762082,44.4689916 245.765799,44.6524515 C246.04461,46.0406313 246.326518,47.9058067 246.611524,50.2479779 C246.863325,52.1924276 247.002955,54.1494311 247.02974,56.1095212 C248.049049,54.4270859 249.241885,52.8531918 250.589219,51.4129482 C252.070834,49.8252752 253.736559,48.4151718 255.552045,47.2117169 C259.818466,44.4165446 264.836746,42.9497838 269.957249,43.0013125 C278.154275,43.0013125 284.210657,45.3220801 288.126394,49.9636151 C292.042131,54.6051501 294,61.4818381 294,70.5936789 L294,115.44962 C292.843506,115.648775 291.677023,115.786568 290.505576,115.862405 C289.204461,115.954135 288.033457,116 287.011152,116 C285.988848,116 284.845725,116 283.581784,115.862405 C282.435219,115.784051 281.29362,115.646266 280.16171,115.44962 L280.16171,74.3270876 C280.16171,67.7959157 279.136307,62.9892668 277.085502,59.9071408 C275.034696,56.8250147 271.772615,55.2961824 267.299257,55.3206437 C264.75431,55.3026215 262.22978,55.7698239 259.864312,56.6965928 C257.506469,57.6332032 255.400586,59.0963426 253.711896,60.9712081 C251.786496,63.166069 250.33497,65.7255352 249.446097,68.4930633 C248.294606,72.0833675 247.751371,75.8366367 247.83829,79.6015592 L247.83829,115.44962 C246.703253,115.646218 245.558562,115.784002 244.408922,115.862405 C243.154275,115.954135 242.011152,116 240.988848,116 C239.966543,116 238.795539,116 237.494424,115.862405 C236.322922,115.787152 235.156407,115.649355 234,115.44962 L234.027881,44.6524515 Z" id="Shape" fill="#000000"></path>
                    <path d="M316,13.5538298 C317.133527,13.3565628 318.276581,13.217919 319.424553,13.1384574 C320.66197,13.0461525 321.803488,13 322.849106,13 C323.869975,13 325.030054,13 326.338623,13.1384574 C327.508371,13.2153472 328.673186,13.3540001 329.828141,13.5538298 L329.828141,52.7095944 C331.781186,49.6716486 334.488488,47.1856124 337.688835,45.4913464 C341.62119,43.3556248 346.05484,42.3009931 350.533229,42.4360522 C354.584714,42.3952687 358.608904,43.0993746 362.403156,44.5129138 C366.000481,45.8834066 369.210354,48.1004432 371.758032,50.9742611 C374.536153,54.2047746 376.60366,57.9778719 377.827565,62.0508565 C379.366318,67.210108 380.09569,72.5745678 379.989952,77.9550013 C379.989952,90.1761782 376.525183,99.7328186 369.595645,106.624922 C362.666107,113.517026 352.667774,116.975385 339.600645,117 C335.360081,116.985193 331.129513,116.589754 326.960425,115.818496 C323.245293,115.185144 319.581959,114.281199 316,113.113961 L316,13.5538298 Z M329.828141,103.809621 C331.574891,104.381838 333.375133,104.777669 335.201626,104.991125 C337.169659,105.223895 339.150057,105.337946 341.131949,105.332653 C344.386661,105.355976 347.619819,104.805965 350.681719,103.708086 C353.555764,102.684542 356.158104,101.024254 358.291837,98.8528446 C360.557417,96.4699183 362.293395,93.6394261 363.386903,90.5453981 C364.710052,86.6851444 365.338382,82.6230588 365.243029,78.5457531 C365.243029,70.8659803 363.894244,64.8938493 361.196674,60.6293601 C358.499104,56.3648709 354.044401,54.2326263 347.832565,54.2326263 C345.673918,54.2381 343.530331,54.5903176 341.484613,55.2756723 C339.352214,55.9957529 337.384075,57.1282209 335.693499,58.6078814 C333.816917,60.289136 332.358657,62.3809739 331.43369,64.7184699 C330.289116,67.6591697 329.743369,70.7967382 329.828141,73.948966 L329.828141,103.809621 Z" id="Shape" fill="#000000"></path>
                    <path d="M426.018368,117.990414 C421.025388,118.104651 416.066731,117.129405 411.480368,115.131146 C407.476091,113.331147 403.930171,110.632573 401.111826,107.240309 C398.285545,103.741663 396.206187,99.6896003 395.00458,95.3390704 C393.627775,90.5123808 392.953347,85.5088127 393.002506,80.4857304 C392.95843,75.481271 393.632812,70.4968167 395.00458,65.6880903 C396.222667,61.3451747 398.31428,57.3030829 401.148561,53.8147016 C403.970228,50.4439985 407.499762,47.7515158 411.480368,45.933148 C420.763973,42.022284 431.208475,42.022284 440.492081,45.933148 C444.488235,47.7721696 448.027532,50.4902926 450.851439,53.8889683 C453.68572,57.3773496 455.777333,61.4194414 456.99542,65.762357 C458.367188,70.5710834 459.04157,75.5555377 458.997494,80.5599971 C459.046653,85.5830794 458.372225,90.5866475 456.99542,95.4133371 C455.779307,99.7570475 453.687492,103.79953 450.851439,107.286726 C448.034607,110.676677 444.492224,113.37495 440.492081,115.177563 C435.92138,117.148534 430.98624,118.10764 426.018368,117.990414 Z M426.018368,106.961809 C432.373577,106.961809 437.072635,104.631691 440.115544,99.9714559 C443.158452,95.3112204 444.68909,88.8407342 444.707458,80.5599971 C444.707458,72.27926 443.17682,65.8335292 440.115544,61.2228049 C437.054268,56.6120806 432.355209,54.3067184 426.018368,54.3067184 C419.663159,54.3067184 414.98859,56.6120806 411.994662,61.2228049 C409.000734,65.8335292 407.50377,72.27926 407.50377,80.5599971 C407.50377,88.8531119 409.000734,95.3235982 411.994662,99.9714559 C414.98859,104.619314 419.663159,106.949431 426.018368,106.961809 Z" id="Shape" fill="#000000"></path>
                    <path d="M515.423213,69.0790598 C515.423213,63.5828678 514.02431,59.7640046 511.226504,57.6224704 C508.428698,55.4809361 504.368467,54.4256424 499.045812,54.4565895 C495.970614,54.4417158 492.900176,54.6995908 489.870745,55.2271704 C487.056092,55.7287419 484.274809,56.4015477 481.542465,57.2418219 C479.698485,53.8632005 478.783504,50.0578781 478.890443,46.2123014 C482.316411,45.1283451 485.827553,44.3333085 489.386868,43.8355697 C493.0467,43.2908535 496.741301,43.0115982 500.441613,43 C509.746955,43 516.840727,45.1167767 521.722929,49.35033 C526.605132,53.5838833 529.030724,60.3581876 528.999706,69.6732427 L528.999706,114.506201 C525.736633,115.24893 521.769456,116.016416 517.098175,116.80866 C512.381885,117.603631 507.606901,118.001156 502.823781,117.997026 C498.66145,118.039881 494.507309,117.619499 490.438371,116.743671 C487.067248,116.043423 483.875263,114.662754 481.058587,112.686516 C478.507768,110.847184 476.460142,108.398832 475.103169,105.565605 C473.623685,102.276645 472.907973,98.696726 473.009467,95.0931309 C472.805495,87.9221622 476.224223,81.1282087 482.110091,77.0076882 C485.031587,74.9448067 488.304359,73.4285481 491.769035,72.5327481 C495.504608,71.5319395 499.356003,71.0262512 503.22391,71.0287225 C506.214027,71.0287225 508.664433,71.0999007 510.57513,71.242257 C512.482725,71.3815186 514.092549,71.5486326 515.404602,71.7343148 L515.423213,69.0790598 Z M515.423213,82.6245736 C514.018107,82.4388915 512.250092,82.2532093 510.100558,82.0675271 C507.951024,81.881845 506.136482,81.7890039 504.647628,81.7890039 C498.859705,81.7890039 494.448973,82.859771 491.415432,85.0013053 C488.381891,87.1428396 486.86512,90.4015616 486.86512,94.7774712 C486.741763,97.0665046 487.274327,99.3432531 488.400502,101.341336 C489.357437,102.855995 490.682629,104.104709 492.252913,104.971422 C493.835083,105.821486 495.572366,106.345586 497.361545,106.512584 C499.222614,106.698266 500.999934,106.791107 502.684201,106.791107 C504.903432,106.785882 507.120963,106.668131 509.328214,106.438311 C511.383841,106.245081 513.42152,105.894344 515.423213,105.389207 L515.423213,82.6245736 Z" id="Shape" fill="#000000"></path>
                    <path d="M550.009286,44.551161 C551.030792,44.3674407 552.005865,44.2296504 552.934506,44.1377903 C553.863148,44.0459301 554.847507,44 555.869013,44 C556.890518,44 557.92131,44 558.942815,44.1377903 C559.879419,44.2166639 560.809961,44.3547362 561.728739,44.551161 C562.007331,45.9413116 562.285924,47.7632049 562.564516,50.016841 C562.825722,51.9170471 562.968384,53.8313616 562.991691,55.7489155 C565.00385,52.5509423 567.636061,49.7785996 570.736559,47.5917326 C573.955849,45.3074764 578.082111,44.1653483 583.115347,44.1653483 C583.85826,44.1653483 584.629032,44.1653483 585.418377,44.2388364 C586.096254,44.2717192 586.771965,44.339173 587.442815,44.4409288 C587.633733,45.3078616 587.773267,46.1850908 587.860704,47.0681296 C587.953568,47.9867313 588,48.9604491 588,49.9709109 C587.998693,51.1251414 587.930481,52.2783482 587.795699,53.4248533 C587.656403,54.6282215 587.489247,55.7764736 587.303519,56.8787956 C586.55014,56.6940331 585.776675,56.6014804 585.000489,56.6032151 L583.143206,56.6032151 C580.69125,56.5799562 578.24963,56.9205646 575.899804,57.613677 C573.579824,58.327495 571.470044,59.5885042 569.752199,61.2880837 C567.765006,63.3174035 566.28332,65.7769556 565.424731,68.4715489 C564.243651,72.2713574 563.703992,76.2377939 563.827468,80.2112784 L563.827468,115.448839 C562.693319,115.645716 561.549523,115.783695 560.400782,115.86221 C559.147116,115.95407 558.004888,116 556.983382,116 C555.961877,116 554.810362,116 553.556696,115.86221 C552.30303,115.724419 551.11437,115.632559 550,115.448839 L550.009286,44.551161 Z" id="Shape" fill="#000000"></path>
                    <path d="M647.217104,13.5538175 C648.38069,13.3534191 649.554327,13.2147656 650.732958,13.1384544 C652.051403,13.0461515 653.173484,13 654.108552,13 C655.043619,13 656.29661,13 657.558951,13.1384544 C658.712548,13.2172975 659.861149,13.3559431 661,13.5538175 L661,113.388655 C657.073464,114.484206 653.082594,115.341153 649.049836,115.954676 C644.16036,116.683234 639.220513,117.031979 634.275768,116.997699 C629.407,117.029858 624.556382,116.408825 619.857026,115.15164 C610.819332,112.835166 603.433844,106.418377 599.958787,97.8633036 C597.988912,93.334307 597.003974,87.7345966 597.003974,81.0641724 C596.933015,75.7237733 597.812879,70.4125776 599.603462,65.3726762 C601.203133,60.869799 603.716747,56.7364721 606.990496,53.225612 C610.197749,49.8292568 614.107455,47.1535103 618.454424,45.3798639 C623.161767,43.4805139 628.209069,42.5386761 633.293947,42.6107764 C635.766841,42.6131958 638.236083,42.7983187 640.680981,43.1645939 C642.892864,43.4747587 645.080036,43.9374044 647.226454,44.5491377 L647.217104,13.5538175 Z M647.217104,56.1793054 C645.264718,55.4186526 643.237044,54.8618016 641.167216,54.5178529 C638.843968,54.1317827 636.491419,53.9434078 634.135508,53.9548051 C630.687546,53.8732474 627.267922,54.5875593 624.148986,56.0408511 C621.404615,57.3706621 619.017612,59.3220983 617.182732,61.7359412 C615.282014,64.2977361 613.897933,67.1963429 613.105838,70.2739612 C612.187212,73.7886773 611.737692,77.4068013 611.768691,81.0364815 C611.862198,89.8360264 613.972334,96.1310855 618.099099,99.9216587 C622.225864,103.712232 627.851854,105.610595 634.977069,105.616749 C637.235457,105.62487 639.492525,105.507769 641.737608,105.265998 C643.590952,105.07358 645.424167,104.724627 647.217104,104.222975 L647.217104,56.1793054 Z" id="Shape" fill="#000000"></path>
                    <path d="M692.663388,83.8929818 C692.849557,91.7253523 694.878797,97.4556754 698.751109,101.083951 C702.62342,104.712227 708.341905,106.529461 715.906565,106.535653 C722.372899,106.564103 728.786671,105.376252 734.812008,103.034304 C735.650878,104.649713 736.27664,106.366668 736.673696,108.142372 C737.132392,110.091213 737.412796,112.077582 737.511456,114.077018 C734.249793,115.430108 730.846519,116.414514 727.365256,117.011835 C723.318097,117.691312 719.219289,118.017605 715.115348,117.987012 C709.391407,118.1223 703.691785,117.199702 698.304303,115.265805 C689.490894,112.044166 682.736123,104.835832 680.106302,95.8458602 C678.660522,91.0262244 677.951316,86.016644 678.002594,80.986027 C677.968807,75.9617672 678.652075,70.9582932 680.031834,66.1261937 C681.26908,61.741217 683.39138,57.6547528 686.26849,54.117591 C689.138515,50.6610294 692.748747,47.8904511 696.83357,46.0096945 C701.570063,43.911602 706.713779,42.8870877 711.894627,43.0098657 C716.368603,42.9137591 720.811582,43.7718484 724.926444,45.5267499 C728.529646,47.1015089 731.732839,49.462768 734.300044,52.4365724 C736.891272,55.4955365 738.841078,59.0420976 740.034043,62.8663178 C741.377337,67.13888 742.040097,71.5953478 741.998124,76.0729946 C741.998124,77.3825174 741.998124,78.7477646 741.858498,80.1965983 C741.718871,81.645432 741.672329,82.8713683 741.579245,83.9115566 L692.663388,83.8929818 Z M728.230941,73.5561103 C728.235478,71.0422181 727.881307,68.5404821 727.179087,66.1261937 C726.541001,63.8847381 725.496731,61.7788859 724.097993,59.912926 C722.71117,58.1228006 720.939366,56.6660328 718.913191,55.6500113 C716.593018,54.5349873 714.041052,53.9843724 711.466439,54.0432918 C705.782084,54.0432918 701.419528,55.7676517 698.378771,59.2163713 C695.338014,62.6650909 693.494942,67.4604829 692.849557,73.6025473 L728.230941,73.5561103 Z" id="Shape" fill="#000000"></path>
                    <path d="M759,44.551161 C760.021755,44.3674407 760.997067,44.2296504 761.925935,44.1377903 C762.854803,44.0459301 763.839404,44 764.861159,44 C765.882914,44 766.913957,44 767.935713,44.1377903 C768.872545,44.2166639 769.803315,44.3547362 770.722317,44.551161 C771.000978,45.9413116 771.279638,47.7632049 771.558299,50.016841 C771.819569,51.9170471 771.962265,53.8313616 771.985578,55.7489155 C774.014573,52.5457348 776.666721,49.7730243 779.788071,47.5917326 C782.970993,45.3074764 787.079687,44.1653483 792.114153,44.1653483 C792.857248,44.1653483 793.628208,44.1653483 794.417746,44.2388364 C795.095789,44.2717192 795.771665,44.339173 796.442679,44.4409288 C796.633644,45.3078616 796.773212,46.1850908 796.86067,47.0681296 C796.953557,47.9867313 797,48.9604491 797,49.9709109 C796.998693,51.1251414 796.930464,52.2783482 796.795649,53.4248533 C796.656319,54.6282215 796.489122,55.7764736 796.303349,56.8787956 C795.549785,56.6940331 794.776131,56.6014804 793.999756,56.6032151 L792.142019,56.6032151 C789.703613,56.5934757 787.277364,56.9433284 784.94329,57.641235 C782.622742,58.3550531 780.512447,59.6160622 778.794182,61.3156417 C776.806503,63.3449615 775.324455,65.8045137 774.465656,68.4991069 C773.280131,72.3013275 772.737189,76.2709618 772.858714,80.2480225 L772.858714,115.448839 C771.724288,115.645716 770.580213,115.783695 769.43119,115.86221 C768.177218,115.95407 767.03471,116 766.012955,116 C764.9912,116 763.848692,116 762.585431,115.86221 C761.322171,115.724419 760.142508,115.632559 759.027866,115.448839 L759,44.551161 Z" id="Shape" fill="#000000"></path>
                </g>
            </g>
        </g>
    </g>
</svg>