<svg xmlns="http://www.w3.org/2000/svg" xmlns:xlink="http://www.w3.org/1999/xlink" width="256" height="256" viewBox="0 0 256 256">
  <defs>
    <polygon id="channel@2x-a" points="0 236 251.191 236 251.191 .345 0 .345"/>
    <polygon id="channel@2x-c" points=".042 .119 55.221 .119 55.221 33.377 .042 33.377"/>
    <polygon id="channel@2x-e" points=".042 .119 55.221 .119 55.221 33.377 .042 33.377"/>
    <polygon id="channel@2x-g" points=".622 .595 39.732 .595 39.732 24.377 .622 24.377"/>
    <polygon id="channel@2x-i" points=".622 .595 39.732 .595 39.732 24.377 .622 24.377"/>
    <polygon id="channel@2x-k" points=".541 .613 11.725 .613 11.725 12.377 .541 12.377"/>
    <polygon id="channel@2x-m" points=".18 .485 25.198 .485 25.198 38.377 .18 38.377"/>
    <polygon id="channel@2x-o" points=".188 .363 33.781 .363 33.781 25.377 .188 25.377"/>
  </defs>
  <g fill="none" fill-rule="evenodd" transform="translate(2 9)">
    <path fill="#FFF" d="M185.7528,129.8889 L223.1688,129.8889 L185.7528,129.8889 Z"/>
    <path stroke="#5E63B6" stroke-linecap="round" stroke-width="2" d="M223.1682,129.8892 L185.7532,129.8892"/>
    <g transform="translate(0 .655)">
      <path fill="#E1F2FF" d="M21.3606,209.2479 C21.3606,152.0549 67.7246,105.6899 124.9186,105.6899 C182.1116,105.6899 228.4756,152.0549 228.4756,209.2479 L21.3606,209.2479 Z"/>
      <path stroke="#5E63B6" stroke-linecap="round" d="M209.1077 167.7225L209.1077 171.6605M211.0764 169.6912L207.1384 169.6912"/>
      <g transform="translate(243 200)">
        <path fill="#FFF" d="M0.218,0.4178 L7.191,0.4178"/>
        <path stroke="#5E63B6" stroke-linecap="round" stroke-linejoin="round" stroke-width="2" d="M0.218,0.4178 L7.191,0.4178"/>
      </g>
      <g transform="translate(1 200)">
        <path fill="#FFF" d="M0.0002,0.4178 L8.9732,0.4178"/>
        <path stroke="#5E63B6" stroke-linecap="round" stroke-linejoin="round" stroke-width="2" d="M0.0002,0.4178 L8.9732,0.4178"/>
      </g>
      <g transform="translate(92 209)">
        <path fill="#FFF" d="M0.2307,0.532 L67.4177,0.532"/>
        <path stroke="#5E63B6" stroke-linecap="round" stroke-linejoin="round" stroke-width="2" d="M0.2307,0.532 L67.4177,0.532"/>
      </g>
      <g transform="translate(168 209)">
        <path fill="#FFF" d="M0.0354,0.532 L9.1774,0.532"/>
        <path stroke="#5E63B6" stroke-linecap="round" stroke-linejoin="round" stroke-width="2" d="M0.0354,0.532 L9.1774,0.532"/>
      </g>
      <g transform="translate(79 209)">
        <path fill="#FFF" d="M5.3489,0.4568 L0.3489,0.5318"/>
        <path stroke="#5E63B6" stroke-linecap="round" stroke-linejoin="round" stroke-width="2" d="M5.3489,0.4568 L0.3489,0.5318"/>
      </g>
      <path stroke="#5E63B6" stroke-linecap="round" stroke-linejoin="round" stroke-width="2" d="M208.2532 46.9188L208.2532 53.9188M211.7532 50.4188L204.7532 50.4188M33.6526 25.5633L33.6526 32.5633M37.1526 29.0633L30.1526 29.0633"/>
      <path stroke="#5E63B6" stroke-linecap="round" d="M172.7961.8445L172.7961 4.7825M174.7649 2.8133L170.8269 2.8133M20.4094 159.7195L20.4094 163.6575M22.3782 161.6883L18.4402 161.6883"/>
      <path stroke="#E1F2FF" stroke-linecap="round" stroke-width="2" d="M185.0149,196.3133 L185.0149,182.0633"/>
      <mask id="channel@2x-b" fill="#fff">
        <use xlink:href="#channel@2x-a"/>
      </mask>
      <polygon fill="#FFF" points="51.649 200.361 198.189 200.361 198.189 106.294 51.649 106.294" mask="url(#channel@2x-b)"/>
      <polygon stroke="#5E63B6" stroke-width="2" points="51.649 200.361 198.189 200.361 198.189 106.294 51.649 106.294" mask="url(#channel@2x-b)"/>
      <path fill="#FFF" d="M196.1887,74.1151 L53.6487,74.1151 C52.5437,74.1151 51.6487,73.4121 51.6487,72.5451 L51.6487,66.8841 C51.6487,66.0161 52.5437,65.3131 53.6487,65.3131 L196.1887,65.3131 C197.2927,65.3131 198.1887,66.0161 198.1887,66.8841 L198.1887,72.5451 C198.1887,73.4121 197.2927,74.1151 196.1887,74.1151" mask="url(#channel@2x-b)"/>
      <path stroke="#5E63B6" stroke-width="2" d="M196.1887,74.1151 L53.6487,74.1151 C52.5437,74.1151 51.6487,73.4121 51.6487,72.5451 L51.6487,66.8841 C51.6487,66.0161 52.5437,65.3131 53.6487,65.3131 L196.1887,65.3131 C197.2927,65.3131 198.1887,66.0161 198.1887,66.8841 L198.1887,72.5451 C198.1887,73.4121 197.2927,74.1151 196.1887,74.1151 Z" mask="url(#channel@2x-b)"/>
      <path fill="#FFF" d="M169.0705,58.0906 L80.7665,58.0906 C79.7965,58.0906 79.0095,57.1946 79.0095,56.0906 L79.0095,34.3816 C79.0095,33.2776 79.7965,32.3816 80.7665,32.3816 L169.0705,32.3816 C170.0405,32.3816 170.8275,33.2776 170.8275,34.3816 L170.8275,56.0906 C170.8275,57.1946 170.0405,58.0906 169.0705,58.0906" mask="url(#channel@2x-b)"/>
      <path stroke="#5E63B6" stroke-width="2" d="M179.837668,58.0906 L71.162332,58.0906 C69.9685574,58.0906 69,57.1946 69,56.0906 L69,34.3816 C69,33.2776 69.9685574,32.3816 71.162332,32.3816 L179.837668,32.3816 C181.031443,32.3816 182,33.2776 182,34.3816 L182,56.0906 C182,57.1946 181.031443,58.0906 179.837668,58.0906 Z" mask="url(#channel@2x-b)"/>
      <polygon fill="#E1F2FF" points="65.493 173.36 127.221 173.36 127.221 127.121 65.493 127.121" mask="url(#channel@2x-b)"/>
      <polygon stroke="#5E63B6" stroke-width="2" points="65.493 173.36 127.221 173.36 127.221 127.121 65.493 127.121" mask="url(#channel@2x-b)"/>
      <polygon fill="#E1F2FF" points="150.483 200.361 185.347 200.361 185.347 127.121 150.483 127.121" mask="url(#channel@2x-b)"/>
      <polygon stroke="#5E63B6" stroke-width="2" points="150.483 200.361 185.347 200.361 185.347 127.121 150.483 127.121" mask="url(#channel@2x-b)"/>
      <g mask="url(#channel@2x-b)">
        <g transform="translate(21 174)">
          <path fill="#FFF" d="M64.593,26.4354 C64.275,20.7394 59.882,16.1324 54.274,15.5024 C52.461,6.7064 44.672,0.0914 35.338,0.0914 C28.989,0.0914 23.356,3.1524 19.83,7.8774 C18.606,7.5704 17.324,7.4054 16.004,7.4054 C7.346,7.4054 0.326,14.4244 0.326,23.0824 C0.326,24.2344 0.454,25.3554 0.692,26.4354"/>
          <path stroke="#ACD3EF" stroke-linecap="round" stroke-width="2" d="M64.593,26.4354 C64.275,20.7394 59.882,16.1324 54.274,15.5024 C52.461,6.7064 44.672,0.0914 35.338,0.0914 C28.989,0.0914 23.356,3.1524 19.83,7.8774 C18.606,7.5704 17.324,7.4054 16.004,7.4054 C7.346,7.4054 0.326,14.4244 0.326,23.0824 C0.326,24.2344 0.454,25.3554 0.692,26.4354"/>
        </g>
      </g>
      <g mask="url(#channel@2x-b)">
        <g transform="translate(183 177)">
          <path fill="#FFF" d="M48.7278,22.9344 C49.1858,21.3654 49.4418,19.7094 49.4418,17.9924 C49.4418,8.2514 41.5448,0.3554 31.8048,0.3554 C24.0418,0.3554 17.4558,5.3724 15.0988,12.3404 C14.2688,12.1554 13.4068,12.0544 12.5208,12.0544 C6.3178,12.0544 1.2448,16.8494 0.7798,22.9344"/>
          <path stroke="#ACD3EF" stroke-linecap="round" stroke-width="2" d="M48.7278,22.9344 C49.1858,21.3654 49.4418,19.7094 49.4418,17.9924 C49.4418,8.2514 41.5448,0.3554 31.8048,0.3554 C24.0418,0.3554 17.4558,5.3724 15.0988,12.3404 C14.2688,12.1554 13.4068,12.0544 12.5208,12.0544 C6.3178,12.0544 1.2448,16.8494 0.7798,22.9344"/>
        </g>
      </g>
      <g mask="url(#channel@2x-b)">
        <g transform="translate(18 200)">
          <path fill="#FFF" d="M0.2746,0.4568 L218.1686,0.4568"/>
          <path stroke="#5E63B6" stroke-linecap="round" stroke-linejoin="round" stroke-width="2" d="M0.2746,0.4568 L218.1686,0.4568"/>
        </g>
      </g>
    </g>
    <g transform="translate(72 139.655)">
      <mask id="channel@2x-d" fill="#fff">
        <use xlink:href="#channel@2x-c"/>
      </mask>
      <path fill="#9452BA" d="M3.885,46.9129 C8.263,46.7679 12.329,43.7009 21.26,43.1769 C21.381,42.5909 21.532,42.0609 21.727,41.6259 C23.299,38.1039 25.454,27.9849 23.906,21.3749 L22.68,16.1439 C22.278,14.4289 22.064,12.6739 22.042,10.9109 C22.032,10.1769 22.098,9.4589 22.231,8.7659 C22.264,8.5919 22.302,8.4199 22.343,8.2489 C22.468,7.7379 22.63,7.2409 22.825,6.7609 C22.891,6.6009 22.96,6.4429 23.032,6.2869 C23.178,5.9749 23.338,5.6719 23.512,5.3769 C23.687,5.0819 23.874,4.7969 24.074,4.5209 C24.677,3.6939 25.396,2.9579 26.207,2.3349 C26.478,2.1269 26.758,1.9329 27.048,1.7509 C28.644,0.7539 30.525,0.1669 32.544,0.1419 L34.288,0.1199 C37.225,0.0829 39.899,1.2399 41.848,3.1409 C42.091,3.3779 42.323,3.6279 42.543,3.8879 C42.944,4.3589 43.301,4.8689 43.614,5.4069 C43.733,5.6089 43.846,5.8139 43.95,6.0239 C44.028,6.1789 44.1,6.3349 44.169,6.4929 C44.377,6.9679 44.552,7.4599 44.689,7.9689 C44.826,8.4759 44.928,8.9999 44.989,9.5349 C45.03,9.8919 45.053,10.2549 45.058,10.6219 C45.067,11.3539 44.779,12.0209 44.304,12.5069 C43.83,12.9929 43.171,13.2979 42.44,13.3069 L31.55,13.4439 L33.317,22.8749 C35.373,32.5589 34.873,39.0589 33.43,43.4069 C33.108,44.3759 31.248,47.8199 31.248,47.8199 C36.802,56.3439 45.198,59.9939 54.141,60.9729 C61.742,61.8039 78.042,54.6759 69.493,46.7749 C60.945,38.8739 71.215,43.7249 72.731,44.7189 C74.246,45.7139 83.03,53.1119 73.738,64.2469 C69.809,68.9549 65.345,73.2459 54.517,76.6299 C52.781,77.1719 43.279,77.9829 38.177,79.5169 C22.988,84.0839 10.534,79.4819 3.463,69.5059 C-3.58,59.5709 2.156,46.9699 3.885,46.9129" mask="url(#channel@2x-d)"/>
    </g>
    <g transform="translate(72 139.655)">
      <mask id="channel@2x-f" fill="#fff">
        <use xlink:href="#channel@2x-e"/>
      </mask>
      <path stroke="#52267D" stroke-width="2" d="M3.885,46.9129 C8.263,46.7679 12.329,43.7009 21.26,43.1769 C21.381,42.5909 21.532,42.0609 21.727,41.6259 C23.299,38.1039 25.454,27.9849 23.906,21.3749 L22.68,16.1439 C22.278,14.4289 22.064,12.6739 22.042,10.9109 C22.032,10.1769 22.098,9.4589 22.231,8.7659 C22.264,8.5919 22.302,8.4199 22.343,8.2489 C22.468,7.7379 22.63,7.2409 22.825,6.7609 C22.891,6.6009 22.96,6.4429 23.032,6.2869 C23.178,5.9749 23.338,5.6719 23.512,5.3769 C23.687,5.0819 23.874,4.7969 24.074,4.5209 C24.677,3.6939 25.396,2.9579 26.207,2.3349 C26.478,2.1269 26.758,1.9329 27.048,1.7509 C28.644,0.7539 30.525,0.1669 32.544,0.1419 L34.288,0.1199 C37.225,0.0829 39.899,1.2399 41.848,3.1409 C42.091,3.3779 42.323,3.6279 42.543,3.8879 C42.944,4.3589 43.301,4.8689 43.614,5.4069 C43.733,5.6089 43.846,5.8139 43.95,6.0239 C44.028,6.1789 44.1,6.3349 44.169,6.4929 C44.377,6.9679 44.552,7.4599 44.689,7.9689 C44.826,8.4759 44.928,8.9999 44.989,9.5349 C45.03,9.8919 45.053,10.2549 45.058,10.6219 C45.067,11.3539 44.779,12.0209 44.304,12.5069 C43.83,12.9929 43.171,13.2979 42.44,13.3069 L31.55,13.4439 L33.317,22.8749 C35.373,32.5589 34.873,39.0589 33.43,43.4069 C33.108,44.3759 31.248,47.8199 31.248,47.8199 C36.802,56.3439 45.198,59.9939 54.141,60.9729 C61.742,61.8039 78.042,54.6759 69.493,46.7749 C60.945,38.8739 71.215,43.7249 72.731,44.7189 C74.246,45.7139 83.03,53.1119 73.738,64.2469 C69.809,68.9549 65.345,73.2459 54.517,76.6299 C52.781,77.1719 43.279,77.9829 38.177,79.5169 C22.988,84.0839 10.534,79.4819 3.463,69.5059 C-3.58,59.5709 2.156,46.9699 3.885,46.9129 Z" mask="url(#channel@2x-f)"/>
    </g>
    <g transform="translate(48 148.655)">
      <mask id="channel@2x-h" fill="#fff">
        <use xlink:href="#channel@2x-g"/>
      </mask>
      <path fill="#9452BA" d="M37.1614,23.324 C37.3694,12.06 28.3224,3.325 18.1434,1.582 C16.0304,1.22 15.3354,0.567 13.0294,0.596 L11.2634,0.619 C5.3114,0.693 0.5484,5.578 0.6224,11.529 C0.6414,13.012 1.8584,14.2 3.3434,14.181 C3.3434,14.181 21.4604,13.949 21.5454,13.94 C21.5454,13.94 23.0204,13.923 23.0224,13.924 C23.0194,13.925 21.5444,13.944 21.5414,13.946 C25.5694,15.596 28.1274,20.686 28.6014,23.431 C29.2774,27.342 28.8584,30.58 27.5554,33.21 C26.6864,34.963 26.6124,37.061 26.7704,38.759 C26.7704,38.759 26.8134,38.773 26.8744,38.793 C26.9484,39.7 27.1084,40.731 27.3934,41.906 C29.0854,40.696 31.7164,38.873 32.1974,38.611 C33.2374,38.046 35.5854,36.759 36.6354,36.138 C43.3454,32.179 37.0444,29.731 37.1614,23.324" mask="url(#channel@2x-h)"/>
    </g>
    <g transform="translate(48 148.655)">
      <mask id="channel@2x-j" fill="#fff">
        <use xlink:href="#channel@2x-i"/>
      </mask>
      <path stroke="#52267D" stroke-width="2" d="M37.1614,23.324 C37.3694,12.06 28.3224,3.325 18.1434,1.582 C16.0304,1.22 15.3354,0.567 13.0294,0.596 L11.2634,0.619 C5.3114,0.693 0.5484,5.578 0.6224,11.529 C0.6414,13.012 1.8584,14.2 3.3434,14.181 C3.3434,14.181 21.4604,13.949 21.5454,13.94 C21.5454,13.94 23.0204,13.923 23.0224,13.924 C23.0194,13.925 21.5444,13.944 21.5414,13.946 C25.5694,15.596 28.1274,20.686 28.6014,23.431 C29.2774,27.342 28.8584,30.58 27.5554,33.21 C26.6864,34.963 26.6124,37.061 26.7704,38.759 C26.7704,38.759 26.8134,38.773 26.8744,38.793 C26.9484,39.7 27.1084,40.731 27.3934,41.906 C29.0854,40.696 31.7164,38.873 32.1974,38.611 C33.2374,38.046 35.5854,36.759 36.6354,36.138 C43.3454,32.179 37.0444,29.731 37.1614,23.324 Z" mask="url(#channel@2x-j)"/>
    </g>
    <g transform="translate(69 160.655)">
      <mask id="channel@2x-l" fill="#fff">
        <use xlink:href="#channel@2x-k"/>
      </mask>
      <path fill="#F3E3FF" d="M10.5549,24.4061 C10.4449,22.6691 10.1669,21.7791 10.3539,21.0691 C11.4249,16.9821 11.7739,15.6911 11.7199,11.3801 C11.6659,7.0941 9.1299,2.8911 5.4369,0.6851 C5.2339,0.5631 2.5939,0.4111 0.5409,1.9461 C4.5699,3.5961 7.1269,8.6861 7.6019,11.4311 C8.2779,15.3421 7.8589,18.5801 6.5549,21.2101 C5.6869,22.9631 5.6119,25.0611 5.7709,26.7591 C5.7709,26.7591 10.7089,28.5421 10.5549,24.4061" mask="url(#channel@2x-l)"/>
      <path stroke="#52267D" d="M10.5549,24.4061 C10.4449,22.6691 10.1669,21.7791 10.3539,21.0691 C11.4249,16.9821 11.7739,15.6911 11.7199,11.3801 C11.6659,7.0941 9.1299,2.8911 5.4369,0.6851 C5.2339,0.5631 2.5939,0.4111 0.5409,1.9461 C4.5699,3.5961 7.1269,8.6861 7.6019,11.4311 C8.2779,15.3421 7.8589,18.5801 6.5549,21.2101 C5.6869,22.9631 5.6119,25.0611 5.7709,26.7591 C5.7709,26.7591 10.7089,28.5421 10.5549,24.4061" mask="url(#channel@2x-l)"/>
    </g>
    <path fill="#FFF" d="M53.6311,151.1753 C53.6311,151.1753 53.6041,149.2933 55.4641,148.5233 C56.0311,148.2863 57.0691,147.8503 57.0691,147.8503 C57.0691,147.8503 58.2121,150.1913 56.9571,150.8013 C55.1521,151.6783 53.6311,151.1753 53.6311,151.1753"/>
    <path stroke="#52267D" d="M53.6311,151.1753 C53.6311,151.1753 53.6041,149.2933 55.4641,148.5233 C56.0311,148.2863 57.0691,147.8503 57.0691,147.8503 C57.0691,147.8503 58.2121,150.1913 56.9571,150.8013 C55.1521,151.6783 53.6311,151.1753 53.6311,151.1753 Z"/>
    <path fill="#FFF" d="M58.2961,149.7935 C58.2961,149.7935 58.3171,147.2295 61.1961,146.8185 C61.7341,146.7415 63.1381,146.7585 63.1381,146.7585 C63.1381,146.7585 63.8191,149.4635 62.3021,149.7425 C60.4371,150.0875 58.2961,149.7935 58.2961,149.7935"/>
    <path stroke="#52267D" d="M58.2961,149.7935 C58.2961,149.7935 58.3171,147.2295 61.1961,146.8185 C61.7341,146.7415 63.1381,146.7585 63.1381,146.7585 C63.1381,146.7585 63.8191,149.4635 62.3021,149.7425 C60.4371,150.0875 58.2961,149.7935 58.2961,149.7935 Z"/>
    <path fill="#FFF" d="M64.0344,149.9673 C64.0344,149.9673 64.3794,147.1183 66.9434,147.8673 C68.0394,148.1883 68.6554,149.0093 68.6554,149.0093 C68.6554,149.0093 68.1744,151.1813 67.1544,150.9503 C65.3754,150.5483 64.0344,149.9673 64.0344,149.9673"/>
    <path stroke="#52267D" d="M64.0344,149.9673 C64.0344,149.9673 64.3794,147.1183 66.9434,147.8673 C68.0394,148.1883 68.6554,149.0093 68.6554,149.0093 C68.6554,149.0093 68.1744,151.1813 67.1544,150.9503 C65.3754,150.5483 64.0344,149.9673 64.0344,149.9673 Z"/>
    <path fill="#FFF" d="M71.6262,163.6783 C71.6262,163.6783 77.5412,160.3653 76.3402,154.9323 C77.1392,155.5743 79.2772,157.5333 80.0572,158.5403 C80.0702,159.6063 80.3192,163.8403 74.5062,166.7493 C73.4652,165.6963 72.5812,164.3763 71.6262,163.6783"/>
    <path stroke="#52267D" d="M71.6262,163.6783 C71.6262,163.6783 77.5412,160.3653 76.3402,154.9323 C77.1392,155.5743 79.2772,157.5333 80.0572,158.5403 C80.0702,159.6063 80.3192,163.8403 74.5062,166.7493 C73.4652,165.6963 72.5812,164.3763 71.6262,163.6783 Z"/>
    <path fill="#F3E3FF" d="M54.4358 150.647C54.4358 150.647 54.4208 149.673 55.3838 149.274 55.6778 149.153 56.2138 148.926 56.2138 148.926 56.2138 148.926 56.8068 150.138 56.1578 150.454 55.2228 150.908 54.4358 150.647 54.4358 150.647M59.5198 149.1978C59.5198 149.1978 59.5308 147.8898 60.9988 147.6808 61.2728 147.6418 61.9888 147.6498 61.9888 147.6498 61.9888 147.6498 62.3358 149.0298 61.5628 149.1728 60.6118 149.3468 59.5198 149.1978 59.5198 149.1978M64.9504 149.7505C64.9504 149.7505 65.1334 148.2385 66.4944 148.6375 67.0754 148.8075 67.4024 149.2425 67.4024 149.2425 67.4024 149.2425 67.1464 150.3955 66.6054 150.2725 65.6624 150.0595 64.9504 149.7505 64.9504 149.7505M63.5588 160.8794L58.1138 160.9474C58.0798 158.2044 60.2748 155.9534 63.0178 155.9194L63.4968 155.9134C64.8678 155.8964 65.9938 156.9934 66.0108 158.3644 66.0278 159.7364 64.9298 160.8614 63.5588 160.8794"/>
    <path fill="#FFF" d="M63.0989,160.7915 L58.2059,160.8535 C58.1789,158.6985 59.9049,156.9305 62.0589,156.9025 L63.0499,156.8905 C64.1269,156.8765 65.0119,157.7385 65.0259,158.8165 C65.0389,159.8945 64.1769,160.7775 63.0989,160.7915"/>
    <path stroke="#52267D" d="M63.0989,160.7915 L58.2059,160.8535 C58.1789,158.6985 59.9049,156.9305 62.0589,156.9025 L63.0499,156.8905 C64.1269,156.8765 65.0119,157.7385 65.0259,158.8165 C65.0389,159.8945 64.1769,160.7775 63.0989,160.7915 Z"/>
    <path fill="#52267D" d="M59.0666 158.7769C59.0746 159.3789 59.5686 159.8599 60.1706 159.8519 60.7716 159.8449 61.2536 159.3509 61.2456 158.7499 61.2386 158.1469 60.7446 157.6659 60.1426 157.6729 59.5416 157.6809 59.0586 158.1739 59.0666 158.7769M51.0832 162.021C51.3922 161.952 51.6672 161.776 51.8602 161.526L52.2202 161.062 51.4092 161.247 50.9322 161.355C50.7472 161.397 50.6322 161.58 50.6742 161.764 50.7162 161.948 50.8982 162.063 51.0832 162.021"/>
    <path fill="#E1F2FF" d="M72.634,163.773 C72.634,163.773 77.191,161.246 77.057,156.27 C79.047,157.682 79.592,158.603 79.592,158.603 C79.592,158.603 79.279,160.976 78.191,162.185 C76.52,164.042 74.762,164.628 72.634,163.773"/>
    <g transform="translate(73 162.655)">
      <path fill="#FFF" d="M3.9661,0.1893 C3.9661,0.1893 2.1801,2.0523 0.4271,2.9573"/>
      <path stroke="#52267D" d="M3.9661,0.1893 C3.9661,0.1893 2.1801,2.0523 0.4271,2.9573"/>
    </g>
    <g transform="translate(70 134.655)">
      <mask id="channel@2x-n" fill="#fff">
        <use xlink:href="#channel@2x-m"/>
      </mask>
      <path fill="#9452BA" d="M25.1985,47.3104 L24.1515,45.3064 C20.2175,35.9734 19.5585,30.4724 21.4265,21.4944 L22.5195,16.2344 C22.8795,14.5084 23.0485,12.7494 23.0265,10.9874 C22.9525,5.1134 18.1315,0.4114 12.2575,0.4854 L10.5395,0.5064 C4.7465,0.5794 0.1085,5.3344 0.1805,11.1284 L0.1845,11.4294 C0.2025,12.8084 1.3345,13.9124 2.7125,13.8944 L13.5855,13.7574 L12.0545,23.2294 C7.3275,48.6224 7.9625,58.8844 17.8665,56.6494" mask="url(#channel@2x-n)"/>
      <path stroke="#52267D" stroke-width="2" d="M25.1985,47.3104 L24.1515,45.3064 C20.2175,35.9734 19.5585,30.4724 21.4265,21.4944 L22.5195,16.2344 C22.8795,14.5084 23.0485,12.7494 23.0265,10.9874 C22.9525,5.1134 18.1315,0.4114 12.2575,0.4854 L10.5395,0.5064 C4.7465,0.5794 0.1085,5.3344 0.1805,11.1284 L0.1845,11.4294 C0.2025,12.8084 1.3345,13.9124 2.7125,13.8944 L13.5855,13.7574 L12.0545,23.2294 C7.3275,48.6224 7.9625,58.8844 17.8665,56.6494" mask="url(#channel@2x-n)"/>
    </g>
    <path fill="#FFF" d="M75.3069,136.4859 C75.3069,136.4859 75.4579,134.6399 77.2809,133.8839 C77.8369,133.6539 78.7159,133.8819 78.7159,133.8819 C78.7159,133.8819 79.7939,135.5219 78.5659,136.1189 C76.7959,136.9789 75.3069,136.4859 75.3069,136.4859"/>
    <path stroke="#52267D" d="M75.3069,136.4859 C75.3069,136.4859 75.4579,134.6399 77.2809,133.8839 C77.8369,133.6539 78.7159,133.8819 78.7159,133.8819 C78.7159,133.8819 79.7939,135.5219 78.5659,136.1189 C76.7959,136.9789 75.3069,136.4859 75.3069,136.4859 Z"/>
    <path fill="#FFF" d="M79.6604,135.8228 C79.6604,135.8228 79.6844,132.9188 82.9464,132.4538 C83.5554,132.3668 84.3384,132.4178 84.3384,132.4178 C84.3384,132.4178 85.9174,135.4488 84.1984,135.7658 C82.0854,136.1558 79.6604,135.8228 79.6604,135.8228"/>
    <path stroke="#52267D" d="M79.6604,135.8228 C79.6604,135.8228 79.6844,132.9188 82.9464,132.4538 C83.5554,132.3668 84.3384,132.4178 84.3384,132.4178 C84.3384,132.4178 85.9174,135.4488 84.1984,135.7658 C82.0854,136.1558 79.6604,135.8228 79.6604,135.8228 Z"/>
    <path fill="#FFF" d="M85.5139,136.4097 C85.5139,136.4097 85.9219,133.6297 88.4139,134.4277 C89.4799,134.7677 90.0629,135.5887 90.0629,135.5887 C90.0629,135.5887 89.5369,137.7037 88.5439,137.4517 C86.8119,137.0137 85.5139,136.4097 85.5139,136.4097"/>
    <path stroke="#52267D" d="M85.5139,136.4097 C85.5139,136.4097 85.9219,133.6297 88.4139,134.4277 C89.4799,134.7677 90.0629,135.5887 90.0629,135.5887 C90.0629,135.5887 89.5369,137.7037 88.5439,137.4517 C86.8119,137.0137 85.5139,136.4097 85.5139,136.4097 Z"/>
    <path fill="#F3E3FF" d="M76.1096,186.229 C76.7226,185.756 77.3476,185.481 77.8846,185.345"/>
    <g transform="translate(73 147.655)">
      <mask id="channel@2x-p" fill="#fff">
        <use xlink:href="#channel@2x-o"/>
      </mask>
      <path fill="#F3E3FF" d="M6.7083,38.4715 C4.8413,31.2725 7.8733,17.4255 8.4203,14.0205 L10.5833,0.3765 L11.6063,0.3635 C12.9023,0.3475 13.9013,1.7435 13.7333,3.0315 L12.1903,14.8615 C11.6683,18.8675 11.3053,37.3885 18.3033,41.2785 C19.7953,42.1075 22.1983,41.5215 23.1003,41.0755 C26.3833,39.4565 27.2803,35.3275 27.9633,31.9995 C29.3743,25.1125 28.1393,19.7345 27.7403,14.3545 L27.3083,7.6215 C27.2293,6.4055 28.1823,5.1005 29.3993,5.0845 L30.6403,5.0695 L33.0473,18.6565 C33.7683,22.5245 35.6673,35.9465 27.8253,42.3485 C27.6833,42.4645 29.7583,42.9015 29.1723,43.9695 C26.8423,48.2115 19.9463,48.9635 18.6693,50.7835 C13.7493,57.7905 18.6253,72.5265 18.6253,72.5265 C18.6253,72.5265 13.0403,70.3785 9.5603,67.3375 C1.4233,60.2275 0.2713,49.7945 0.1943,46.7205 C0.1043,43.0415 1.0413,40.7475 2.2143,39.3705" mask="url(#channel@2x-p)"/>
      <path stroke="#52267D" d="M6.7083,38.4715 C4.8413,31.2725 7.8733,17.4255 8.4203,14.0205 L10.5833,0.3765 L11.6063,0.3635 C12.9023,0.3475 13.9013,1.7435 13.7333,3.0315 L12.1903,14.8615 C11.6683,18.8675 11.3053,37.3885 18.3033,41.2785 C19.7953,42.1075 22.1983,41.5215 23.1003,41.0755 C26.3833,39.4565 27.2803,35.3275 27.9633,31.9995 C29.3743,25.1125 28.1393,19.7345 27.7403,14.3545 L27.3083,7.6215 C27.2293,6.4055 28.1823,5.1005 29.3993,5.0845 L30.6403,5.0695 L33.0473,18.6565 C33.7683,22.5245 35.6673,35.9465 27.8253,42.3485 C27.6833,42.4645 29.7583,42.9015 29.1723,43.9695 C26.8423,48.2115 19.9463,48.9635 18.6693,50.7835 C13.7493,57.7905 18.6253,72.5265 18.6253,72.5265 C18.6253,72.5265 13.0403,70.3785 9.5603,67.3375 C1.4233,60.2275 0.2713,49.7945 0.1943,46.7205 C0.1043,43.0415 1.0413,40.7475 2.2143,39.3705" mask="url(#channel@2x-p)"/>
    </g>
    <path fill="#FFF" d="M2.094,4.6746 C2.094,4.6746 3.221,3.3946 2.557,1.7016 C2.354,1.1866 1.642,0.7486 1.642,0.7486 C1.642,0.7486 -0.135,1.0816 0.254,2.2786 C0.815,4.0016 2.094,4.6746 2.094,4.6746" transform="translate(143 186.655)"/>
    <path fill="#FFF" d="M83.095,151.3579 C83.095,151.3579 86.996,153.4999 92.415,151.4539 C92.064,153.1479 91.345,156.5509 91.345,156.5509 C91.345,156.5509 86.32,158.1619 82.398,155.7619 C82.769,153.5169 83.095,151.3579 83.095,151.3579"/>
    <path stroke="#52267D" d="M83.095,151.3579 C83.095,151.3579 86.996,153.4999 92.415,151.4539 C92.064,153.1479 91.345,156.5509 91.345,156.5509 C91.345,156.5509 86.32,158.1619 82.398,155.7619 C82.769,153.5169 83.095,151.3579 83.095,151.3579 Z"/>
    <path fill="#FFF" d="M111.9485,141.1538 C111.9485,141.1538 111.7495,139.2988 109.8945,138.5838 C109.3285,138.3648 107.8075,138.3228 107.8075,138.3228 C107.8075,138.3228 107.4045,140.2968 108.6575,140.8668 C110.4615,141.6878 111.9485,141.1538 111.9485,141.1538"/>
    <path stroke="#52267D" d="M111.9485,141.1538 C111.9485,141.1538 111.7495,139.2988 109.8945,138.5838 C109.3285,138.3648 107.8075,138.3228 107.8075,138.3228 C107.8075,138.3228 107.4045,140.2968 108.6575,140.8668 C110.4615,141.6878 111.9485,141.1538 111.9485,141.1538 Z"/>
    <path fill="#FFF" d="M107.2542,140.2642 C107.2542,140.2642 107.1702,137.7342 104.3182,137.4002 C103.7862,137.3382 103.1052,137.3992 103.1052,137.3992 C103.1052,137.3992 101.7952,140.0752 103.3002,140.3132 C105.1502,140.6072 107.2542,140.2642 107.2542,140.2642"/>
    <path stroke="#52267D" d="M107.2542,140.2642 C107.2542,140.2642 107.1702,137.7342 104.3182,137.4002 C103.7862,137.3382 103.1052,137.3992 103.1052,137.3992 C103.1052,137.3992 101.7952,140.0752 103.3002,140.3132 C105.1502,140.6072 107.2542,140.2642 107.2542,140.2642 Z"/>
    <path fill="#FFF" d="M101.8635,140.5152 C101.8635,140.5152 101.3825,137.7242 98.8915,138.5912 C97.8275,138.9612 97.2605,139.8022 97.2605,139.8022 C97.2605,139.8022 97.8435,141.9192 98.8375,141.6412 C100.5715,141.1552 101.8635,140.5152 101.8635,140.5152"/>
    <path stroke="#52267D" d="M101.8635,140.5152 C101.8635,140.5152 101.3825,137.7242 98.8915,138.5912 C97.8275,138.9612 97.2605,139.8022 97.2605,139.8022 C97.2605,139.8022 97.8435,141.9192 98.8375,141.6412 C100.5715,141.1552 101.8635,140.5152 101.8635,140.5152 Z"/>
    <path fill="#F3E3FF" d="M76.26 136.0074C76.26 136.0074 76.341 135.0224 77.315 134.6184 77.612 134.4944 78.081 134.6164 78.081 134.6164 78.081 134.6164 78.657 135.4924 78.001 135.8124 77.056 136.2714 76.26 136.0074 76.26 136.0074M80.7297 135.3218C80.7297 135.3218 80.7447 133.5008 82.7897 133.2098 83.1707 133.1548 83.6627 133.1858 83.6627 133.1858 83.6627 133.1858 84.6517 135.0878 83.5747 135.2858 82.2507 135.5298 80.7297 135.3218 80.7297 135.3218M86.5881 136.1177C86.5881 136.1177 86.8231 134.5127 88.2631 134.9727 88.8771 135.1697 89.2141 135.6427 89.2141 135.6427 89.2141 135.6427 88.9101 136.8637 88.3371 136.7187 87.3371 136.4657 86.5881 136.1177 86.5881 136.1177M111.0266 140.69C111.0266 140.69 110.9216 139.71 109.9406 139.332 109.6406 139.216 108.8376 139.194 108.8376 139.194 108.8376 139.194 108.6246 140.237 109.2866 140.539 110.2396 140.972 111.0266 140.69 111.0266 140.69M106.1438 139.8316C106.1438 139.8316 106.0978 138.4326 104.5208 138.2486 104.2268 138.2136 103.8498 138.2476 103.8498 138.2476 103.8498 138.2476 103.1258 139.7276 103.9578 139.8586 104.9808 140.0206 106.1438 139.8316 106.1438 139.8316M100.8655 140.3374C100.8655 140.3374 100.6025 138.8114 99.2395 139.2844 98.6575 139.4874 98.3475 139.9474 98.3475 139.9474 98.3475 139.9474 98.6665 141.1064 99.2105 140.9534 100.1585 140.6884 100.8655 140.3374 100.8655 140.3374"/>
    <path fill="#FFF" d="M94.7288,156.0083 C94.7288,156.0083 99.5348,156.6953 104.0818,155.5193 C104.5568,157.9913 104.8658,159.8603 104.8658,159.8603 C104.8658,159.8603 101.7298,162.0473 95.8698,160.8753 C95.1398,157.7003 94.7288,156.0083 94.7288,156.0083"/>
    <path stroke="#52267D" d="M94.7288,156.0083 C94.7288,156.0083 99.5348,156.6953 104.0818,155.5193 C104.5568,157.9913 104.8658,159.8603 104.8658,159.8603 C104.8658,159.8603 101.7298,162.0473 95.8698,160.8753 C95.1398,157.7003 94.7288,156.0083 94.7288,156.0083 Z"/>
    <path fill="#F3E3FF" d="M102.6008,151.0913 L108.0458,151.0233 C108.0108,148.2803 105.7598,146.0853 103.0178,146.1193 L102.5388,146.1253 C101.1668,146.1433 100.0698,147.2683 100.0868,148.6403 C100.1038,150.0113 101.2298,151.1093 102.6008,151.0913"/>
    <path fill="#FFF" d="M103.1965,150.9908 L107.9515,150.9308 C107.9245,148.7758 106.1555,147.0518 104.0005,147.0788 L102.8715,147.0938 C101.8705,147.1048 101.0685,147.9278 101.0815,148.9278 C101.0955,150.0818 102.0425,151.0058 103.1965,150.9908"/>
    <path stroke="#52267D" d="M103.1965,150.9908 L107.9515,150.9308 C107.9245,148.7758 106.1555,147.0518 104.0005,147.0788 L102.8715,147.0938 C101.8705,147.1048 101.0685,147.9278 101.0815,148.9278 C101.0955,150.0818 102.0425,151.0058 103.1965,150.9908 Z"/>
    <path fill="#52267D" d="M105.1868,150.0523 C104.9168,149.5143 105.1338,148.8603 105.6718,148.5893 C106.2098,148.3203 106.8648,148.5363 107.1348,149.0743 C107.4048,149.6133 107.1878,150.2673 106.6498,150.5373 C106.1118,150.8073 105.4568,150.5903 105.1868,150.0523"/>
    <path fill="#F3E3FF" d="M83.7004,146.6206 L78.2554,146.6886 C78.2214,143.9456 80.4164,141.6946 83.1584,141.6606 L83.6384,141.6546 C85.0094,141.6376 86.1354,142.7346 86.1514,144.1056 C86.1694,145.4766 85.0714,146.6026 83.7004,146.6206"/>
    <path fill="#FFF" d="M83.2405,146.5327 L78.3475,146.5947 C78.3205,144.4397 80.0455,142.6717 82.2005,142.6437 L83.1915,142.6317 C84.2685,142.6177 85.1535,143.4797 85.1665,144.5567 C85.1795,145.6357 84.3175,146.5187 83.2405,146.5327"/>
    <path stroke="#52267D" d="M83.2405,146.5327 L78.3475,146.5947 C78.3205,144.4397 80.0455,142.6717 82.2005,142.6437 L83.1915,142.6317 C84.2685,142.6177 85.1535,143.4797 85.1665,144.5567 C85.1795,145.6357 84.3175,146.5187 83.2405,146.5327 Z"/>
    <path fill="#52267D" d="M79.7122 145.4634C80.1792 145.8424 80.8652 145.7714 81.2442 145.3044 81.6242 144.8374 81.5532 144.1514 81.0852 143.7714 80.6182 143.3924 79.9322 143.4634 79.5532 143.9314 79.1732 144.3984 79.2442 145.0844 79.7122 145.4634M114.6204 152.0738C114.3094 152.0118 114.0304 151.8428 113.8304 151.5968L113.4594 151.1428 114.2744 151.3068 114.7554 151.4038C114.9394 151.4408 115.0594 151.6208 115.0224 151.8058 114.9854 151.9908 114.8054 152.1108 114.6204 152.0738M72.553 147.5054C72.863 147.4354 73.137 147.2604 73.331 147.0094L73.691 146.5454 72.879 146.7304 72.402 146.8394C72.218 146.8814 72.103 147.0644 72.144 147.2484 72.186 147.4324 72.369 147.5474 72.553 147.5054"/>
    <path fill="#E1F2FF" d="M83.5686,152.0591 C83.5686,152.0591 87.6486,153.7371 91.7216,152.1061 C91.3236,154.5121 90.9566,155.7431 90.9566,155.7431 C90.9566,155.7431 88.4956,155.9181 86.8606,155.6181 C84.5256,155.1881 83.5946,154.1411 83.5686,152.0591"/>
    <g transform="translate(82 153.655)">
      <path fill="#FFF" d="M7.2542,1.4119 C7.2542,1.4119 3.5652,1.7659 0.6882,0.3199"/>
      <path stroke="#52267D" d="M7.2542,1.4119 C7.2542,1.4119 3.5652,1.7659 0.6882,0.3199"/>
    </g>
    <path fill="#E1F2FF" d="M102.3362,156.4536 C102.3362,156.4536 98.7492,157.5226 95.5652,156.9276 C96.1942,159.2836 96.5222,160.0206 96.5222,160.0206 C96.5222,160.0206 101.2772,159.3256 102.3362,156.4536"/>
    <path fill="#F3E3FF" d="M100.8254,190.0542 C100.8254,190.0542 100.6104,190.2142 100.3034,190.4042"/>
    <g transform="translate(95 157.655)">
      <path fill="#FFF" d="M7.7004,0.1551 C7.7004,0.1551 4.0854,0.8871 0.2324,0.4771"/>
      <path stroke="#52267D" d="M7.7004,0.1551 C7.7004,0.1551 4.0854,0.8871 0.2324,0.4771"/>
    </g>
    <g stroke="#F3E3FF" stroke-width=".25" transform="translate(51 142.655)">
      <path d="M1.1575 15.7508C1.1615 16.0468 1.4045 16.2828 1.7005 16.2798 1.9965 16.2758 2.2335 16.0328 2.2295 15.7368M.0862 15.7645C.0902 16.0605.3332 16.2965.6292 16.2925.9252 16.2895 1.1612 16.0465 1.1572 15.7505"/>
      <path d="M.6291 16.2928C.6331 16.5888.8751 16.8258 1.1711 16.8218 1.4671 16.8178 1.7041 16.5758 1.7001 16.2798M21.6799 14.991C22.0539 15.217 22.5389 15.096 22.7649 14.723 22.9909 14.349 22.8699 13.864 22.4969 13.638"/>
      <path d="M21.9475,16.075 C22.3215,16.301 22.8065,16.18 23.0325,15.807 C23.2585,15.434 23.1375,14.949 22.7645,14.723"/>
      <path d="M0.3323,0.6697 C0.3373,1.0667 0.6623,1.3847 1.0603,1.3797 C1.4563,1.3747 1.7733,1.0487 1.7693,0.6517" transform="translate(47 32)"/>
      <path d="M0.8948,0.6883 C0.8998,1.0843 1.2258,1.4023 1.6228,1.3973 C2.0188,1.3923 2.3368,1.0673 2.3318,0.6693" transform="translate(45 32)"/>
      <path d="M0.6223,0.3973 C0.6273,0.7943 0.9533,1.1123 1.3503,1.1073 C1.7463,1.1023 2.0643,0.7763 2.0593,0.3793" transform="translate(46 33)"/>
      <path d="M45.9309,9.7811 C45.9359,10.2181 46.2939,10.5661 46.7299,10.5601 C47.1659,10.5551 47.5149,10.1971 47.5099,9.7611"/>
      <path d="M45.1506 10.5809C45.1566 11.0169 45.5146 11.3659 45.9506 11.3599 46.3866 11.3539 46.7356 10.9969 46.7296 10.5599M36.0129 23.8533C36.0199 24.3833 36.4539 24.8073 36.9849 24.8003 37.5139 24.7933 37.9389 24.3593 37.9319 23.8293M35.0657 24.825C35.0727 25.355 35.5067 25.779 36.0377 25.772 36.5667 25.765 36.9917 25.331 36.9847 24.801M21.7766.1736C21.7806.5276 22.0716.8116 22.4256.8076 22.7806.8026 23.0646.5116 23.0596.1566"/>
      <path d="M21.1428,0.8231 C21.1478,1.1771 21.4378,1.4621 21.7918,1.4571 C22.1468,1.4531 22.4308,1.1621 22.4258,0.8071"/>
      <path d="M0.9885,1.1141 C1.2565,1.4231 1.7225,1.4551 2.0315,1.1871 C2.3395,0.9201 2.3725,0.4531 2.1045,0.1451" transform="translate(82 63)"/>
      <path d="M0.9162,1.157 C1.1842,1.465 1.6502,1.498 1.9582,1.229 C2.2662,0.962 2.2992,0.495 2.0312,0.187" transform="translate(82 64)"/>
      <path d="M0.4944,1.283 C0.6984,1.716 1.2154,1.901 1.6474,1.697 C2.0814,1.493 2.2664,0.976 2.0624,0.544" transform="translate(53 53)"/>
      <path d="M0.926,1.0223 C1.13,1.4553 1.647,1.6403 2.079,1.4363 C2.513,1.2323 2.698,0.7153 2.494,0.2833" transform="translate(51 54)"/>
      <path d="M0.0793,1.4363 C0.2833,1.8703 0.8003,2.0553 1.2333,1.8513 C1.6663,1.6473 1.8513,1.1303 1.6473,0.6973" transform="translate(53 54)"/>
      <path d="M0.512,1.1756 C0.716,1.6086 1.233,1.7936 1.665,1.5896 C2.098,1.3856 2.283,0.8696 2.079,0.4366" transform="translate(51 55)"/>
      <path d="M0.2336,0.8514 C0.4376,1.2844 0.9546,1.4694 1.3866,1.2654 C1.8196,1.0614 2.0046,0.5444 1.8006,0.1124" transform="translate(54 55)"/>
      <path d="M37.7981,6.4608 C37.8051,6.9428 38.2011,7.3298 38.6841,7.3238 C39.1671,7.3178 39.5541,6.9218 39.5471,6.4388"/>
      <path d="M0.9104,0.5135 C0.9164,0.9965 1.3124,1.3835 1.7964,1.3765 C2.2794,1.3705 2.6654,0.9745 2.6594,0.4925" transform="translate(37 39)"/>
      <path d="M47.593 21.1707C47.598 21.5367 47.899 21.8297 48.264 21.8247 48.63 21.8207 48.923 21.5207 48.919 21.1537M63.1819 5.9168C63.1859 6.1908 63.4109 6.4108 63.6849 6.4078 63.9599 6.4038 64.1799 6.1788 64.1759 5.9038"/>
    </g>
    <g transform="translate(35 57.655)">
      <path stroke="#ACD3EF" stroke-linecap="round" stroke-width="2" d="M65.8264,121.3553 L92.2214,121.3553"/>
      <g transform="translate(57)">
        <path fill="#FFF" d="M0.3489,0.8133 L0.3489,8.3133"/>
        <path stroke="#5E63B6" stroke-width="2" d="M0.3489,0.8133 L0.3489,8.3133"/>
      </g>
      <g transform="translate(122)">
        <path fill="#FFF" d="M0.9143,0.8133 L0.9143,8.3133"/>
        <path stroke="#5E63B6" stroke-width="2" d="M0.9143,0.8133 L0.9143,8.3133"/>
      </g>
      <g transform="translate(145 103)">
        <path fill="#FFF" d="M0.8264,0.3611 L0.8264,20.6461"/>
        <path stroke="#5E63B6" stroke-width="2" d="M0.8264,0.3611 L0.8264,20.6461"/>
      </g>
      <g transform="translate(76 130)">
        <path fill="#FFF" d="M0.1379,0.032 L0.1379,9.313"/>
        <path stroke="#E1F2FF" stroke-linecap="round" stroke-width="2" d="M0.1379,0.032 L0.1379,9.313"/>
      </g>
      <g transform="translate(85 127)">
        <path fill="#FFF" d="M0.3264,0.9803 L0.3264,7.5463"/>
        <path stroke="#E1F2FF" stroke-linecap="round" stroke-width="2" d="M0.3264,0.9803 L0.3264,7.5463"/>
      </g>
      <g transform="translate(94 135)">
        <path fill="#FFF" d="M0.1594,0.6805 L0.1594,4.3135"/>
        <path stroke="#E1F2FF" stroke-linecap="round" stroke-width="2" d="M0.1594,0.6805 L0.1594,4.3135"/>
      </g>
      <g transform="translate(99 132)">
        <path fill="#FFF" d="M0.8264,0.0467 L0.8264,3.6807"/>
        <path stroke="#E1F2FF" stroke-linecap="round" stroke-width="2" d="M0.8264,0.0467 L0.8264,3.6807"/>
      </g>
      <g transform="translate(77 135)">
        <path fill="#FFF" d="M25.2209,0.6805 L0.0709,0.6805"/>
        <path stroke="#E1F2FF" stroke-linecap="round" stroke-width="2" d="M25.2209,0.6805 L0.0709,0.6805"/>
      </g>
      <g transform="translate(117 79)">
        <path fill="#FFF" d="M0.7209,7.5526 L0.7209,0.9856"/>
        <path stroke="#E1F2FF" stroke-linecap="round" stroke-width="2" d="M0.7209,7.5526 L0.7209,0.9856"/>
      </g>
      <g transform="translate(107 84)">
        <path fill="#FFF" d="M0.8879,3.8524 L0.8879,0.2184"/>
        <path stroke="#E1F2FF" stroke-linecap="round" stroke-width="2" d="M0.8879,3.8524 L0.8879,0.2184"/>
      </g>
      <g transform="translate(102 87)">
        <path fill="#FFF" d="M0.2209,4.4852 L0.2209,0.8522"/>
        <path stroke="#E1F2FF" stroke-linecap="round" stroke-width="2" d="M0.2209,4.4852 L0.2209,0.8522"/>
      </g>
      <g transform="translate(99 87)">
        <path fill="#FFF" d="M0.8264,0.8524 L11.9764,0.8524"/>
        <path stroke="#E1F2FF" stroke-linecap="round" stroke-width="2" d="M0.8264,0.8524 L11.9764,0.8524"/>
      </g>
      <g transform="translate(107 112)">
        <path fill="#FFF" d="M0.5295,5.2108 L0.5295,0.6448"/>
        <path stroke="#E1F2FF" stroke-linecap="round" stroke-width="2" d="M0.5295,5.2108 L0.5295,0.6448"/>
      </g>
      <g transform="translate(166 100)">
        <path fill="#FFF" d="M0.9114,0.284 L0.9114,3.918"/>
        <path stroke="#E1F2FF" stroke-linecap="round" stroke-width="2" d="M0.9114,0.284 L0.9114,3.918"/>
      </g>
      <g transform="translate(105 111)">
        <path fill="#FFF" d="M0.1008,0.5106 L6.6028,0.5106"/>
        <path stroke="#E1F2FF" stroke-linecap="round" stroke-width="2" d="M0.1008,0.5106 L6.6028,0.5106"/>
      </g>
      <polygon fill="#E1F2FF" points="17.746 66.834 162.091 61.924 162.091 55.993 17.746 55.993"/>
      <path fill="#FFF" d="M197.1994,72.8758 C197.1994,80.4258 191.0784,86.5468 183.5284,86.5468 C175.9784,86.5468 169.8574,80.4258 169.8574,72.8758 C169.8574,65.3248 175.9784,59.2048 183.5284,59.2048 C191.0784,59.2048 197.1994,65.3248 197.1994,72.8758"/>
      <path stroke="#5E63B6" stroke-width="2" d="M197.1994,72.8758 C197.1994,80.4258 191.0784,86.5468 183.5284,86.5468 C175.9784,86.5468 169.8574,80.4258 169.8574,72.8758 C169.8574,65.3248 175.9784,59.2048 183.5284,59.2048 C191.0784,59.2048 197.1994,65.3248 197.1994,72.8758 Z"/>
      <path fill="#9452BA" d="M187.8088,80.5135 C187.8738,80.7075 187.9318,80.8395 187.9498,80.8835 C187.9548,80.8885 187.9438,80.8815 187.9498,80.8835 C187.9498,80.8835 187.9498,80.8855 187.9498,80.8835 C187.9498,80.8845 187.9488,80.8835 187.9488,80.8835 C187.5078,76.6335 189.9178,74.8625 190.6938,72.0385 C190.6978,71.9965 190.7048,71.9505 190.7178,71.8995 C190.7338,71.8365 190.7468,71.7715 190.7568,71.7055 C190.8718,70.9245 190.5518,70.0155 189.9458,69.0695 C189.9428,69.0635 189.9388,69.0585 189.9358,69.0535 C189.8858,68.9745 189.8328,68.8965 189.7798,68.8175 C189.7798,68.8175 189.7778,68.8165 189.7778,68.8145 C189.6778,68.6705 189.5718,68.5255 189.4598,68.3795 C189.4488,68.3655 189.4378,68.3495 189.4258,68.3345 C189.3948,68.2945 189.3618,68.2555 189.3308,68.2155 C189.2988,68.1745 189.2668,68.1335 189.2348,68.0935 C189.2008,68.0535 189.1678,68.0135 189.1348,67.9745 C189.1008,67.9335 189.0668,67.8925 189.0318,67.8515 C189.0078,67.8245 188.9828,67.7945 188.9568,67.7655 C188.0048,66.6685 186.7648,65.5845 185.4708,64.6415 C185.4708,64.6415 185.4608,64.6265 185.4708,64.6415 C185.6418,66.2415 185.6638,67.8405 185.5128,69.1195 C185.3298,70.6615 184.7778,72.4565 184.0118,74.0835 C182.2198,73.9375 180.3888,73.5225 178.9598,72.9125 C177.7658,72.4025 176.3978,71.5975 175.0888,70.6435 C175.1038,70.7765 175.1198,70.9075 175.1348,71.0395 C175.1398,71.0785 175.1458,71.1185 175.1508,71.1585 C175.1628,71.2525 175.1748,71.3465 175.1898,71.4415 C175.1948,71.4855 175.2018,71.5285 175.2078,71.5725 C175.2218,71.6665 175.2368,71.7615 175.2508,71.8555 C175.2568,71.8935 175.2638,71.9315 175.2698,71.9705 C175.2888,72.0895 175.3098,72.2075 175.3308,72.3255 C175.3328,72.3385 175.3338,72.3505 175.3368,72.3615 C175.3618,72.4985 175.3878,72.6355 175.4148,72.7715 C175.4158,72.7825 175.4188,72.7915 175.4218,72.8025 C175.4468,72.9255 175.4708,73.0455 175.4968,73.1665 C175.5028,73.1915 175.5088,73.2155 175.5138,73.2405 C175.5378,73.3505 175.5638,73.4595 175.5888,73.5705 C175.5958,73.5905 175.6008,73.6125 175.6058,73.6345 C175.6368,73.7605 175.6668,73.8865 175.7008,74.0105 C175.7018,74.0105 175.7018,74.0125 175.7018,74.0125 C175.8068,74.4105 175.9228,74.7965 176.0488,75.1655 C176.0498,75.1705 176.0518,75.1745 176.0528,75.1795 C176.2658,75.7965 176.5078,76.3655 176.7788,76.8635 C176.8188,76.9355 176.8588,77.0065 176.8998,77.0755 C176.9018,77.0775 176.9018,77.0805 176.9038,77.0835 L176.9048,77.0835 C176.9408,77.1475 176.9788,77.2095 177.0158,77.2695 L177.0168,77.2705 C177.0168,77.2705 177.0208,77.2745 177.0218,77.2765 C177.0618,77.3415 177.1038,77.4055 177.1468,77.4655 C177.1528,77.4745 177.1578,77.4825 177.1638,77.4905 L177.1638,77.4925 C177.2188,77.5715 177.2758,77.6475 177.3298,77.7205 C177.3408,77.7325 177.3508,77.7435 177.3598,77.7555 C177.3628,77.7595 177.3668,77.7635 177.3698,77.7695 C177.4338,77.8505 177.4998,77.9295 177.5688,78.0025 C177.6158,78.0555 177.6628,78.1045 177.7118,78.1535 C177.7328,78.1735 177.7538,78.1925 177.7748,78.2115 C177.8048,78.2405 177.8348,78.2675 177.8668,78.2945 C177.8888,78.3145 177.9128,78.3315 177.9368,78.3525 C177.9648,78.3765 177.9958,78.3995 178.0258,78.4225 C178.0488,78.4415 178.0728,78.4565 178.0978,78.4745 C178.1278,78.4955 178.1588,78.5165 178.1898,78.5375 C178.2128,78.5525 178.2378,78.5675 178.2618,78.5815 C178.2948,78.6015 178.3288,78.6185 178.3608,78.6385 C178.3838,78.6505 178.4078,78.6615 178.4288,78.6735 C178.4668,78.6915 178.5048,78.7075 178.5438,78.7245 C178.5618,78.7315 178.5808,78.7415 178.6008,78.7475 C178.6598,78.7725 178.7178,78.7915 178.7768,78.8085 C178.8168,78.8205 178.8508,78.8315 178.8828,78.8445 C181.7208,79.5945 184.4838,78.4065 187.9498,80.8835"/>
      <g transform="translate(154 91)">
        <path fill="#FFF" d="M0.6594,0.4852 L5.8264,0.4852"/>
        <path stroke="#E1F2FF" stroke-linecap="round" stroke-width="2" d="M0.6594,0.4852 L5.8264,0.4852"/>
      </g>
      <g transform="translate(98 70)">
        <path fill="#FFF" d="M0.2434,0.1209 L5.4094,0.1209"/>
        <path stroke="#E1F2FF" stroke-linecap="round" stroke-width="2" d="M0.2434,0.1209 L5.4094,0.1209"/>
      </g>
      <g transform="translate(152 121)">
        <path fill="#FFF" d="M0.6594,0.3553 L4.6594,0.3553"/>
        <path stroke="#E1F2FF" stroke-linecap="round" stroke-width="2" d="M0.6594,0.3553 L4.6594,0.3553"/>
      </g>
      <g transform="translate(49 127)">
        <path fill="#FFF" d="M0.4192,0.9803 L4.4192,0.9803"/>
        <path stroke="#E1F2FF" stroke-linecap="round" stroke-width="2" d="M0.4192,0.9803 L4.4192,0.9803"/>
      </g>
      <path stroke="#FFF" stroke-linecap="round" stroke-width="2" d="M136.0354 85.4695L125.7274 103.9175M140.6067 90.6229L133.6367 102.7199"/>
      <path fill="#E1F2FF" d="M165.6672,55.0447 L14.1702,55.0447 L14.1702,45.0067 C14.1702,29.6027 26.6572,17.1147 42.0622,17.1147 L137.7752,17.1147 C153.1792,17.1147 165.6672,29.6027 165.6672,45.0067 L165.6672,55.0447 Z"/>
      <path stroke="#ACD3EF" stroke-linecap="round" stroke-width="2" d="M165.6672,55.0447 L14.1702,55.0447 L14.1702,45.0067 C14.1702,29.6027 26.6572,17.1147 42.0622,17.1147 L137.7752,17.1147 C153.1792,17.1147 165.6672,29.6027 165.6672,45.0067 L165.6672,55.0447 Z"/>
      <path fill="#FFF" d="M150.0149,55.0447 L29.8229,55.0447 L29.8229,45.0067 C29.8229,29.6027 42.3099,17.1147 57.7139,17.1147 L122.1229,17.1147 C137.5279,17.1147 150.0149,29.6027 150.0149,45.0067 L150.0149,55.0447 Z"/>
      <path stroke="#ACD3EF" stroke-linecap="round" stroke-width="2" d="M150.0149,55.0447 L29.8229,55.0447 L29.8229,45.0067 C29.8229,29.6027 42.3099,17.1147 57.7139,17.1147 L122.1229,17.1147 C137.5279,17.1147 150.0149,29.6027 150.0149,45.0067 L150.0149,55.0447 Z"/>
      <path fill="#E1F2FF" d="M133.4006,55.0447 L46.4366,55.0447 L46.4366,45.0067 C46.4366,29.6027 58.9236,17.1147 74.3286,17.1147 L105.5076,17.1147 C120.9126,17.1147 133.4006,29.6027 133.4006,45.0067 L133.4006,55.0447 Z"/>
      <path stroke="#ACD3EF" stroke-linecap="round" stroke-width="2" d="M133.4006,55.0447 L46.4366,55.0447 L46.4366,45.0067 C46.4366,29.6027 58.9236,17.1147 74.3286,17.1147 L105.5076,17.1147 C120.9126,17.1147 133.4006,29.6027 133.4006,45.0067 L133.4006,55.0447 Z"/>
      <path fill="#FFF" d="M117.8098,55.0447 L62.0268,55.0447 L62.0268,45.0067 C62.0268,29.6027 74.5138,17.1147 89.9178,17.1147 C105.3228,17.1147 117.8098,29.6027 117.8098,45.0067 L117.8098,55.0447 Z"/>
      <path stroke="#ACD3EF" stroke-linecap="round" stroke-width="2" d="M117.8098,55.0447 L62.0268,55.0447 L62.0268,45.0067 C62.0268,29.6027 74.5138,17.1147 89.9178,17.1147 C105.3228,17.1147 117.8098,29.6027 117.8098,45.0067 L117.8098,55.0447 Z"/>
      <g transform="translate(79 17)">
        <path fill="#E1F2FF" d="M11.26,0.1151 L15.154,5.8531 C19.449,12.1861 21.826,20.4011 21.826,28.9171 L21.826,38.0451 L0.011,38.0451 L0.011,28.9171 C0.011,20.4011 2.387,12.1861 6.684,5.8531 L10.576,0.1151"/>
        <path stroke="#ACD3EF" stroke-linecap="round" stroke-width="2" d="M11.26,0.1151 L15.154,5.8531 C19.449,12.1861 21.826,20.4011 21.826,28.9171 L21.826,38.0451 L0.011,38.0451 L0.011,28.9171 C0.011,20.4011 2.387,12.1861 6.684,5.8531 L10.576,0.1151"/>
      </g>
      <path stroke="#5E63B6" stroke-linecap="round" stroke-width="2" d="M179.76,55.0447 L0.077,55.0447 L0.077,45.0067 C0.077,29.6027 12.565,17.1147 27.969,17.1147 L151.867,17.1147 C167.272,17.1147 179.76,29.6027 179.76,45.0067 L179.76,55.0447 Z"/>
      <path stroke="#E1F2FF" stroke-linecap="round" stroke-width="2" d="M158.8264 12.7137L83.8264 12.7137M20.8264 12.7137L38.8264 12.7137"/>
    </g>
    <text fill="#5E63B6" font-family="Lato-Bold, Lato" font-size="18" font-weight="bold">
      <tspan x="85" y="54">RETAILER</tspan>
    </text>
    <path stroke="#ACD3EF" stroke-dasharray="50 40" stroke-linecap="round" stroke-linejoin="round" stroke-width="2" d="M97.8821.7488L97.8821 13.8128M.4192 4.7488L.4192 13.8128" transform="translate(76 38.655)"/>
  </g>
</svg>
