<svg xmlns="http://www.w3.org/2000/svg" width="256" height="256" viewBox="0 0 256 256">
  <g fill="none" fill-rule="evenodd">
    <path fill="#E1F2FF" d="M23,225.558 C23,168.365 69.364,122 126.558,122 C183.75,122 230.116,168.365 230.116,225.558 L23,225.558 Z"/>
    <path fill="#FFF" d="M19.9776,215.9247 L55.9776,215.9247"/>
    <path stroke="#5E63B6" stroke-linecap="round" stroke-linejoin="round" stroke-width="2" d="M19.9776,215.9247 L55.9776,215.9247"/>
    <path fill="#FFF" d="M195.3198,215.9247 L239.3198,215.9247"/>
    <path stroke="#5E63B6" stroke-linecap="round" stroke-linejoin="round" stroke-width="2" d="M195.3198,215.9247 L239.3198,215.9247"/>
    <path fill="#9452BA" d="M164.543754,215.511 L169.522754,215.511 C171.234754,215.511 172.787754,214.464 173.407754,212.867 C175.175754,208.317 174.734754,204.136 174.945754,200.56 C175.337754,193.935 174.302754,190.54 173.314754,185 L165.840754,185.173 C165.840754,185.173 166.476754,187.926 166.899754,196.184 C167.030754,198.739 162.808754,209.003 163.006754,214.037 C163.038754,214.863 163.716754,215.511 164.543754,215.511"/>
    <path stroke="#52267D" d="M164.543754,215.511 L169.522754,215.511 C171.234754,215.511 172.787754,214.464 173.407754,212.867 C175.175754,208.317 174.734754,204.136 174.945754,200.56 C175.337754,193.935 174.302754,190.54 173.314754,185 L165.840754,185.173 C165.840754,185.173 166.476754,187.926 166.899754,196.184 C167.030754,198.739 162.808754,209.003 163.006754,214.037 C163.038754,214.863 163.716754,215.511 164.543754,215.511 Z"/>
    <path fill="#9452BA" d="M150.242496,191.817 L144.230496,185 L140.518496,185.147 C140.518496,185.147 139.998496,190.818 139.784496,193.193 C139.408496,197.379 137.674496,205.581 136.608496,209.18 C136.262496,210.351 136.060496,211.445 136.004496,212.437 C135.910496,214.107 137.303496,215.486 138.974496,215.486 L143.386496,215.486 C145.955496,215.486 148.239496,213.772 148.871496,211.281 C150.837496,203.527 150.242496,191.817 150.242496,191.817"/>
    <path stroke="#52267D" d="M150.242496,191.817 L144.230496,185 L140.518496,185.147 C140.518496,185.147 139.998496,190.818 139.784496,193.193 C139.408496,197.379 137.674496,205.581 136.608496,209.18 C136.262496,210.351 136.060496,211.445 136.004496,212.437 C135.910496,214.107 137.303496,215.486 138.974496,215.486 L143.386496,215.486 C145.955496,215.486 148.239496,213.772 148.871496,211.281 C150.837496,203.527 150.242496,191.817 150.242496,191.817 Z"/>
    <polyline stroke="#52267D" stroke-width=".25" points="141.992 197 141 197.871 141.949 198.727 143.495 198.133 143.185 197.455 141.902 197.759 141.913 197.988 142.246 197.973"/>
    <path fill="#9452BA" d="M141.988745,166.407 C146.367745,166.317 150.471745,163.302 159.408745,162.889 C159.537745,162.305 159.694745,161.778 159.894745,161.345 C161.511745,157.843 163.794745,147.752 162.328745,141.123 L161.168745,135.877 C160.787745,134.157 160.595745,132.399 160.595745,130.636 C160.595745,129.902 160.670745,129.185 160.811745,128.493 C160.846745,128.32 160.886745,128.148 160.930745,127.978 C161.061745,127.469 161.229745,126.973 161.431745,126.496 C161.499745,126.337 161.569745,126.18 161.644745,126.025 C161.794745,125.715 161.958745,125.413 162.135745,125.121 C162.313745,124.828 162.505745,124.546 162.709745,124.272 C163.321745,123.453 164.049745,122.725 164.868745,122.113 C165.141745,121.909 165.425745,121.718 165.717745,121.54 C167.325745,120.563 169.213745,120 171.232745,120 L172.976745,120 C175.914745,120 178.573745,121.19 180.498745,123.115 C180.738745,123.356 180.967745,123.608 181.184745,123.871 C181.578745,124.348 181.928745,124.862 182.235745,125.404 C182.350745,125.607 182.462745,125.814 182.564745,126.025 C182.638745,126.18 182.710745,126.337 182.777745,126.496 C182.978745,126.973 183.147745,127.469 183.278745,127.978 C183.409745,128.488 183.504745,129.012 183.558745,129.549 C183.594745,129.907 183.613745,130.269 183.613745,130.636 C183.613745,131.369 183.316745,132.032 182.836745,132.511 C182.356745,132.991 181.693745,133.288 180.961745,133.288 L170.071745,133.288 L171.719745,142.74 C173.654745,152.45 173.072745,158.944 171.574745,163.273 C171.240745,164.238 169.338745,167.658 169.338745,167.658 C174.783745,176.251 183.134745,180.007 192.062745,181.097 C199.654745,182.024 216.041745,175.101 207.592745,167.094 C199.143745,159.085 209.352745,164.065 210.856745,165.078 C212.359745,166.092 221.049745,173.601 211.617745,184.617 C207.630745,189.276 203.112745,193.511 192.243745,196.757 C190.500745,197.278 180.987745,197.97 175.867745,199.44 C160.622745,203.816 148.227745,199.057 141.282745,188.993 C134.365745,178.97 140.259745,166.442 141.988745,166.407"/>
    <path stroke="#52267D" stroke-width="2" d="M141.988745,166.407 C146.367745,166.317 150.471745,163.302 159.408745,162.889 C159.537745,162.305 159.694745,161.778 159.894745,161.345 C161.511745,157.843 163.794745,147.752 162.328745,141.123 L161.168745,135.877 C160.787745,134.157 160.595745,132.399 160.595745,130.636 C160.595745,129.902 160.670745,129.185 160.811745,128.493 C160.846745,128.32 160.886745,128.148 160.930745,127.978 C161.061745,127.469 161.229745,126.973 161.431745,126.496 C161.499745,126.337 161.569745,126.18 161.644745,126.025 C161.794745,125.715 161.958745,125.413 162.135745,125.121 C162.313745,124.828 162.505745,124.546 162.709745,124.272 C163.321745,123.453 164.049745,122.725 164.868745,122.113 C165.141745,121.909 165.425745,121.718 165.717745,121.54 C167.325745,120.563 169.213745,120 171.232745,120 L172.976745,120 C175.914745,120 178.573745,121.19 180.498745,123.115 C180.738745,123.356 180.967745,123.608 181.184745,123.871 C181.578745,124.348 181.928745,124.862 182.235745,125.404 C182.350745,125.607 182.462745,125.814 182.564745,126.025 C182.638745,126.18 182.710745,126.337 182.777745,126.496 C182.978745,126.973 183.147745,127.469 183.278745,127.978 C183.409745,128.488 183.504745,129.012 183.558745,129.549 C183.594745,129.907 183.613745,130.269 183.613745,130.636 C183.613745,131.369 183.316745,132.032 182.836745,132.511 C182.356745,132.991 181.693745,133.288 180.961745,133.288 L170.071745,133.288 L171.719745,142.74 C173.654745,152.45 173.072745,158.944 171.574745,163.273 C171.240745,164.238 169.338745,167.658 169.338745,167.658 C174.783745,176.251 183.134745,180.007 192.062745,181.097 C199.654745,182.024 216.041745,175.101 207.592745,167.094 C199.143745,159.085 209.352745,164.065 210.856745,165.078 C212.359745,166.092 221.049745,173.601 211.617745,184.617 C207.630745,189.276 203.112745,193.511 192.243745,196.757 C190.500745,197.278 180.987745,197.97 175.867745,199.44 C160.622745,203.816 148.227745,199.057 141.282745,188.993 C134.365745,178.97 140.259745,166.442 141.988745,166.407 Z"/>
    <path fill="#9452BA" d="M151.388,152.029 C151.738,140.769 142.801,131.92 132.644,130.05 C130.535,129.661 129.85,129 127.543,129 L125.776,129 C119.825,129 115,133.824 115,139.776 C115,141.259 116.203,142.462 117.686,142.462 C117.686,142.462 135.806,142.457 135.891,142.449 C135.892,142.45 137.367,142.45 137.367,142.451 C137.366,142.453 135.889,142.454 135.887,142.455 C139.894,144.156 142.387,149.277 142.827,152.029 C143.453,155.947 142.994,159.179 141.658,161.793 C140.767,163.535 140.666,165.633 140.804,167.331 C140.804,167.331 140.847,167.346 140.907,167.367 C140.97,168.275 141.117,169.308 141.387,170.487 C143.094,169.298 145.747,167.508 146.232,167.253 C147.279,166.7 149.643,165.442 150.701,164.836 C157.459,160.961 151.19,158.433 151.388,152.029"/>
    <path stroke="#52267D" d="M151.388,152.029 C151.738,140.769 142.801,131.92 132.644,130.05 C130.535,129.661 129.85,129 127.543,129 L125.776,129 C119.825,129 115,133.824 115,139.776 C115,141.259 116.203,142.462 117.686,142.462 C117.686,142.462 135.806,142.457 135.891,142.449 C135.892,142.45 137.367,142.45 137.367,142.451 C137.366,142.453 135.889,142.454 135.887,142.455 C139.894,144.156 142.387,149.277 142.827,152.029 C143.453,155.947 142.994,159.179 141.658,161.793 C140.767,163.535 140.666,165.633 140.804,167.331 C140.804,167.331 140.847,167.346 140.907,167.367 C140.97,168.275 141.117,169.308 141.387,170.487 C143.094,169.298 145.747,167.508 146.232,167.253 C147.279,166.7 149.643,165.442 150.701,164.836 C157.459,160.961 151.19,158.433 151.388,152.029 Z"/>
    <path fill="#F3E3FF" d="M146.0005,165.0346 C145.9115,163.2956 145.6465,162.4026 145.8405,161.6956 C146.9635,157.6216 147.3285,156.3366 147.3285,152.0246 C147.3285,147.7386 144.8465,143.5036 141.1805,141.2506 C140.9795,141.1276 138.3415,140.9416 136.2705,142.4506 C140.2765,144.1516 142.7705,149.2726 143.2105,152.0246 C143.8365,155.9426 143.3775,159.1756 142.0415,161.7886 C141.1505,163.5306 141.0495,165.6276 141.1875,167.3266 C141.1875,167.3266 146.1035,169.1726 146.0005,165.0346"/>
    <path stroke="#52267D" stroke-width=".5" d="M146.0005,165.0346 C145.9115,163.2956 145.6465,162.4026 145.8405,161.6956 C146.9635,157.6216 147.3285,156.3366 147.3285,152.0246 C147.3285,147.7386 144.8465,143.5036 141.1805,141.2506 C140.9795,141.1276 138.3415,140.9416 136.2705,142.4506 C140.2765,144.1516 142.7705,149.2726 143.2105,152.0246 C143.8365,155.9426 143.3775,159.1756 142.0415,161.7886 C141.1505,163.5306 141.0495,165.6276 141.1875,167.3266 C141.1875,167.3266 146.1035,169.1726 146.0005,165.0346"/>
    <path fill="#FFF" d="M120,131.282 C120,131.282 119.996,129.4 121.866,128.652 C122.437,128.424 123.479,128 123.479,128 C123.479,128 124.592,130.355 123.331,130.949 C121.514,131.804 120,131.282 120,131.282"/>
    <path stroke="#52267D" stroke-width=".5" d="M120,131.282 C120,131.282 119.996,129.4 121.866,128.652 C122.437,128.424 123.479,128 123.479,128 C123.479,128 124.592,130.355 123.331,130.949 C121.514,131.804 120,131.282 120,131.282 Z"/>
    <path fill="#FFF" d="M125,129.982255 C125,129.982255 125.053,127.418255 127.938,127.044255 C128.476,126.974255 129.88,127.008255 129.88,127.008255 C129.88,127.008255 130.527,129.721255 129.007,129.982255 C127.137,130.302255 125,129.982255 125,129.982255"/>
    <path stroke="#52267D" stroke-width=".5" d="M125,129.982255 C125,129.982255 125.053,127.418255 127.938,127.044255 C128.476,126.974255 129.88,127.008255 129.88,127.008255 C129.88,127.008255 130.527,129.721255 129.007,129.982255 C127.137,130.302255 125,129.982255 125,129.982255 Z"/>
    <path fill="#FFF" d="M131,130.197783 C131,130.197783 131.38,127.354783 133.935,128.135783 C135.026,128.469783 135.632,129.298783 135.632,129.298783 C135.632,129.298783 135.123,131.464783 134.107,131.220783 C132.333,130.796783 131,130.197783 131,130.197783"/>
    <path stroke="#52267D" stroke-width=".5" d="M131,130.197783 C131,130.197783 131.38,127.354783 133.935,128.135783 C135.026,128.469783 135.632,129.298783 135.632,129.298783 C135.632,129.298783 135.123,131.464783 134.107,131.220783 C132.333,130.796783 131,130.197783 131,130.197783 Z"/>
    <path fill="#FFF" d="M138,143.686 C138,143.686 143.955,140.448 142.822,135 C143.613,135.651 145.728,137.638 146.494,138.655 C146.494,139.721 146.689,143.957 140.841,146.793 C139.812,145.727 138.946,144.396 138,143.686"/>
    <path stroke="#52267D" stroke-width=".5" d="M138,143.686 C138,143.686 143.955,140.448 142.822,135 C143.613,135.651 145.728,137.638 146.494,138.655 C146.494,139.721 146.689,143.957 140.841,146.793 C139.812,145.727 138.946,144.396 138,143.686 Z"/>
    <path fill="#F3E3FF" d="M121 130.916C121 130.916 120.998 129.818 122.089 129.381 122.422 129.248 123.03 129 123.03 129 123.03 129 123.68 130.375 122.944 130.722 121.884 131.221 121 130.916 121 130.916M126 129.74651C126 129.74651 126.031 128.24551 127.721 128.02551 128.036 127.98551 128.857 128.00451 128.857 128.00451 128.857 128.00451 129.237 129.59351 128.346 129.74651 127.251 129.93351 126 129.74651 126 129.74651M131 130.300313C131 130.300313 131.225 128.618313 132.736 129.080313 133.382 129.278313 133.74 129.768313 133.74 129.768313 133.74 129.768313 133.439 131.050313 132.838 130.905313 131.789 130.654313 131 130.300313 131 130.300313M131.646 140.966L125 140.966 125 138.101C125 136.941 125.94 136 127.101 136L131.646 136C132.354 136 132.928 136.574 132.928 137.282L132.928 139.684C132.928 140.392 132.354 140.966 131.646 140.966"/>
    <path fill="#FFF" d="M130.837,140.902 L125,140.902 L125,139.015 C125,137.902 125.902,137 127.015,137 L130.837,137 C131.393,137 131.844,137.451 131.844,138.008 L131.844,139.895 C131.844,140.451 131.393,140.902 130.837,140.902"/>
    <path stroke="#52267D" stroke-width=".5" d="M130.837,140.902 L125,140.902 L125,139.015 C125,137.902 125.902,137 127.015,137 L130.837,137 C131.393,137 131.844,137.451 131.844,138.008 L131.844,139.895 C131.844,140.451 131.393,140.902 130.837,140.902 Z"/>
    <path fill="#52267D" d="M126 139.089C126 139.691 126.488 140.179 127.09 140.179 127.691 140.179 128.179 139.691 128.179 139.089 128.179 138.487 127.691 138 127.09 138 126.488 138 126 138.487 126 139.089M117.413496 141.945C117.723496 141.879 117.999496 141.707 118.197496 141.459L118.562496 141 117.748496 141.174 117.269496 141.277C117.085496 141.316 116.968496 141.498 117.007496 141.683 117.047496 141.867 117.228496 141.985 117.413496 141.945"/>
    <path fill="#E1F2FF" d="M139,144.446 C139,144.446 143.588,141.976 143.518,137 C145.489,138.436 146.022,139.364 146.022,139.364 C146.022,139.364 145.68,141.733 144.576,142.929 C142.882,144.764 141.117,145.328 139,144.446"/>
    <path fill="#FFF" d="M143.69,142.7875 C143.69,142.7875 141.881,144.6275 140.117,145.5105"/>
    <path stroke="#52267D" stroke-width=".5" d="M143.69,142.7875 C143.69,142.7875 141.881,144.6275 140.117,145.5105"/>
    <path fill="#9452BA" d="M161.6812,162.1352 L160.6602,160.1182 C156.8422,150.7372 156.2532,145.2282 158.2342,136.2742 L159.3932,131.0292 C159.7742,129.3082 159.9662,127.5512 159.9662,125.7882 C159.9662,119.9132 155.2032,115.1512 149.3292,115.1512 L147.6122,115.1512 C141.8182,115.1512 137.1202,119.8482 137.1202,125.6422 L137.1202,125.9442 C137.1202,127.3222 138.2382,128.4402 139.6172,128.4402 L150.4902,128.4402 L148.8422,137.8922 C143.7952,163.2222 144.3012,173.4922 154.2322,171.3822"/>
    <path stroke="#52267D" d="M161.6812,162.1352 L160.6602,160.1182 C156.8422,150.7372 156.2532,145.2282 158.2342,136.2742 L159.3932,131.0292 C159.7742,129.3082 159.9662,127.5512 159.9662,125.7882 C159.9662,119.9132 155.2032,115.1512 149.3292,115.1512 L147.6122,115.1512 C141.8182,115.1512 137.1202,119.8482 137.1202,125.6422 L137.1202,125.9442 C137.1202,127.3222 138.2382,128.4402 139.6172,128.4402 L150.4902,128.4402 L148.8422,137.8922 C143.7952,163.2222 144.3012,173.4922 154.2322,171.3822"/>
    <path fill="#FFF" d="M142,116.672366 C142,116.672366 142.175,114.828366 144.007,114.095366 C144.565,113.872366 145.441,114.110366 145.441,114.110366 C145.441,114.110366 146.499,115.764366 145.263,116.346366 C143.483,117.183366 142,116.672366 142,116.672366"/>
    <path stroke="#52267D" stroke-width=".5" d="M142,116.672366 C142,116.672366 142.175,114.828366 144.007,114.095366 C144.565,113.872366 145.441,114.110366 145.441,114.110366 C145.441,114.110366 146.499,115.764366 145.263,116.346366 C143.483,117.183366 142,116.672366 142,116.672366 Z"/>
    <path fill="#FFF" d="M147,116.368473 C147,116.368473 147.061,113.464473 150.328,113.040473 C150.938,112.961473 151.72,113.022473 151.72,113.022473 C151.72,113.022473 153.261,116.073473 151.538,116.368473 C149.421,116.731473 147,116.368473 147,116.368473"/>
    <path stroke="#52267D" stroke-width=".5" d="M147,116.368473 C147,116.368473 147.061,113.464473 150.328,113.040473 C150.938,112.961473 151.72,113.022473 151.72,113.022473 C151.72,113.022473 153.261,116.073473 151.538,116.368473 C149.421,116.731473 147,116.368473 147,116.368473 Z"/>
    <path fill="#FFF" d="M152,117.100602 C152,117.100602 152.443,114.325602 154.926,115.154602 C155.986,115.508602 156.559,116.335602 156.559,116.335602 C156.559,116.335602 156.007,118.444602 155.018,118.180602 C153.29,117.719602 152,117.100602 152,117.100602"/>
    <path stroke="#52267D" stroke-width=".5" d="M152,117.100602 C152,117.100602 152.443,114.325602 154.926,115.154602 C155.986,115.508602 156.559,116.335602 156.559,116.335602 C156.559,116.335602 156.007,118.444602 155.018,118.180602 C153.29,117.719602 152,117.100602 152,117.100602 Z"/>
    <path fill="#F3E3FF" d="M142.5405,166.1591 C143.1595,165.6951 143.7875,165.4271 144.3275,165.2981"/>
    <path stroke="#52267D" stroke-width=".5" d="M142.5405,166.1591 C143.1595,165.6951 143.7875,165.4271 144.3275,165.2981"/>
    <path fill="#F3E3FF" d="M146.1411,166.102 C144.3641,158.88 147.5701,145.072 148.1591,141.674 L150.4931,128.059 L151.5171,128.059 C152.8131,128.059 153.7941,129.467 153.6101,130.753 L151.9181,142.562 C151.3461,146.561 150.7501,165.077 157.6991,169.054 C159.1811,169.902 161.5901,169.346 162.4981,168.913 C165.8011,167.335 166.7501,163.217 167.4741,159.898 C168.9721,153.028 167.8051,147.635 167.4731,142.25 L167.1251,135.514 C167.0631,134.296 168.0311,133.003 169.2481,133.003 L170.4901,133.003 L172.7261,146.619 C173.3981,150.496 175.1291,163.941 167.2061,170.244 C167.0631,170.358 169.1331,170.821 168.5331,171.882 C166.1501,176.094 159.2451,176.76 157.9461,178.563 C152.9381,185.508 157.6281,200.304 157.6281,200.304 C157.6281,200.304 152.0711,198.086 148.6281,195.001 C140.5821,187.789 139.5611,177.343 139.5241,174.268 C139.4791,170.589 140.4451,168.307 141.6351,166.945"/>
    <path stroke="#52267D" stroke-width=".5" d="M146.1411,166.102 C144.3641,158.88 147.5701,145.072 148.1591,141.674 L150.4931,128.059 L151.5171,128.059 C152.8131,128.059 153.7941,129.467 153.6101,130.753 L151.9181,142.562 C151.3461,146.561 150.7501,165.077 157.6991,169.054 C159.1811,169.902 161.5901,169.346 162.4981,168.913 C165.8011,167.335 166.7501,163.217 167.4741,159.898 C168.9721,153.028 167.8051,147.635 167.4731,142.25 L167.1251,135.514 C167.0631,134.296 168.0311,133.003 169.2481,133.003 L170.4901,133.003 L172.7261,146.619 C173.3981,150.496 175.1291,163.941 167.2061,170.244 C167.0631,170.358 169.1331,170.821 168.5331,171.882 C166.1501,176.094 159.2451,176.76 157.9461,178.563 C152.9381,185.508 157.6281,200.304 157.6281,200.304 C157.6281,200.304 152.0711,198.086 148.6281,195.001 C140.5821,187.789 139.5611,177.343 139.5241,174.268 C139.4791,170.589 140.4451,168.307 141.6351,166.945"/>
    <path fill="#FFF" d="M210.861567,172.931 C210.861567,172.931 212.005567,171.665 211.362567,169.965 C211.166567,169.446 210.460567,169 210.460567,169 C210.460567,169 208.677567,169.311 209.051567,170.513 C209.590567,172.243 210.861567,172.931 210.861567,172.931"/>
    <path stroke="#52267D" d="M210.861567,172.931 C210.861567,172.931 212.005567,171.665 211.362567,169.965 C211.166567,169.446 210.460567,169 210.460567,169 C210.460567,169 208.677567,169.311 209.051567,170.513 C209.590567,172.243 210.861567,172.931 210.861567,172.931 Z"/>
    <path fill="#F3E3FF" d="M210.65305,170.379 C210.65305,170.379 211.05405,169.935 210.82905,169.339 C210.76005,169.157 210.51205,169 210.51205,169 C210.51205,169 209.88705,169.109 210.01805,169.531 C210.20805,170.137 210.65305,170.379 210.65305,170.379"/>
    <path fill="#FFF" d="M202.225116,181.674 C202.225116,181.674 201.140116,179.197 203.734116,177.561 C204.217116,177.256 204.902116,177 204.902116,177 C204.902116,177 207.398116,178.974 206.058116,179.898 C204.412116,181.033 202.225116,181.674 202.225116,181.674"/>
    <path stroke="#52267D" d="M202.225116,181.674 C202.225116,181.674 201.140116,179.197 203.734116,177.561 C204.217116,177.256 204.902116,177 204.902116,177 C204.902116,177 207.398116,178.974 206.058116,179.898 C204.412116,181.033 202.225116,181.674 202.225116,181.674 Z"/>
    <path fill="#F3E3FF" d="M203.12536,180.592 C203.12536,180.592 202.52236,179.218 203.96136,178.311 C204.22936,178.142 204.60936,178 204.60936,178 C204.60936,178 205.99336,179.095 205.25036,179.607 C204.33736,180.237 203.12536,180.592 203.12536,180.592"/>
    <path fill="#FFF" d="M209.435086,173 C209.435086,173 211.315086,174.652 209.511086,176.128 C208.741086,176.758 207.846086,176.797 207.846086,176.797 C207.846086,176.797 206.520086,175.38 207.188086,174.76 C208.356086,173.678 209.435086,173 209.435086,173"/>
    <path stroke="#52267D" d="M209.435086,173 C209.435086,173 211.315086,174.652 209.511086,176.128 C208.741086,176.758 207.846086,176.797 207.846086,176.797 C207.846086,176.797 206.520086,175.38 207.188086,174.76 C208.356086,173.678 209.435086,173 209.435086,173 Z"/>
    <path fill="#F3E3FF" d="M209.077789,175 C209.077789,175 209.910789,175.731 209.111789,176.385 C208.770789,176.665 208.374789,176.682 208.374789,176.682 C208.374789,176.682 207.786789,176.054 208.083789,175.78 C208.599789,175.3 209.077789,175 209.077789,175"/>
    <path fill="#FFF" d="M193.070895,182.511034 C193.070895,182.511034 192.450895,180.306034 194.877895,179.431034 C197.303895,178.556034 197.955895,179.284034 197.955895,179.284034 C197.955895,179.284034 199.298895,181.543034 198.098895,182.270034 C196.898895,182.997034 193.070895,182.511034 193.070895,182.511034"/>
    <path stroke="#52267D" d="M193.070895,182.511034 C193.070895,182.511034 192.450895,180.306034 194.877895,179.431034 C197.303895,178.556034 197.955895,179.284034 197.955895,179.284034 C197.955895,179.284034 199.298895,181.543034 198.098895,182.270034 C196.898895,182.997034 193.070895,182.511034 193.070895,182.511034 Z"/>
    <path fill="#F3E3FF" d="M194.036799,182.825998 C194.036799,182.825998 193.714799,181.679998 194.975799,181.223998 C196.237799,180.768998 196.577799,181.147998 196.577799,181.147998 C196.577799,181.147998 197.274799,182.322998 196.651799,182.700998 C196.027799,183.078998 194.036799,182.825998 194.036799,182.825998"/>
    <path fill="#FFF" d="M149.752,132 C149.752,132 153.626,134.19 159.071,132.213 C158.697,133.902 157.936,137.297 157.936,137.297 C157.936,137.297 152.891,138.843 149,136.395 C149.398,134.154 149.752,132 149.752,132"/>
    <path stroke="#52267D" stroke-width=".5" d="M149.752,132 C149.752,132 153.626,134.19 159.071,132.213 C158.697,133.902 157.936,137.297 157.936,137.297 C157.936,137.297 152.891,138.843 149,136.395 C149.398,134.154 149.752,132 149.752,132 Z"/>
    <path fill="#FFF" d="M179.175684,121.882 C179.175684,121.882 178.999684,120.025 177.154684,119.286 C176.590684,119.061 175.070684,119 175.070684,119 C175.070684,119 174.643684,120.967 175.888684,121.554 C177.681684,122.397 179.175684,121.882 179.175684,121.882"/>
    <path stroke="#52267D" stroke-width=".5" d="M179.175684,121.882 C179.175684,121.882 178.999684,120.025 177.154684,119.286 C176.590684,119.061 175.070684,119 175.070684,119 C175.070684,119 174.643684,120.967 175.888684,121.554 C177.681684,122.397 179.175684,121.882 179.175684,121.882 Z"/>
    <path fill="#FFF" d="M173.665691,120.935792 C173.665691,120.935792 173.612691,118.404792 170.765691,118.035792 C170.234691,117.966792 169.552691,118.018792 169.552691,118.018792 C169.552691,118.018792 168.209691,120.678792 169.710691,120.935792 C171.556691,121.251792 173.665691,120.935792 173.665691,120.935792"/>
    <path stroke="#52267D" stroke-width=".5" d="M173.665691,120.935792 C173.665691,120.935792 173.612691,118.404792 170.765691,118.035792 C170.234691,117.966792 169.552691,118.018792 169.552691,118.018792 C169.552691,118.018792 168.209691,120.678792 169.710691,120.935792 C171.556691,121.251792 173.665691,120.935792 173.665691,120.935792 Z"/>
    <path fill="#FFF" d="M168.594,121.116974 C168.594,121.116974 168.148,118.319974 165.647,119.155974 C164.577,119.512974 164,120.345974 164,120.345974 C164,120.345974 164.557,122.470974 165.554,122.204974 C167.294,121.740974 168.594,121.116974 168.594,121.116974"/>
    <path stroke="#52267D" stroke-width=".5" d="M168.594,121.116974 C168.594,121.116974 168.148,118.319974 165.647,119.155974 C164.577,119.512974 164,120.345974 164,120.345974 C164,120.345974 164.557,122.470974 165.554,122.204974 C167.294,121.740974 168.594,121.116974 168.594,121.116974 Z"/>
    <path fill="#F3E3FF" d="M143 116.509999C143 116.509999 143.099 115.467999 144.134 115.053999 144.45 114.927999 144.944 115.061999 144.944 115.061999 144.944 115.061999 145.543 115.996999 144.844 116.325999 143.838 116.798999 143 116.509999 143 116.509999M147 116.213259C147 116.213259 147.04 114.305259 149.187 114.026259 149.587 113.975259 150.101 114.014259 150.101 114.014259 150.101 114.014259 151.112 116.019259 149.981 116.213259 148.59 116.451259 147 116.213259 147 116.213259M153 116.336534C153 116.336534 153.282 114.570534 154.861 115.098534 155.536 115.323534 155.901 115.850534 155.901 115.850534 155.901 115.850534 155.55 117.191534 154.92 117.023534 153.821 116.730534 153 116.336534 153 116.336534M178.327393 121.605C178.327393 121.605 178.228393 120.57 177.200393 120.159 176.887393 120.033 176.039393 120 176.039393 120 176.039393 120 175.801393 121.096 176.495393 121.422 177.494393 121.893 178.327393 121.605 178.327393 121.605M172.70305 120.700454C172.70305 120.700454 172.67305 119.234454 171.02305 119.020454 170.71605 118.980454 170.32005 119.011454 170.32005 119.011454 170.32005 119.011454 169.54205 120.551454 170.41205 120.700454 171.48105 120.884454 172.70305 120.700454 172.70305 120.700454M167.717 121.252109C167.717 121.252109 167.453 119.598109 165.974 120.092109 165.342 120.303109 165 120.796109 165 120.796109 165 120.796109 165.329 122.052109 165.919 121.895109 166.948 121.621109 167.717 121.252109 167.717 121.252109"/>
    <path fill="#FFF" d="M161,136.372 C161,136.372 165.797,137.12 170.358,136 C170.803,138.479 171.088,140.351 171.088,140.351 C171.088,140.351 167.925,142.499 162.08,141.253 C161.391,138.069 161,136.372 161,136.372"/>
    <path stroke="#52267D" stroke-width=".5" d="M161,136.372 C161,136.372 165.797,137.12 170.358,136 C170.803,138.479 171.088,140.351 171.088,140.351 C171.088,140.351 167.925,142.499 162.08,141.253 C161.391,138.069 161,136.372 161,136.372 Z"/>
    <path fill="#F3E3FF" d="M168.282,131.966 L174.928,131.966 L174.928,129.101 C174.928,127.941 173.988,127 172.827,127 L168.282,127 C167.574,127 167,127.574 167,128.282 L167,130.684 C167,131.392 167.574,131.966 168.282,131.966"/>
    <path fill="#FFF" d="M169.007,131.902 L174.844,131.902 L174.844,130.015 C174.844,128.902 173.942,128 172.829,128 L169.007,128 C168.451,128 168,128.451 168,129.007 L168,130.895 C168,131.451 168.451,131.902 169.007,131.902"/>
    <path stroke="#52267D" stroke-width=".5" d="M169.007,131.902 L174.844,131.902 L174.844,130.015 C174.844,128.902 173.942,128 172.829,128 L169.007,128 C168.451,128 168,128.451 168,129.007 L168,130.895 C168,131.451 168.451,131.902 169.007,131.902 Z"/>
    <path fill="#52267D" d="M174.18,130.09 C174.18,130.692 173.692,131.18 173.09,131.18 C172.489,131.18 172,130.692 172,130.09 C172,129.488 172.489,129 173.09,129 C173.692,129 174.18,129.488 174.18,130.09"/>
    <path fill="#F3E3FF" d="M151.646,126.966 L145,126.966 L145,124.101 C145,122.941 145.941,122 147.101,122 L151.646,122 C152.355,122 152.928,122.574 152.928,123.282 L152.928,125.684 C152.928,126.392 152.355,126.966 151.646,126.966"/>
    <path fill="#FFF" d="M150.836,126.901 L145,126.901 L145,125.014 C145,123.901 145.901,123 147.015,123 L150.836,123 C151.393,123 151.844,123.45 151.844,124.007 L151.844,125.894 C151.844,126.45 151.393,126.901 150.836,126.901"/>
    <path stroke="#52267D" stroke-width=".5" d="M150.836,126.901 L145,126.901 L145,125.014 C145,123.901 145.901,123 147.015,123 L150.836,123 C151.393,123 151.844,123.45 151.844,124.007 L151.844,125.894 C151.844,126.45 151.393,126.901 150.836,126.901 Z"/>
    <path fill="#52267D" d="M146 126.089C146 126.691 146.488 127.179 147.09 127.179 147.691 127.179 148.18 126.691 148.18 126.089 148.18 125.487 147.691 125 147.09 125 146.488 125 146 125.487 146 126.089M181.149 132.945C180.839 132.879 180.562 132.707 180.365 132.459L180 132 180.813 132.174 181.293 132.277C181.477 132.317 181.594 132.498 181.554 132.683 181.515 132.867 181.334 132.985 181.149 132.945M139.413496 127.946C139.723496 127.88 140.000496 127.708 140.197496 127.46L140.561496 127 139.749496 127.175 139.269496 127.278C139.085496 127.317 138.968496 127.499 139.007496 127.683 139.047496 127.868 139.228496 127.986 139.413496 127.946"/>
    <path fill="#E1F2FF" d="M150,132 C150,132 154.059,133.729 158.152,132.149 C157.724,134.55 157.341,135.776 157.341,135.776 C157.341,135.776 154.878,135.921 153.247,135.6 C150.918,135.141 150,134.082 150,132"/>
    <path fill="#FFF" d="M156.0747,135.1645 C156.0747,135.1645 152.3827,135.4725 149.5227,133.9905"/>
    <path stroke="#52267D" stroke-width=".5" d="M156.0747,135.1645 C156.0747,135.1645 152.3827,135.4725 149.5227,133.9905"/>
    <path fill="#E1F2FF" d="M168.775,137 C168.775,137 165.175,138.023 162,137.388 C162.599,139.752 162.918,140.494 162.918,140.494 C162.918,140.494 167.681,139.858 168.775,137"/>
    <path fill="#F3E3FF" d="M167.2066,170.2948 C167.2066,170.2948 166.9886,170.4518 166.6806,170.6378"/>
    <path stroke="#52267D" stroke-width=".5" d="M167.2066,170.2948 C167.2066,170.2948 166.9886,170.4518 166.6806,170.6378"/>
    <path fill="#FFF" d="M169.4859,138.0771 C169.4859,138.0771 165.8619,138.7641 162.0149,138.3051"/>
    <path stroke="#52267D" stroke-width=".5" d="M169.4859,138.0771 C169.4859,138.0771 165.8619,138.7641 162.0149,138.3051"/>
    <path fill="#FFF" d="M162.915608,213.280803 C162.915608,213.280803 161.954608,212.497803 160.676608,213.546803 C159.509608,214.505803 158.631608,215.987803 159.154608,216.135803 C159.678608,216.284803 160.599608,216.429803 161.565608,216.252803 C162.407608,216.097803 163.150608,216.260803 163.488608,214.499803 C163.645608,213.678803 162.915608,213.280803 162.915608,213.280803"/>
    <path stroke="#52267D" stroke-width=".5" d="M162.915608,213.280803 C162.915608,213.280803 161.954608,212.497803 160.676608,213.546803 C159.509608,214.505803 158.631608,215.987803 159.154608,216.135803 C159.678608,216.284803 160.599608,216.429803 161.565608,216.252803 C162.407608,216.097803 163.150608,216.260803 163.488608,214.499803 C163.645608,213.678803 162.915608,213.280803 162.915608,213.280803 Z"/>
    <path fill="#E1F2FF" d="M163.436928,213.174962 C163.436928,213.174962 162.837928,212.686962 162.042928,213.340962 C161.317928,213.936962 160.770928,214.858962 161.095928,214.951962 C161.421928,215.043962 161.995928,215.133962 162.596928,215.023962 C163.120928,214.927962 163.582928,215.028962 163.792928,213.932962 C163.890928,213.422962 163.436928,213.174962 163.436928,213.174962"/>
    <path fill="#FFF" d="M165.152089,213.003011 C165.660089,212.935011 166.391089,214.038011 166.307089,214.375011 C166.224089,214.711011 166.166089,215.821011 165.344089,215.941011 C164.739089,216.031011 162.580089,216.255011 162.108089,215.786011 C161.673089,215.354011 162.524089,213.355011 165.152089,213.003011"/>
    <path stroke="#52267D" stroke-width=".5" d="M165.152089,213.003011 C165.660089,212.935011 166.391089,214.038011 166.307089,214.375011 C166.224089,214.711011 166.166089,215.821011 165.344089,215.941011 C164.739089,216.031011 162.580089,216.255011 162.108089,215.786011 C161.673089,215.354011 162.524089,213.355011 165.152089,213.003011 Z"/>
    <path fill="#E1F2FF" d="M164.860507,213.001765 C165.160507,212.961765 165.590507,213.612765 165.542507,213.810765 C165.492507,214.009765 165.458507,214.664765 164.973507,214.735765 C164.616507,214.788765 163.341507,214.920765 163.063507,214.644765 C162.807507,214.388765 163.309507,213.209765 164.860507,213.001765"/>
    <path fill="#FFF" d="M166.967549,213.05267 C166.967549,213.05267 166.529549,212.82367 165.659549,213.32067 C164.893549,213.75967 163.747549,214.46067 164.049549,215.33367 C164.350549,216.20567 166.775549,215.88067 167.314549,215.69667 C167.853549,215.51167 168.191549,214.92567 168.095549,214.41167 C167.888549,213.29167 166.967549,213.05267 166.967549,213.05267"/>
    <path stroke="#52267D" stroke-width=".5" d="M166.967549,213.05267 C166.967549,213.05267 166.529549,212.82367 165.659549,213.32067 C164.893549,213.75967 163.747549,214.46067 164.049549,215.33367 C164.350549,216.20567 166.775549,215.88067 167.314549,215.69667 C167.853549,215.51167 168.191549,214.92567 168.095549,214.41167 C167.888549,213.29167 166.967549,213.05267 166.967549,213.05267 Z"/>
    <path fill="#E1F2FF" d="M166.758111,213.030939 C166.758111,213.030939 166.498111,212.895939 165.984111,213.189939 C165.529111,213.449939 164.851111,213.864939 165.029111,214.381939 C165.208111,214.897939 166.644111,214.705939 166.963111,214.596939 C167.282111,214.487939 167.483111,214.139939 167.426111,213.835939 C167.303111,213.172939 166.758111,213.030939 166.758111,213.030939"/>
    <path fill="#9452BA" d="M156.9224,185.0111 C156.9224,185.0111 157.4164,190.6291 155.9874,199.4591 C154.6584,207.6781 152.3014,210.2571 152.4744,212.3881 C152.6094,214.0381 153.3054,215.5501 154.9614,215.5501 L159.9014,215.5501 C162.2084,215.5501 164.2424,214.0771 164.9844,211.8931 C165.5814,210.1341 166.2024,207.7411 166.5734,204.7151 C166.9534,200.5981 166.8714,196.4701 166.8034,194.0461"/>
    <path stroke="#52267D" d="M156.9224,185.0111 C156.9224,185.0111 157.4164,190.6291 155.9874,199.4591 C154.6584,207.6781 152.3014,210.2571 152.4744,212.3881 C152.6094,214.0381 153.3054,215.5501 154.9614,215.5501 L159.9014,215.5501 C162.2084,215.5501 164.2424,214.0771 164.9844,211.8931 C165.5814,210.1341 166.2024,207.7411 166.5734,204.7151 C166.9534,200.5981 166.8714,196.4701 166.8034,194.0461"/>
    <path fill="#9452BA" d="M182.2544,188.7274 C180.6174,190.1364 179.7694,192.4424 179.7814,194.5624 C179.7994,197.3924 181.4414,200.9944 180.4004,205.6974 C179.4734,209.8864 177.6274,210.6254 178.1834,214.3834 C178.2834,215.0624 178.8934,215.5504 179.5784,215.5504 L185.0844,215.5504 C187.6174,215.5504 189.7874,213.7124 190.2014,211.2134 C191.3084,204.5384 190.4634,198.2374 189.5734,193.4024"/>
    <path stroke="#52267D" d="M182.2544,188.7274 C180.6174,190.1364 179.7694,192.4424 179.7814,194.5624 C179.7994,197.3924 181.4414,200.9944 180.4004,205.6974 C179.4734,209.8864 177.6274,210.6254 178.1834,214.3834 C178.2834,215.0624 178.8934,215.5504 179.5784,215.5504 L185.0844,215.5504 C187.6174,215.5504 189.7874,213.7124 190.2014,211.2134 C191.3084,204.5384 190.4634,198.2374 189.5734,193.4024"/>
    <polyline stroke="#52267D" stroke-width=".25" points="183.191 195.106 183.514 194.874 184.561 195.108 183.399 195.851 182 195.161 183.453 194 184.114 194.221"/>
    <path fill="#FFF" d="M152.9156,213.280803 C152.9156,213.280803 151.9546,212.497803 150.6776,213.546803 C149.5096,214.505803 148.6316,215.987803 149.1546,216.135803 C149.6786,216.284803 150.5996,216.429803 151.5656,216.252803 C152.4076,216.097803 153.1506,216.260803 153.4886,214.499803 C153.6456,213.678803 152.9156,213.280803 152.9156,213.280803"/>
    <path stroke="#52267D" stroke-width=".5" d="M152.9156,213.280803 C152.9156,213.280803 151.9546,212.497803 150.6776,213.546803 C149.5096,214.505803 148.6316,215.987803 149.1546,216.135803 C149.6786,216.284803 150.5996,216.429803 151.5656,216.252803 C152.4076,216.097803 153.1506,216.260803 153.4886,214.499803 C153.6456,213.678803 152.9156,213.280803 152.9156,213.280803 Z"/>
    <path fill="#E1F2FF" d="M153.436422,213.174962 C153.436422,213.174962 152.837422,212.686962 152.042422,213.340962 C151.317422,213.936962 150.770422,214.858962 151.096422,214.951962 C151.421422,215.043962 151.995422,215.133962 152.596422,215.023962 C153.120422,214.927962 153.582422,215.028962 153.792422,213.932962 C153.890422,213.422962 153.436422,213.174962 153.436422,213.174962"/>
    <polyline stroke="#52267D" stroke-width=".25" points="160.968 198 159 198.614 159.261 200.437 161.277 200.584 162.215 199.499 161.008 198.83 160.01 199.12 160.645 199.825"/>
    <path stroke="#F3E3FF" stroke-width=".25" d="M118.9404,138.037 C118.9404,138.333 119.1804,138.573 119.4764,138.573 C119.7724,138.573 120.0114,138.333 120.0114,138.037"/>
    <path stroke="#F3E3FF" stroke-width=".25" d="M117.8687,138.037 C117.8687,138.333 118.1087,138.573 118.4047,138.573 C118.7007,138.573 118.9407,138.333 118.9407,138.037"/>
    <path stroke="#F3E3FF" stroke-width=".25" d="M118.4043 138.5727C118.4043 138.8687 118.6443 139.1087 118.9403 139.1087 119.2363 139.1087 119.4763 138.8687 119.4763 138.5727M139.4702 137.5351C139.8412 137.7651 140.3272 137.6521 140.5582 137.2811 140.7882 136.9101 140.6742 136.4241 140.3042 136.1941M139.7241 138.6225C140.0951 138.8525 140.5811 138.7395 140.8121 138.3685 141.0421 137.9975 140.9281 137.5115 140.5581 137.2815M164.898 155.5351C164.898 155.9321 165.22 156.2541 165.617 156.2541 166.013 156.2541 166.335 155.9321 166.335 155.5351M163.4605 155.5351C163.4605 155.9321 163.7825 156.2541 164.1795 156.2541 164.5765 156.2541 164.8975 155.9321 164.8975 155.5351"/>
    <path stroke="#F3E3FF" stroke-width=".25" d="M164.1792 156.2538C164.1792 156.6508 164.5012 156.9728 164.8982 156.9728 165.2942 156.9728 165.6162 156.6508 165.6162 156.2538M143.4341 201.0663C143.4341 201.4633 143.7551 201.7853 144.1521 201.7853 144.5491 201.7853 144.8711 201.4633 144.8711 201.0663M141.9966 201.0663C141.9966 201.4633 142.3176 201.7853 142.7156 201.7853 143.1116 201.7853 143.4336 201.4633 143.4336 201.0663"/>
    <path stroke="#F3E3FF" stroke-width=".25" d="M142.7153 201.7851C142.7153 202.1821 143.0363 202.5041 143.4343 202.5041 143.8303 202.5041 144.1523 202.1821 144.1523 201.7851M163.7847 132.6303C163.7847 133.0673 164.1387 133.4203 164.5737 133.4203 165.0107 133.4203 165.3637 133.0673 165.3637 132.6303M162.9946 133.4203C162.9946 133.8563 163.3486 134.2103 163.7846 134.2103 164.2206 134.2103 164.5736 133.8563 164.5736 133.4203M153.6909 146.5771C153.6909 147.1071 154.1209 147.5361 154.6499 147.5361 155.1799 147.5361 155.6099 147.1071 155.6099 146.5771M152.731 147.5365C152.731 148.0665 153.161 148.4955 153.691 148.4955 154.22 148.4955 154.65 148.0665 154.65 147.5365M139.7534 122.7201C139.7534 123.0741 140.0404 123.3621 140.3954 123.3621 140.7494 123.3621 141.0364 123.0741 141.0364 122.7201M139.1109 123.3622C139.1109 123.7162 139.3989 124.0042 139.7539 124.0042 140.1079 124.0042 140.3949 123.7162 140.3949 123.3622M200.1568 187.4252C200.4218 187.7362 200.8868 187.7752 201.1988 187.5112 201.5108 187.2472 201.5488 186.7812 201.2848 186.4692"/>
    <path stroke="#F3E3FF" stroke-width=".25" d="M200.0708 188.4662C200.3348 188.7782 200.8008 188.8162 201.1128 188.5522 201.4238 188.2892 201.4628 187.8222 201.1988 187.5112M170.7886 177.2235C170.9866 177.6595 171.5016 177.8515 171.9366 177.6525 172.3726 177.4535 172.5636 176.9395 172.3656 176.5045M169.2114 177.9433C169.4094 178.3793 169.9244 178.5703 170.3594 178.3723 170.7954 178.1733 170.9864 177.6593 170.7884 177.2233"/>
    <path stroke="#F3E3FF" stroke-width=".25" d="M170.3599,178.372 C170.5579,178.808 171.0719,178.999 171.5069,178.801 C171.9429,178.602 172.1349,178.088 171.9369,177.653"/>
    <path stroke="#F3E3FF" stroke-width=".25" d="M168.7818 179.0912C168.9808 179.5272 169.4948 179.7192 169.9298 179.5202 170.3658 179.3212 170.5578 178.8072 170.3598 178.3722M171.5073 178.8012C171.7063 179.2372 172.2203 179.4282 172.6553 179.2302 173.0913 179.0312 173.2833 178.5172 173.0853 178.0812M155.6948 129.2079C155.6948 129.6909 156.0868 130.0829 156.5688 130.0829 157.0518 130.0829 157.4438 129.6909 157.4438 129.2079M155.3911 162.2602C155.3911 162.7432 155.7831 163.1352 156.2661 163.1352 156.7491 163.1352 157.1411 162.7432 157.1411 162.2602M165.3042 144.0404C165.3042 144.4064 165.6012 144.7034 165.9662 144.7034 166.3322 144.7034 166.6292 144.4064 166.6292 144.0404M181.0825 128.9833C181.0825 129.2573 181.3055 129.4803 181.5795 129.4803 181.8545 129.4803 182.0775 129.2573 182.0775 128.9833M185.2193 202.0844C185.3023 202.5604 185.7553 202.8794 186.2313 202.7964 186.7063 202.7134 187.0263 202.2614 186.9433 201.7854M161.0581 208.5268C161.0581 209.0568 161.4881 209.4858 162.0181 209.4858 162.5471 209.4858 162.9771 209.0568 162.9771 208.5268M160.0991 209.4862C160.0991 210.0162 160.5291 210.4452 161.0581 210.4452 161.5881 210.4452 162.0181 210.0162 162.0181 209.4862"/>
    <path fill="#FFF" d="M155.152089,213.003011 C155.660089,212.935011 156.391089,214.038011 156.307089,214.375011 C156.224089,214.711011 156.166089,215.821011 155.344089,215.941011 C154.739089,216.031011 152.580089,216.255011 152.108089,215.786011 C151.673089,215.354011 152.524089,213.355011 155.152089,213.003011"/>
    <path stroke="#52267D" stroke-width=".5" d="M155.152089,213.003011 C155.660089,212.935011 156.391089,214.038011 156.307089,214.375011 C156.224089,214.711011 156.166089,215.821011 155.344089,215.941011 C154.739089,216.031011 152.580089,216.255011 152.108089,215.786011 C151.673089,215.354011 152.524089,213.355011 155.152089,213.003011 Z"/>
    <path fill="#E1F2FF" d="M154.859923,213.001765 C155.159923,212.961765 155.589923,213.612765 155.541923,213.810765 C155.492923,214.009765 155.457923,214.664765 154.972923,214.735765 C154.615923,214.788765 153.340923,214.920765 153.063923,214.644765 C152.806923,214.388765 153.308923,213.209765 154.859923,213.001765"/>
    <path fill="#FFF" d="M156.623811,213.046753 C156.623811,213.046753 156.235811,212.843753 155.468811,213.283753 C154.789811,213.671753 153.776811,214.292753 154.043811,215.063753 C154.310811,215.834753 156.453811,215.547753 156.930811,215.384753 C157.406811,215.221753 157.706811,214.702753 157.621811,214.248753 C157.437811,213.257753 156.623811,213.046753 156.623811,213.046753"/>
    <path stroke="#52267D" stroke-width=".5" d="M156.623811,213.046753 C156.623811,213.046753 156.235811,212.843753 155.468811,213.283753 C154.789811,213.671753 153.776811,214.292753 154.043811,215.063753 C154.310811,215.834753 156.453811,215.547753 156.930811,215.384753 C157.406811,215.221753 157.706811,214.702753 157.621811,214.248753 C157.437811,213.257753 156.623811,213.046753 156.623811,213.046753 Z"/>
    <path fill="#E1F2FF" d="M156.554207,214.027538 C156.554207,214.027538 156.325207,213.907538 155.869207,214.168538 C155.467207,214.398538 154.867207,214.765538 155.026207,215.221538 C155.183207,215.678538 156.452207,215.508538 156.735207,215.412538 C157.017207,215.315538 157.195207,215.008538 157.145207,214.739538 C157.035207,214.152538 156.554207,214.027538 156.554207,214.027538"/>
    <path fill="#FFF" d="M136.624777,214.046753 C136.624777,214.046753 136.236777,213.843753 135.468777,214.283753 C134.790777,214.671753 133.776777,215.292753 134.043777,216.063753 C134.310777,216.834753 136.454777,216.547753 136.931777,216.384753 C137.407777,216.221753 137.706777,215.702753 137.622777,215.248753 C137.438777,214.257753 136.624777,214.046753 136.624777,214.046753"/>
    <path stroke="#52267D" stroke-width=".5" d="M136.624777,214.046753 C136.624777,214.046753 136.236777,213.843753 135.468777,214.283753 C134.790777,214.671753 133.776777,215.292753 134.043777,216.063753 C134.310777,216.834753 136.454777,216.547753 136.931777,216.384753 C137.407777,216.221753 137.706777,215.702753 137.622777,215.248753 C137.438777,214.257753 136.624777,214.046753 136.624777,214.046753 Z"/>
    <path fill="#E1F2FF" d="M136.553207,214.027538 C136.553207,214.027538 136.324207,213.907538 135.869207,214.168538 C135.467207,214.398538 134.867207,214.765538 135.026207,215.221538 C135.183207,215.678538 136.452207,215.508538 136.735207,215.412538 C137.017207,215.315538 137.195207,215.008538 137.145207,214.739538 C137.035207,214.152538 136.553207,214.027538 136.553207,214.027538"/>
    <path fill="#FFF" d="M138.152089,213.003011 C138.660089,212.935011 139.391089,214.038011 139.307089,214.375011 C139.224089,214.711011 139.166089,215.821011 138.344089,215.941011 C137.739089,216.031011 135.580089,216.255011 135.108089,215.786011 C134.673089,215.354011 135.524089,213.355011 138.152089,213.003011"/>
    <path stroke="#52267D" stroke-width=".5" d="M138.152089,213.003011 C138.660089,212.935011 139.391089,214.038011 139.307089,214.375011 C139.224089,214.711011 139.166089,215.821011 138.344089,215.941011 C137.739089,216.031011 135.580089,216.255011 135.108089,215.786011 C134.673089,215.354011 135.524089,213.355011 138.152089,213.003011 Z"/>
    <path fill="#E1F2FF" d="M138.859923,214.001765 C139.159923,213.961765 139.589923,214.612765 139.541923,214.810765 C139.491923,215.009765 139.457923,215.664765 138.972923,215.735765 C138.615923,215.788765 137.340923,215.920765 137.063923,215.644765 C136.806923,215.388765 137.308923,214.209765 138.859923,214.001765"/>
    <path fill="#FFF" d="M179.915114,213.280803 C179.915114,213.280803 178.954114,212.497803 177.677114,213.546803 C176.510114,214.505803 175.632114,215.987803 176.154114,216.135803 C176.678114,216.284803 177.599114,216.429803 178.565114,216.252803 C179.407114,216.097803 180.150114,216.260803 180.488114,214.499803 C180.645114,213.678803 179.915114,213.280803 179.915114,213.280803"/>
    <path stroke="#52267D" stroke-width=".5" d="M179.915114,213.280803 C179.915114,213.280803 178.954114,212.497803 177.677114,213.546803 C176.510114,214.505803 175.632114,215.987803 176.154114,216.135803 C176.678114,216.284803 177.599114,216.429803 178.565114,216.252803 C179.407114,216.097803 180.150114,216.260803 180.488114,214.499803 C180.645114,213.678803 179.915114,213.280803 179.915114,213.280803 Z"/>
    <path fill="#E1F2FF" d="M179.436413,213.174962 C179.436413,213.174962 178.838413,212.686962 178.043413,213.340962 C177.317413,213.936962 176.770413,214.858962 177.096413,214.951962 C177.421413,215.043962 177.995413,215.133962 178.596413,215.023962 C179.120413,214.927962 179.582413,215.028962 179.792413,213.932962 C179.890413,213.422962 179.436413,213.174962 179.436413,213.174962"/>
    <path fill="#FFF" d="M181.152022,213.003011 C181.660022,212.935011 182.391022,214.038011 182.307022,214.375011 C182.224022,214.711011 182.167022,215.821011 181.344022,215.941011 C180.739022,216.031011 178.580022,216.255011 178.108022,215.786011 C177.673022,215.354011 178.525022,213.355011 181.152022,213.003011"/>
    <path stroke="#52267D" stroke-width=".5" d="M181.152022,213.003011 C181.660022,212.935011 182.391022,214.038011 182.307022,214.375011 C182.224022,214.711011 182.167022,215.821011 181.344022,215.941011 C180.739022,216.031011 178.580022,216.255011 178.108022,215.786011 C177.673022,215.354011 178.525022,213.355011 181.152022,213.003011 Z"/>
    <path fill="#E1F2FF" d="M181.859923,213.001765 C182.159923,212.961765 182.590923,213.612765 182.541923,213.810765 C182.492923,214.009765 182.458923,214.664765 181.972923,214.735765 C181.615923,214.788765 180.341923,214.920765 180.063923,214.644765 C179.806923,214.388765 180.308923,213.209765 181.859923,213.001765"/>
    <path fill="#FFF" d="M183.624811,213.046753 C183.624811,213.046753 183.235811,212.843753 182.468811,213.283753 C181.789811,213.671753 180.776811,214.292753 181.043811,215.063753 C181.310811,215.834753 183.453811,215.547753 183.930811,215.384753 C184.406811,215.221753 184.706811,214.702753 184.622811,214.248753 C184.438811,213.257753 183.624811,213.046753 183.624811,213.046753"/>
    <path stroke="#52267D" stroke-width=".5" d="M183.624811,213.046753 C183.624811,213.046753 183.235811,212.843753 182.468811,213.283753 C181.789811,213.671753 180.776811,214.292753 181.043811,215.063753 C181.310811,215.834753 183.453811,215.547753 183.930811,215.384753 C184.406811,215.221753 184.706811,214.702753 184.622811,214.248753 C184.438811,213.257753 183.624811,213.046753 183.624811,213.046753 Z"/>
    <path fill="#E1F2FF" d="M183.554173,214.027538 C183.554173,214.027538 183.325173,213.907538 182.869173,214.168538 C182.468173,214.398538 181.867173,214.765538 182.026173,215.221538 C182.184173,215.678538 183.453173,215.508538 183.736173,215.412538 C184.018173,215.315538 184.195173,215.008538 184.145173,214.739538 C184.036173,214.152538 183.554173,214.027538 183.554173,214.027538"/>
    <path fill="#FFF" d="M145.748494,214.134824 C145.907494,214.000824 146.097494,213.963824 146.254494,214.036824 C146.837494,214.312824 148.311494,215.094824 148.006494,216.153824 C147.769494,216.977824 147.266494,216.729824 146.303494,216.747824 L145.576494,216.760824 C145.426494,216.763824 145.293494,216.686824 145.210494,216.548824 C144.792494,215.849824 145.018494,214.751824 145.698494,214.176824 L145.748494,214.134824 Z"/>
    <path stroke="#52267D" stroke-width=".5" d="M145.748494,214.134824 C145.907494,214.000824 146.097494,213.963824 146.254494,214.036824 C146.837494,214.312824 148.311494,215.094824 148.006494,216.153824 C147.769494,216.977824 147.266494,216.729824 146.303494,216.747824 L145.576494,216.760824 C145.426494,216.763824 145.293494,216.686824 145.210494,216.548824 C144.792494,215.849824 145.018494,214.751824 145.698494,214.176824 L145.748494,214.134824 Z"/>
    <path fill="#E1F2FF" d="M145.543936,214.098382 C145.658936,214.000382 145.797936,213.973382 145.910936,214.027382 C146.334936,214.227382 147.405936,214.795382 147.184936,215.565382 C147.012936,216.164382 146.646936,215.984382 145.946936,215.996382 L145.418936,216.006382 C145.309936,216.008382 145.212936,215.952382 145.152936,215.851382 C144.848936,215.344382 145.013936,214.546382 145.507936,214.129382 L145.543936,214.098382 Z"/>
    <path fill="#FFF" d="M142.124583,213.36182 C142.124583,213.36182 141.232583,212.49982 139.871583,213.43682 C138.626583,214.29382 137.626583,215.69482 138.135583,215.88782 C138.643583,216.08082 139.548583,216.30282 140.527583,216.20882 C141.378583,216.12582 142.105583,216.35082 142.592583,214.62482 C142.817583,213.82082 142.124583,213.36182 142.124583,213.36182"/>
    <path stroke="#52267D" stroke-width=".5" d="M142.124583,213.36182 C142.124583,213.36182 141.232583,212.49982 139.871583,213.43682 C138.626583,214.29382 137.626583,215.69482 138.135583,215.88782 C138.643583,216.08082 139.548583,216.30282 140.527583,216.20882 C141.378583,216.12582 142.105583,216.35082 142.592583,214.62482 C142.817583,213.82082 142.124583,213.36182 142.124583,213.36182 Z"/>
    <path fill="#E1F2FF" d="M141.566878,213.225327 C141.566878,213.225327 141.011878,212.688327 140.164878,213.272327 C139.389878,213.805327 138.766878,214.677327 139.084878,214.797327 C139.400878,214.916327 139.962878,215.055327 140.572878,214.996327 C141.102878,214.945327 141.554878,215.085327 141.857878,214.011327 C141.998878,213.511327 141.566878,213.225327 141.566878,213.225327"/>
    <path fill="#FFF" d="M63.255,217.533 C62.01,217.533 61,216.523 61,215.278 L61,33.255 C61,32.01 62.01,31 63.255,31 L187.389,31 C188.634,31 189.644,32.01 189.644,33.255 L189.644,215.278 C189.644,216.523 188.634,217.533 187.389,217.533 L63.255,217.533 Z"/>
    <path stroke="#5E63B6" stroke-width="2" d="M188.389,216.533 L64.255,216.533 C63.01,216.533 62,215.523 62,214.278 L62,32.255 C62,31.01 63.01,30 64.255,30 L188.389,30 C189.634,30 190.644,31.01 190.644,32.255 L190.644,214.278 C190.644,215.523 189.634,216.533 188.389,216.533 Z"/>
    <path fill="#E1F2FF" d="M147.465,88.732 C147.465,102.391 136.392,113.464 122.733,113.464 C109.073,113.464 98,102.391 98,88.732 C98,75.073 109.073,64 122.733,64 C136.392,64 147.465,75.073 147.465,88.732"/>
    <path fill="#FFF" d="M150.465,83.732 C150.465,97.391 139.392,108.464 125.733,108.464 C112.073,108.464 101,97.391 101,83.732 C101,70.073 112.073,59 125.733,59 C139.392,59 150.465,70.073 150.465,83.732"/>
    <path stroke="#5E63B6" stroke-width="2" d="M150.465,83.732 C150.465,97.391 139.392,108.464 125.733,108.464 C112.073,108.464 101,97.391 101,83.732 C101,70.073 112.073,59 125.733,59 C139.392,59 150.465,70.073 150.465,83.732 Z"/>
    <path fill="#4CA8E0" d="M132.169,96.1782222 C132.273,96.4872222 132.364,96.6972222 132.392,96.7662222 C132.4,96.7732222 132.383,96.7622222 132.392,96.7662222 C132.392,96.7662222 132.392,96.7682222 132.392,96.7662222 C132.393,96.7672222 132.391,96.7662222 132.391,96.7662222 C131.692,90.0262222 135.515,87.2172222 136.743,82.7402222 C136.749,82.6742222 136.762,82.6012222 136.782,82.5192222 C136.808,82.4192222 136.828,82.3162222 136.844,82.2132222 C137.026,80.9742222 136.519,79.5322222 135.558,78.0312222 C135.554,78.0222222 135.547,78.0142222 135.542,78.0072222 C135.464,77.8822222 135.379,77.7572222 135.294,77.6322222 C135.294,77.6322222 135.291,77.6302222 135.29,77.6272222 C135.133,77.3992222 134.964,77.1692222 134.787,76.9382222 C134.769,76.9142222 134.752,76.8892222 134.733,76.8662222 C134.684,76.8032222 134.632,76.7412222 134.584,76.6782222 C134.532,76.6122222 134.482,76.5472222 134.431,76.4842222 C134.377,76.4202222 134.325,76.3582222 134.273,76.2962222 C134.218,76.2302222 134.164,76.1662222 134.108,76.1002222 C134.071,76.0562222 134.03,76.0102222 133.99,75.9642222 C132.48,74.2242222 130.514,72.5062222 128.462,71.0102222 C128.462,71.0102222 128.447,70.9872222 128.462,71.0102222 C128.734,73.5462222 128.768,76.0832222 128.528,78.1122222 C128.238,80.5572222 127.363,83.4042222 126.149,85.9842222 C123.307,85.7512222 120.402,85.0932222 118.137,84.1262222 C116.244,83.3172222 114.074,82.0412222 112,80.5272222 C112.023,80.7382222 112.048,80.9462222 112.072,81.1572222 C112.08,81.2192222 112.089,81.2812222 112.097,81.3442222 C112.117,81.4942222 112.135,81.6432222 112.158,81.7932222 C112.167,81.8622222 112.177,81.9312222 112.188,82.0002222 C112.21,82.1512222 112.232,82.3002222 112.257,82.4492222 C112.266,82.5092222 112.276,82.5712222 112.286,82.6322222 C112.317,82.8212222 112.349,83.0092222 112.384,83.1962222 C112.386,83.2162222 112.388,83.2342222 112.393,83.2522222 C112.431,83.4702222 112.473,83.6862222 112.516,83.9022222 C112.518,83.9192222 112.523,83.9342222 112.526,83.9512222 C112.566,84.1462222 112.605,84.3362222 112.647,84.5282222 C112.656,84.5682222 112.665,84.6062222 112.672,84.6452222 C112.711,84.8202222 112.752,84.9942222 112.793,85.1682222 C112.802,85.2012222 112.811,85.2352222 112.818,85.2702222 C112.868,85.4702222 112.917,85.6702222 112.968,85.8662222 C112.97,85.8672222 112.97,85.8692222 112.97,85.8692222 C113.138,86.5022222 113.322,87.1132222 113.521,87.6992222 C113.523,87.7072222 113.526,87.7132222 113.528,87.7202222 C113.865,88.6992222 114.249,89.6012222 114.678,90.3902222 C114.741,90.5052222 114.805,90.6172222 114.87,90.7272222 C114.873,90.7312222 114.873,90.7362222 114.876,90.7402222 L114.877,90.7412222 C114.936,90.8412222 114.996,90.9392222 115.055,91.0332222 L115.057,91.0352222 C115.057,91.0352222 115.062,91.0422222 115.064,91.0462222 C115.128,91.1492222 115.194,91.2502222 115.261,91.3452222 L115.261,91.3462222 C115.271,91.3602222 115.279,91.3712222 115.29,91.3852222 C115.291,91.3852222 115.289,91.3872222 115.29,91.3882222 C115.377,91.5132222 115.466,91.6342222 115.554,91.7492222 C115.571,91.7682222 115.586,91.7872222 115.599,91.8052222 C115.604,91.8122222 115.61,91.8182222 115.615,91.8272222 C115.717,91.9562222 115.822,92.0812222 115.931,92.1982222 C116.005,92.2812222 116.082,92.3592222 116.159,92.4352222 C116.191,92.4682222 116.226,92.4972222 116.258,92.5282222 C116.306,92.5742222 116.355,92.6162222 116.403,92.6602222 C116.44,92.6922222 116.477,92.7202222 116.515,92.7512222 C116.561,92.7902222 116.609,92.8262222 116.656,92.8642222 C116.693,92.8922222 116.731,92.9182222 116.77,92.9452222 C116.819,92.9802222 116.867,93.0122222 116.916,93.0462222 C116.953,93.0692222 116.992,93.0932222 117.03,93.1162222 C117.083,93.1472222 117.136,93.1752222 117.187,93.2052222 C117.224,93.2252222 117.26,93.2432222 117.296,93.2612222 C117.356,93.2902222 117.416,93.3162222 117.478,93.3422222 C117.506,93.3522222 117.538,93.3692222 117.568,93.3802222 C117.661,93.4172222 117.754,93.4482222 117.847,93.4742222 C117.911,93.4932222 117.964,93.5122222 118.015,93.5322222 C122.515,94.7212222 126.897,92.8372222 132.392,96.7662222"/>
    <polygon fill="#ACD3EF" points="107.126 130.97 104.157 128 96.024 136.134 90.969 131.079 88 134.049 95.998 142.047 96.024 142.021 96.049 142.047"/>
    <path fill="#FFF" d="M113.376,136.5653 L165.283,136.5653"/>
    <path stroke="#5E63B6" stroke-linecap="round" stroke-linejoin="round" stroke-width="2" d="M113.376,136.5653 L165.283,136.5653"/>
    <polygon fill="#ACD3EF" points="107.126 150.97 104.157 148 96.024 156.134 90.969 151.079 88 154.049 95.998 162.047 96.024 162.021 96.049 162.047"/>
    <path fill="#FFF" d="M113.376,157.1239 L165.283,157.1239"/>
    <path stroke="#5E63B6" stroke-linecap="round" stroke-linejoin="round" stroke-width="2" d="M113.376,157.1239 L165.283,157.1239"/>
    <path fill="#FFF" d="M113.376,178.3754 L165.283,178.3754"/>
    <path stroke="#ACD3EF" stroke-linecap="round" stroke-linejoin="round" stroke-width="2" d="M113.376 178.3754L145.283 178.3754M153.3911 178.5L149 178.5"/>
    <path stroke="#5E63B6" stroke-linecap="round" stroke-linejoin="round" stroke-width="2" d="M206.5 63.6029771L206.5 70.6029771M210 67L203 67"/>
    <path stroke="#5E63B6" stroke-linecap="round" d="M43 184L43 187.938M44.938 186L41 186"/>
    <path stroke="#5E63B6" stroke-linecap="round" stroke-linejoin="round" d="M218 124L218 127.938M219.938 126L216 126"/>
    <path stroke="#5E63B6" stroke-linecap="round" d="M49 84L49 87.938M50.938 86L47 86"/>
    <path fill="#FFF" d="M26.4151,121.8085 L26.4151,129.9335"/>
    <path stroke="#5E63B6" stroke-linecap="round" stroke-width="2" d="M26.4151,121.8085 L26.4151,129.9335"/>
    <path fill="#FFF" d="M30.4776,125.871 L22.3526,125.871"/>
    <path stroke="#5E63B6" stroke-linecap="round" stroke-width="2" d="M30.4776,125.871 L22.3526,125.871"/>
    <path fill="#FFF" d="M246.1665,215.683 L253.1405,215.683"/>
    <path stroke="#5E63B6" stroke-linecap="round" stroke-linejoin="round" stroke-width="2" d="M246.1665,215.683 L253.1405,215.683"/>
    <path fill="#FFF" d="M3,215.683 L11.973,215.683"/>
    <path stroke="#5E63B6" stroke-linecap="round" stroke-linejoin="round" stroke-width="2" d="M3,215.683 L11.973,215.683"/>
    <path fill="#FFF" d="M95.3823,224.9999 L162.5683,224.9999"/>
    <path stroke="#5E63B6" stroke-linecap="round" stroke-linejoin="round" stroke-width="2" d="M95.3823,224.9999 L162.5683,224.9999"/>
    <path fill="#FFF" d="M171.187,224.9999 L180.328,224.9999"/>
    <path stroke="#5E63B6" stroke-linecap="round" stroke-linejoin="round" stroke-width="2" d="M171.187,224.9999 L180.328,224.9999"/>
    <path fill="#FFF" d="M87.5,224.9247 L82.5,224.9997"/>
    <path stroke="#5E63B6" stroke-linecap="round" stroke-linejoin="round" stroke-width="2" d="M87.5,224.9247 L82.5,224.9997"/>
    <path stroke="#979797"/>
    <path stroke="#ACD3EF" stroke-linecap="round" stroke-linejoin="round" stroke-width="3" d="M97.3749833,171.4 C101.575136,171.4 103.799553,174.900004 103.799553,177.912736 C103.799553,180.925468 101.575136,183.758 97.3749833,183.758 C93.1748303,183.758 91.6178585,181.225472 91.6178585,177.912736"/>
    <path stroke="#ACD3EF" stroke-linecap="round" stroke-width="3" d="M88.0982466,179.625178 C90.035436,177.714951 91.136758,176.678534 91.4022126,176.515926 C91.6676673,176.353318 93.0761751,176.990111 95.6277362,178.426307"/>
  </g>
</svg>
