<svg xmlns="http://www.w3.org/2000/svg" width="256" height="256" viewBox="0 0 256 256">
  <g fill="none" fill-rule="evenodd">
    <g transform="translate(3 15)">
      <path fill="#E1F2FF" d="M20.3608,202.8877 C20.3608,145.6947 66.7248,99.3297 123.9188,99.3297 C181.1118,99.3297 227.4758,145.6947 227.4758,202.8877 L20.3608,202.8877 Z"/>
      <path stroke="#5E63B6" stroke-linecap="round" d="M82.9868 26.2705L82.9868 30.2085M84.9556 28.2392L81.0176 28.2392"/>
      <g transform="translate(242 193.172)">
        <path fill="#FFF" d="M0.2173,0.8856 L7.1913,0.8856"/>
        <path stroke="#5E63B6" stroke-linecap="round" stroke-linejoin="round" stroke-width="2" d="M0.2173,0.8856 L7.1913,0.8856"/>
      </g>
      <g transform="translate(0 193.172)">
        <path fill="#FFF" d="M-0.0005,0.8856 L8.9735,0.8856"/>
        <path stroke="#5E63B6" stroke-linecap="round" stroke-linejoin="round" stroke-width="2" d="M-0.0005,0.8856 L8.9735,0.8856"/>
      </g>
      <g transform="translate(91 203.172)">
        <path fill="#FFF" d="M0.231,-0.0002 L67.417,-0.0002"/>
        <path stroke="#5E63B6" stroke-linecap="round" stroke-linejoin="round" stroke-width="2" d="M0.231,-0.0002 L67.417,-0.0002"/>
      </g>
      <g transform="translate(167 203.172)">
        <path fill="#FFF" d="M0.0356,-0.0002 L9.1766,-0.0002"/>
        <path stroke="#5E63B6" stroke-linecap="round" stroke-linejoin="round" stroke-width="2" d="M0.0356,-0.0002 L9.1766,-0.0002"/>
      </g>
      <g transform="translate(78 202.172)">
        <path fill="#FFF" d="M5.3491,0.9246 L0.3491,0.9996"/>
        <path stroke="#5E63B6" stroke-linecap="round" stroke-linejoin="round" stroke-width="2" d="M5.3491,0.9246 L0.3491,0.9996"/>
      </g>
      <path stroke="#5E63B6" stroke-linecap="round" stroke-linejoin="round" stroke-width="2" d="M27.3608 78.1142L27.3608 85.1142M30.8608 81.6142L23.8608 81.6142M243.1685 145.9999L243.1685 152.9999M246.6685 149.4999L239.6685 149.4999"/>
      <g transform="translate(17 193.172)">
        <path fill="#FFF" d="M0.2739,0.9246 L218.1689,0.9246"/>
        <path stroke="#5E63B6" stroke-linecap="round" stroke-linejoin="round" stroke-width="2" d="M0.2739,0.9246 L218.1689,0.9246"/>
      </g>
      <path fill="#9452BA" d="M165.1177,193.3466 L172.1537,193.2576 C174.5737,193.2276 176.7507,191.7206 177.5977,189.4536 C180.0137,182.9926 179.3177,177.0906 179.5537,172.0336 C179.9877,162.6646 178.4657,157.8866 176.9717,150.0746 L166.4127,150.4516 C166.4127,150.4516 167.3587,154.3296 168.1037,165.9926 C168.3357,169.6016 162.5507,184.1806 162.9197,191.2906 C162.9797,192.4576 163.9497,193.3616 165.1177,193.3466"/>
      <path stroke="#52267D" stroke-width="2" d="M165.1177,193.3466 L172.1537,193.2576 C174.5737,193.2276 176.7507,191.7206 177.5977,189.4536 C180.0137,182.9926 179.3177,177.0906 179.5537,172.0336 C179.9877,162.6646 178.4657,157.8866 176.9717,150.0746 L166.4127,150.4516 C166.4127,150.4516 167.3587,154.3296 168.1037,165.9926 C168.3357,169.6016 162.5507,184.1806 162.9197,191.2906 C162.9797,192.4576 163.9497,193.3616 165.1177,193.3466 Z"/>
      <path fill="#9452BA" d="M144.2153,160.1562 L135.5983,150.6302 L130.3563,150.9032 C130.3563,150.9032 129.7203,158.9272 129.4603,162.2872 C129.0033,168.2092 126.6973,179.8292 125.2563,184.9352 C124.7873,186.5952 124.5223,188.1452 124.4603,189.5492 C124.3573,191.9092 126.3493,193.8342 128.7123,193.8032 L134.9453,193.7252 C138.5763,193.6792 141.7743,191.2172 142.6213,187.6862 C145.2623,176.6942 144.2153,160.1562 144.2153,160.1562"/>
      <path stroke="#52267D" stroke-width="2" d="M144.2153,160.1562 L135.5983,150.6302 L130.3563,150.9032 C130.3563,150.9032 129.7203,158.9272 129.4603,162.2872 C129.0033,168.2092 126.6973,179.8292 125.2563,184.9352 C124.7873,186.5952 124.5223,188.1452 124.4603,189.5492 C124.3573,191.9092 126.3493,193.8342 128.7123,193.8032 L134.9453,193.7252 C138.5763,193.6792 141.7743,191.2172 142.6213,187.6862 C145.2623,176.6942 144.2153,160.1562 144.2153,160.1562 Z"/>
      <polyline stroke="#52267D" stroke-width=".707" points="132.353 166.949 130.966 168.197 132.322 169.388 134.496 168.522 134.046 167.57 132.239 168.022 132.259 168.346 132.729 168.318"/>
      <path fill="#9452BA" d="M131.8687,124.4316 C138.0557,124.2276 143.8027,119.8926 156.4247,119.1526 C156.5967,118.3246 156.8087,117.5766 157.0837,116.9606 C159.3057,111.9836 162.3517,97.6826 160.1637,88.3406 L158.4307,80.9496 C157.8627,78.5236 157.5597,76.0436 157.5287,73.5536 L157.5287,73.5526 C157.5157,72.5156 157.6077,71.5006 157.7967,70.5206 C157.8437,70.2746 157.8957,70.0316 157.9547,69.7906 C158.1317,69.0686 158.3597,68.3656 158.6367,67.6876 C158.7287,67.4616 158.8267,67.2386 158.9297,67.0176 C159.1357,66.5776 159.3607,66.1486 159.6067,65.7316 C159.8527,65.3156 160.1187,64.9116 160.4017,64.5226 C161.2537,63.3546 162.2687,62.3126 163.4157,61.4326 C163.7977,61.1386 164.1937,60.8636 164.6037,60.6076 C166.8597,59.1986 169.5167,58.3696 172.3717,58.3326 L174.8357,58.3026 C178.9867,58.2496 182.7647,59.8856 185.5197,62.5716 C185.8637,62.9076 186.1917,63.2586 186.5037,63.6266 C187.0677,64.2936 187.5727,65.0136 188.0157,65.7746 C188.1827,66.0606 188.3437,66.3496 188.4917,66.6466 C188.5997,66.8646 188.7027,67.0846 188.8017,67.3086 C189.0947,67.9796 189.3407,68.6756 189.5357,69.3936 C189.7297,70.1126 189.8727,70.8516 189.9587,71.6086 C190.0157,72.1136 190.0497,72.6256 190.0557,73.1446 C190.0687,74.1796 189.6607,75.1206 188.9917,75.8076 C188.3217,76.4946 187.3897,76.9256 186.3557,76.9386 L170.9667,77.1316 L173.4637,90.4596 C176.3697,104.1476 175.6637,113.3336 173.6227,119.4776 C173.1677,120.8466 170.5407,125.7136 170.5407,125.7136 C178.3887,137.7596 190.2547,142.9186 202.8917,144.3016 C213.6367,145.4766 236.6707,135.4036 224.5897,124.2376 C212.5077,113.0706 227.0227,119.9256 229.1647,121.3306 C231.3067,122.7376 243.7197,133.1936 230.5887,148.9286 C225.0357,155.5826 218.7267,161.6476 203.4247,166.4286 C200.9717,167.1956 187.5417,168.3416 180.3317,170.5096 C158.8647,176.9646 141.2657,170.4596 131.2717,156.3626 C121.3197,142.3216 129.4257,124.5126 131.8687,124.4316"/>
      <path stroke="#52267D" stroke-width="2" d="M131.8687,124.4316 C138.0557,124.2276 143.8027,119.8926 156.4247,119.1526 C156.5967,118.3246 156.8087,117.5766 157.0837,116.9606 C159.3057,111.9836 162.3517,97.6826 160.1637,88.3406 L158.4307,80.9496 C157.8627,78.5236 157.5597,76.0436 157.5287,73.5536 L157.5287,73.5526 C157.5157,72.5156 157.6077,71.5006 157.7967,70.5206 C157.8437,70.2746 157.8957,70.0316 157.9547,69.7906 C158.1317,69.0686 158.3597,68.3656 158.6367,67.6876 C158.7287,67.4616 158.8267,67.2386 158.9297,67.0176 C159.1357,66.5776 159.3607,66.1486 159.6067,65.7316 C159.8527,65.3156 160.1187,64.9116 160.4017,64.5226 C161.2537,63.3546 162.2687,62.3126 163.4157,61.4326 C163.7977,61.1386 164.1937,60.8636 164.6037,60.6076 C166.8597,59.1986 169.5167,58.3696 172.3717,58.3326 L174.8357,58.3026 C178.9867,58.2496 182.7647,59.8856 185.5197,62.5716 C185.8637,62.9076 186.1917,63.2586 186.5037,63.6266 C187.0677,64.2936 187.5727,65.0136 188.0157,65.7746 C188.1827,66.0606 188.3437,66.3496 188.4917,66.6466 C188.5997,66.8646 188.7027,67.0846 188.8017,67.3086 C189.0947,67.9796 189.3407,68.6756 189.5357,69.3936 C189.7297,70.1126 189.8727,70.8516 189.9587,71.6086 C190.0157,72.1136 190.0497,72.6256 190.0557,73.1446 C190.0687,74.1796 189.6607,75.1206 188.9917,75.8076 C188.3217,76.4946 187.3897,76.9256 186.3557,76.9386 L170.9667,77.1316 L173.4637,90.4596 C176.3697,104.1476 175.6637,113.3336 173.6227,119.4776 C173.1677,120.8466 170.5407,125.7136 170.5407,125.7136 C178.3887,137.7596 190.2547,142.9186 202.8917,144.3016 C213.6367,145.4766 236.6707,135.4036 224.5897,124.2376 C212.5077,113.0706 227.0227,119.9256 229.1647,121.3306 C231.3067,122.7376 243.7197,133.1936 230.5887,148.9286 C225.0357,155.5826 218.7267,161.6476 203.4247,166.4286 C200.9717,167.1956 187.5417,168.3416 180.3317,170.5096 C158.8647,176.9646 141.2657,170.4596 131.2717,156.3626 C121.3197,142.3216 129.4257,124.5126 131.8687,124.4316 Z"/>
      <path fill="#9452BA" d="M144.979,103.8144 C145.273,87.8964 132.488,75.5504 118.102,73.0874 C115.115,72.5774 114.133,71.6544 110.875,71.6954 L108.377,71.7264 C99.967,71.8324 93.235,78.7354 93.34,87.1454 C93.367,89.2424 95.088,90.9204 97.185,90.8944 C97.185,90.8944 122.79,90.5654 122.91,90.5524 C122.911,90.5534 124.996,90.5284 124.997,90.5294 C124.994,90.5314 122.908,90.5594 122.904,90.5614 C128.597,92.8934 132.211,100.0854 132.881,103.9664 C133.836,109.4934 133.246,114.0684 131.403,117.7864 C130.175,120.2624 130.07,123.2294 130.293,125.6264 C130.293,125.6264 130.355,125.6474 130.441,125.6754 C130.545,126.9574 130.772,128.4154 131.174,130.0764 C133.565,128.3654 137.283,125.7894 137.963,125.4184 C139.433,124.6204 142.75,122.8004 144.235,121.9244 C153.717,116.3294 144.812,112.8694 144.979,103.8144"/>
      <path stroke="#52267D" stroke-width="2" d="M144.979,103.8144 C145.273,87.8964 132.488,75.5504 118.102,73.0874 C115.115,72.5774 114.133,71.6544 110.875,71.6954 L108.377,71.7264 C99.967,71.8324 93.235,78.7354 93.34,87.1454 C93.367,89.2424 95.088,90.9204 97.185,90.8944 C97.185,90.8944 122.79,90.5654 122.91,90.5524 C122.911,90.5534 124.996,90.5284 124.997,90.5294 C124.994,90.5314 122.908,90.5594 122.904,90.5614 C128.597,92.8934 132.211,100.0854 132.881,103.9664 C133.836,109.4934 133.246,114.0684 131.403,117.7864 C130.175,120.2624 130.07,123.2294 130.293,125.6264 C130.293,125.6264 130.355,125.6474 130.441,125.6754 C130.545,126.9574 130.772,128.4154 131.174,130.0764 C133.565,128.3654 137.283,125.7894 137.963,125.4184 C139.433,124.6204 142.75,122.8004 144.235,121.9244 C153.717,116.3294 144.812,112.8694 144.979,103.8144 Z"/>
      <g transform="translate(122 88.172)">
        <path fill="#F3E3FF" d="M15.0552,34.1307 C14.9002,31.6747 14.5072,30.4177 14.7712,29.4147 C16.2842,23.6387 16.7782,21.8157 16.7012,15.7217 C16.6252,9.6657 13.0412,3.7257 7.8232,0.6077 C7.5352,0.4357 3.8042,0.2197 0.9042,2.3897 C6.5972,4.7227 10.2112,11.9137 10.8812,15.7947 C11.8362,21.3207 11.2452,25.8967 9.4032,29.6137 C8.1752,32.0907 8.0702,35.0577 8.2942,37.4547 C8.2942,37.4547 15.2742,39.9757 15.0552,34.1307"/>
        <path stroke="#52267D" stroke-width="1.413" d="M15.0552,34.1307 C14.9002,31.6747 14.5072,30.4177 14.7712,29.4147 C16.2842,23.6387 16.7782,21.8157 16.7012,15.7217 C16.6252,9.6657 13.0412,3.7257 7.8232,0.6077 C7.5352,0.4357 3.8042,0.2197 0.9042,2.3897 C6.5972,4.7227 10.2112,11.9137 10.8812,15.7947 C11.8362,21.3207 11.2452,25.8967 9.4032,29.6137 C8.1752,32.0907 8.0702,35.0577 8.2942,37.4547 C8.2942,37.4547 15.2742,39.9757 15.0552,34.1307"/>
      </g>
      <path fill="#FFF" d="M100.4194,74.414 C100.4194,74.414 100.3804,71.755 103.0094,70.665 C103.8124,70.332 105.2754,69.715 105.2754,69.715 C105.2754,69.715 106.8924,73.023 105.1194,73.885 C102.5674,75.125 100.4194,74.414 100.4194,74.414"/>
      <path stroke="#52267D" stroke-width="1.413" d="M100.4194,74.414 C100.4194,74.414 100.3804,71.755 103.0094,70.665 C103.8124,70.332 105.2754,69.715 105.2754,69.715 C105.2754,69.715 106.8924,73.023 105.1194,73.885 C102.5674,75.125 100.4194,74.414 100.4194,74.414 Z"/>
      <path fill="#FFF" d="M107.0112,72.4609 C107.0112,72.4609 107.0412,68.8369 111.1112,68.2569 C111.8702,68.1489 113.8542,68.1719 113.8542,68.1719 C113.8542,68.1719 114.8182,71.9939 112.6732,72.3899 C110.0362,72.8759 107.0112,72.4609 107.0112,72.4609"/>
      <path stroke="#52267D" stroke-width="1.413" d="M107.0112,72.4609 C107.0112,72.4609 107.0412,68.8369 111.1112,68.2569 C111.8702,68.1489 113.8542,68.1719 113.8542,68.1719 C113.8542,68.1719 114.8182,71.9939 112.6732,72.3899 C110.0362,72.8759 107.0112,72.4609 107.0112,72.4609 Z"/>
      <path fill="#FFF" d="M115.1216,72.706 C115.1216,72.706 115.6076,68.681 119.2316,69.74 C120.7806,70.192 121.6516,71.353 121.6516,71.353 C121.6516,71.353 120.9716,74.423 119.5306,74.097 C117.0166,73.527 115.1216,72.706 115.1216,72.706"/>
      <path stroke="#52267D" stroke-width="1.413" d="M115.1216,72.706 C115.1216,72.706 115.6076,68.681 119.2316,69.74 C120.7806,70.192 121.6516,71.353 121.6516,71.353 C121.6516,71.353 120.9716,74.423 119.5306,74.097 C117.0166,73.527 115.1216,72.706 115.1216,72.706 Z"/>
      <path fill="#FFF" d="M125.8501,92.0829 C125.8501,92.0829 134.2081,87.4019 132.5111,79.7229 C133.6401,80.6299 136.6631,83.3989 137.7641,84.8219 C137.7841,86.3289 138.1351,92.3119 129.9201,96.4239 C128.4491,94.9349 127.2011,93.0699 125.8501,92.0829"/>
      <path stroke="#52267D" stroke-width="1.413" d="M125.8501,92.0829 C125.8501,92.0829 134.2081,87.4019 132.5111,79.7229 C133.6401,80.6299 136.6631,83.3989 137.7641,84.8219 C137.7841,86.3289 138.1351,92.3119 129.9201,96.4239 C128.4491,94.9349 127.2011,93.0699 125.8501,92.0829 Z"/>
      <path fill="#F3E3FF" d="M101.5562 73.6679C101.5562 73.6679 101.5352 72.2909 102.8962 71.7279 103.3122 71.5549 104.0702 71.2349 104.0702 71.2349 104.0702 71.2349 104.9072 72.9479 103.9892 73.3949 102.6682 74.0359 101.5562 73.6679 101.5562 73.6679M108.7407 71.6191C108.7407 71.6191 108.7567 69.7711 110.8317 69.4751 111.2187 69.4211 112.2297 69.4321 112.2297 69.4321 112.2297 69.4321 112.7207 71.3821 111.6277 71.5831 110.2837 71.8311 108.7407 71.6191 108.7407 71.6191M116.4165 72.4003C116.4165 72.4003 116.6745 70.2643 118.5975 70.8263 119.4185 71.0663 119.8815 71.6823 119.8815 71.6823 119.8815 71.6823 119.5205 73.3113 118.7555 73.1383 117.4215 72.8373 116.4165 72.4003 116.4165 72.4003M114.4487 88.1279L106.7547 88.2249 106.7277 86.1729C106.6937 83.4299 108.8887 81.1789 111.6317 81.1449L114.3607 81.1099C116.2997 81.0859 117.8897 82.6369 117.9137 84.5749 117.9377 86.5129 116.3867 88.1039 114.4487 88.1279"/>
      <path fill="#FFF" d="M113.7993,88.0038 L106.8853,88.0908 C106.8463,85.0458 109.2833,82.5468 112.3293,82.5078 L113.7303,82.4898 C115.2523,82.4718 116.5023,83.6908 116.5223,85.2128 C116.5403,86.7348 115.3213,87.9848 113.7993,88.0038"/>
      <path stroke="#52267D" stroke-width="1.413" d="M113.7993,88.0038 L106.8853,88.0908 C106.8463,85.0458 109.2833,82.5468 112.3293,82.5078 L113.7303,82.4898 C115.2523,82.4718 116.5023,83.6908 116.5223,85.2128 C116.5403,86.7348 115.3213,87.9848 113.7993,88.0038 Z"/>
      <path fill="#52267D" d="M108.1001 85.1562C108.1111 86.0072 108.8091 86.6872 109.6601 86.6772 110.5101 86.6662 111.1911 85.9682 111.1801 85.1172 111.1691 84.2672 110.4711 83.5862 109.6211 83.5962 108.7711 83.6072 108.0891 84.3052 108.1001 85.1562M96.8179 89.7421C97.2549 89.6421 97.6429 89.3951 97.9169 89.0411L98.4239 88.3861 97.2789 88.6461 96.6039 88.8001C96.3429 88.8591 96.1799 89.1181 96.2399 89.3781 96.2989 89.6381 96.5579 89.8021 96.8179 89.7421"/>
      <path fill="#E1F2FF" d="M127.2739,92.2177 C127.2739,92.2177 133.7129,88.6457 133.5259,81.6137 C136.3369,83.6097 137.1079,84.9107 137.1079,84.9107 C137.1079,84.9107 136.6649,88.2657 135.1269,89.9737 C132.7649,92.5977 130.2819,93.4267 127.2739,92.2177"/>
      <g transform="translate(128 90.172)">
        <path fill="#FFF" d="M5.396,0.7332 C5.396,0.7332 2.873,3.3662 0.395,4.6442"/>
        <path stroke="#52267D" stroke-width="1.413" d="M5.396,0.7332 C5.396,0.7332 2.873,3.3662 0.395,4.6442"/>
      </g>
      <g transform="translate(123 51.172)">
        <path fill="#9452BA" d="M36.1636,66.7547 L34.6836,63.9237 C29.1236,50.7337 28.1926,42.9597 30.8326,30.2717 L32.3786,22.8377 C32.8856,20.3997 33.1256,17.9127 33.0946,15.4217 C32.9896,7.1207 26.1756,0.4757 17.8736,0.5797 L15.4466,0.6097 C7.2596,0.7127 0.7056,7.4347 0.8086,15.6217 L0.8126,16.0477 C0.8376,17.9957 2.4366,19.5547 4.3856,19.5297 L19.7506,19.3377 L17.5896,32.7237 C10.9076,68.6087 11.8046,83.1127 25.8016,79.9537"/>
        <path stroke="#52267D" stroke-width="2" d="M36.1636,66.7547 L34.6836,63.9237 C29.1236,50.7337 28.1926,42.9597 30.8326,30.2717 L32.3786,22.8377 C32.8856,20.3997 33.1256,17.9127 33.0946,15.4217 C32.9896,7.1207 26.1756,0.4757 17.8736,0.5797 L15.4466,0.6097 C7.2596,0.7127 0.7056,7.4347 0.8086,15.6217 L0.8126,16.0477 C0.8376,17.9957 2.4366,19.5547 4.3856,19.5297 L19.7506,19.3377 L17.5896,32.7237 C10.9076,68.6087 11.8046,83.1127 25.8016,79.9537"/>
      </g>
      <path fill="#FFF" d="M131.0522,53.6543 C131.0522,53.6543 131.2662,51.0463 133.8412,49.9773 C134.6272,49.6523 135.8692,49.9723 135.8692,49.9723 C135.8692,49.9723 137.3942,52.2923 135.6562,53.1353 C133.1562,54.3503 131.0522,53.6543 131.0522,53.6543"/>
      <path stroke="#52267D" stroke-width="1.413" d="M131.0522,53.6543 C131.0522,53.6543 131.2662,51.0463 133.8412,49.9773 C134.6272,49.6523 135.8692,49.9723 135.8692,49.9723 C135.8692,49.9723 137.3942,52.2923 135.6562,53.1353 C133.1562,54.3503 131.0522,53.6543 131.0522,53.6543 Z"/>
      <path fill="#FFF" d="M137.2046,52.7177 C137.2046,52.7177 137.2386,48.6127 141.8486,47.9557 C142.7076,47.8327 143.8146,47.9047 143.8146,47.9047 C143.8146,47.9047 146.0466,52.1887 143.6176,52.6367 C140.6316,53.1877 137.2046,52.7177 137.2046,52.7177"/>
      <path stroke="#52267D" stroke-width="1.413" d="M137.2046,52.7177 C137.2046,52.7177 137.2386,48.6127 141.8486,47.9557 C142.7076,47.8327 143.8146,47.9047 143.8146,47.9047 C143.8146,47.9047 146.0466,52.1887 143.6176,52.6367 C140.6316,53.1877 137.2046,52.7177 137.2046,52.7177 Z"/>
      <path fill="#FFF" d="M145.4771,53.5468 C145.4771,53.5468 146.0531,49.6168 149.5771,50.7438 C151.0811,51.2268 151.9061,52.3858 151.9061,52.3858 C151.9061,52.3858 151.1631,55.3738 149.7601,55.0198 C147.3111,54.3998 145.4771,53.5468 145.4771,53.5468"/>
      <path stroke="#52267D" stroke-width="1.413" d="M145.4771,53.5468 C145.4771,53.5468 146.0531,49.6168 149.5771,50.7438 C151.0811,51.2268 151.9061,52.3858 151.9061,52.3858 C151.9061,52.3858 151.1631,55.3738 149.7601,55.0198 C147.3111,54.3998 145.4771,53.5468 145.4771,53.5468 Z"/>
      <g transform="translate(132 122.172)">
        <path fill="#F3E3FF" d="M0.186,1.7811 C1.053,1.1141 1.936,0.7241 2.696,0.5321"/>
        <path stroke="#52267D" stroke-width="1.413" d="M0.186,1.7811 C1.053,1.1141 1.936,0.7241 2.696,0.5321"/>
      </g>
      <g transform="translate(128 69.172)">
        <path fill="#F3E3FF" d="M9.2729,54.6365 C6.6329,44.4625 10.9189,24.8935 11.6909,20.0795 L14.7479,0.7985 L16.1949,0.7805 C18.0269,0.7575 19.4379,2.7315 19.2009,4.5505 L17.0199,21.2695 C16.2819,26.9305 15.7689,53.1055 25.6579,58.6025 C27.7679,59.7755 31.1639,58.9465 32.4379,58.3175 C37.0779,56.0295 38.3459,50.1945 39.3099,45.4905 C41.3039,35.7565 39.5589,28.1565 38.9959,20.5525 L38.3839,11.0385 C38.2739,9.3185 39.6199,7.4745 41.3399,7.4525 L43.0929,7.4315 L46.4959,26.6315 C47.5139,32.0995 50.1989,51.0685 39.1159,60.1155 C38.9149,60.2805 41.8479,60.8975 41.0189,62.4065 C37.7259,68.4015 27.9809,69.4645 26.1759,72.0355 C19.2229,81.9395 26.1129,102.7645 26.1129,102.7645 C26.1129,102.7645 18.2199,99.7295 13.3019,95.4305 C1.8029,85.3825 0.1739,70.6385 0.0669,66.2935 C-0.0611,61.0955 1.2629,57.8535 2.9209,55.9075"/>
        <path stroke="#52267D" stroke-width="1.413" d="M9.2729,54.6365 C6.6329,44.4625 10.9189,24.8935 11.6909,20.0795 L14.7479,0.7985 L16.1949,0.7805 C18.0269,0.7575 19.4379,2.7315 19.2009,4.5505 L17.0199,21.2695 C16.2819,26.9305 15.7689,53.1055 25.6579,58.6025 C27.7679,59.7755 31.1639,58.9465 32.4379,58.3175 C37.0779,56.0295 38.3459,50.1945 39.3099,45.4905 C41.3039,35.7565 39.5589,28.1565 38.9959,20.5525 L38.3839,11.0385 C38.2739,9.3185 39.6199,7.4745 41.3399,7.4525 L43.0929,7.4315 L46.4959,26.6315 C47.5139,32.0995 50.1989,51.0685 39.1159,60.1155 C38.9149,60.2805 41.8479,60.8975 41.0189,62.4065 C37.7259,68.4015 27.9809,69.4645 26.1759,72.0355 C19.2229,81.9395 26.1129,102.7645 26.1129,102.7645 C26.1129,102.7645 18.2199,99.7295 13.3019,95.4305 C1.8029,85.3825 0.1739,70.6385 0.0669,66.2935 C-0.0611,61.0955 1.2629,57.8535 2.9209,55.9075"/>
      </g>
      <path fill="#FFF" d="M229.6772,131.1621 C229.6772,131.1621 231.2702,129.3521 230.3322,126.9611 C230.0452,126.2311 229.0392,125.6131 229.0392,125.6131 C229.0392,125.6131 226.5272,126.0851 227.0772,127.7761 C227.8692,130.2111 229.6772,131.1621 229.6772,131.1621"/>
      <path stroke="#52267D" stroke-width="1.413" d="M229.6772,131.1621 C229.6772,131.1621 231.2702,129.3521 230.3322,126.9611 C230.0452,126.2311 229.0392,125.6131 229.0392,125.6131 C229.0392,125.6131 226.5272,126.0851 227.0772,127.7761 C227.8692,130.2111 229.6772,131.1621 229.6772,131.1621 Z"/>
      <path fill="#F3E3FF" d="M229.1118,128.6826 C229.1118,128.6826 229.6708,128.0476 229.3408,127.2086 C229.2408,126.9536 228.8878,126.7366 228.8878,126.7366 C228.8878,126.7366 228.0078,126.9016 228.1998,127.4956 C228.4778,128.3486 229.1118,128.6826 229.1118,128.6826"/>
      <path fill="#FFF" d="M216.6108,144.1425 C216.6108,144.1425 215.0328,140.6615 218.6698,138.3025 C219.3468,137.8625 220.3098,137.4895 220.3098,137.4895 C220.3098,137.4895 223.8728,140.2345 221.9958,141.5645 C219.6888,143.1985 216.6108,144.1425 216.6108,144.1425"/>
      <path stroke="#52267D" stroke-width="1.413" d="M216.6108,144.1425 C216.6108,144.1425 215.0328,140.6615 218.6698,138.3025 C219.3468,137.8625 220.3098,137.4895 220.3098,137.4895 C220.3098,137.4895 223.8728,140.2345 221.9958,141.5645 C219.6888,143.1985 216.6108,144.1425 216.6108,144.1425 Z"/>
      <path fill="#F3E3FF" d="M217.8716,142.8095 C217.8716,142.8095 216.9966,140.8785 219.0136,139.5715 C219.3896,139.3275 219.9236,139.1205 219.9236,139.1205 C219.9236,139.1205 221.8976,140.6425 220.8576,141.3795 C219.5786,142.2865 217.8716,142.8095 217.8716,142.8095"/>
      <path fill="#FFF" d="M227.6567,132.538 C227.6567,132.538 230.3427,134.839 227.8207,136.957 C226.7427,137.861 225.4787,137.932 225.4787,137.932 C225.4787,137.932 223.5797,135.953 224.5127,135.065 C226.1427,133.516 227.6567,132.538 227.6567,132.538"/>
      <path stroke="#52267D" stroke-width="1.413" d="M227.6567,132.538 C227.6567,132.538 230.3427,134.839 227.8207,136.957 C226.7427,137.861 225.4787,137.932 225.4787,137.932 C225.4787,137.932 223.5797,135.953 224.5127,135.065 C226.1427,133.516 227.6567,132.538 227.6567,132.538 Z"/>
      <path fill="#F3E3FF" d="M227.2905,134.1972 C227.2905,134.1972 228.4795,135.2162 227.3625,136.1542 C226.8865,136.5542 226.3255,136.5862 226.3255,136.5862 C226.3255,136.5862 225.4845,135.7102 225.8985,135.3162 C226.6205,134.6302 227.2905,134.1972 227.2905,134.1972"/>
      <path fill="#FFF" d="M203.8853,146.1425 C203.8853,146.1425 202.9703,143.0385 206.3833,141.7585 C209.7973,140.4785 210.7313,141.4965 210.7313,141.4965 C210.7313,141.4965 212.6673,144.6645 210.9863,145.7135 C209.3043,146.7625 203.8853,146.1425 203.8853,146.1425"/>
      <path stroke="#52267D" stroke-width="1.413" d="M203.8853,146.1425 C203.8853,146.1425 202.9703,143.0385 206.3833,141.7585 C209.7973,140.4785 210.7313,141.4965 210.7313,141.4965 C210.7313,141.4965 212.6673,144.6645 210.9863,145.7135 C209.3043,146.7625 203.8853,146.1425 203.8853,146.1425 Z"/>
      <path fill="#F3E3FF" d="M205.4858,145.415 C205.4858,145.415 205.0098,143.801 206.7848,143.135 C208.5598,142.47 209.0458,142.998 209.0458,142.998 C209.0458,142.998 210.0528,144.646 209.1778,145.192 C208.3028,145.737 205.4858,145.415 205.4858,145.415"/>
      <path fill="#FFF" d="M142.0591,74.6718 C142.0591,74.6718 147.5721,77.6978 155.2311,74.8078 C154.7331,77.2008 153.7171,82.0118 153.7171,82.0118 C153.7171,82.0118 146.6161,84.2868 141.0741,80.8968 C141.5971,77.7228 142.0591,74.6718 142.0591,74.6718"/>
      <path stroke="#52267D" stroke-width="1.413" d="M142.0591,74.6718 C142.0591,74.6718 147.5721,77.6978 155.2311,74.8078 C154.7331,77.2008 153.7171,82.0118 153.7171,82.0118 C153.7171,82.0118 146.6161,84.2868 141.0741,80.8968 C141.5971,77.7228 142.0591,74.6718 142.0591,74.6718 Z"/>
      <path fill="#FFF" d="M182.8354,60.2509 C182.8354,60.2509 182.5544,57.6289 179.9334,56.6179 C179.1334,56.3099 176.9824,56.2509 176.9824,56.2509 C176.9824,56.2509 176.4134,59.0389 178.1854,59.8449 C180.7324,61.0059 182.8354,60.2509 182.8354,60.2509"/>
      <path stroke="#52267D" stroke-width="1.413" d="M182.8354,60.2509 C182.8354,60.2509 182.5544,57.6289 179.9334,56.6179 C179.1334,56.3099 176.9824,56.2509 176.9824,56.2509 C176.9824,56.2509 176.4134,59.0389 178.1854,59.8449 C180.7324,61.0059 182.8354,60.2509 182.8354,60.2509 Z"/>
      <path fill="#FFF" d="M176.2017,58.9931 C176.2017,58.9931 176.0827,55.4171 172.0527,54.9461 C171.3007,54.8581 170.3377,54.9441 170.3377,54.9441 C170.3377,54.9441 168.4867,58.7261 170.6127,59.0631 C173.2267,59.4771 176.2017,58.9931 176.2017,58.9931"/>
      <path stroke="#52267D" stroke-width="1.413" d="M176.2017,58.9931 C176.2017,58.9931 176.0827,55.4171 172.0527,54.9461 C171.3007,54.8581 170.3377,54.9441 170.3377,54.9441 C170.3377,54.9441 168.4867,58.7261 170.6127,59.0631 C173.2267,59.4771 176.2017,58.9931 176.2017,58.9931 Z"/>
      <path fill="#FFF" d="M168.5825,59.3476 C168.5825,59.3476 167.9025,55.4046 164.3825,56.6286 C162.8785,57.1526 162.0775,58.3406 162.0775,58.3406 C162.0775,58.3406 162.9015,61.3326 164.3065,60.9396 C166.7565,60.2526 168.5825,59.3476 168.5825,59.3476"/>
      <path stroke="#52267D" stroke-width="1.413" d="M168.5825,59.3476 C168.5825,59.3476 167.9025,55.4046 164.3825,56.6286 C162.8785,57.1526 162.0775,58.3406 162.0775,58.3406 C162.0775,58.3406 162.9015,61.3326 164.3065,60.9396 C166.7565,60.2526 168.5825,59.3476 168.5825,59.3476 Z"/>
      <path fill="#F3E3FF" d="M132.3999 52.9785C132.3999 52.9785 132.5139 51.5845 133.8899 51.0145 134.3089 50.8405 134.9729 51.0115 134.9729 51.0115 134.9729 51.0115 135.7869 52.2505 134.8589 52.7015 133.5239 53.3505 132.3999 52.9785 132.3999 52.9785M138.7153 52.0087C138.7153 52.0087 138.7363 49.4347 141.6263 49.0237 142.1653 48.9457 142.8603 48.9907 142.8603 48.9907 142.8603 48.9907 144.2583 51.6767 142.7363 51.9577 140.8633 52.3027 138.7153 52.0087 138.7153 52.0087M146.9956 53.1337C146.9956 53.1337 147.3286 50.8647 149.3616 51.5157 150.2296 51.7937 150.7056 52.4627 150.7056 52.4627 150.7056 52.4627 150.2766 54.1887 149.4676 53.9837 148.0546 53.6247 146.9956 53.1337 146.9956 53.1337M181.5317 59.5957C181.5317 59.5957 181.3837 58.2097 179.9977 57.6757 179.5747 57.5127 178.4377 57.4817 178.4377 57.4817 178.4377 57.4817 178.1367 58.9547 179.0737 59.3817 180.4207 59.9947 181.5317 59.5957 181.5317 59.5957M174.6323 58.3818C174.6323 58.3818 174.5673 56.4048 172.3383 56.1448 171.9223 56.0958 171.3903 56.1438 171.3903 56.1438 171.3903 56.1438 170.3663 58.2348 171.5423 58.4208 172.9873 58.6508 174.6323 58.3818 174.6323 58.3818M167.1733 59.0976C167.1733 59.0976 166.8003 56.9396 164.8743 57.6096 164.0523 57.8966 163.6133 58.5456 163.6133 58.5456 163.6133 58.5456 164.0653 60.1836 164.8323 59.9676 166.1733 59.5926 167.1733 59.0976 167.1733 59.0976"/>
      <path fill="#FFF" d="M158.5005,81.2441 C158.5005,81.2441 165.2915,82.2161 171.7175,80.5531 C172.3905,84.0481 172.8255,86.6871 172.8255,86.6871 C172.8255,86.6871 168.3935,89.7791 160.1115,88.1221 C159.0805,83.6361 158.5005,81.2441 158.5005,81.2441"/>
      <path stroke="#52267D" stroke-width="1.413" d="M158.5005,81.2441 C158.5005,81.2441 165.2915,82.2161 171.7175,80.5531 C172.3905,84.0481 172.8255,86.6871 172.8255,86.6871 C172.8255,86.6871 168.3935,89.7791 160.1115,88.1221 C159.0805,83.6361 158.5005,81.2441 158.5005,81.2441 Z"/>
      <path fill="#F3E3FF" d="M169.6245,74.2959 L177.3195,74.1989 L177.2945,72.1469 C177.2595,69.4039 175.0085,67.2089 172.2665,67.2429 L169.5365,67.2769 C167.5995,67.3019 166.0475,68.8929 166.0715,70.8309 C166.0965,72.7689 167.6875,74.3189 169.6245,74.2959"/>
      <path fill="#FFF" d="M170.4087,74.1533 L177.1857,74.0683 C177.1477,71.0233 174.6477,68.5863 171.6027,68.6243 L170.0637,68.6433 C168.6177,68.6623 167.4607,69.8493 167.4777,71.2963 C167.4987,72.8943 168.8097,74.1743 170.4087,74.1533"/>
      <path stroke="#52267D" stroke-width="1.413" d="M170.4087,74.1533 L177.1857,74.0683 C177.1477,71.0233 174.6477,68.5863 171.6027,68.6243 L170.0637,68.6433 C168.6177,68.6623 167.4607,69.8493 167.4777,71.2963 C167.4987,72.8943 168.8097,74.1743 170.4087,74.1533 Z"/>
      <path fill="#52267D" d="M173.2798,72.8271 C172.8978,72.0661 173.2048,71.1411 173.9658,70.7601 C174.7248,70.3781 175.6508,70.6851 176.0328,71.4451 C176.4138,72.2061 176.1068,73.1311 175.3458,73.5131 C174.5868,73.8931 173.6608,73.5871 173.2798,72.8271"/>
      <path fill="#F3E3FF" d="M142.9136,67.9765 L135.2186,68.0735 L135.1926,66.0215 C135.1586,63.2785 137.3536,61.0275 140.0966,60.9935 L142.8256,60.9585 C144.7636,60.9345 146.3536,62.4855 146.3786,64.4235 C146.4026,66.3615 144.8516,67.9525 142.9136,67.9765"/>
      <path fill="#FFF" d="M142.2642,67.8525 L135.3492,67.9395 C135.3112,64.8945 137.7482,62.3955 140.7932,62.3565 L142.1952,62.3385 C143.7172,62.3205 144.9672,63.5395 144.9862,65.0615 C145.0052,66.5835 143.7862,67.8335 142.2642,67.8525"/>
      <path stroke="#52267D" stroke-width="1.413" d="M142.2642,67.8525 L135.3492,67.9395 C135.3112,64.8945 137.7482,62.3955 140.7932,62.3565 L142.1952,62.3385 C143.7172,62.3205 144.9672,63.5395 144.9862,65.0615 C145.0052,66.5835 143.7862,67.8335 142.2642,67.8525 Z"/>
      <path fill="#52267D" d="M137.2769 66.3418C137.9379 66.8778 138.9079 66.7778 139.4439 66.1158 139.9789 65.4558 139.8789 64.4868 139.2179 63.9498 138.5579 63.4138 137.5889 63.5158 137.0519 64.1758 136.5159 64.8358 136.6169 65.8058 137.2769 66.3418M186.6108 75.6836C186.1728 75.5946 185.7778 75.3576 185.4948 75.0106L184.9698 74.3686 186.1228 74.5996 186.8008 74.7366C187.0628 74.7886 187.2318 75.0436 187.1798 75.3056 187.1278 75.5666 186.8728 75.7366 186.6108 75.6836M127.1606 69.2275C127.5976 69.1285 127.9856 68.8805 128.2596 68.5275L128.7666 67.8715 127.6216 68.1315 126.9456 68.2865C126.6856 68.3445 126.5226 68.6035 126.5826 68.8645 126.6406 69.1235 126.8996 69.2875 127.1606 69.2275"/>
      <path fill="#E1F2FF" d="M142.728,75.663 C142.728,75.663 148.494,78.034 154.25,75.728 C153.687,79.13 153.168,80.869 153.168,80.869 C153.168,80.869 149.69,81.117 147.38,80.692 C144.081,80.085 142.765,78.605 142.728,75.663"/>
      <g transform="translate(141 78.172)">
        <path fill="#FFF" d="M9.7622,1.741 C9.7622,1.741 4.5482,2.242 0.4832,0.198"/>
        <path stroke="#52267D" stroke-width="1.413" d="M9.7622,1.741 C9.7622,1.741 4.5482,2.242 0.4832,0.198"/>
      </g>
      <path fill="#E1F2FF" d="M169.2505,81.874 C169.2505,81.874 164.1815,83.384 159.6825,82.543 C160.5715,85.874 161.0335,86.915 161.0335,86.915 C161.0335,86.915 167.7555,85.933 169.2505,81.874"/>
      <g transform="translate(166 129.172)">
        <path fill="#F3E3FF" d="M1.1167,0.1873 C1.1167,0.1873 0.8117,0.4143 0.3787,0.6813"/>
        <path stroke="#52267D" stroke-width=".707" d="M1.1167,0.1873 C1.1167,0.1873 0.8117,0.4143 0.3787,0.6813"/>
      </g>
      <g transform="translate(159 83.172)">
        <path fill="#FFF" d="M10.7651,0.619 C10.7651,0.619 5.6571,1.654 0.2121,1.074"/>
        <path stroke="#52267D" stroke-width="1.413" d="M10.7651,0.619 C10.7651,0.619 5.6571,1.654 0.2121,1.074"/>
      </g>
      <path fill="#FFF" d="M162.6968,189.2461 C162.6968,189.2461 161.3248,188.1561 159.5378,189.6621 C157.9058,191.0371 156.6908,193.1461 157.4328,193.3481 C158.1758,193.5491 159.4788,193.7371 160.8428,193.4701 C162.0288,193.2361 163.0828,193.4531 163.5278,190.9581 C163.7358,189.7961 162.6968,189.2461 162.6968,189.2461"/>
      <path stroke="#52267D" stroke-width=".707" d="M162.6968,189.2461 C162.6968,189.2461 161.3248,188.1561 159.5378,189.6621 C157.9058,191.0371 156.6908,193.1461 157.4328,193.3481 C158.1758,193.5491 159.4788,193.7371 160.8428,193.4701 C162.0288,193.2361 163.0828,193.4531 163.5278,190.9581 C163.7358,189.7961 162.6968,189.2461 162.6968,189.2461 Z"/>
      <path fill="#E1F2FF" d="M162.3921,189.6533 C162.3921,189.6533 161.5381,188.9753 160.4261,189.9123 C159.4111,190.7683 158.6561,192.0803 159.1171,192.2063 C159.5791,192.3313 160.3901,192.4483 161.2391,192.2813 C161.9771,192.1363 162.6321,192.2713 162.9101,190.7183 C163.0381,189.9963 162.3921,189.6533 162.3921,189.6533"/>
      <path fill="#FFF" d="M164.6245,189.1972 C165.3415,189.0922 166.3935,190.6372 166.2815,191.1142 C166.1695,191.5912 166.1065,193.1612 164.9485,193.3462 C164.0945,193.4822 161.0465,193.8392 160.3725,193.1842 C159.7505,192.5802 160.9175,189.7412 164.6245,189.1972"/>
      <path stroke="#52267D" stroke-width=".707" d="M164.6245,189.1972 C165.3415,189.0922 166.3935,190.6372 166.2815,191.1142 C166.1695,191.5912 166.1065,193.1612 164.9485,193.3462 C164.0945,193.4822 161.0465,193.8392 160.3725,193.1842 C159.7505,192.5802 160.9175,189.7412 164.6245,189.1972 Z"/>
      <path fill="#E1F2FF" d="M164.8306,189.6269 C165.2536,189.5649 165.8746,190.4769 165.8096,190.7579 C165.7426,191.0389 165.7056,191.9659 165.0216,192.0749 C164.5186,192.1549 162.7206,192.3649 162.3216,191.9799 C161.9546,191.6229 162.6426,189.9479 164.8306,189.6269"/>
      <path fill="#FFF" d="M167.6646,189.4619 C167.6646,189.4619 167.0406,189.1469 165.8216,189.8639 C164.7456,190.4979 163.1396,191.5099 163.5806,192.7369 C164.0216,193.9639 167.4416,193.4629 168.2006,193.1919 C168.9586,192.9219 169.4266,192.0869 169.2826,191.3619 C168.9696,189.7829 167.6646,189.4619 167.6646,189.4619"/>
      <path stroke="#52267D" stroke-width=".707" d="M167.6646,189.4619 C167.6646,189.4619 167.0406,189.1469 165.8216,189.8639 C164.7456,190.4979 163.1396,191.5099 163.5806,192.7369 C164.0216,193.9639 167.4416,193.4629 168.2006,193.1919 C168.9586,192.9219 169.4266,192.0869 169.2826,191.3619 C168.9696,189.7829 167.6646,189.4619 167.6646,189.4619 Z"/>
      <path fill="#E1F2FF" d="M167.9028,189.8955 C167.9028,189.8955 167.5328,189.7085 166.8118,190.1335 C166.1738,190.5085 165.2228,191.1085 165.4848,191.8345 C165.7458,192.5615 167.7708,192.2645 168.2198,192.1045 C168.6698,191.9445 168.9458,191.4505 168.8608,191.0215 C168.6748,190.0855 167.9028,189.8955 167.9028,189.8955"/>
      <g transform="translate(147 150.172)">
        <path fill="#9452BA" d="M5.8442,0.1668 C5.8442,0.1668 6.6422,8.0958 4.7802,20.5998 C3.0472,32.2378 -0.2378,35.9238 0.0452,38.9328 C0.2642,41.2628 1.2752,43.3868 3.6152,43.3558 L10.5972,43.2698 C13.8572,43.2288 16.7042,41.1108 17.7132,38.0118 C18.5272,35.5148 19.3632,32.1218 19.8322,27.8388 C20.2962,22.0158 20.1082,16.1828 19.9682,12.7588"/>
        <path stroke="#52267D" stroke-width="2" d="M5.8442,0.1668 C5.8442,0.1668 6.6422,8.0958 4.7802,20.5998 C3.0472,32.2378 -0.2378,35.9238 0.0452,38.9328 C0.2642,41.2628 1.2752,43.3868 3.6152,43.3558 L10.5972,43.2698 C13.8572,43.2288 16.7042,41.1108 17.7132,38.0118 C18.5272,35.5148 19.3632,32.1218 19.8322,27.8388 C20.2962,22.0158 20.1082,16.1828 19.9682,12.7588"/>
      </g>
      <g transform="translate(183 154.172)">
        <path fill="#9452BA" d="M5.7075,0.9686 C3.4205,2.9876 2.2615,6.2626 2.3175,9.2576 C2.3925,13.2556 4.7755,18.3176 3.3885,24.9826 C2.1525,30.9176 -0.4415,31.9946 0.4105,37.2966 C0.5645,38.2536 1.4335,38.9316 2.4025,38.9196 L10.1835,38.8226 C13.7645,38.7776 16.7965,36.1426 17.3385,32.6026 C18.7825,23.1506 17.4775,14.2616 16.1345,7.4446"/>
        <path stroke="#52267D" stroke-width="2" d="M5.7075,0.9686 C3.4205,2.9876 2.2615,6.2626 2.3175,9.2576 C2.3925,13.2556 4.7755,18.3176 3.3885,24.9826 C2.1525,30.9176 -0.4415,31.9946 0.4105,37.2966 C0.5645,38.2536 1.4335,38.9316 2.4025,38.9196 L10.1835,38.8226 C13.7645,38.7776 16.7965,36.1426 17.3385,32.6026 C18.7825,23.1506 17.4775,14.2616 16.1345,7.4446"/>
      </g>
      <polyline stroke="#52267D" stroke-width=".707" points="190.346 163.934 190.799 163.6 192.283 163.912 190.653 164.982 188.663 164.034 190.697 162.365 191.635 162.666"/>
      <path fill="#FFF" d="M148.5737,189.4238 C148.5737,189.4238 147.2017,188.3338 145.4147,189.8398 C143.7827,191.2148 142.5687,193.3238 143.3097,193.5258 C144.0527,193.7268 145.3557,193.9148 146.7197,193.6468 C147.9057,193.4138 148.9597,193.6298 149.4057,191.1358 C149.6127,189.9738 148.5737,189.4238 148.5737,189.4238"/>
      <path stroke="#52267D" stroke-width="1.413" d="M148.5737,189.4238 C148.5737,189.4238 147.2017,188.3338 145.4147,189.8398 C143.7827,191.2148 142.5687,193.3238 143.3097,193.5258 C144.0527,193.7268 145.3557,193.9148 146.7197,193.6468 C147.9057,193.4138 148.9597,193.6298 149.4057,191.1358 C149.6127,189.9738 148.5737,189.4238 148.5737,189.4238 Z"/>
      <path fill="#E1F2FF" d="M148.27,189.831 C148.27,189.831 147.416,189.152 146.304,190.09 C145.289,190.945 144.533,192.258 144.995,192.383 C145.456,192.509 146.267,192.626 147.116,192.459 C147.854,192.313 148.509,192.448 148.787,190.896 C148.916,190.173 148.27,189.831 148.27,189.831"/>
      <polyline stroke="#52267D" stroke-width=".707" points="158.995 168.716 156.224 169.618 156.625 172.191 159.476 172.362 160.783 170.813 159.065 169.888 157.66 170.316 158.569 171.301"/>
      <g stroke="#F3E3FF" stroke-width=".353" transform="translate(96 62.172)">
        <path d="M2.3364,22.4598 C2.3424,22.8778 2.6854,23.2128 3.1034,23.2078 C3.5224,23.2018 3.8564,22.8588 3.8514,22.4408"/>
        <path d="M0.8228,22.4793 C0.8278,22.8973 1.1718,23.2323 1.5898,23.2263 C2.0078,23.2213 2.3428,22.8773 2.3368,22.4593"/>
        <path d="M1.5894 23.2264C1.5944 23.6454 1.9384 23.9794 2.3564 23.9744 2.7744 23.9694 3.1094 23.6254 3.1034 23.2074M31.3403 21.3865C31.8673 21.7045 32.5533 21.5345 32.8723 21.0075 33.1913 20.4805 33.0223 19.7945 32.4933 19.4755M31.7183 22.9188C32.2453 23.2368 32.9323 23.0668 33.2503 22.5398 33.5693 22.0128 33.4003 21.3268 32.8723 21.0078M67.5913 46.3709C67.5993 46.9329 68.0593 47.3809 68.6203 47.3739 69.1813 47.3669 69.6303 46.9069 69.6223 46.3459M65.561 46.3963C65.568 46.9583 66.028 47.4073 66.589 47.3993 67.15 47.3923 67.599 46.9323 67.591 46.3713"/>
        <path d="M66.5894 47.3992C66.5964 47.9612 67.0564 48.4092 67.6174 48.4022 68.1784 48.3952 68.6274 47.9352 68.6204 47.3742M38.0679 111.0936C38.0759 111.6556 38.5359 112.1046 39.0959 112.0966 39.6579 112.0896 40.1059 111.6296 40.0989 111.0686M36.0366 111.1199C36.0446 111.6809 36.5046 112.1299 37.0646 112.1229 37.6266 112.1149 38.0756 111.6549 38.0676 111.0939"/>
        <path d="M37.0649 112.1229C37.0729 112.6839 37.5329 113.1329 38.0929 113.1249 38.6549 113.1179 39.1039 112.6579 39.0959 112.0969M65.6118 14.0233C65.6198 14.6393 66.1258 15.1333 66.7418 15.1263 67.3578 15.1183 67.8508 14.6123 67.8428 13.9963"/>
        <path d="M64.5093 15.1531C64.5173 15.7691 65.0233 16.2631 65.6393 16.2561 66.2563 16.2481 66.7493 15.7421 66.7413 15.1261M51.5952 33.9109C51.6052 34.6599 52.2192 35.2599 52.9682 35.2499 53.7172 35.2409 54.3172 34.6259 54.3072 33.8779"/>
        <path d="M50.2563 35.284C50.2663 36.033 50.8803 36.633 51.6293 36.623 52.3783 36.614 52.9783 35.999 52.9683 35.25M31.4761.4461C31.4821.9471 31.8931 1.3471 32.3941 1.3421 32.8951 1.3351 33.2961.9241 33.2891.4231"/>
        <path d="M30.5806 1.3641C30.5866 1.8651 30.9976 2.2661 31.4986 2.2601 31.9996 2.2541 32.4006 1.8431 32.3936 1.3421M117.9839 90.8094C118.3619 91.2454 119.0219 91.2904 119.4569 90.9134 119.8919 90.5354 119.9389 89.8744 119.5599 89.4394"/>
        <path d="M117.8804 92.283C118.2594 92.719 118.9184 92.764 119.3544 92.387 119.7894 92.008 119.8354 91.348 119.4564 90.913M76.3003 76.9158C76.5893 77.5268 77.3193 77.7898 77.9313 77.5008 78.5433 77.2128 78.8053 76.4828 78.5173 75.8708"/>
        <path d="M74.0845,77.9598 C74.3725,78.5718 75.1035,78.8338 75.7155,78.5458 C76.3265,78.2578 76.5895,77.5268 76.3005,76.9158"/>
        <path d="M75.7153,78.5457 C76.0033,79.1577 76.7333,79.4197 77.3453,79.1317 C77.9573,78.8427 78.2193,78.1127 77.9313,77.5007"/>
        <path d="M73.4985 79.5906C73.7875 80.2016 74.5175 80.4646 75.1295 80.1766 75.7405 79.8876 76.0035 79.1576 75.7155 78.5456M77.3452 79.1317C77.6332 79.7437 78.3642 80.0057 78.9762 79.7177 79.5872 79.4287 79.8502 78.6987 79.5612 78.0867M54.1187 9.3309C54.1277 10.0139 54.6877 10.5599 55.3707 10.5509 56.0537 10.5429 56.5987 9.9819 56.5907 9.2999M54.2778 56.0428C54.2858 56.7258 54.8458 57.2718 55.5288 57.2638 56.2118 57.2548 56.7568 56.6938 56.7498 56.0118M67.9614 30.1199C67.9674 30.6379 68.3924 31.0519 68.9094 31.0449 69.4274 31.0389 69.8414 30.6139 69.8344 30.0969M89.9917 8.5623C89.9967 8.9503 90.3147 9.2603 90.7037 9.2553 91.0917 9.2503 91.4017 8.9323 91.3967 8.5443M97.1353 111.7908C97.2603 112.4618 97.9063 112.9038 98.5773 112.7788 99.2483 112.6538 99.6913 112.0088 99.5663 111.3368M63.1069 121.3231C63.1159 122.0721 63.7309 122.6721 64.4799 122.6621 65.2279 122.6531 65.8279 122.0381 65.8189 121.2901"/>
        <path d="M61.7681,122.6961 C61.7771,123.4451 62.3921,124.0451 63.1411,124.0351 C63.8891,124.0261 64.4891,123.4111 64.4801,122.6621"/>
      </g>
      <path fill="#FFF" d="M150.5015,189.375 C151.2185,189.27 152.2715,190.815 152.1585,191.292 C152.0465,191.769 151.9835,193.339 150.8255,193.523 C149.9715,193.66 146.9245,194.017 146.2495,193.361 C145.6275,192.758 146.7945,189.919 150.5015,189.375"/>
      <path stroke="#52267D" stroke-width="1.413" d="M150.5015,189.375 C151.2185,189.27 152.2715,190.815 152.1585,191.292 C152.0465,191.769 151.9835,193.339 150.8255,193.523 C149.9715,193.66 146.9245,194.017 146.2495,193.361 C145.6275,192.758 146.7945,189.919 150.5015,189.375 Z"/>
      <path fill="#E1F2FF" d="M150.7075,189.8037 C151.1305,189.7417 151.7525,190.6547 151.6865,190.9357 C151.6195,191.2167 151.5825,192.1437 150.8985,192.2527 C150.3955,192.3327 148.5975,192.5427 148.1985,192.1567 C147.8315,191.8007 148.5205,190.1247 150.7075,189.8037"/>
      <path fill="#FFF" d="M153.0601,190.1093 C153.0601,190.1093 152.5081,189.8303 151.4311,190.4643 C150.4791,191.0253 149.0591,191.9203 149.4491,193.0053 C149.8391,194.0903 152.8641,193.6473 153.5351,193.4083 C154.2061,193.1693 154.6201,192.4303 154.4921,191.7903 C154.2151,190.3933 153.0601,190.1093 153.0601,190.1093"/>
      <path stroke="#52267D" stroke-width="1.413" d="M153.0601,190.1093 C153.0601,190.1093 152.5081,189.8303 151.4311,190.4643 C150.4791,191.0253 149.0591,191.9203 149.4491,193.0053 C149.8391,194.0903 152.8641,193.6473 153.5351,193.4083 C154.2061,193.1693 154.6201,192.4303 154.4921,191.7903 C154.2151,190.3933 153.0601,190.1093 153.0601,190.1093 Z"/>
      <path fill="#E1F2FF" d="M153.271,190.4931 C153.271,190.4931 152.945,190.3281 152.306,190.7031 C151.743,191.0351 150.902,191.5651 151.133,192.2081 C151.364,192.8501 153.155,192.5881 153.552,192.4461 C153.95,192.3051 154.194,191.8671 154.119,191.4881 C153.955,190.6611 153.271,190.4931 153.271,190.4931"/>
      <path fill="#FFF" d="M124.4077,190.7714 C124.4077,190.7714 123.8557,190.4934 122.7787,191.1264 C121.8267,191.6874 120.4057,192.5834 120.7967,193.6674 C121.1867,194.7524 124.2117,194.3094 124.8827,194.0704 C125.5537,193.8324 125.9667,193.0924 125.8397,192.4524 C125.5627,191.0554 124.4077,190.7714 124.4077,190.7714"/>
      <path stroke="#52267D" stroke-width="1.413" d="M124.4077,190.7714 C124.4077,190.7714 123.8557,190.4934 122.7787,191.1264 C121.8267,191.6874 120.4057,192.5834 120.7967,193.6674 C121.1867,194.7524 124.2117,194.3094 124.8827,194.0704 C125.5537,193.8324 125.9667,193.0924 125.8397,192.4524 C125.5627,191.0554 124.4077,190.7714 124.4077,190.7714 Z"/>
      <path fill="#E1F2FF" d="M124.6187,191.1552 C124.6187,191.1552 124.2927,190.9902 123.6537,191.3662 C123.0907,191.6972 122.2497,192.2272 122.4797,192.8702 C122.7117,193.5122 124.5027,193.2502 124.8997,193.1082 C125.2967,192.9672 125.5417,192.5302 125.4667,192.1502 C125.3027,191.3232 124.6187,191.1552 124.6187,191.1552"/>
      <path fill="#FFF" d="M127.7134,189.9628 C128.4294,189.8588 129.4824,191.4028 129.3694,191.8808 C129.2584,192.3578 129.1954,193.9278 128.0374,194.1118 C127.1834,194.2488 124.1354,194.6048 123.4614,193.9498 C122.8394,193.3468 124.0064,190.5078 127.7134,189.9628"/>
      <path stroke="#52267D" stroke-width="1.413" d="M127.7134,189.9628 C128.4294,189.8588 129.4824,191.4028 129.3694,191.8808 C129.2584,192.3578 129.1954,193.9278 128.0374,194.1118 C127.1834,194.2488 124.1354,194.6048 123.4614,193.9498 C122.8394,193.3468 124.0064,190.5078 127.7134,189.9628 Z"/>
      <path fill="#E1F2FF" d="M127.9194,190.3925 C128.3424,190.3305 128.9634,191.2425 128.8974,191.5245 C128.8314,191.8055 128.7944,192.7315 128.1104,192.8405 C127.6074,192.9215 125.8084,193.1315 125.4104,192.7455 C125.0434,192.3885 125.7314,190.7135 127.9194,190.3925"/>
      <path fill="#FFF" d="M186.3472,188.9492 C186.3472,188.9492 184.9742,187.8592 183.1882,189.3652 C181.5552,190.7402 180.3412,192.8492 181.0822,193.0512 C181.8252,193.2522 183.1282,193.4402 184.4932,193.1722 C185.6782,192.9392 186.7322,193.1552 187.1782,190.6612 C187.3852,189.4992 186.3472,188.9492 186.3472,188.9492"/>
      <path stroke="#52267D" stroke-width=".707" d="M186.3472,188.9492 C186.3472,188.9492 184.9742,187.8592 183.1882,189.3652 C181.5552,190.7402 180.3412,192.8492 181.0822,193.0512 C181.8252,193.2522 183.1282,193.4402 184.4932,193.1722 C185.6782,192.9392 186.7322,193.1552 187.1782,190.6612 C187.3852,189.4992 186.3472,188.9492 186.3472,188.9492 Z"/>
      <path fill="#E1F2FF" d="M186.0425,189.3564 C186.0425,189.3564 185.1885,188.6774 184.0765,189.6154 C183.0615,190.4704 182.3055,191.7834 182.7675,191.9084 C183.2285,192.0344 184.0395,192.1514 184.8885,191.9844 C185.6265,191.8384 186.2815,191.9734 186.5595,190.4214 C186.6885,189.6984 186.0425,189.3564 186.0425,189.3564"/>
      <path fill="#FFF" d="M188.2739,188.9003 C188.9909,188.7953 190.0439,190.3403 189.9309,190.8173 C189.8189,191.2943 189.7569,192.8643 188.5979,193.0483 C187.7449,193.1853 184.6969,193.5423 184.0219,192.8863 C183.3999,192.2833 184.5669,189.4443 188.2739,188.9003"/>
      <path stroke="#52267D" stroke-width=".707" d="M188.2739,188.9003 C188.9909,188.7953 190.0439,190.3403 189.9309,190.8173 C189.8189,191.2943 189.7569,192.8643 188.5979,193.0483 C187.7449,193.1853 184.6969,193.5423 184.0219,192.8863 C183.3999,192.2833 184.5669,189.4443 188.2739,188.9003 Z"/>
      <path fill="#E1F2FF" d="M188.481,189.3291 C188.904,189.2671 189.525,190.1801 189.459,190.4611 C189.392,190.7421 189.356,191.6691 188.672,191.7781 C188.168,191.8581 186.37,192.0681 185.971,191.6831 C185.605,191.3261 186.293,189.6501 188.481,189.3291"/>
      <path fill="#FFF" d="M190.8335,189.6347 C190.8335,189.6347 190.2815,189.3557 189.2035,189.9897 C188.2515,190.5507 186.8315,191.4457 187.2215,192.5307 C187.6115,193.6157 190.6375,193.1727 191.3075,192.9337 C191.9785,192.6957 192.3925,191.9557 192.2645,191.3157 C191.9875,189.9187 190.8335,189.6347 190.8335,189.6347"/>
      <path stroke="#52267D" stroke-width=".707" d="M190.8335,189.6347 C190.8335,189.6347 190.2815,189.3557 189.2035,189.9897 C188.2515,190.5507 186.8315,191.4457 187.2215,192.5307 C187.6115,193.6157 190.6375,193.1727 191.3075,192.9337 C191.9785,192.6957 192.3925,191.9557 192.2645,191.3157 C191.9875,189.9187 190.8335,189.6347 190.8335,189.6347 Z"/>
      <path fill="#E1F2FF" d="M191.0435,190.0185 C191.0435,190.0185 190.7175,189.8535 190.0785,190.2285 C189.5155,190.5605 188.6745,191.0905 188.9055,191.7335 C189.1365,192.3755 190.9275,192.1135 191.3245,191.9715 C191.7225,191.8305 191.9665,191.3925 191.8915,191.0135 C191.7275,190.1865 191.0435,190.0185 191.0435,190.0185"/>
      <path fill="#FFF" d="M137.146,190.5166 C137.368,190.3236 137.635,190.2676 137.858,190.3696 C138.688,190.7466 140.784,191.8276 140.373,193.3286 C140.051,194.4976 139.335,194.1566 137.975,194.1986 L136.949,194.2306 C136.737,194.2376 136.547,194.1296 136.427,193.9366 C135.825,192.9566 136.125,191.4016 137.076,190.5776 L137.146,190.5166 Z"/>
      <path stroke="#52267D" stroke-width="1.413" d="M137.146,190.5166 C137.368,190.3236 137.635,190.2676 137.858,190.3696 C138.688,190.7466 140.784,191.8276 140.373,193.3286 C140.051,194.4976 139.335,194.1566 137.975,194.1986 L136.949,194.2306 C136.737,194.2376 136.547,194.1296 136.427,193.9366 C135.825,192.9566 136.125,191.4016 137.076,190.5776 L137.146,190.5166 Z"/>
      <path fill="#E1F2FF" d="M137.2563,190.8496 C137.4173,190.7096 137.6113,190.6686 137.7743,190.7436 C138.3763,191.0176 139.9003,191.8026 139.6013,192.8936 C139.3673,193.7436 138.8473,193.4956 137.8593,193.5256 L137.1123,193.5486 C136.9583,193.5536 136.8203,193.4756 136.7343,193.3346 C136.2963,192.6226 136.5143,191.4936 137.2053,190.8936 L137.2563,190.8496 Z"/>
      <path fill="#FFF" d="M132.3218,190.1298 C132.3218,190.1298 131.0478,188.9268 129.1388,190.2758 C127.3958,191.5078 126.0078,193.5058 126.7288,193.7698 C127.4518,194.0328 128.7338,194.3308 130.1158,194.1808 C131.3178,194.0488 132.3488,194.3538 133.0058,191.9058 C133.3108,190.7668 132.3218,190.1298 132.3218,190.1298"/>
      <path stroke="#52267D" stroke-width="1.413" d="M132.3218,190.1298 C132.3218,190.1298 131.0478,188.9268 129.1388,190.2758 C127.3958,191.5078 126.0078,193.5058 126.7288,193.7698 C127.4518,194.0328 128.7338,194.3308 130.1158,194.1808 C131.3178,194.0488 132.3488,194.3538 133.0058,191.9058 C133.3108,190.7668 132.3218,190.1298 132.3218,190.1298 Z"/>
      <path fill="#E1F2FF" d="M131.9839,190.5097 C131.9839,190.5097 131.1909,189.7617 130.0039,190.6007 C128.9189,191.3667 128.0539,192.6107 128.5039,192.7747 C128.9539,192.9387 129.7519,193.1237 130.6119,193.0307 C131.3589,192.9477 132.0019,193.1387 132.4099,191.6147 C132.5989,190.9057 131.9839,190.5097 131.9839,190.5097"/>
      <path stroke="#5E63B6" stroke-linecap="round" d="M216.27 81.6279L216.27 85.5659M218.2388 83.5966L214.3008 83.5966"/>
      <path stroke="#5E63B6" stroke-linecap="round" stroke-linejoin="round" stroke-width="2" d="M180.9692 0L180.9692 7M184.4692 3.5L177.4692 3.5"/>
    </g>
    <path fill="#E1F2FF" d="M87.465,129.732 C87.465,143.391 76.392,154.464 62.733,154.464 C49.073,154.464 38,143.391 38,129.732 C38,116.073 49.073,105 62.733,105 C76.392,105 87.465,116.073 87.465,129.732"/>
    <path fill="#FFF" stroke="#5E63B6" stroke-width="2" d="M90.465,124.732 C90.465,138.391 79.392,149.464 65.733,149.464 C52.073,149.464 41,138.391 41,124.732 C41,111.073 52.073,100 65.733,100 C79.392,100 90.465,111.073 90.465,124.732"/>
    <path fill="#4CA8E0" d="M72.169,137.178222 C72.273,137.487222 72.364,137.697222 72.392,137.766222 C72.4,137.773222 72.383,137.762222 72.392,137.766222 C72.392,137.766222 72.392,137.768222 72.392,137.766222 C72.393,137.767222 72.391,137.766222 72.391,137.766222 C71.692,131.026222 75.515,128.217222 76.743,123.740222 C76.749,123.674222 76.762,123.601222 76.782,123.519222 C76.808,123.419222 76.828,123.316222 76.844,123.213222 C77.026,121.974222 76.519,120.532222 75.558,119.031222 C75.554,119.022222 75.547,119.014222 75.542,119.007222 C75.464,118.882222 75.379,118.757222 75.294,118.632222 C75.294,118.632222 75.291,118.630222 75.29,118.627222 C75.133,118.399222 74.964,118.169222 74.787,117.938222 C74.769,117.914222 74.752,117.889222 74.733,117.866222 C74.684,117.803222 74.632,117.741222 74.584,117.678222 C74.532,117.612222 74.482,117.547222 74.431,117.484222 C74.377,117.420222 74.325,117.358222 74.273,117.296222 C74.218,117.230222 74.164,117.166222 74.108,117.100222 C74.071,117.056222 74.03,117.010222 73.99,116.964222 C72.48,115.224222 70.514,113.506222 68.462,112.010222 C68.462,112.010222 68.447,111.987222 68.462,112.010222 C68.734,114.546222 68.768,117.083222 68.528,119.112222 C68.238,121.557222 67.363,124.404222 66.149,126.984222 C63.307,126.751222 60.402,126.093222 58.137,125.126222 C56.244,124.317222 54.074,123.041222 52,121.527222 C52.023,121.738222 52.048,121.946222 52.072,122.157222 C52.08,122.219222 52.089,122.281222 52.097,122.344222 C52.117,122.494222 52.135,122.643222 52.158,122.793222 C52.167,122.862222 52.177,122.931222 52.188,123.000222 C52.21,123.151222 52.232,123.300222 52.257,123.449222 C52.266,123.509222 52.276,123.571222 52.286,123.632222 C52.317,123.821222 52.349,124.009222 52.384,124.196222 C52.386,124.216222 52.388,124.234222 52.393,124.252222 C52.431,124.470222 52.473,124.686222 52.516,124.902222 C52.518,124.919222 52.523,124.934222 52.526,124.951222 C52.566,125.146222 52.605,125.336222 52.647,125.528222 C52.656,125.568222 52.665,125.606222 52.672,125.645222 C52.711,125.820222 52.752,125.994222 52.793,126.168222 C52.802,126.201222 52.811,126.235222 52.818,126.270222 C52.868,126.470222 52.917,126.670222 52.968,126.866222 C52.97,126.867222 52.97,126.869222 52.97,126.869222 C53.138,127.502222 53.322,128.113222 53.521,128.699222 C53.523,128.707222 53.526,128.713222 53.528,128.720222 C53.865,129.699222 54.249,130.601222 54.678,131.390222 C54.741,131.505222 54.805,131.617222 54.87,131.727222 C54.873,131.731222 54.873,131.736222 54.876,131.740222 L54.877,131.741222 C54.936,131.841222 54.996,131.939222 55.055,132.033222 L55.057,132.035222 C55.057,132.035222 55.062,132.042222 55.064,132.046222 C55.128,132.149222 55.194,132.250222 55.261,132.345222 L55.261,132.346222 C55.271,132.360222 55.279,132.371222 55.29,132.385222 C55.291,132.385222 55.289,132.387222 55.29,132.388222 C55.377,132.513222 55.466,132.634222 55.554,132.749222 C55.571,132.768222 55.586,132.787222 55.599,132.805222 C55.604,132.812222 55.61,132.818222 55.615,132.827222 C55.717,132.956222 55.822,133.081222 55.931,133.198222 C56.005,133.281222 56.082,133.359222 56.159,133.435222 C56.191,133.468222 56.226,133.497222 56.258,133.528222 C56.306,133.574222 56.355,133.616222 56.403,133.660222 C56.44,133.692222 56.477,133.720222 56.515,133.751222 C56.561,133.790222 56.609,133.826222 56.656,133.864222 C56.693,133.892222 56.731,133.918222 56.77,133.945222 C56.819,133.980222 56.867,134.012222 56.916,134.046222 C56.953,134.069222 56.992,134.093222 57.03,134.116222 C57.083,134.147222 57.136,134.175222 57.187,134.205222 C57.224,134.225222 57.26,134.243222 57.296,134.261222 C57.356,134.290222 57.416,134.316222 57.478,134.342222 C57.506,134.352222 57.538,134.369222 57.568,134.380222 C57.661,134.417222 57.754,134.448222 57.847,134.474222 C57.911,134.493222 57.964,134.512222 58.015,134.532222 C62.515,135.721222 66.897,133.837222 72.392,137.766222"/>
  </g>
</svg>
